<svg xmlns="http://www.w3.org/2000/svg" viewBox="0 0 326 150"><defs><style>.cls-1{fill:#292d2e;}.cls-2{fill:#231819;}.cls-3{fill:#323536;}.cls-4{fill:#33180f;}.cls-5{fill:#33393e;}.cls-6{fill:#262429;}.cls-7{fill:#5d382b;}.cls-8{fill:#474445;}.cls-9{fill:#604348;}.cls-10{fill:#4f373c;}.cls-11{fill:#583f42;}.cls-12{fill:#505053;}.cls-13{fill:#442f31;}.cls-14{fill:#493d3a;}.cls-15{fill:#100806;}.cls-16{fill:#0a0c0e;}.cls-17{fill:#693729;}.cls-18{fill:#60464e;}.cls-19{fill:#140f0c;}.cls-20{fill:#595b5e;}.cls-21{fill:#5e656b;}.cls-22{fill:#828383;}.cls-23{fill:#71575f;}.cls-24{fill:#68494e;}.cls-25{fill:#866b73;}.cls-26{fill:#464c4e;}.cls-27{fill:#575558;}.cls-28{fill:#6a5057;}</style></defs><title>Asset 5</title><g id="Layer_2" data-name="Layer 2"><g id="Layer_1-2" data-name="Layer 1"><path class="cls-1" d="M136,150h-4c.71-7.28-1.92-15.14,3.77-21.61.48-.54,0-2.3-1.44-1.54-2.83,1.46-2.27-.77-2.29-2-.08-5.63,0-11.27,0-16.9,0-.9-.23-1.91,1.19-2.3,3.7-1,3.88-2.54.78-5.61h0c-1.91-3.94-4.86-7.9,3.32-8.33,3-.16.48-2.26-.14-3.8-.83-2.08-5.49-2.8-3-5.44,2-2.14,3.85,1.49,5.86,2.34a7.51,7.51,0,0,0,1,.25c0,1.83,0,3.65,0,5.47,0,2.76-.72,6,3.89,5.56l.06,2c-1.12.3-3.2-.72-3.15,1s2.11.68,3.27.93c3.54,2.43,1.81,5.65,1.22,8.65-.75,3.77-2.31,7.43-1.32,11.39l-1.49.9.57.59L145,120c2.64.32,1.89,2.34,2,3.94-1.08.53-4.11-1-2.83,2,1.61,3.71.38,7.4.88,11.06l-.05,2C137.22,138.8,140.24,147.36,136,150Z"/><path class="cls-2" d="M322,33.91c2.06-.69,1.84,2.94,4,2.09v71c-2.08-1-1.83,3-4,1.84V79Q322,56.46,322,33.91Z"/><path class="cls-3" d="M134,100c3.1,3.07,2.92,4.6-.78,5.61-1.42.39-1.18,1.4-1.19,2.3,0,5.63-.07,11.27,0,16.9,0,1.27-.54,3.5,2.29,2,1.47-.76,1.92,1,1.44,1.54-5.69,6.47-3.06,14.33-3.77,21.61h-2l.18-73c2.42.74,3.8-1.56,5.82-2,.12,2,1.54,2,3,2h0c.16,1.59-.6,3.64,2,4l0,4a7.51,7.51,0,0,1-1-.25c-2-.85-3.86-4.48-5.86-2.34-2.46,2.64,2.2,3.36,3,5.44.62,1.54,3.13,3.64.14,3.8-8.18.43-5.23,4.39-3.32,8.33l-1.49.92.57.58Z"/><path class="cls-4" d="M6,75.11C5.52,76.48,7.32,79,4,79s-1.54-2.44-2-3.8c-1.12-3,2.44-7-2-9.22V60c4.07-2.26,1-6.11,2-9,4.33-3.77.75-8.77,2-13,3.57,2.12,3.17,6.53,2.69,8.88C4.81,56.29,6.1,65.69,6,75.11Z"/><path class="cls-5" d="M145,137c-.5-3.66.73-7.35-.88-11.06-1.28-2.94,1.75-1.44,2.83-2,.09,1.17.59,2,1.87,2l.18,24h-4c.79-3-2.7-6.09.11-9.09a1.7,1.7,0,0,0,1.82-1.75A1.83,1.83,0,0,0,145,137Z"/><path class="cls-6" d="M145.11,140.91c-2.81,3,.68,6.07-.11,9.09h-9c4.24-2.64,1.22-11.2,8.95-11C145,139.64,145.06,140.28,145.11,140.91Z"/><path class="cls-1" d="M277,0c-1.6,2.5,2.88,1.87,2,4-4.23.7-9.61-2.08-12,4l-3-.11c-.08-.91-.14-1.82-1.41-1.82C266.1,4.16,270.33,3.43,273,0Z"/><path class="cls-7" d="M2,51c-1,2.94,2.05,6.79-2,9V45l1.93-.18Z"/><path class="cls-8" d="M273,69.83H188c0-.59,0-1.18,0-1.77L198,68c4.77.08,9.68.63,13-4,4.17-1.82,9.23-.74,13-4l.06,0c2.12.07,4.26.14,4-3l0-2c2.69,2,5.79,2.15,9,2l0,3v4l-8.68,4H237l17,0a1.87,1.87,0,0,0,2-2l2,0h9l6,0h0C273,67.29,273,68.56,273,69.83Z"/><path class="cls-9" d="M296,108.84h-4c-.13-1.56.52-3.52-2-3.84,0-1,0-2,0-3,0-.66,0-1.33,0-2l1.51-.76L290,98a1.86,1.86,0,0,0-2,2h-2q0-7.48,0-15c0-.67,0-1.34,0-2h2a1.9,1.9,0,0,0,2,2c-.18,1.89-2.68,2.87-2,5.1,0,.62,0,1.23,0,1.84.16,1.18-.62,2.62.94,3.49,1.58-.81.75-2.34,1.1-3.48,3.6-1.51,1.2-4.66,1.9-7,1.44-.52,3.62,2.19,3.44.93-.69-4.84,4.49-4.16,5.6-7l1.54-.75-.79-.79L301.05,79c-1.49-.21-3.18.63-4.62-.9,1.67-1.95,4.92-2.72,4.57-6.07l10-4h2v2a1.83,1.83,0,0,0-2,2c-1.53,2.1-5.76,1.39-5.7,1.78,1.38,8.29-7.1,14.29-5.29,22.34C301.23,101.44,293.4,103.4,296,108.84Z"/><path class="cls-10" d="M313,108.84h-8c-.48-1-1.45-2.07-1.35-3,.7-6.7,2.41-13.24,2.47-20.11,0-1.49.8-7.93,4.25-7.78,5.26.24,5.68-2.13,5.62-5.93,3.71,2.61,2.15,5.92.93,8.93-.77,1.9-1.69,3.34,1.09,4.08,0,.66,0,1.32,0,2-1.53,1.53-5.32,2-2.71,5.51-3,1.38,1.18,4.27-1,5.53C308.8,101.15,308.74,104.69,313,108.84Zm-1.28-27.46c-.12.29-.37.61-.29.81s.48.24.74.36c.12-.26.38-.58.31-.77S312,81.51,311.73,81.38Z"/><path class="cls-7" d="M267,66h-9c.49-2,2.73-3.53,2-6h2c2.09-.27,5.14,1.07,5-3,2-.64,4.95,1.47,6-2h6c2.21,4,6,1,8.94,2q.06,3.5.13,7l0,2c.35,3-.86,4.47-4,4l-3.17,0-3.89-.2A5.42,5.42,0,0,0,273,66h0c0-1.94.3-3.91-2.72-4S266.87,63.67,267,66Zm11.63-.71c-.13-.29-.18-.71-.37-.79s-.53.17-.8.28c.1.27.14.69.34.77S278.34,65.39,278.64,65.28Z"/><path class="cls-11" d="M316,72c.06,3.8-.36,6.17-5.62,5.93-3.45-.15-4.24,6.29-4.25,7.78-.06,6.87-1.77,13.41-2.47,20.11-.1,1,.87,2,1.35,3h-9c-2.61-5.44,5.22-7.4,4-12.73-1.81-8,6.67-14,5.29-22.34-.06-.39,4.17.32,5.7-1.78Z"/><path class="cls-12" d="M148.82,126c-1.28-.08-1.78-.88-1.87-2-.08-1.6.67-3.62-2-3.94h0c-1-4,.57-7.62,1.32-11.39.59-3,2.32-6.22-1.22-8.65L145,98c0-.65,0-1.3,0-2-.11-1.76.26-3.75-.44-5.24-.84-1.8-2.43-3.54-.71-5.21,2-1.95,3.25,1.31,5.09,1.38Z"/><path class="cls-13" d="M313,108.84c-4.27-4.15-4.21-7.69,1.26-10.81,2.21-1.26-2-4.15,1-5.53-2.61-3.56,1.18-4,2.71-5.51.58.47,1.74,1.22,1.68,1.36-3.36,6.62-1,13.68-1.66,20.48Z"/><path class="cls-6" d="M318,108.83c.68-6.8-1.7-13.86,1.66-20.48.06-.14-1.1-.89-1.68-1.36,0-.66,0-1.32,0-2,3.83-.34.14-5.66,4-6v29.83Z"/><path class="cls-13" d="M284,108.86c-2.44.66-3.1-.38-3.05-2.75.16-9,.15-18.07.21-27.1H284l0,6Z"/><path class="cls-5" d="M148.84,87c-1.84-.07-3.09-3.33-5.09-1.38-1.72,1.67-.13,3.41.71,5.21.7,1.49.33,3.48.44,5.24-4.62.47-3.9-2.8-3.9-5.56,0-1.82,0-3.64,0-5.47l0-4c3.11.4,4.4-1,4.05-4.05a1.85,1.85,0,0,0,2-2h1.81Z"/><path class="cls-14" d="M188,68.06c0,.59,0,1.18,0,1.77H156c0-1.28,0-2.56,0-3.84,0-.67,0-1.33,0-2h4l0,2c-.5.34-1.46.86-1.42,1,.68,1.7,2.23.76,3.41,1h19Z"/><path class="cls-10" d="M284,108.86,284,85h2q0,7.5,0,15,0,4.44,0,8.86Z"/><path class="cls-10" d="M284,79h-2.85l-.27-9,3.17,0c.1,1.88,2.63,2.83,1.91,5-1.33,0-1.92.66-2,1.93Z"/><path class="cls-8" d="M156,66v3.84l-6.95.29L149,68l4-2Z"/><path class="cls-11" d="M286,108.85q0-4.42,0-8.86h2a1.85,1.85,0,0,0,2,2c0,1,0,2,0,3-2.54.3-1.84,2.3-2,3.85Z"/><path class="cls-12" d="M288,108.85c.17-1.55-.53-3.55,2-3.85,2.51.32,1.86,2.28,2,3.84Z"/><path class="cls-3" d="M149,68l.06,2.13c-.07,1.62-.15,3.24-.22,4.87H147l0-3V68Z"/><path class="cls-10" d="M273,66a5.42,5.42,0,0,1,4,3.83l-4,0C273,68.56,273,67.29,273,66Z"/><path class="cls-15" d="M6,75.11c.06-9.42-1.23-18.82.7-28.3.48-2.35.88-6.76-2.69-8.88q0-3.85,0-7.71c3,3.71,7.29,7,8.5,11.25.95,3.29,4,4.43,4.53,7.41l.18,3.79-.21,2.47C14,61.59,10.9,68.05,7.74,74.47,7.54,74.87,6.62,74.91,6,75.11Z"/><path class="cls-10" d="M129.91,70.07,113,69.77c1.64-3.39,4.78-1.8,7-1.63,4.89.38,6.73-1.41,5.94-6.14l13,0V70L132,70Z"/><path class="cls-8" d="M126,62c.79,4.73-1,6.52-5.94,6.14-2.26-.17-5.4-1.76-7,1.63l-6,0c0-1.3.07-2.59.1-3.89,3.25-.92,7.31,2.28,9.93-1.93A1.79,1.79,0,0,0,119,62.06c2.71.56,4.8-1,7-2.09Z"/><path class="cls-16" d="M88.91,55.08,53,54.84c0-.6,0-1.21,0-1.82l8.94-.15,4.13.06h1.87l4.2-.14h2.72l2.22.13,14.89.2,0,1.84h0Z"/><path class="cls-14" d="M98.05,69.8l-6,0c0-.62,0-1.24,0-1.86l0,0c3.56-2.85,1.33-7.8,4-11l2-4,0,0h2c.92,4.57-1.14,8.7-1.88,13Z"/><path class="cls-17" d="M92,68c0,.62,0,1.24,0,1.86H84.18c4.14-3,2.28-6.65,3-9.8,8.22,4.55,3.59-3,4.82-5.1h0L96,57c-2.66,3.17-.43,8.12-4,11-.19-1.34.72-3.13-1.3-3.72-1-.27-1.48.5-1.56,1.41C88.94,67.86,90.45,68,92,68Z"/><path class="cls-1" d="M132,70l7-.08,2,0c4,1.66-1.79,3.34,0,5v2h-2c-.35-1.59,1-3.94-1.26-4.61-1.87-.57-1.58,1.42-1.74,2.61-2,.43-3.4,2.73-5.82,2,0-1.66,0-3.32,0-5A1.83,1.83,0,0,0,132,70Z"/><path class="cls-2" d="M98.05,69.8c0-1.26,0-2.52,0-3.78a5.59,5.59,0,0,0,3.75-3.41c.9-1.79-1.25-4.76,2.17-5.6l0,12.81Z"/><path class="cls-13" d="M104,69.82q0-6.4,0-12.81c.12-2,1.52-2,3-2,.05.66.11,1.32.16,2,0,2.35,0,4.69.07,7l-.11,1.94c0,1.3-.06,2.59-.1,3.89Z"/><path class="cls-18" d="M92,54.94c-1.23,2.06,3.4,9.65-4.82,5.1-1.47-2.38,2.24-2.93,1.75-5Z"/><path class="cls-2" d="M17.06,55.14c.07-.82.14-1.65.2-2.47L21,53l4.06-.13L28,53l0,1.79Z"/><path class="cls-19" d="M43,54.84H32c0-.6,0-1.21,0-1.81l3.92-.12h2.14L43,53Z"/><path class="cls-16" d="M51,54.85l-6,0c0-.61,0-1.21,0-1.82l6,0Z"/><path class="cls-16" d="M32,53c0,.6,0,1.21,0,1.81l-4,0c0-.59,0-1.19,0-1.79l0,0,2.28-.21Z"/><path class="cls-15" d="M45,53c0,.61,0,1.21,0,1.82H43V53Z"/><path class="cls-3" d="M132,70a1.83,1.83,0,0,1-1.84,2c-.09-.65-.18-1.3-.26-1.94Z"/><path class="cls-15" d="M51,54.85c0-.63,0-1.25,0-1.88L53,53c0,.61,0,1.22,0,1.82Z"/><path class="cls-12" d="M53,53,51,53l-6,0-2,0-4.93-.07-.84-1.47-1.3,1.47L32,53l-1.71-.25a1.78,1.78,0,0,0-1.93-1.6c-1.51-.25-3-.46-3.32,1.65L21,53c0-.78.07-1.56.11-2.35C28.9,47.67,37,49.74,45,49.13l1,1.46,1.07-1.4h1.86c2,2.56,4.1,2.78,6.14,0l1.89.09c.84,3,3.33,1.29,5,1.75l-.08,1.85Z"/><path class="cls-6" d="M107,55c-1.45,0-2.85.08-3,2-3.42.84-1.27,3.81-2.17,5.6A5.59,5.59,0,0,1,98.07,66c.74-4.33,2.8-8.46,1.88-13q0-3,.08-6c4-2.19,1-5.94,2-8.82l5,0c0,3,.07,6,.1,8.92-.06.64-.11,1.28-.17,1.92-1.27.07-2.67,0-2.8,1.79-.15,2.07,1.31,2.2,2.82,2.23l.15-.06,0,2.08Z"/><path class="cls-20" d="M225.89,20.91c2-3.73,6.47-4.49,9.45-5,4.77-.84,7.27-5.05,11.67-5.76.07,1.31.85,1.83,2.06,1.88L249,15c-1.52.28-3.67-.69-4,2l.1,1.95-3.82.14c-2.2.4-5.13-1.64-6.38,1.92l-8.53.26A4.8,4.8,0,0,0,225.89,20.91Z"/><path class="cls-21" d="M200.07,27.29l25.82-6.38a4.8,4.8,0,0,1,.43.32c-.14.57-.28,1.13-.43,1.7l-1.86.19c-1.31-.09-2.06.46-2.09,1.83l0,0-21.83,5.17C200.08,29.16,200.08,28.23,200.07,27.29Z"/><path class="cls-20" d="M74.85,52.78H72.13A2,2,0,0,0,70,51l0-1.79,19-.29c.1,2,1.51,2.13,3,2.08l0,2.1-14.89-.2L75.8,51.35Z"/><path class="cls-22" d="M109,38.09l12.1,0c2.28,3.87,6,.93,8.92,1.9v1.81l-12.92.29-4,0Q108.67,42.46,109,38.09Z"/><path class="cls-11" d="M92,53.11,92,51c.11-2.09.29-4.22-2.83-4,.82-2.42,4.17-3.74,3-7,1.33.1,1.81,1,1.91,2.15,0,.93,0,1.86,0,2.79.53,2-1.62,4.93,1.89,6A1.93,1.93,0,0,0,98,53l-2,4-4-2.09Z"/><path class="cls-13" d="M4.06,30.22q0,3.86,0,7.71c-1.28,4.25,2.3,9.25-2,13l-.09-6.13c0-3.76-.06-7.53.11-11.29C2.1,32.23,1.08,29.9,4.06,30.22Z"/><path class="cls-14" d="M98,53A1.93,1.93,0,0,1,96,51l0-6c6,.47,3.43-4.1,4-6.82h2c-1,2.88,2,6.63-2,8.82-3.57,1-1.43,4-2,6Z"/><path class="cls-22" d="M175,34.19c4.32-.79,8.33-3.33,13-2.2l2,0v2c-4.61-1-8.38,2.62-12.86,2.36l-2-.21L175,36Z"/><path class="cls-12" d="M249.08,12c-1.22,0-2-.57-2.07-1.88,3.59.41,6.31-1.69,9.12-3.32,1.59-.92,1.87-.5,2,1L258,10c-1.33.14-2.15.72-1.88,2.22l.1-.09H252.1Z"/><path class="cls-7" d="M141,38.18h17c0,.59,0,1.19,0,1.79l-17-.07C141,39.32,141,38.75,141,38.18Z"/><path class="cls-21" d="M70,49.22c0,.59,0,1.19,0,1.79-1.19.09-2,.58-2.07,1.91H66.06C65.54,50.54,63.61,51.14,62,51c-1.72-.46-4.21,1.28-5-1.75Z"/><path class="cls-14" d="M109,38.09q-.28,4.36,4.08,4v2.83l-2,.12a1.77,1.77,0,0,0-2,2v0l-1.93,0c0-3-.06-6-.1-8.92Z"/><path class="cls-8" d="M100,38.19c-.59,2.72,2,7.29-4,6.82l0,0V42.1l0-3.9Z"/><path class="cls-17" d="M158,40c0-.6,0-1.2,0-1.79l3.91-.29,9,.38c0,.5,0,1,0,1.5l-6.94.3h-4Z"/><path class="cls-22" d="M170.92,38.26l-9-.38c2.34-4,6.16-.76,9.09-1.88h4l.12.12C174.81,39,172.35,37.6,170.92,38.26Z"/><path class="cls-21" d="M190,32l-2,0c.06-1,.17-2.23,1.51-1.94,3.39.71,6-.71,8.47-2.71.05,1,.09,1.95.13,2.92,0,.57,0,1.15-.08,1.72l-1.92.08Z"/><path class="cls-20" d="M130,40c-2.9-1-6.64,2-8.92-1.9l13,0v1.73Z"/><path class="cls-5" d="M258,10l.15-2.17,4.44-1.72c1.27,0,1.33.91,1.41,1.83l.06,2-1.83.15L260,10Z"/><path class="cls-20" d="M21.1,50.6c0,.79-.07,1.57-.11,2.35l-3.73-.28c-.05-1.26-.11-2.53-.17-3.79C18.41,49.48,20.5,48.31,21.1,50.6Z"/><path class="cls-5" d="M134,39.92V38.19h7c0,.57,0,1.14-.05,1.71l0,.1L134,40Z"/><path class="cls-22" d="M55.07,49.18c-2,2.8-4.09,2.58-6.14,0Z"/><path class="cls-7" d="M96,38.2c0,1.3,0,2.6,0,3.9l-1.84,0c-.1-1.2-.58-2.05-1.91-2.15C92,36.2,94.71,38.74,96,38.2Z"/><path class="cls-21" d="M89.17,47c3.12-.19,2.94,1.94,2.83,4-1.51.05-2.92-.06-3-2.08Z"/><path class="cls-21" d="M175,36h-4c.13-3.22,2.45-1.63,4-1.81C175,34.79,175,35.4,175,36Z"/><path class="cls-22" d="M198,30.26c0-1-.08-1.94-.13-2.92l2.16-.05c0,.94,0,1.87,0,2.8Z"/><path class="cls-22" d="M47.07,49.19,46,50.59l-1-1.46Z"/><path class="cls-16" d="M267,8c2.43-6.1,7.81-3.32,12-4C289.34,8.7,297,17.16,306.26,23.33c.39.26.4,1.08.59,1.65l-2.88.13L294,25c0-.34,0-.94-.1-1-6-1.1-8.44-7.24-13.93-9.86-4.13-2-6.88-7.24-12.93-6.11Z"/><path class="cls-13" d="M322,79c-3.84.34-.15,5.66-4,6-2.78-.74-1.86-2.18-1.09-4.08,1.22-3,2.78-6.32-.93-8.93h-5a1.83,1.83,0,0,1,2-2c2.9.2,5.63.2,5-4q0-7.48,0-15,0-3,0-6,0-9,0-18.09c3.34,1.2,1.35,5.42,4,7Q322,56.46,322,79Z"/><path class="cls-23" d="M309,25.18l4,0c-3.35,2,.4,8.12-4.78,8.72-3.06.36-3.35,1.89-3.3,4.18L303.1,38c-2.8.23-1.93,2.38-2.09,4-1.86,6.27-7.34,8.76-11,5V42.06c-.16-1.61.79-3.76-2-4.1.59-2-1.44-4.87,1.94-6l.09,2.1A1.8,1.8,0,0,0,292,36C298,33,307.3,35,309,25.18Z"/><path class="cls-11" d="M318,26.9q0,9,0,18.09l-5,0c.32-3.18-1.86-3-4-3h-2c2.52-5.86,11.77-8.13,9-16.83C317.59,24.69,318.13,25.43,318,26.9Z"/><path class="cls-24" d="M316,25.16c2.78,8.7-6.47,11-9,16.83A2,2,0,0,1,305,39.93c0-.62,0-1.24,0-1.87-.05-2.29.24-3.82,3.3-4.18,5.18-.6,1.43-6.72,4.78-8.72Z"/><path class="cls-25" d="M309,25.18C307.3,35,298,33,292,36c0-.64,0-1.28,0-1.92.82-2.91,3.95-3.54,5.78-3.72,3.72-.36,5.94-1.33,6.22-5.25l2.88-.13Z"/><path class="cls-26" d="M145.11,140.91c-.05-.63-.11-1.27-.16-1.9s0-1.34.05-2a1.83,1.83,0,0,1,1.93,2.16A1.7,1.7,0,0,1,145.11,140.91Z"/><path class="cls-6" d="M145,98l.12,2c-1.16-.25-3.22.69-3.27-.93S143.83,98.31,145,98Z"/><path class="cls-19" d="M145,120l-.93,1.48-.57-.59L145,120Z"/><path class="cls-6" d="M139,77h2l4,0,0,0c.35,3.05-.94,4.45-4.05,4.05C138.4,80.64,139.16,78.59,139,77Z"/><path class="cls-6" d="M136,75c.16-1.19-.13-3.18,1.74-2.61,2.24.67.91,3,1.26,4.61C137.54,77,136.12,77,136,75Z"/><path class="cls-1" d="M134,100l-.92,1.5-.57-.58L134,100Z"/><path class="cls-16" d="M264,9.9l-.06-2,3,.1.07.07C267.22,10.62,265.47,10,264,9.9Z"/><path class="cls-17" d="M237,57c-3.17.17-6.27,0-9-2L224,55c-1.83-7.16,5.08-5.57,8-8,0,2.07-.22,4.28,3,4,3.58-1,1.41-3.92,2-5.91l17-.17,13.06.23c-1.54,3.53-4.68,1.21-7,1.92a11.9,11.9,0,0,0-2.46,0c-3.26.62-9.53-1.3-9.25,1.34.47,4.45,6.19,2.1,9.72,2.58L260,51c0,.67,0,1.34,0,2h0c-2,.6-4.94-1.5-6,2-3.66.89-8-2-11.09,2Z"/><path class="cls-12" d="M237,64V60c2.6-1.16,7.08,2.73,8-3l15,0v3h0l-4,2c-3,.53-7.26-4.7-8.91,2Z"/><path class="cls-17" d="M188,68.06,181,68c-.46-3.37,1.29-4,4.3-4.12,2.26-.09,5.4,1.81,6.73-1.91,2.95-.46,5.53.53,8,2l-2,4Z"/><path class="cls-11" d="M237,64h15v2a26.41,26.41,0,0,0-5.34.07c-3.2.66-7.11-2.12-9.62,1.91h-8.71Z"/><path class="cls-11" d="M224,55l4,.07c0,.65,0,1.3,0,2-2.13-.07-4.33-.23-4,3L224,60,217,60c0-1.66.05-3.31.08-5Z"/><path class="cls-7" d="M198,68q1-2,2-4h11v0C207.67,68.61,202.76,68.06,198,68Z"/><path class="cls-7" d="M237,68c2.51-4,6.42-1.25,9.62-1.91A26.41,26.41,0,0,1,252,66h2v2Z"/><path class="cls-17" d="M217,60l7,.08c-3.73,3.24-8.79,2.16-13,4v0c0-1.32,0-2.65,0-4Z"/><path class="cls-10" d="M267,66c-.14-2.32.13-4.13,3.25-4S273,64.07,273,66Z"/><path class="cls-11" d="M245,57c-.91,5.7-5.39,1.81-8,3l0-3,6-.05Z"/><path class="cls-11" d="M255.94,62l4-2c.77,2.47-1.47,3.95-2,6l-2,0h0l0-2Z"/><path class="cls-27" d="M224,60c-.36-3.22,1.84-3.06,4-3C228.29,60.14,226.15,60.07,224,60Z"/><path class="cls-11" d="M254,68V66h2A1.87,1.87,0,0,1,254,68Z"/><path class="cls-18" d="M311,68l-10,4c-4-2.67-5.3-5.87-2-10,1.95-.08,3.58,3.8,5.49,1,1.62-2.37-1.4-2.48-2.6-3.57-.77-.69-.42-2.48-.92-3.62-2-4.52,5.41-4.63,4-8.8a4.68,4.68,0,0,0,6,0,1.9,1.9,0,0,1,2,2C311.51,55.25,314,61.91,311,68Z"/><path class="cls-24" d="M299,62c-3.3,4.13-2,7.33,2,10,.35,3.35-2.9,4.12-4.57,6.07,1.44,1.53,3.13.69,4.62.9l0,0c-1.11,2.82-6.29,2.14-5.6,7,.18,1.26-2-1.45-3.44-.93h0c-.2-1.34.57-3.08-1.28-3.74-1.48-.53-2.49.1-2.71,1.74h-2c0-2,0-4-.05-6.06V75.06c.72-2.2-1.81-3.15-1.91-5,3.12.42,4.33-1,4-4,1.58-.14,3.62.64,4-2C294.73,64.73,295.22,57.59,299,62Z"/><path class="cls-11" d="M311,68c3-6.09.51-12.75,2-19,2.17-.6,3.1,1.84,5,2q0,7.48,0,15c-1.87.14-2.8,2.62-5,2Z"/><path class="cls-28" d="M292,85c-.7,2.3,1.7,5.45-1.9,7l-.18,0c.08-1.34-.54-2-1.88-1.88-.69-2.24,1.81-3.22,2-5.11Z"/><path class="cls-11" d="M286,76.93c0,2,0,4,.05,6.06,0,.67,0,1.34,0,2h-2c0-2,0-4,0-6V77Z"/><path class="cls-8" d="M292,85h-2a1.9,1.9,0,0,1-2-2c.22-1.64,1.23-2.27,2.71-1.74C292.56,81.92,291.79,83.66,292,85Z"/><path class="cls-10" d="M313,68c2.17.61,3.1-1.87,5-2,.65,4.21-2.08,4.21-5,4C313,69.33,313,68.67,313,68Z"/><path class="cls-13" d="M290.09,92c-.35,1.14.48,2.67-1.1,3.48-1.56-.87-.78-2.31-.94-3.49l1.86,0Z"/><path class="cls-17" d="M290,102a2,2,0,1,1,0-4v2C290,100.64,290,101.31,290,102Z"/><path class="cls-2" d="M301.05,79l.73-1.56.79.79L301,79Z"/><path class="cls-4" d="M289.91,92l-1.86,0c0-.61,0-1.22,0-1.84C289.37,90,290,90.66,289.91,92Z"/><path class="cls-27" d="M290,100V98l1.51,1.22Z"/><path class="cls-11" d="M311.73,81.38c.28.13.69.2.76.4s-.19.51-.31.77c-.26-.12-.67-.17-.74-.36S311.61,81.67,311.73,81.38Z"/><path class="cls-28" d="M299,62c-3.78-4.41-4.27,2.73-7,2l-3.92,0q-.07-3.48-.13-7a1.81,1.81,0,0,0-2-2,1.83,1.83,0,0,0-2-2V49.05c2.61-.38,1.8-2.5,2.08-4.07H288a1.84,1.84,0,0,0,2,2c3.68,3.76,9.16,1.27,11-5a2,2,0,0,0,2.09-2.06H305A2,2,0,0,0,307,42h2c1,3.56-4,2.25-4,5,1.37,4.17-6,4.28-4,8.8.5,1.14.15,2.93.92,3.62,1.2,1.09,4.22,1.2,2.6,3.57C302.58,65.8,301,61.92,299,62Z"/><path class="cls-14" d="M245,57l-2.06,0c3.1-4,7.43-1.09,11.09-2,2-.61,5,1.58,6-2h0l2-.11,0,.12c.25,2,1.73,2.14,3.23,1.88,2.39-.4,1.57-2.39,1.76-3.87l2,0c-.13,2.82,4.17,1.17,4,4-1.06,3.49-4,1.38-6,2l-5,0h-2Z"/><path class="cls-27" d="M273,55c.14-2.83-4.16-1.18-4-4l4-2c2-.6,4.94,1.51,6-2l5,2c0,1.31,0,2.62,0,3.93-1.74.5-4.33-1.13-5,2v0Z"/><path class="cls-9" d="M286,55a1.81,1.81,0,0,1,2,2c-2.91-1-6.73,2-8.94-2v0Z"/><path class="cls-17" d="M262,57l5,0c.15,4-2.9,2.7-5,3Z"/><path class="cls-23" d="M288.07,64,292,64c-.34,2.62-2.38,1.84-4,2C288,65.33,288.05,64.68,288.07,64Z"/><path class="cls-11" d="M262,57v3h-2V57Z"/><path class="cls-14" d="M278.64,65.28c-.3.11-.64.35-.83.26s-.24-.5-.34-.77c.27-.11.61-.36.8-.28S278.51,65,278.64,65.28Z"/><path class="cls-26" d="M147,72l0,3a1.85,1.85,0,0,1-2,2l0,0c0-.66,0-1.32,0-2C145,73.55,145,72.09,147,72Z"/><path class="cls-7" d="M192,62c-1.33,3.72-4.47,1.82-6.73,1.91-3,.11-4.76.75-4.3,4.12H162a1.86,1.86,0,0,0-2-2c0-.66,0-1.32,0-2,2.61-.35,1.8-2.42,2-4l6,0h7l10,0,7,.07Z"/><path class="cls-8" d="M162,60c-.21,1.56.6,3.63-2,4h-7C154.93,60.19,158.31,59.73,162,60Z"/><path class="cls-17" d="M160,66a1.86,1.86,0,0,1,2,2c-1.18-.27-2.73.67-3.41-1C158.54,66.85,159.5,66.33,160,66Z"/><path class="cls-20" d="M153,64h3c0,.67,0,1.33,0,2l-3,0C153,65.32,153,64.66,153,64Z"/><path class="cls-2" d="M286,76.93,284,77c0-1.27.63-2,2-1.93Z"/><path class="cls-12" d="M153,64c0,.66,0,1.32,0,2l-4,2-2,0L143,68a5.33,5.33,0,0,1,4-4h6Z"/><path class="cls-5" d="M143,68l4,.07v4c-2,.09-2,1.55-2,3h-4c-1.8-1.66,3.95-3.34,0-5A1.93,1.93,0,0,1,143,68Z"/><path class="cls-26" d="M126,62l0-2c.56-3.91-4.09-4.1-5-7,0-.66,0-1.33,0-2l3,0c2,3,4,3.06,6,0h4c1.49-.32,3.64,1,4.33-1,.36-1.05-1.42-.82-2.3-1-3.36-3.16-6.7-3.23-10,.05l-5,0,0-3.88,24.09,0,0,1.78L145,49v2c0,.68,0,1.37,0,2l0,2c-3.61,0-7.22-.1-10.83,0-1.4.06-3.88-.91-3.74,1.67.09,1.72,1.8,2.93,3.78,3.27,1.74.3,4.2-1,4.78,2.05Z"/><path class="cls-8" d="M139,62c-.58-3-3-1.75-4.78-2.05-2-.34-3.69-1.55-3.78-3.27-.14-2.58,2.34-1.61,3.74-1.67,3.61-.14,7.22,0,10.83,0a1.91,1.91,0,0,0,2,2c.21,2.33,2.35,4.66,0,7a5.33,5.33,0,0,0-4,4,1.93,1.93,0,0,0-2,2l-2,0C139,67.32,139,64.67,139,62Z"/><path class="cls-27" d="M107.19,64c0-2.35,0-4.69-.07-7,4.39,1.47,6.65-2.54,9.94-3.88.71,3-2,6.68,1.9,9A1.79,1.79,0,0,1,117,64C113.73,61.58,110.46,61.13,107.19,64Z"/><path class="cls-3" d="M119,62.06c-3.91-2.31-1.19-6-1.9-9h0L121,53c.88,2.88,5.53,3.07,5,7C123.76,61.08,121.67,62.62,119,62.06Z"/><path class="cls-28" d="M107.19,64c3.27-2.86,6.54-2.41,9.82,0-2.62,4.21-6.68,1-9.93,1.93C107.12,65.28,107.15,64.64,107.19,64Z"/><path class="cls-5" d="M62,51c1.6.12,3.53-.48,4.05,1.91l-4.13-.06C62,52.25,62,51.63,62,51Z"/><path class="cls-5" d="M67.93,52.92C68,51.59,68.81,51.1,70,51a2,2,0,0,1,2.13,1.78Z"/><path class="cls-3" d="M74.85,52.78l1-1.43,1.27,1.56Z"/><path class="cls-26" d="M98,53c.6-2-1.54-5,2-6q0,3-.08,6Z"/><path class="cls-8" d="M92,68c-1.56,0-3.07-.12-2.89-2.28.08-.91.61-1.68,1.56-1.41,2,.59,1.11,2.38,1.3,3.72Z"/><path class="cls-3" d="M141,75h4c0,.65,0,1.31,0,2l-4,0Z"/><path class="cls-21" d="M117.06,53.07c-3.29,1.34-5.55,5.35-9.94,3.88-.05-.66-.11-1.32-.16-2l.09.06,1.51-1.25L107.08,53l-.15.06.15-2c2.49-.44,1.77-2.44,1.93-4v0a1.89,1.89,0,0,0,2-2l2-.12,1.94.13a11.39,11.39,0,0,1,2.11,8Z"/><path class="cls-20" d="M25.05,52.82c.33-2.11,1.81-1.9,3.32-1.65-.12.6-.24,1.21-.35,1.81l0,0Z"/><path class="cls-3" d="M35.93,52.9l1.3-1.47.84,1.47Z"/><path class="cls-2" d="M28,53c.11-.6.23-1.21.35-1.81a1.78,1.78,0,0,1,1.93,1.6Z"/><path class="cls-1" d="M107.08,51l-.15,2c-1.51,0-3-.16-2.82-2.23.13-1.79,1.53-1.72,2.8-1.79C107,49.67,107,50.35,107.08,51Z"/><path class="cls-27" d="M107.08,51c-.06-.68-.11-1.36-.17-2s.11-1.28.17-1.92L109,47C108.85,48.59,109.57,50.59,107.08,51Z"/><path class="cls-9" d="M107.08,53l1.48.83L107.05,55Z"/><path class="cls-3" d="M237.11,21.05c-1.34,3.21-5.18,1.7-7.12,3.78-.47-2.56-2.59-1.57-4.1-1.9.15-.57.29-1.13.43-1.7l8.53-.26Z"/><path class="cls-1" d="M252.11,15.08c-.52,3.61-3.38,1.21-5,2L245,17c.36-2.66,2.51-1.69,4-2Z"/><path class="cls-6" d="M237.11,21.05,234.85,21c1.25-3.56,4.18-1.52,6.38-1.92C241,22,238.64,20.7,237.11,21.05Z"/><path class="cls-5" d="M252.11,15.08,249,15l.09-3,3,.07c0,1,0,2,0,3Z"/><path class="cls-15" d="M245,17l2.15.07c0,1.42-.36,2.36-2,1.88C245,18.26,245,17.61,245,17Z"/><path class="cls-5" d="M224.12,27.05c0,6.08-6.05,1.28-8.56,4.52-1.05,1.35-6.42,3.84-10.46,2.46-2.76.62-4.86-1-7.14-2.05,0-.57.06-1.15.08-1.72l2-.17,21.83-5.17A2.15,2.15,0,0,0,224.12,27.05Z"/><path class="cls-6" d="M224.12,27.05a2.15,2.15,0,0,1-2.21-2.13l0,0A1.83,1.83,0,0,0,224,23.12l1.86-.19c1.51.33,3.63-.66,4.1,1.9C227.86,25.11,226.76,28.13,224.12,27.05Z"/><path class="cls-3" d="M224,23.12A1.83,1.83,0,0,1,221.94,25C222,23.58,222.72,23,224,23.12Z"/><path class="cls-19" d="M145.07,45.16l-24.09,0-3.92-.22V42.14L130,41.85l4,0,7,.05,19.09-.07h4l35.95.36v2.67l-23,.21-2,0Z"/><path class="cls-1" d="M117.05,42.14c0,.92,0,1.85,0,2.77l-2.09.15L113,44.93V42.1Z"/><path class="cls-25" d="M134,41.87l-4,0V40l4.07-.12v0C134,40.61,134,41.24,134,41.87Z"/><path class="cls-17" d="M96,45l0,6c-3.51-1.12-1.36-4-1.89-6L96,45Z"/><path class="cls-2" d="M96,45l-1.87,0c0-.93,0-1.86,0-2.79l1.84,0C96,43.05,96,44,96,45Z"/><path class="cls-5" d="M198,38l1.91.24-.13,1.5a44.05,44.05,0,0,1-16.59-1.57c-1.64,0-3.61-.9-4.29,1.63h-1.88l0-3.46c4.48.26,8.25-3.36,12.86-2.36L192,34C191.36,39.41,195.39,37.66,198,38Z"/><path class="cls-26" d="M177.09,36.33l0,3.46-6.1,0c0-.5,0-1,0-1.5,1.43-.66,3.89.71,4.2-2.14Z"/><path class="cls-8" d="M192,34,190,34V32l6.09.05C195.58,34.48,193.61,33.86,192,34Z"/><path class="cls-2" d="M252.05,15.1c0-1,0-2,0-3h4.09C256.6,15.56,254.09,15,252.05,15.1Z"/><path class="cls-2" d="M260,11.85l-3.93.33c-.27-1.5.55-2.08,1.88-2.22l2,0C260,10.62,260,11.24,260,11.85Z"/><path class="cls-24" d="M160.07,41.85,141,41.92c0-.64,0-1.29,0-1.93l0-.1L158,40l2.08.11C160.06,40.66,160.06,41.25,160.07,41.85Z"/><path class="cls-27" d="M111,45.05a1.89,1.89,0,0,1-2,2A1.77,1.77,0,0,1,111,45.05Z"/><path class="cls-22" d="M171,39.76l6.1,0H179c1.67.1,3.57.8,4.28-1.63a44.05,44.05,0,0,0,16.59,1.57L207,40l0,1.86.1.26-7.09.07L164,41.86v-1.8Z"/><path class="cls-25" d="M164,40.06v1.8h-4c0-.6,0-1.19,0-1.78Z"/><path class="cls-6" d="M192,34c1.57-.17,3.54.45,4-2L198,32c2.28,1.05,4.38,2.67,7.14,2.05-.07,3-2.39,1.64-3.84,2s-3.5-.85-3.22,2C195.39,37.66,191.36,39.41,192,34Z"/><path class="cls-15" d="M260,11.85c0-.61,0-1.23,0-1.84l2.19,0C262.08,11.39,261.75,12.47,260,11.85Z"/><path class="cls-23" d="M141,40c0,.64,0,1.29,0,1.93l-7-.05c0-.63.05-1.26.07-1.9Z"/><path class="cls-22" d="M291.94,25.17,294,25l9.94.11c-.28,3.92-2.5,4.89-6.22,5.25-1.83.18-5,.81-5.78,3.72h-2l-.09-2.1c0-1.71,0-3.42,0-5.13l-.06.11C291.19,27.09,291.93,26.55,291.94,25.17Z"/><path class="cls-10" d="M318,51c-1.86-.18-2.79-2.62-5-2a1.9,1.9,0,0,0-2-2,1.89,1.89,0,0,1,2-2l5,0Q318,48,318,51Z"/><path class="cls-28" d="M289.93,26.85c0,1.71,0,3.42,0,5.13-3.38,1.11-1.35,4-1.94,6v0l-2,0c0-1.38-.8-2-2.11-2C286,33,286.44,28.89,289.93,26.85Z"/><path class="cls-14" d="M290,47a1.84,1.84,0,0,1-2-2c0-1,0-2,0-3l2,.05Z"/><path class="cls-14" d="M303.1,39.93A2,2,0,0,1,301,42c.16-1.61-.71-3.76,2.09-4Z"/><path class="cls-22" d="M290,42.06,288,42l0-4v0C290.77,38.3,289.82,40.45,290,42.06Z"/><path class="cls-14" d="M290,34.08h2c0,.64,0,1.28,0,1.92A1.8,1.8,0,0,1,290,34.08Z"/><path class="cls-25" d="M303.1,39.93V38l1.83.06c0,.63,0,1.25,0,1.87Z"/><path class="cls-24" d="M313,45a1.89,1.89,0,0,0-2,2,4.68,4.68,0,0,1-6,0c0-2.75,5-1.44,4-5C311.11,41.94,313.29,41.79,313,45Z"/><path class="cls-19" d="M254,44.88l-17,.17-20,0H207l.07-.19c0-.91,0-1.82,0-2.73l-.1-.26,6-.09h11L237,41.9h6l3.94,0,7,.19Z"/><path class="cls-7" d="M217,45.08l20,0c-.64,2,1.53,5-2,5.91.14-2.17.14-4.21-3-4-2.91,2.41-9.82.82-8,8h-7L217,51c-2.48-1.35,6.8-2.67,0-4Z"/><path class="cls-12" d="M273,49l-4,2-2,0c-2.2-.69-3.13,1.82-5,2l0-.12a1.79,1.79,0,0,0-2-1.9l-1.94,0L260,47c2.31-.71,5.45,1.61,7-1.92l0-.19,4,.24c.06,1.26.79,1.78,2,1.84Z"/><path class="cls-7" d="M260,47l-2,3.92c-3.53-.48-9.25,1.87-9.72-2.58-.28-2.64,6-.72,9.25-1.34A11.9,11.9,0,0,1,260,47Z"/><path class="cls-2" d="M254,44.88c0-.92,0-1.84,0-2.77l6.08-.24,7,.3,0,2.75,0,.19Z"/><path class="cls-28" d="M260,53c-1,3.58-4,1.39-6,2C255.07,51.5,258,53.6,260,53Z"/><path class="cls-10" d="M232,47c3.1-.25,3.1,1.79,3,4C231.78,51.28,232,49.07,232,47Z"/><path class="cls-28" d="M260,51a1.79,1.79,0,0,1,2,1.9L260,53C260,52.34,260,51.67,260,51Z"/><path class="cls-5" d="M255.94,62,256,64l-4,0h-5C248.68,57.34,252.94,62.57,255.94,62Z"/><path class="cls-11" d="M192,62c0-.65,0-1.3,0-1.95,1.32-.26,3.14.63,3.74-1.27.38-1.22-.72-1.58-1.73-1.76.38-2.59,2.42-1.83,4-2,2.95-.93,6.76,2.07,9-2h2a1.86,1.86,0,0,0,2,2c-.35,2.61-2.41,1.83-4,2-2.15-.09-4.28-.15-4,3-.76.21-2,.19-2.2.67-.62,1.21.65,1.32,1.34,1.26,1.78-.18,4.21,1.1,4.86-1.93l4,0c0,1.32,0,2.65,0,4H200C197.55,62.5,195,61.51,192,62Z"/><path class="cls-12" d="M252,64l4,0,0,2h-4Z"/><path class="cls-12" d="M211,60l-4,0h0V57c1.58-.17,3.64.61,4-2l6,0h0c0,1.66-.05,3.31-.08,5Z"/><path class="cls-8" d="M284,49.05l-5-2h0c0-.62,0-1.24,0-1.87l7-.15h.17C285.82,46.55,286.63,48.67,284,49.05Z"/><path class="cls-23" d="M288,38l0,4c0,1,0,2,0,3h-2c0-1,0-1.91,0-2.86,0-1.38,0-2.76.05-4.14l0,0Z"/><path class="cls-5" d="M286,55l-7,0c.69-3.13,3.28-1.5,5-2A1.83,1.83,0,0,1,286,55Z"/><path class="cls-3" d="M262,53c1.86-.17,2.79-2.68,5-2-.19,1.48.63,3.47-1.76,3.87C263.73,55.16,262.25,55.06,262,53Z"/><path class="cls-18" d="M273,49V47h6C277.94,50.51,275,48.4,273,49Z"/><path class="cls-27" d="M147,64c2.35-2.33.21-4.66,0-7h0l2,0c3.25.48,5.62-2.9,8.95-2l4,0c1.05,3.52,4,1.4,6,2l0,3-6,0c-3.72-.3-7.1.16-9,4Z"/><path class="cls-12" d="M194,57c1,.18,2.11.54,1.73,1.76-.6,1.9-2.42,1-3.74,1.27L185,60c.25-3.15-1.92-3-4-3,.39-2.59,2.45-1.8,4-2h5C190.36,57.6,192.41,56.82,194,57Z"/><path class="cls-26" d="M181,57c2.1,0,4.27-.17,4,3q-5,0-10,0c0-1,0-2,0-3h6Z"/><path class="cls-11" d="M175,57c0,1,0,2,0,3h-7c0-1,0-2,0-3h0Z"/><path class="cls-21" d="M145.07,45.16H175c-3.13,2.84-7.33,2.63-11,3.88l-11-.1c-1.88-3.81-5.37-1.12-8-2Z"/><path class="cls-7" d="M158,55c-3.33-.88-5.7,2.5-8.95,2l-1.26-1.52L147,57h0a1.91,1.91,0,0,1-2-2c0-.65,0-1.3,0-2l4-.1,2,0,5,0A1.88,1.88,0,0,1,158,55Z"/><path class="cls-12" d="M115,45.06l2.09-.15,3.92.22L121,49v2c0,.66,0,1.33,0,2l-3.92.07A11.38,11.38,0,0,0,115,45.06Z"/><path class="cls-8" d="M134,51h-4l-2,0a1.87,1.87,0,0,0-2-2c3.32-3.28,6.66-3.21,10-.05A2,2,0,0,0,134,51Z"/><path class="cls-12" d="M156,53l-5,0c.6-5.26-3.28-3.68-6-3.91l0-2.08c2.6.87,6.09-1.82,8,2C152.69,51.24,156.22,50.72,156,53Z"/><path class="cls-20" d="M145,49c2.69.23,6.57-1.35,6,3.91l-2,0c-.41-2.55-2.43-1.78-4-2Z"/><path class="cls-11" d="M126,49a1.87,1.87,0,0,1,2,2l-4,0-3,0V49Z"/><path class="cls-27" d="M124,51l4,0,2,0C128,54.08,126,54.07,124,51Z"/><path class="cls-5" d="M134,51a2,2,0,0,1,2-2.07c.88.2,2.66,0,2.3,1C137.62,52,135.47,50.69,134,51Z"/><path class="cls-27" d="M145,51c1.57.17,3.59-.6,4,2l-4,.1C145,52.37,145,51.68,145,51Z"/><path class="cls-23" d="M224,41.81H213l0-1.8,0-1.79,7-.07c.44,2.58,2.45,1.69,4,1.83l0,.05Z"/><path class="cls-21" d="M254,38.18l13,0,.06,1.73-7.16.09-5.91,0Z"/><path class="cls-20" d="M224,38.15h13c0,.59,0,1.19,0,1.79L224,40l0-.05C224,39.37,224,38.76,224,38.15Z"/><path class="cls-20" d="M213,38.21c0,.59,0,1.19,0,1.79l-6,0-7.18-.3c0-.5.08-1,.13-1.5Z"/><path class="cls-26" d="M277,38.18l3.89-.22L284,38c0,.64,0,1.27,0,1.91l-7-.12C277,39.26,277,38.72,277,38.18Z"/><path class="cls-20" d="M254,38.18l0,1.76-7.1,0,.05-1.77Z"/><path class="cls-8" d="M267.09,39.89,267,38.16l6,0c0,.53,0,1.06,0,1.59Z"/><path class="cls-26" d="M237,40V38.16h6c0,.56,0,1.13,0,1.7L237,40Z"/><path class="cls-14" d="M284,38,280.89,38c-.15-2.35,1.61-1.9,3-2,1.31,0,2.09.66,2.11,2l0,0Z"/><path class="cls-7" d="M273,39.78c0-.53,0-1.06,0-1.59h4c0,.54,0,1.08,0,1.63Z"/><path class="cls-5" d="M243.06,39.86l0-1.7,3.95,0-.05,1.77L247,40l-4,.06Z"/><path class="cls-26" d="M224,38.15c0,.61,0,1.22,0,1.82-1.55-.14-3.56.75-4-1.83Z"/><path class="cls-12" d="M291.94,25.17c0,1.38-.75,1.92-2.07,1.79C289.94,25.65,290.25,24.61,291.94,25.17Z"/><path class="cls-20" d="M164,49c3.68-1.25,7.88-1,11-3.88l2,0c.47,2.49,2.5,1.71,4.05,1.93v2c-1.45,3.86,3.53,3.42,4,6-1.58.19-3.64-.6-4,2h-2c0-.66,0-1.33,0-2,1-3.85-2.39-4.52-4.48-5.1-2.46-.68-1,2-1.5,3.1-2.74.73-4.77-1.09-7.06-2L164,51Z"/><path class="cls-11" d="M181,47c-1.55-.22-3.58.56-4.05-1.93l23-.21h7.08l-.07.19c0,.63,0,1.27,0,1.9-2.31.74-5.55-1.7-7,2h-6C190.23,44.73,185.28,48.09,181,47Z"/><path class="cls-2" d="M207.05,44.88H200V42.22l7.09-.07C207.06,43.06,207.06,44,207.05,44.88Z"/><path class="cls-26" d="M183.23,38.16c-.71,2.43-2.61,1.73-4.28,1.63C179.62,37.26,181.59,38.15,183.23,38.16Z"/><path class="cls-25" d="M207,40l6,0,0,1.8-6,.09C207,41.27,207,40.65,207,40Z"/><path class="cls-23" d="M246.92,39.91l7.1,0,5.91,0c0,.63.09,1.26.13,1.89l-6.08.24-7-.19c0-.64,0-1.29,0-1.93Z"/><path class="cls-28" d="M224,40,237,40v0c0,.63,0,1.27,0,1.9L224,41.81Z"/><path class="cls-9" d="M207,47c0-.63,0-1.27,0-1.9h10L217,47Z"/><path class="cls-25" d="M237,41.9c0-.63,0-1.27,0-1.9l6.05-.14-.08.19c0,.61,0,1.23,0,1.84Z"/><path class="cls-22" d="M243,41.89c0-.61,0-1.23,0-1.84l4-.06c0,.64,0,1.29,0,1.93Z"/><path class="cls-17" d="M207,47l10,0c6.79,1.37-2.49,2.69,0,4l-6,0-4,0c-1.5-3.7-4.72-1.23-7-2C201.45,45.27,204.69,47.71,207,47Z"/><path class="cls-8" d="M211,51l6,0L217,55l-6,0a1.86,1.86,0,0,1-2-2A1.85,1.85,0,0,0,211,51Z"/><path class="cls-19" d="M285.94,42.13c0,.95,0,1.9,0,2.86l-7,.15-7.92,0-4-.24,0-2.75,17-.26Z"/><path class="cls-20" d="M271,45.16l7.92,0c0,.63,0,1.25,0,1.87h-6C271.82,46.94,271.09,46.42,271,45.16Z"/><path class="cls-22" d="M284,41.91l-17,.26-7-.3c0-.63-.09-1.26-.13-1.89l7.16-.09,5.92-.11,4,0,7,.12Z"/><path class="cls-8" d="M200,49c2.32.74,5.54-1.73,7,2-2.93,1-6.78-2-9,2l0,2c-1.58.16-3.62-.6-4,2-1.58-.17-3.63.61-4-2v0c2.74-1,2.5-4.11,4-6Z"/><path class="cls-27" d="M198,53c2.24-4.08,6.09-1,9-2l4,0a1.85,1.85,0,0,1-2,2H198Z"/><path class="cls-7" d="M198,53h9c-2.25,4.06-6.06,1.06-9,2Z"/><path class="cls-27" d="M207,60c-.65,3-3.08,1.75-4.86,1.93-.69.06-2,0-1.34-1.26.24-.48,1.44-.46,2.2-.67h4Z"/><path class="cls-8" d="M207,60h-4c-.26-3.14,1.87-3.08,4-3C207,58,207,59,207,60Z"/><path class="cls-21" d="M284,41.91l0-2c0-.64,0-1.27,0-1.91l2,0c0,1.38,0,2.76-.05,4.14Z"/><path class="cls-11" d="M164,49,164,51A1.91,1.91,0,0,0,162,53v2l-4,0a1.88,1.88,0,0,0-2-2c.24-2.25-3.29-1.73-3-4Z"/><path class="cls-21" d="M168,57c-2-.61-5,1.51-6-2v0c2,.63,5-1.5,6,2Z"/><path class="cls-8" d="M147,57l.76-1.54L149,57Z"/><path class="cls-21" d="M185,55c-.48-2.57-5.46-2.13-4-6,4.33,0,9.12-.7,9,6v0Z"/><path class="cls-12" d="M168,57c-1.05-3.54-4-1.41-6-2V53c1.53-.25,3.67.69,3.95-2,2.29.89,4.32,2.71,7.06,2,2,.54,3.52,2.72,6,2,0,.66,0,1.33,0,2h-4Z"/><path class="cls-27" d="M190,55c.13-6.68-4.66-6-9-6V47c4.28,1.06,9.23-2.3,13,2C192.49,50.87,192.73,53.93,190,55Z"/><path class="cls-26" d="M179,55c-2.46.72-3.94-1.46-6-2,.49-1.11-1-3.78,1.5-3.1C176.6,50.48,180,51.15,179,55Z"/><path class="cls-17" d="M166,51c-.28,2.7-2.42,1.76-3.95,2A1.91,1.91,0,0,1,164,51Z"/></g></g></svg>