<svg xmlns="http://www.w3.org/2000/svg" viewBox="0 0 272.69 160"><defs><style>.cls-1{fill:#3c4033;}.cls-2{fill:#0e1f17;}.cls-3{fill:#253b26;}.cls-4{fill:#26291c;}.cls-5{fill:#030906;}.cls-6{fill:#0b1711;}.cls-7{fill:#12291f;}.cls-8{fill:#23573e;}.cls-9{fill:#173222;}.cls-10{fill:#080b09;}.cls-11{fill:#1a412e;}.cls-12{fill:#2e302c;}.cls-13{fill:#646464;}.cls-14{fill:#4d5250;}.cls-15{fill:#c3c2c2;}.cls-16{fill:#3e5a41;}.cls-17{fill:#76847c;}.cls-18{fill:#29694b;}.cls-19{fill:#48482f;}.cls-20{fill:#357f5c;}.cls-21{fill:#4c4d44;}.cls-22{fill:#969891;}.cls-23{fill:#8ccc98;}.cls-24{fill:#a7aba7;}.cls-25{fill:#7d756a;}.cls-26{fill:#492f11;}.cls-27{fill:#63766b;}.cls-28{fill:#4f7655;}</style></defs><title>Asset 8</title><g id="Layer_2" data-name="Layer 2"><g id="Layer_1-2" data-name="Layer 1"><path class="cls-1" d="M238.9,10,245,0h22c.37,4.42-3,6.91-5.16,10-4.14,0-8.31-.24-12.43.07-2.13.16-5.18-1.75-6.29,2L243,12Z"/><path class="cls-2" d="M183,157.84c-5.22,0-10.44.06-15.66.18-1.38,0-3.57-.92-3.34,2h-6c.15-2.91-6.43-1.53-3.84-6L181,154Z"/><path class="cls-3" d="M2,65.85,0,66V55l1.89,0c.16,1.5.31,3,.51,4.81L5.89,57,6,57c1.46,3.93-2.94,4.51-4,7Z"/><path class="cls-4" d="M1.88,55,0,55V49l2,.18L2,51v4Z"/><path class="cls-5" d="M181,154l-26.84,0V135c6.52,0,8.9,5.12,8.68,9.75-.35,7.66,7.43.25,8.13,5.12.05.35,3.27.42,4.34-1.88.68-1.47,1.55-2.46-.09-3.75-1.8-1.41-1.86-2.83-.06-4.45,5.4-4.87-.41-10.39.76-15.52,0,0-.6-.19-.91-.29.91-2.94,2.92-4.26,6-4h0q0,6,0,12c-.07,1.47,0,2.87,1.95,3,0,3-1.18,6.86.24,8.8C186.83,148.67,183,151,181,154Z"/><path class="cls-6" d="M175,124c.31.1.91.26.91.29-1.17,5.13,4.64,10.65-.76,15.52-1.8,1.62-1.74,3,.06,4.45,1.64,1.29.77,2.28.09,3.75-1.07,2.3-4.29,2.23-4.34,1.88-.7-4.87-8.48,2.54-8.13-5.12.22-4.63-2.16-9.73-8.68-9.75,0-1,0-2,0-3,2.19.12,3.73-.12,3.95-3.05.3-4,1.24-8,1.91-11.95l4-2h2c0,2.33,0,4.67,0,7-6-.42-3.8,4.15-3.88,6.9-.06,2-1.62,5.57,1.75,5.71,3.64.16,1.58-3.51,2.09-5.45.31-1.2-.16-3.18,1.79-2.75,1.35.29,3.49,1.46,2.2,3.47-2.23,3.48-.43,6.22,1,9.12l-1.49.92.57.58L171,139c1.7-.14,3.44-2.12,3.17-2.55-2.81-4.45.28-8.34.82-12.44Z"/><path class="cls-6" d="M137,86.83H53c-.26-1.64.8-4.76-2.91-2.26-1.33.9-3.63,1-4.58-.31C43.27,81.07,40.67,82.33,38,83c-.94-5.06,1.35-6.73,6.15-6A35.48,35.48,0,0,0,49,77c0,2-.21,3.89,2.77,4s3.37-1.71,3.24-4c.13-2,1.53-2,3-2,0,.66,0,1.32,0,2,1.14,2.75-2.94,8.12,4,8H94l8,0h13l22,0Z"/><path class="cls-7" d="M139,100.12l-2-.29c-.5-.57-1-1.58-1.53-1.66-6.35-.85-12.88.43-19.17-1.49-.27-.08-1.08.51-1.05.7.68,4.66-4.85,7.05-4.25,11.65l-2.09,0,0,.07c1.06-2.84-2.24-4.48-1.93-7.1,1.58-1.7-1.19-4.85,2-6l.92,1.5.58-.58L109,96c3.78-4.28,8.73-.9,13-2h26.32l.06,1.4-5.18,1.33c2.24,2,4.5.82,6.44,1.3,2.8.68,6.35-1.94,8.44,1.89L158,100H141l-.84-1.53C139.76,99,139.36,99.58,139,100.12Z"/><path class="cls-5" d="M149.06,100H158c0,1.65,0,3.31.07,5-5.76,5,2.58,7.82,1.95,12-.67,4-1.61,7.94-1.91,11.95-.22,2.93-1.76,3.17-3.95,3.05,1.33-6.09-5.06-10.69-3.21-16.87-.71-2.71,2-6.22-1.93-8.17C149,104.64,149,102.33,149.06,100Z"/><path class="cls-8" d="M117,90.16,150.9,90c2.14-.23,5.17,1.1,5.12-2.94l4-1.92c.06,1.42.13,2.84.19,4.24,5.32-1.07,10.11-3.24,15.35-2.17,1.48.31,1.33,1.67,1.43,2.79l-2.07.18-1.81-.05c-3.8-.74-6,2.31-8.73,3.88-5.06,2.92-8.57-2-13-2-9.8.1-19.6,0-29.4,0l-5,0Z"/><path class="cls-2" d="M111,109c-.6-4.6,4.93-7,4.25-11.65,0-.19.78-.78,1.05-.7,6.29,1.92,12.82.64,19.17,1.49.58.08,1,1.09,1.53,1.66-2.63.06-5.34.5-7.9.09-7.09-1.13-8.09,4-10.28,8.72-1.25,2.71-.21,6.63-3.82,8.2a1.76,1.76,0,0,0-2.1-1.78l0,.06C113.77,112.61,111.58,111.08,111,109Z"/><path class="cls-4" d="M49,77A35.48,35.48,0,0,1,44.15,77c-4.8-.7-7.09,1-6.15,6-.3,2.56-2.35,1.78-3.86,2-.09-1.33-.17-2.65-.26-4,1.08-3.32,1-6.42-1.72-9l-.3-4A2,2,0,0,0,34,66l2,0c.63,2-1.51,5,2,6,.15,1-.27,2.55,1.27,2.71,2,.2,1.56-1.54,1.73-2.71,5.41,4.26,10.92,3.48,14-2,1.46,0,2.9,0,3,2,0,1,0,2,0,3-1.46,0-2.86,0-3,2Z"/><path class="cls-9" d="M117,92l5,0v2c-4.26,1.1-9.21-2.28-13,2h0c-3.19,1.17-.42,4.32-2,6l-2.11,0,0,0c0-2.14-1.55-2.11-3.06-2.07-1.49.2-2.11-.46-1.92-1.93,0-1.21-.48-2-1.79-2.09l-.26-2C104.05,91.28,110.59,92.14,117,92Z"/><path class="cls-2" d="M160,85.11,156,87l-5.13,0L137,86.83c0-.61,0-1.21,0-1.81,2.62-.86,6.16,1.92,8-2,3.49,0,7-.32,10.46.09,2.84.33,6.33-2,8.47,1.75Z"/><path class="cls-10" d="M2,65.85l0-1.82A44.42,44.42,0,0,0,15,62c1.88,3.89,5.38,1.17,8,2h3c1.61.18,3.74-.61,4,2.14Z"/><path class="cls-10" d="M34.14,85c1.51-.24,3.56.54,3.86-2,2.67-.67,5.27-1.93,7.51,1.26,1,1.34,3.25,1.21,4.58.31,3.71-2.5,2.65.62,2.91,2.26-5.38.06-10.76.15-16.14.16C35.58,87,33.6,87.64,34.14,85Z"/><path class="cls-11" d="M117,92c-6.43.15-13-.71-19.11,2.08l0,0a1.8,1.8,0,0,0-2-2l0,0,0-1.91,21,0Z"/><path class="cls-12" d="M149,107c3.92,2,1.22,5.46,1.93,8.17l-6-.31c0-1.92,0-3.85,0-5.78C144.79,105.39,149.18,110.61,149,107Z"/><path class="cls-6" d="M30,66.13c-.23-2.75-2.36-2-4-2.14,3.93-4.3,6.06-1.48,8,2a2,2,0,0,1-2.16,2C30.41,68.23,29.76,67.59,30,66.13Z"/><path class="cls-6" d="M32.16,72c2.7,2.61,2.8,5.71,1.72,9C29.94,78.68,32.91,75,32.16,72Z"/><path class="cls-2" d="M104.89,102.06l2.11,0c-.31,2.62,3,4.26,1.93,7.1C105.3,108.07,104.68,105.3,104.89,102.06Z"/><path class="cls-10" d="M111,109c.59,2,2.78,3.58,1.94,6.09a5.37,5.37,0,0,1-4-6.07Z"/><path class="cls-11" d="M150.89,87.06,156,87c0,4-3,2.71-5.12,2.94C150.9,89,150.89,88,150.89,87.06Z"/><path class="cls-6" d="M143,109.06c-4-1.37-1-4.77-2-7l.14-.09c3.67,1.47,1.16,4.69,2,7Z"/><path class="cls-2" d="M145,109c0,1.93,0,3.86,0,5.78-4.37-.62-.75-4-2-5.76l.09-.12Z"/><path class="cls-2" d="M139,100.12c.41-.54.81-1.09,1.22-1.64L141,100c0,.65,0,1.3.05,2l-.14.09C139.49,102.2,138.76,101.63,139,100.12Z"/><path class="cls-2" d="M101.88,100c1.51,0,3-.07,3.06,2.07C103.59,101.91,101.71,102.49,101.88,100Z"/><path class="cls-6" d="M98.17,96c1.31.08,1.79.88,1.79,2.09C98.58,98.09,97.58,97.74,98.17,96Z"/><path class="cls-7" d="M96,90.18l0,1.91c-.84-.16-2.1.11-1.81-1.32C94.2,90.46,95.34,90.37,96,90.18Z"/><path class="cls-9" d="M95.9,92.06a1.8,1.8,0,0,1,2,2C96.5,94.19,95.81,93.5,95.9,92.06Z"/><path class="cls-5" d="M112.89,115.06a1.76,1.76,0,0,1,2.1,1.78C113.3,117.42,112.9,116.47,112.89,115.06Z"/><path class="cls-10" d="M257.84,19c-.94,6.2-4.68,11.27-6.74,17-1.53,4.26-3.16,7.7-7.88,9.92-3.63,1.72-6.92.13-10.19,1.16-.67-3.3-3.26-1.72-5.11-2l-2,.1L222,45c-.28-1.9,1.44-2.82,2-4.22,1.64-3.82,6.06-6.06,6-10.78,2.18.15,3.19-.84,3-3,2.85-5.32,9.27-8.26,10-15l.13.06C250.39,9.36,253.15,16.21,257.84,19ZM250,27c-2.18.37-3.28-1.3-4.56-2.52-1.09-1-2.09-1.14-2.87.1-1.79,2.86,1.51,5.37.67,8.2.54.09,1.45.4,1.56.22,1.43-2.28,5.35-2.4,5.2-6l1.5-.92-.58-.58Z"/><path class="cls-7" d="M158.06,105c0-1.65,0-3.31-.07-5l.08-.09c4.65-3.33,12.24-1,15-7.89l0,.1c.93,1.53,1,4.92,4.06,1.88,6.3,3.57,10.13,2.86,10.86-2,5.24-1.33,7.68,1,8,6.11l-.21,1.9c-2.57.75-5.91-1.74-7.82,1.83h-2c-.42-.56-.74-1.44-1.28-1.6-1.16-.34-1.54.62-1.7,1.6-5,.51-4.82.6-2.5,5.5,1.38,2.92,1.72,6.34,2.53,9.53,0,1.45,0,3-2,3.12h0c0-1.45,0-2.87-2-3l-2-4c0-.66,0-1.33,0-2,.71-.14,1.56-.12,1.5-1.21,0-.12-.2-.22-.31-.33L177,111c-2-.29-2.17-1.83-1.94-3.3.76-4.92-1.53-6.44-6-5.7-1-4.83-4.68,1.91-6-1.42-1.83,1.13-.65,2.94-1,4.41Z"/><path class="cls-9" d="M233.11,70c6.67-1.25,12.92,1.76,19.3,2.63,3.63.49,6.48,6.69,9.67,10.32l-.34.32L256,81,254,80.91c-1.4-2.81-2.74-2.84-4,.07,0,.68,0,1.36-.05,2L241.11,83c-4.41-1.73-6.37-6.79-11.08-8.12L230,70Z"/><path class="cls-13" d="M250.14,98c4,1.66,1.48,5,1.67,7.5s-2.54,1.66-3.81,1.45c-5.28-.84-10.86,2.1-16-1.72-2.55-1.92-4.13-3.9-4.07-7.09,1.79-2.32,5.16.68,6.84-2C239.49,100.26,245.1,96.77,250.14,98Z"/><path class="cls-12" d="M241.11,83l8.83.06c2.19,6.51,6.92.22,10.05,2q2.67,4.8,5.06-.14c1.35,0,2.2.46,2,2s-.08,3,2.05,3.08c3.23.27,1.55,2.56,1.69,4.1l-14.87,0L256,94a1.85,1.85,0,0,0-2.23-1.87L250.35,92c-.11-2.36-1.92-1.82-3.34-2-.06-1.41.47-3.2-2-3-.34-2.37-2.36-1.93-3.88-2.33Zm15.79,6.89c.42-.56.87-.9.87-1.24s-.43-.73-.67-1.09c-.3.3-.81.57-.86.9S256.57,89.19,256.9,89.85Z"/><path class="cls-6" d="M250.14,98c-5-1.19-10.65,2.3-15.33-1.88Q230.39,89.54,226,83c0-.68.05-1.35.08-2l2,0,1.85.14,0,0c0,2.32,1.72,1.83,3.09,2,.26,2.72,2.49,1.61,3.94,2-.06,1.43.66,2.08,2,2.06l-.07-.07c.42,1.14-.63,3.38,2.1,2.81l1.84.21c1.87,2.6,3.22,5.81,7.11,6Z"/><path class="cls-6" d="M181,154c2-3.07,5.83-5.35,2.24-10.22-1.42-1.94-.24-5.81-.24-8.8h0c1.05-.12,2.53.27,2.69-1.27.2-2-1.52-1.56-2.7-1.72h0c.15-2,1.66-2,3.12-2.05.75.13,1.9-.06,1.8,1.09-.57,6.86.8,13.51,2.08,20.18,1.11,5.79-1.12,8.16-7,6.62Z"/><path class="cls-14" d="M226,83q4.44,6.53,8.86,13.06c-1.68,2.7-5.05-.3-6.84,2-4.29-2.52-6-6.87-7.8-11.11Z"/><path class="cls-6" d="M220,85.09c-7.44-.78-14.44,3.36-21.93,2L198,87c0-.66,0-1.31,0-2a27.35,27.35,0,0,1,9.3-1c2.08.15,4.77-.22,5.74-3l.09-2c6.3.9,4.81-3.62,4.9-7,0-.66,0-1.31,0-2h2c0,1.62,0,3.25.08,4.88Z"/><path class="cls-6" d="M257.84,19c-4.69-2.79-7.45-9.64-14.72-6.95,1.11-3.7,4.16-1.79,6.29-2,4.12-.31,8.29-.08,12.43-.07Z"/><path class="cls-12" d="M230,70l.06,4.81c-2.95-2.4-5.23-6.2-10-4.83h-.09A2,2,0,0,1,222,68c1.6-.1,3.58.57,4-2,2.62-.89,4.09-2.62,4-5.49-.1-2,.22-3.7,2.84-3.51,0,3,0,6,0,9C229,67,228.28,68,230,70Z"/><path class="cls-2" d="M186.12,130c-1.46.05-3,0-3.12,2.05l-1.95,0q0-6,0-12c2-.15,2-1.67,2-3.12,2.86-.33,3.11,1.31,3,3.61C185.91,123.63,186.08,126.79,186.12,130Z"/><path class="cls-6" d="M196,98.11c-.36-5.1-2.8-7.44-8-6.11l-2,0c0-.62,0-1.24,0-1.87l2-.12c3.75.41,7.31.2,10-3l.09.08C196.89,90.64,200.23,95.06,196,98.11Z"/><path class="cls-15" d="M249.93,96.11c-3.89-.22-5.24-3.43-7.11-6,1.88-.22,2.19-1.56,2.2-3.12,2.46-.17,1.93,1.62,2,3,.24,2.14,1.84,2,3.34,2l3.43.13c0,1.53.82,2,2.23,1.87l-.08.13c.07.6.14,1.19.2,1.79C254.14,97.87,251.85,92.21,249.93,96.11Z"/><path class="cls-16" d="M220,85.09l.12-10.2c1.31,0,2,.67,1.92,2a1.87,1.87,0,0,0,2.14,2l1.91.16c0,.63,0,1.25,0,1.87s-.05,1.35-.08,2l-5.78,4Z"/><path class="cls-12" d="M227.91,45.08c1.86.29,4.45-1.29,5.12,2L232.8,53l-2.89.08C226,51.21,228.91,47.66,227.91,45.08Z"/><path class="cls-1" d="M229.91,53.07,232.8,53l0,4c-2.62-.19-2.94,1.49-2.84,3.51.14,2.87-1.33,4.6-4,5.49,0-.69-.06-1.37-.1-2Q227.94,58.51,229.91,53.07Z"/><path class="cls-13" d="M256.13,95.87c-.06-.6-.13-1.19-.2-1.79l14.87,0,.29-.15-.18,1.67Z"/><path class="cls-2" d="M230,70c-1.69-2-1-3,2.87-4l.27,3.94Z"/><path class="cls-6" d="M188,101.84c1.91-3.57,5.25-1.08,7.82-1.83C194.06,104.2,190.59,101.11,188,101.84Z"/><path class="cls-4" d="M265.05,84.88q-2.4,5-5.06.14c1.06-.14,1.94-.43,1.75-1.79l.34-.32C263.33,83.18,265.28,82.38,265.05,84.88Z"/><path class="cls-1" d="M269.11,90c-2.13-.06-2.11-1.56-2.05-3.08C269.49,86.73,268.89,88.61,269.11,90Z"/><path class="cls-6" d="M183,101.84c.16-1,.54-1.94,1.7-1.6.54.16.86,1,1.28,1.6Z"/><path class="cls-17" d="M270.91,95.57l.18-1.67c.56.4,1.64.87,1.6,1.19C272.54,96.25,271.65,95.87,270.91,95.57Z"/><path class="cls-18" d="M187.82,27c.07,1,.14,2,.22,3A1.9,1.9,0,0,0,190,32.11c.13,1.64-.43,3.64,2.12,4,0,1.92,0,3.84,0,5.76-5.44.05-10.88.34-16.3.06-4.05-.2-5.45,1.31-4.72,5.14L171,51l-1.79,0c-.07-.65-.13-1.3-.19-1.95-.93-2.37,2.36-6.5-2.94-7.06,0-.67,0-1.34-.05-2,1.45,0,2.87,0,3-2,.65-2.42-1.05-3.8-3.33-5.63,6.08-.88,11.25-1.75,16.46-2.32,2.13-.23,4.1-.12,3.9-3.08Z"/><path class="cls-12" d="M62,30.16l97.89-.25L162,30v.09c-2.74,2.83-6.37,1.73-9.56,2.46-10.78,2.49-21.39-.8-32.3.66C106.73,35,92.76,32.62,79,32.05L64,32,62,32Z"/><path class="cls-1" d="M58,72c-.12-2-1.56-2-3-2s-3,.14-4.15-1.18C47.86,65.53,44.4,67,41,68l-5-8L36,57c-2.78-3.67-1.86-8-2-12.09L34.17,40a2,2,0,0,1,1.79,2c.11,2.64-.83,6.49.55,7.71,3.91,3.46,5.05,7.31,4.57,12.12-.08.81.4,2,1.39,1.32,3-2,8.86-1.8,6.53-8.1.54.3,1.53.57,1.56.91.81,10.06,6.51,5.87,11.43,4v2l2,3.86-2,.2a1.77,1.77,0,0,0-2,2l0,4Z"/><path class="cls-19" d="M49,55.1c2.33,6.3-3.57,6.09-6.53,8.1-1,.68-1.47-.51-1.39-1.32.48-4.81-.66-8.66-4.57-12.12-1.38-1.22-.44-5.07-.55-7.71a2,2,0,0,0-1.79-2c.64-2-2.2-5,1.72-6l.23-.18.25.16c-.11.69-.23,1.37-.34,2.06.07,1.18.56,1.92,1.87,1.84,0,1.36.07,2.72.11,4.08-.22,2.23.76,3.27,3,3l12,0c.3,5.27-4.38,6.63-8.07,9.53Z"/><path class="cls-20" d="M186,27c.2,3-1.77,2.85-3.9,3.08-5.21.57-10.38,1.44-16.46,2.32,2.28,1.83,4,3.21,3.33,5.63h-3a1.85,1.85,0,0,0-2-2c-.66-2,1.55-4.92-2-5.93V30c0-2.27,0-4.54,0-6.8H183c.25,2,1.72,1.79,3.1,1.75l-.08,0C186,25.6,186,26.29,186,27Z"/><path class="cls-12" d="M34,44.9c.17,4.12-.75,8.42,2,12.09a63.94,63.94,0,0,0-25,0h0V51c2-.59,4.79,1.44,6-1.83,1.94-.06,3.89-.14,5.84-.18C27,48.92,31.65,50.09,34,44.9Z"/><path class="cls-4" d="M230,30c.07,4.72-4.35,7-6,10.78-.6,1.4-2.32,2.32-2,4.22-.06,1.29-.11,2.58-.16,3.87l-1.89.15-1.77-.28L218,47c0-1.67,0-3.33,0-5,0-2,0-3.91,0-5.86,5-1.55,4-7.76,8-10.12.63-.37,1.27-.72,1.9-1.08A2,2,0,0,1,230,27h0c-1,.15-2.07.45-1.73,1.7.15.54,1.12.86,1.71,1.28Z"/><path class="cls-4" d="M38,42c0-1.36-.08-2.72-.11-4.08L38,36c2.35.11,4.49-.14,6.22-2.12,2-2.26,5.49-1.53,6.74-.55,6.7,5.21,3.1-1.74,4.06-3.2l3,0q0,4.92,0,9.84c-5.74,0-11.56-.52-17,2Z"/><path class="cls-12" d="M230,27a2,2,0,0,0-2.11-2c2.17-6.1,8.61-9.08,11-15L243,12c-.72,6.75-7.14,9.69-10,15Z"/><path class="cls-6" d="M55,30.17c-1,1.46,2.64,8.41-4.06,3.2-1.25-1-4.78-1.71-6.74.55-1.73,2-3.87,2.23-6.22,2.12h0A1.82,1.82,0,0,0,36.37,34l-.25-.16-.23.18c-.29-2.91.51-4.34,3.93-4.08C44.85,30.3,49.92,30.12,55,30.17Z"/><path class="cls-4" d="M190,32.12A1.91,1.91,0,0,1,188,29.94l23,.23c0,.6,0,1.2,0,1.8L209,32Z"/><path class="cls-1" d="M209,32,211,32l3.81,2c-.09,2.4,1.78,2,3.18,2.2,0,2,0,3.91,0,5.86L215,42a2,2,0,0,0-2-2l-.14-1.84c.1-1.4-.53-2.11-1.94-2.1h0Z"/><path class="cls-4" d="M11,51c0,2,0,4,0,6L6,57,5.89,57Q6,53,6,49.15l3,0A1.79,1.79,0,0,0,11,51Z"/><path class="cls-21" d="M6,49.15Q6,53.05,5.89,57L2.4,59.77C2.2,58,2.05,56.46,1.89,55L2,55c2.89-1.32,2.91-2.65,0-4L2,49.18Z"/><path class="cls-19" d="M58,40q0-4.92,0-9.84h4V32l-2,4c0,1.35-.05,2.7-.08,4.05Z"/><path class="cls-7" d="M11,51a1.79,1.79,0,0,1-2-1.82h8C15.79,52.44,13,50.41,11,51Z"/><path class="cls-18" d="M162,23.19c0,2.26,0,4.53,0,6.8l-2.1-.08C161,27.79,157.88,24.38,162,23.19Z"/><path class="cls-6" d="M214.84,34,211,32c0-.6,0-1.2,0-1.8C214.42,29.29,215.71,30.53,214.84,34Z"/><path class="cls-18" d="M186.12,24.94c-1.38,0-2.85.21-3.1-1.75C184.51,23,186.09,22.57,186.12,24.94Z"/><path class="cls-8" d="M186,27c0-.69,0-1.38,0-2.07,1.39,0,2.34.4,1.78,2.08Z"/><path class="cls-2" d="M6,57l5,0h0c-.2,3.39,2.23,2.83,4.35,3,6.88.67,14.08-1.88,20.66,2V66l-2,0c-2-3.5-4.1-6.32-8-2H23c-1.88-3.92-5.38-1.18-8-2A44.42,44.42,0,0,1,2.05,64C3.1,61.54,7.5,61,6,57Z"/><path class="cls-14" d="M2,51c2.9,1.34,2.88,2.67,0,4C2,53.67,2,52.34,2,51Z"/><path class="cls-6" d="M179,117c2,.14,2,1.56,2,3-3.07-.27-5.08,1-6,4l0,0c-1.07-.19-2.65,0-3.12-.64-.86-1.17.73-1.91,1.42-2.62,1.06-1.1,1.89-2.16,1.72-3.76Z"/><path class="cls-6" d="M181.05,132l1.95,0h0c0,1,0,2,0,3h0C181,134.85,181,133.45,181.05,132Z"/><path class="cls-2" d="M175,117c.17,1.6-.66,2.66-1.72,3.76-.69.71-2.28,1.45-1.42,2.62.47.63,2,.45,3.12.64-.54,4.1-3.63,8-.82,12.44.27.43-1.47,2.41-3.17,2.55h0c-1.47-2.9-3.27-5.64-1-9.12,1.29-2-.85-3.18-2.2-3.47-1.95-.43-1.48,1.55-1.79,2.75-.51,1.94,1.55,5.61-2.09,5.45-3.37-.14-1.81-3.75-1.75-5.71.08-2.75-2.14-7.32,3.88-6.9,5,.26,4.71-6.29,9-7Z"/><path class="cls-2" d="M162,105c.36-1.47-.82-3.28,1-4.41,1.32,3.33,5-3.41,6,1.42-.33,2.62,2.91,4.21,2,7l-1.5.93.58.58L171,109c2.6.36,1.82,2.41,2,4-2.79-.9-4.39,2.33-7,2h-2C162.94,111.74,166.23,107.61,162,105Z"/><path class="cls-10" d="M162,105c4.24,2.62.95,6.75,2,10l-4,2c.63-4.21-7.71-7-1.95-12Z"/><path class="cls-7" d="M166,115c2.62.32,4.22-2.91,7-2h2v2c-4.26.72-3.95,7.27-9,7C166,119.67,166,117.33,166,115Z"/><path class="cls-2" d="M171,139l-.92,1.5-.57-.58L171,139Z"/><path class="cls-3" d="M163.93,84.85c-2.14-3.73-5.63-1.42-8.47-1.75-3.44-.41-7-.09-10.46-.09-8.55,0-17.1,0-25.65,0-1.67,0-3.82-.72-4.36,2h-2l-.78-1.51L111,85h-2c-1.5-3.64-4.67-1.3-7-2-2.64.78-6.13-1.93-8,2H92l-.78-1.51L90,85H87l-.78-1.5L85,85H83l-.78-1.5L81,85H79l-.78-1.5L77,85H75l-.78-1.5L73,85H62c-.58-2-2.76-3.56-1.92-6,2.89,2.56,6.52,2.62,9.84,2,12.93-2.48,25.93,0,38.9-.78,8.82-.57,18,.75,26.67.14,10.15-.71,20.31-.8,30.45-1.31l.09,6Z"/><path class="cls-7" d="M115,85c.54-2.67,2.69-1.94,4.36-2,8.55-.06,17.1,0,25.65,0-1.85,3.93-5.39,1.15-8,2Z"/><path class="cls-2" d="M49,77h6c.13,2.3-.12,4.12-3.24,4S49,79,49,77Z"/><path class="cls-4" d="M60.08,78.91c-.84,2.49,1.34,4,1.92,6-6.94.16-2.86-5.21-4-8h2Z"/><path class="cls-9" d="M94,85c1.89-3.88,5.38-1.17,8-2,0,.66,0,1.32,0,2Z"/><path class="cls-7" d="M102,85c0-.65,0-1.31,0-2,2.33.66,5.5-1.68,7,2Z"/><path class="cls-12" d="M60,77H58c0-.67,0-1.33,0-2,0-1,0-2,0-3l2,0Z"/><path class="cls-9" d="M90,85l1.24-1.51L92,85Z"/><path class="cls-7" d="M111,85l1.24-1.51L113,85Z"/><path class="cls-9" d="M81,85l1.24-1.49L83,85Z"/><path class="cls-9" d="M77,85l1.24-1.49L79,85Z"/><path class="cls-9" d="M73,85l1.24-1.5L75,85Z"/><path class="cls-9" d="M85,85l1.24-1.5L87,85Z"/><path class="cls-11" d="M173.11,92c-2.8,6.84-10.39,4.56-15,7.89-2.09-3.83-5.64-1.21-8.44-1.89-1.94-.48-4.2.74-6.44-1.3l5.18-1.33-.06-1.4H122V92c9.8,0,19.6,0,29.4,0,4.44,0,8,4.93,13,2,2.72-1.57,4.93-4.62,8.73-3.88C173.12,90.74,173.12,91.39,173.11,92Z"/><path class="cls-4" d="M141.06,102c0-.66,0-1.31-.05-2h8.05c0,2.31,0,4.62-.05,6.94.17,3.65-4.22-1.57-4,2.08l-1.92-.1C142.22,106.66,144.73,103.44,141.06,102Z"/><path class="cls-9" d="M109,96l1.5.92-.58.58L109,96Z"/><path class="cls-18" d="M163.93,84.85l2.1.05h3l11.91.23c-.15,1.82-2.56,2.7-2,4.82l-2,0c-.1-1.12.05-2.48-1.43-2.79-5.24-1.07-10,1.1-15.35,2.17-.06-1.4-.13-2.82-.19-4.24Z"/><path class="cls-2" d="M177,90l2,0,7,.16c0,.63,0,1.25,0,1.87l-9,0-2-.17,0-1.68Z"/><path class="cls-5" d="M174.94,90.15c0,.56,0,1.12,0,1.68l-1.88.3,0-.1c0-.64,0-1.29,0-1.93Z"/><path class="cls-12" d="M41,68c3.4-1,6.86-2.46,9.84.83C52,70.14,53.51,70,55,70c-3.07,5.47-8.58,6.25-14,2,0-1.33,0-2.66,0-4Z"/><path class="cls-12" d="M36,66c0-1.32,0-2.63,0-3.95,0-.68,0-1.37,0-2.05l5,8v0c-3.15-.3-3.05,1.85-3,4C34.48,70.94,36.62,68,36,66Z"/><path class="cls-1" d="M38,72c-.06-2.13-.16-4.28,3-4,0,1.32,0,2.65,0,4-.17,1.17.29,2.91-1.73,2.71C37.73,74.54,38.15,73,38,72Z"/><path class="cls-6" d="M15,62c2.64.79,6.14-2,8,2C20.37,63.19,16.87,65.91,15,62Z"/><path class="cls-13" d="M229.91,53.07q-2,5.45-4,10.88l-3.86,0-.17-3.84.22-3.24c2.71.53,4-.43,3.87-3.33s-.07-5.56-.08-8.34l2-.1C228.91,47.66,226,51.21,229.91,53.07Z"/><path class="cls-5" d="M250,27c.15,3.6-3.77,3.72-5.2,6-.11.18-1-.13-1.56-.22.84-2.83-2.46-5.34-.67-8.2.78-1.24,1.78-1.13,2.87-.1,1.28,1.22,2.38,2.89,4.56,2.52Z"/><path class="cls-22" d="M225.92,45.18c0,2.78-.06,5.56.08,8.34s-1.16,3.86-3.87,3.33c-.09-2.65-.19-5.3-.28-7.94L222,45Z"/><path class="cls-4" d="M230,27h3c.23,2.2-.78,3.19-3,3L230,30c0-1,0-2,0-3Z"/><path class="cls-5" d="M250,27l.92-1.5.58.58L250,27Z"/><path class="cls-6" d="M175,113h-2c-.18-1.58.6-3.63-2-4h0c.91-2.78-2.33-4.37-2-7,4.51-.74,6.8.78,6,5.7-.23,1.47-.07,3,1.94,3.3l0,0c0,.66,0,1.33,0,2Z"/><path class="cls-9" d="M177,92l9,0,2,0c-.73,4.87-4.56,5.58-10.86,2C177.1,93.34,177.05,92.67,177,92Z"/><path class="cls-13" d="M177,92c0,.67.09,1.34.13,2-3,3-3.13-.35-4.06-1.88l1.88-.3Z"/><path class="cls-5" d="M175,113h2l2,4h-4l0-2C175,114.33,175,113.66,175,113Z"/><path class="cls-11" d="M177,111l1.21-1.52c.11.11.3.21.31.33.06,1.09-.79,1.07-1.5,1.21Z"/><path class="cls-23" d="M222,76.94c.1-1.38-.61-2-1.92-2,0-1.63,0-3.26-.08-4.88,4.78-1.37,7.06,2.43,10,4.83,4.71,1.33,6.67,6.39,11.08,8.12l0,1.67-.15,2.3-2.11.13.07.07c.05-1.41-.59-2.14-2-2.06-1.45-.4-3.68.71-3.94-2-.12-2.11-1.58-2.06-3.09-2l0,0c0-1.36-.61-2.06-2-2h-1.84L224.16,79C224,77.69,223.4,76.9,222,76.94Z"/><path class="cls-6" d="M261.74,83.23c.19,1.36-.69,1.65-1.75,1.79-3.13-1.78-7.86,4.51-10.05-2,0-.68,0-1.36.05-2l2,.06c1.34,2.84,2.68,2.89,4,0Z"/><path class="cls-10" d="M256,81c-1.32,2.9-2.66,2.85-4,0l2.05-.13Z"/><path class="cls-4" d="M254,80.91,252,81,250,81C251.29,78.07,252.63,78.1,254,80.91Z"/><path class="cls-24" d="M241,86.93l.15-2.3c1.52.4,3.54,0,3.88,2.33,0,1.56-.32,2.9-2.2,3.12L241,89.87C241,88.89,241,87.91,241,86.93Z"/><path class="cls-4" d="M256.9,89.85c-.33-.66-.71-1.08-.66-1.43s.56-.6.86-.9c.24.36.67.72.67,1.09S257.32,89.29,256.9,89.85Z"/><path class="cls-4" d="M256,94c-1.41.17-2.25-.34-2.23-1.87A1.85,1.85,0,0,1,256,94Z"/><path class="cls-15" d="M241,86.93c0,1,0,2,0,2.94-2.73.57-1.68-1.67-2.1-2.81Z"/><path class="cls-24" d="M229.87,81.11c1.51-.11,3-.16,3.09,2C231.59,82.94,229.85,83.43,229.87,81.11Z"/><path class="cls-10" d="M226.07,79.12h1.84c.06.6.11,1.21.16,1.82l-2,0C226,80.37,226.06,79.75,226.07,79.12Z"/><path class="cls-15" d="M228.07,81c0-.61-.1-1.22-.16-1.82,1.4-.1,2,.6,2,2Z"/><path class="cls-15" d="M236.9,85.07c1.46-.08,2.1.65,2,2.06C237.56,87.15,236.84,86.5,236.9,85.07Z"/><path class="cls-2" d="M183,135c0-1,0-2,0-3,1.18.16,2.9-.28,2.7,1.72C185.54,135.26,184.06,134.87,183,135Z"/><path class="cls-7" d="M213,81c-1,2.77-3.66,3.14-5.74,3a27.35,27.35,0,0,0-9.3,1l-6-.09L192,81Z"/><path class="cls-3" d="M213,81l-21,0,.06-2L213,79l.11,0Z"/><path class="cls-11" d="M191.92,84.92l6,.09c0,.65,0,1.3,0,2-2.66,3.21-6.22,3.42-10,3-.59-2.14,1.88-3,2-4.91Z"/><path class="cls-4" d="M218,72c-.09,3.43,1.4,8-4.9,7L213,79c0-.66,0-1.32,0-2,3.06-.68,1.65-3.2,2-5Z"/><path class="cls-1" d="M221.91,60.09c.05,1.28.11,2.56.17,3.84s0,2.69,0,4A2,2,0,0,0,219.93,70H218c0-.7-.08-1.39-.11-2.09L218,66C221.82,65.67,218.16,60.45,221.91,60.09Z"/><path class="cls-16" d="M217.91,67.92c0,.7.07,1.39.11,2.09s0,1.31,0,2l-3,0-.18-.18C214.93,69.8,215,67.74,217.91,67.92Z"/><path class="cls-14" d="M222,68c0-1.34,0-2.68,0-4l3.86,0c0,.68.07,1.36.1,2C225.62,68.53,223.64,67.86,222,68Z"/><path class="cls-8" d="M190,85.07c-.1,1.86-2.57,2.77-2,4.91l-2,.12-7-.16c-.57-2.12,1.84-3,2-4.82Z"/><path class="cls-11" d="M222,76.94c1.38,0,2,.75,2.14,2A1.87,1.87,0,0,1,222,76.94Z"/><path class="cls-11" d="M171.11,47.07c-.73-3.83.67-5.34,4.72-5.14,5.42.28,10.86,0,16.3-.06l1.88.25c0,1,0,1.94,0,2.91q-.06,5-.13,10c-4.24.83-8.3,2.72-12.82,2-1.38-.21-2,.91-2.07,2.22s-.45,2.75-2.27,2.5c-2.15-.31-1.74-2.14-1.7-3.52C175.16,54,174.91,49.94,171.11,47.07ZM190,51l-3.33.58c.17.39.25,1.05.52,1.14,1.55.52,2.59,0,2.81-1.71.74-.12,1.58-.1,1.52-1.2a.44.44,0,0,0-.3-.32C190.1,49.4,190.16,50.29,190,51Zm-9.62-6.12c-1.56.69-4.11-1.11-4.49,1.39-.12.8,1.3,4.74,2.33,3.84,2.37-2.08,7,.82,7.42-3S182.17,45.75,180.38,44.88Z"/><path class="cls-7" d="M171.11,47.07c3.8,2.87,4,7,3.93,11.22,0,1.38-.45,3.21,1.7,3.52,1.82.25,2.17-1.07,2.27-2.5s.69-2.43,2.07-2.22c4.52.68,8.58-1.21,12.82-2,0,.66,0,1.33,0,2-3.33,1.12-1.85,4-1.77,5.92.17,3.84-1,5.3-5,5.1-6.3-.31-12.72.29-18.08-4.06,0-.67,0-1.34,0-2,3.92-3.08,1.18-7.36,2-11Z"/><path class="cls-25" d="M194,42.12l-1.88-.25c0-1.92,0-3.84,0-5.76l18.86,0h0a2,2,0,0,0,1.94,2.1c.05.61.09,1.22.14,1.84a2.09,2.09,0,0,0-2.16,2.16l-1.92-.07c-2.66.91-7-2.86-7.92,2.87-1.53,0-3,0-3.14,2.1A2,2,0,0,1,196,45C196,43.56,196.28,42,194,42.12Z"/><path class="cls-21" d="M210.94,36.06l-18.86,0c-2.55-.36-2-2.36-2.12-4L209,32Z"/><path class="cls-8" d="M171,51c-.79,3.65,1.95,7.93-2,11l-2.95,0L166,57l.08-2.09c3.36.57,2.89-1.93,3.12-3.88Z"/><path class="cls-8" d="M166.05,42c5.3.56,2,4.69,2.94,7.06h-3L166,47V42Z"/><path class="cls-17" d="M166,49.06h3c.06.65.12,1.3.19,1.95-.23,2,.24,4.45-3.12,3.88C166.05,53,166.05,51,166,49.06Z"/><path class="cls-16" d="M164,36a1.85,1.85,0,0,1,2,2v2c0,.68,0,1.35.05,2H166l-1.92.07c0-.71-.06-1.41-.08-2.12L163.92,36Z"/><path class="cls-14" d="M166,40V38h3C168.87,40,167.45,40,166,40Z"/><path class="cls-21" d="M60,36l2-4L64,32c2.9,2.86,12.07,2.88,15.06,0,13.72.57,27.69,2.94,41.1,1.15,10.91-1.46,21.52,1.83,32.3-.66,3.19-.73,6.82.37,9.56-2.46,3.53,1,1.32,4,2,5.93l-.06,0Z"/><path class="cls-1" d="M79,32.05c-3,2.85-12.16,2.83-15.06,0Z"/><path class="cls-16" d="M60,77l0-5c0-1.32,0-2.65,0-4l2.06-.22,0,.4c0,1.26,0,2.52,0,3.79-.64,3.91,1,4.92,4.92,5.12C83,77.92,99,74.83,115,75c16.93.16,33.87,0,50.8,0l.24,0c0,1.31-.09,2.62-.14,3.93-10.14.51-20.3.6-30.45,1.31-8.66.61-17.85-.71-26.67-.14-13,.82-26-1.7-38.9.78-3.32.64-7,.58-9.84-2C60.05,78.27,60,77.64,60,77Z"/><path class="cls-26" d="M49,55.1l-4.06-.56c3.69-2.9,8.37-4.26,8.07-9.53h2c7.75,2.46,7.52,8.63,7,14.95-4.92,1.91-10.62,6.1-11.43-4C50.53,55.67,49.54,55.4,49,55.1Z"/><path class="cls-4" d="M36.05,60c0,.68,0,1.37,0,2.05-6.58-3.86-13.78-1.31-20.66-2-2.12-.2-4.55.36-4.35-3a63.94,63.94,0,0,1,25,0Z"/><path class="cls-19" d="M62,60c.53-6.32.76-12.49-7-14.95L66,45c-.32,2.63-1.9,6.35-.74,7.72C70,58.23,69,60.91,62,62Z"/><path class="cls-21" d="M62,62c7-1.1,8-3.78,3.21-9.33-1.16-1.37.42-5.09.75-7.72,0-1,0-1.9,0-2.84l2.15-.24,0,.06c.47,2.4-1.68,5.5,1.86,7.1V68l-2-.11c-.25-2.65-2.39-1.69-3.85-2Z"/><path class="cls-2" d="M64.05,65.87c1.46.33,3.6-.63,3.85,2L62,68.22l0-.4,0-1.75Z"/><path class="cls-4" d="M62,66.07l0,1.75L60,68A1.77,1.77,0,0,1,62,66.07Z"/><path class="cls-12" d="M65.94,42.12c0,.94,0,1.89,0,2.84L55,45H53L41,45,41,42c5.45-2.55,11.27-2,17-2l1.93,0C61,43.36,63.91,41.47,65.94,42.12Z"/><path class="cls-21" d="M41,42,41,45c-2.26.23-3.24-.81-3-3Z"/><path class="cls-13" d="M38,36l-.06,1.83C36.59,38,36.1,37.21,36,36H38Z"/><path class="cls-4" d="M38,36H36c.12-.69.24-1.37.35-2.06A1.82,1.82,0,0,1,38,36Z"/><path class="cls-14" d="M221.91,60.09c-3.75.36-.09,5.58-3.88,5.92,0-.67-.07-1.35-.11-2l.06-4,.1-2.93c3.63-2,1.21-5.34,1.88-8l1.89-.15c.09,2.64.19,5.29.28,7.94C222.06,57.93,222,59,221.91,60.09Z"/><path class="cls-22" d="M218,47c.07.59.13,1.18.2,1.77q-.13,3.09-.25,6.18l-2.77.09c0-2.72,0-5.44,0-8.16Z"/><path class="cls-27" d="M217.94,55q.12-3.09.25-6.18l1.77.28c-.67,2.66,1.75,6-1.88,8C218,56.36,218,55.66,217.94,55Z"/><path class="cls-14" d="M218,47l-2.86-.12v0L215,45c0-1,0-2,0-3L218,42C218,43.68,218,45.34,218,47Z"/><path class="cls-12" d="M230,27c0,1,0,2,0,3-.59-.42-1.56-.74-1.71-1.28C227.93,27.45,229,27.15,230,27Z"/><path class="cls-17" d="M215,42c0,1,0,2,0,3h-4l-.12-2.82A2.09,2.09,0,0,1,213,40,2,2,0,0,1,215,42Z"/><path class="cls-21" d="M212.88,38.16a2,2,0,0,1-1.94-2.1C212.35,36.05,213,36.76,212.88,38.16Z"/><path class="cls-25" d="M65.94,42.12c-2-.65-4.93,1.24-6-2.1,0-1.35.06-2.7.08-4.05L163.92,36,164,40a1.88,1.88,0,0,0-2,1.94L158,42c-2.39-3.23-4.76-3.27-7.08.07l-5.88,0L143,42c-6-3.12-5.82,1.25-6.13,5l-2.68-.11c.67-5-2.32-5.4-6.07-4.88L126,42c-2.34-.17-4.7-4.94-7,0-2.41.35-6-1.62-6.24,3.08L111,45c-.38-1.47.71-3.31-.64-4.19-3.2.09-2.78,3.78-5.33,4.27-.44-2.06,1.11-5.41-3.21-4.92-1.29-.07-1.84.61-1.85,1.83-2.23-.13-4.32-.08-4.08,3.08l-1.84-.12c.33-3.41-.37-5.37-4.16-2.93l-3,.09c-2.32.32-5.74-1.61-6,2.93l-1.81-.16C78.69,40.59,76.47,40,73,42c-1.61-3.08-3.26-3-5-.08Z"/><path class="cls-7" d="M171,109l-.93,1.5-.58-.58L171,109Z"/><path class="cls-7" d="M165.94,78.94c.05-1.31.1-2.62.14-3.93l2.9,0,.08,9.91h-3Z"/><path class="cls-5" d="M169.06,84.89q0-5-.08-9.9c0-2.33,0-4.65.05-7,1.09.16,2,.73,1.88,1.87-.74,5.29,2.14,6.51,6.69,6.5,4.78,0,9.56.41,14.34.65l.2-.08,0,2L192,81l-.12,3.94-1.95.15-9,.05Z"/><path class="cls-1" d="M192.1,79c0-.67,0-1.33,0-2L213,77c0,.66,0,1.32,0,2Z"/><path class="cls-16" d="M213,77l-20.84,0-.2.08c.06-1.7.11-3.4.17-5.1l22.73-.09L215,72C214.63,73.8,216,76.32,213,77Z"/><path class="cls-13" d="M214.84,71.84l-22.73.09,2-3.88,1.93,0c1.93,3.62,5.31,2.09,7.68,1.42,2-.55-1.37-2.06-.76-3.49h8c3.09,3,3.13-.5,4.13-2l2.82,0c0,.67.07,1.35.11,2l-.12,1.91C215,67.74,214.93,69.8,214.84,71.84Z"/><path class="cls-21" d="M196.07,68.08l-1.93,0c2.08-3.71-1.07-7.31-.26-11,0-.67,0-1.34,0-2q.07-5,.13-10L196,45a2,2,0,0,0,1.92,2.09l.3,1.89q0,8.46,0,16.92C197.91,67,197.43,68,196.07,68.08Z"/><path class="cls-18" d="M180.38,44.88c1.79.87,5.64-1.41,5.26,2.27s-5,.88-7.42,3c-1,.9-2.45-3-2.33-3.84C176.27,43.77,178.82,45.57,180.38,44.88Z"/><path class="cls-2" d="M190,51c-.22,1.73-1.26,2.23-2.81,1.71-.27-.09-.35-.75-.52-1.14L190,51Z"/><path class="cls-12" d="M196,45,194,45c0-1,0-1.94,0-2.91C196.28,42,196,43.56,196,45Z"/><path class="cls-18" d="M190,51c.16-.71.1-1.6,1.22-1.51a.44.44,0,0,1,.3.32c.06,1.1-.78,1.08-1.52,1.2Z"/><path class="cls-6" d="M193.88,57.05c-.81,3.69,2.34,7.29.26,11l-2,3.88c-.06,1.7-.11,3.4-.17,5.1-4.78-.24-9.56-.66-14.34-.65-4.55,0-7.43-1.21-6.69-6.5.16-1.14-.79-1.71-1.88-1.87,0-1.33,0-2.67,0-4,5.36,4.35,11.78,3.75,18.08,4.06,4,.2,5.19-1.26,5-5.1C192,61,190.55,58.17,193.88,57.05Z"/><path class="cls-11" d="M169,64c0,1.33,0,2.67,0,4,0,2.33,0,4.65-.05,7l-2.9,0-.24,0c0-1,0-2,0-3-.36-2.08,1.73-4.9-1.83-6,0-.66,0-1.31,0-2a1.94,1.94,0,0,0,2-2L169,62C169,62.67,169,63.34,169,64Z"/><path class="cls-14" d="M211,66h-2c0-.66,0-1.32,0-2V55q0-3,0-6.05,0-3.45,0-6.88l1.92.07L211,45l.09,4Q211,57.49,211,66Z"/><path class="cls-1" d="M208.94,42.09q0,3.44,0,6.88h-3.89c-.17-1.16-.65-2-2-2a2,2,0,0,0-2.17-1.8L201,45C201.93,39.23,206.28,43,208.94,42.09Z"/><path class="cls-15" d="M198.18,49l-.3-1.89c.1-2.12,1.61-2.13,3.14-2.1l-.09.17C201,47.09,201.28,49.25,198.18,49Z"/><path class="cls-21" d="M166.05,62a1.94,1.94,0,0,1-2,2l-4,0c0-.69,0-1.38-.05-2.07h0c1.16-.23,3.13.67,3.29-.9s-1.87-1.75-3.22-2.09l-.27-2.08.31-1.9c2.43-.74,3.87,1.48,5.89,2Z"/><path class="cls-14" d="M166,57c-2-.49-3.46-2.71-5.89-2,0-1.35.07-2.7.11-4.06,3.2.53,4.12-1.16,3.85-4L166,47l.06,2.07c0,1.94,0,3.89,0,5.83C166,55.59,166,56.28,166,57Z"/><path class="cls-13" d="M166,47l-1.93,0c0-1.63,0-3.25,0-4.88L166,42Z"/><path class="cls-19" d="M164.06,42.08c0,1.63,0,3.25,0,4.88.27,2.83-.65,4.52-3.85,4-.12-1.23-.23-2.47-.34-3.7L160,45c2-.17,2.06-1.63,2-3.13A1.88,1.88,0,0,1,164,40C164,40.67,164,41.37,164.06,42.08Z"/><path class="cls-28" d="M165.82,72c0,1,0,2,0,3-16.93,0-33.87.16-50.8,0C99,74.83,83,77.92,66.92,77.13,63,76.93,61.36,75.92,62,72L102,72Z"/><path class="cls-17" d="M102,72,62,72c0-1.27,0-2.53,0-3.79l5.88-.33,2,.11H90l8.24,0,1.64-.09c2.09,0,4.51.95,5.46-2.05,4.06,1.61,5.23-2.07,7.35-4l.42,2.28L113,66c.39,3.29-1.23,4-4.28,4.12C106.47,70.18,103.37,68.35,102,72Z"/><path class="cls-24" d="M81.1,68H69.92V49c-.45-2.41,1.71-5.51-1.86-7.1l0-.06c1.69-2.89,3.34-3,5,.08.1,5,3.84,2.4,6.1,2.91L81,45c0,.63.09,1.26.14,1.89s-.17,1.43-.26,2.15c-2-.49-3.62-3.7-6-.85-3.51,4.23-2.89,9.41-.79,13.39,2.58,4.88,4.28-1.89,6.85-1.64Q81,64,81.1,68Z"/><path class="cls-27" d="M68.06,41.94c3.57,1.59,1.41,4.69,1.86,7.1C66.38,47.44,68.53,44.34,68.06,41.94Z"/><path class="cls-17" d="M217.94,55c.05.7.09,1.4.14,2.1,0,1-.07,2-.1,2.93l-2.84.06c-.08-1-.15-2.07-.23-3.1l.26-1.9Z"/><path class="cls-27" d="M215.14,60.05,218,60l-.06,4-2.82,0-.29-.14Z"/><path class="cls-15" d="M215.17,55.05c-.09.64-.17,1.27-.26,1.9l-1.77,0-.33-7.83c.15-1.39.79-2.26,2.31-2.22v0C215.14,49.61,215.16,52.33,215.17,55.05Z"/><path class="cls-22" d="M215.12,46.87c-1.52,0-2.16.83-2.31,2.22L211.07,49,211,45h4C215,45.62,215.08,46.25,215.12,46.87Z"/><path class="cls-1" d="M99.86,67.87,98.22,68c-.13-3.67-.25-7.33-.37-11,0-3.29,0-6.58.05-9.87,3.18-.68,1.73-3.27,2.09-5.11,0-1.22.56-1.9,1.85-1.83l.21,4.8c0,2,1.43,2,2.86,2.06.08,1.35.17,2.71.25,4.07l-.24-.11c-.87.18-2.32-.32-2.35,1s1.41.88,2.28,1.05v2c-4.07,0-2.52,3-2.77,5.05L102,66A2,2,0,0,0,99.86,67.87Z"/><path class="cls-13" d="M134.14,46.93l2.68.11.3,0c0,.64.07,1.28.1,1.92,0,1.38,0,2.76,0,4.13l-.09,3.9,0,8.9-2.91.18L134,66c0-1.29-.07-2.58-.11-3.88L134,51.05Z"/><path class="cls-1" d="M112.71,45.11c.27-4.7,3.83-2.73,6.24-3.08l0,0c0,1.66,0,3.32,0,5l-.08,4c-3.87,1.53-3.3-3.6-5.92-4l-.23.1Z"/><path class="cls-24" d="M97.9,47.09c0,3.29,0,6.58-.05,9.87L96,57c-1.28-2.73,3.2-8.43-4.15-8L90.17,49l-.3-4,.26.11,3.94-.12,1.84.12L96,45c-.06,1.24.28,2.16,1.75,2.17Z"/><path class="cls-1" d="M134.14,46.93,134,51c-3.63-.4-3.1-4.9-6-6,0-1,0-2,0-2.94C131.82,41.53,134.81,42,134.14,46.93Z"/><path class="cls-22" d="M105.16,51.08c-.08-1.36-.17-2.72-.25-4.07,0-.67,0-1.33,0-2l.15.06c2.55-.49,2.13-4.18,5.33-4.27,1.35.88.26,2.72.64,4.19l-.29.3C107.06,45.48,108.05,50.15,105.16,51.08Z"/><path class="cls-17" d="M150.94,42.08c2.32-3.34,4.69-3.3,7.08-.07.08,1,.15,2,.23,3l-.36,0c-2.3-3.9-4.49-.29-6.73.1C151.09,44.08,151,43.08,150.94,42.08Z"/><path class="cls-22" d="M136.82,47c.31-3.78.15-8.15,6.13-5l-.15,3.06c-1.56,0-3.46-.6-3.84,1.87l-1.84.07Z"/><path class="cls-22" d="M119,42c2.32-5,4.68-.2,7,0,0,1-.11,2.1-.17,3.14l-3.75-.08c.13-2.17-.75-3.32-3.06-3.05Z"/><path class="cls-22" d="M79.14,44.87c-2.26-.51-6,2.1-6.1-2.91C76.47,40,78.69,40.59,79.14,44.87Z"/><path class="cls-1" d="M81.09,46.92C81,46.29,81,45.66,81,45c.27-4.54,3.69-2.61,6-2.93,0,1,0,1.94.05,2.91h-.07c-1.75,0-3.71-.33-4.1,2.22Z"/><path class="cls-1" d="M150.94,42.08c.07,1,.15,2,.22,3L151,45l-2,0-3.93,0c0-1,0-2,0-3Z"/><path class="cls-22" d="M94.07,44.94l-3.94.12c-.08-1-.15-2-.22-3.05C93.7,39.57,94.4,41.53,94.07,44.94Z"/><path class="cls-12" d="M100,42c-.36,1.84,1.09,4.43-2.09,5.11l-.17.11C98,45.77,97.4,45.07,96,45l-.07,0C95.67,41.9,97.76,41.85,100,42Z"/><path class="cls-13" d="M102.05,45l-.21-4.8c4.32-.49,2.77,2.86,3.21,4.92L104.9,45Z"/><path class="cls-13" d="M145.06,42v3c-.06,1.36-.13,2.72-.19,4.08l-1.74-.19-.33-3.85L143,42Z"/><path class="cls-1" d="M158.25,45c-.08-1-.15-2-.23-3L162,41.9c.07,1.5.05,3-2,3.12Z"/><path class="cls-13" d="M125.8,45.14c.06-1,.12-2.09.17-3.14l2.1,0c0,1,0,2,0,2.94l-.21,2.13C126.53,47.11,126,46.27,125.8,45.14Z"/><path class="cls-21" d="M89.91,42c.07,1,.14,2,.22,3.05L89.87,45,87,45c0-1,0-1.94-.05-2.91Z"/><path class="cls-22" d="M112.71,45.11c0,.66.05,1.33.07,2a2,2,0,0,1-2-1.81L111,45Z"/><path class="cls-1" d="M209,55v9c-1.6.13-3.66-.68-4,2h-2c0-1.36-.07-2.72-.11-4.08H203c4.16-2.15,1.15-6,2.11-8.92Z"/><path class="cls-17" d="M211.07,49l1.74.11.33,7.84c.42,2.35-1.74,5.32,1.67,7l.29.14c-1,1.45-1,4.94-4.13,2Q211,57.48,211.07,49Z"/><path class="cls-17" d="M202.88,61.93c0,1.36.08,2.72.11,4.08-.61,1.43,2.73,2.94.76,3.49-2.37.67-5.75,2.2-7.68-1.42,1.36-.11,1.84-1.06,2.12-2.21C201.76,67,200,61.7,202.88,61.93Z"/><path class="cls-2" d="M205,66c.34-2.67,2.4-1.86,4-2,0,.66,0,1.32,0,2Z"/><path class="cls-24" d="M202.88,61.93c-2.86-.23-1.12,5-4.69,3.94q0-8.46,0-16.92c3.1.3,2.79-1.86,2.75-3.82a2,2,0,0,1,2.17,1.8l-.15,15Z"/><path class="cls-27" d="M134.24,66l2.91-.18h0c.34,2.41,1.79,4,4.14,3.88s1.49-2.41,1.56-3.93c0-1.95,0-3.9,0-5.85.1-.95.19-1.89.29-2.83l1.74-.18L145,66c1.05,3.6,4,1.34,6,2,2.37.36,4.75,2.17,7.11,0,2-.53,4.82,1.48,5.95-1.86L164,66c3.56,1.1,1.47,3.92,1.83,6H102c1.4-3.61,4.5-1.78,6.76-1.84,3-.07,4.67-.83,4.28-4.12l4,0h2c-.37,2.86.69,4.08,3.76,4s3.4-1.74,3.21-4.09a2,2,0,0,1,1.85-2.15c.44,1.45-.53,3.67,1.9,4C131.49,68.14,133.52,68.53,134.24,66Z"/><path class="cls-4" d="M160,64.05l4,0c0,.65,0,1.3,0,2l.07.14C162.6,65.67,160.29,66.86,160,64.05Z"/><path class="cls-21" d="M209,55l-3.93-2,0-4.06H209Q209,52,209,55Z"/><path class="cls-25" d="M205.09,49l0,4.06c-1,2.91,2.05,6.77-2.11,8.92l.15-15C204.44,46.94,204.92,47.8,205.09,49Z"/><path class="cls-22" d="M159.86,47.25c.11,1.23.22,2.47.34,3.7,0,1.36-.07,2.71-.11,4.06-.1.63-.21,1.27-.31,1.9l-1.68.14-.27-9.89.33-.31Z"/><path class="cls-14" d="M160,64.05c.26,2.81,2.57,1.62,4,2.07-1.13,3.34-3.94,1.33-5.95,1.86-.1-.7-.2-1.41-.29-2.11l.09-3.92.18.11L160,62C160,62.67,160,63.36,160,64.05Z"/><path class="cls-17" d="M160,62l-1.89.08c0-1.67,0-3.34,0-5l1.68-.14.27,2.08c0,1-.05,2-.07,3Z"/><path class="cls-14" d="M160,62c0-1,.05-2,.07-3,1.35.34,3.4.38,3.22,2.09S161.14,61.75,160,62Z"/><path class="cls-21" d="M159.86,47.25l-1.7-.4L157.89,45l.36,0H160Z"/><path class="cls-15" d="M110.73,45.29a2,2,0,0,0,2,1.81L113,47q-.18,7.41-.34,14.81c-2.12,1.94-3.29,5.62-7.35,4l-.2.13q-.09-3-.19-6c0-1.68-.05-3.35-.08-5V53c0-.68.05-1.37.07-2.05l.24.11C108.05,50.15,107.06,45.48,110.73,45.29Z"/><path class="cls-21" d="M112.67,61.81q.17-7.39.34-14.81c2.62.35,2,5.48,5.92,4l.12.07,0,15L119,66h-2c-.28-2.76-2.3-2-4-1.94Z"/><path class="cls-22" d="M90.17,49l1.72.07c0,3.6,0,7.2.13,10.79,0,1.2-.63,3.22.92,3.38s2.71-1.47,3-3.22C96,59,96,58,96,57L97.85,57c.12,3.67.24,7.33.37,11L90,68c0-.69-.08-1.38-.11-2.07s0-1.24,0-1.85l-.12-9.13,0-3.9Z"/><path class="cls-14" d="M89.87,65.92c0,.69.07,1.38.11,2.07H81.1q-.1-4-.19-8c.1-1,.19-1.93.29-2.9L83,56.94q0,3.56.1,7.11C84.45,67.88,87.62,65.21,89.87,65.92Z"/><path class="cls-13" d="M99.86,67.87A2,2,0,0,1,102,66l3.11-.06.2-.13C104.37,68.82,102,67.9,99.86,67.87Z"/><path class="cls-2" d="M113.09,64.09c1.65,0,3.67-.82,4,1.94l-4,0C113,65.37,113.06,64.73,113.09,64.09Z"/><path class="cls-15" d="M81.2,57.07C81.1,58,81,59,80.91,60c-2.57-.25-4.27,6.52-6.85,1.64-2.1-4-2.72-9.16.79-13.39,2.36-2.85,4,.36,6,.85Q81,53.06,81.2,57.07Z"/><path class="cls-25" d="M81.2,57.07q-.18-4-.37-8c.09-.72.17-1.43.26-2.15l1.75.3c.12,1.24.23,2.49.35,3.74-.07,2-.15,4-.22,6Z"/><path class="cls-24" d="M214.81,63.89c-3.41-1.64-1.25-4.61-1.67-7l1.77,0c.08,1,.15,2.07.23,3.1Z"/><path class="cls-14" d="M105.12,66,102,66c0-2,0-4,.07-6l2.85,0Q105,63,105.12,66Z"/><path class="cls-21" d="M104.93,60l-2.85,0c.25-2.05-1.3-5.09,2.77-5.05C104.88,56.65,104.9,58.32,104.93,60Z"/><path class="cls-21" d="M104.92,51c0,.68,0,1.37-.07,2.05-.87-.17-2.32.33-2.28-1.05S104.05,51.15,104.92,51Z"/><path class="cls-21" d="M102.05,45l2.85.06c0,.67,0,1.33,0,2C103.48,47,102.07,46.94,102.05,45Z"/><path class="cls-14" d="M134.24,66c-.72,2.49-2.75,2.1-4.5,1.84-2.43-.37-1.46-2.59-1.9-4,.06-3,.11-5.89.16-8.84l-.16-7.88.21-2.13c2.87,1.15,2.34,5.65,6,6l-.12,11.08c-1.81.22-3.39,1.42-3.26,3s2.16.73,3.37.91Z"/><path class="cls-15" d="M143.2,57.14c-.1.94-.19,1.88-.29,2.83-4.49,3.93-3.37-3-5.8-3l.09-3.9c2.66-1.36,2.6-2.74,0-4.13,0-.64-.07-1.28-.1-1.92l1.84-.07,4.17,2,1.74.19L145,49l.15,4-.25-.11C142.36,53.56,143.14,55.5,143.2,57.14Z"/><path class="cls-24" d="M137.11,57c2.43,0,1.31,6.94,5.8,3,0,2,0,3.9,0,5.85l-5.7.05h0C137.14,62.89,137.12,59.93,137.11,57Z"/><path class="cls-4" d="M134,66c-1.21-.18-3.22.71-3.37-.91s1.45-2.75,3.26-3C133.94,63.42,134,64.71,134,66Z"/><path class="cls-24" d="M137.22,48.93c2.58,1.39,2.64,2.77,0,4.13C137.21,51.69,137.22,50.31,137.22,48.93Z"/><path class="cls-17" d="M119,42c2.31-.27,3.19.88,3.06,3.05-.08.68-.16,1.35-.23,2L119,47C119,45.33,119,43.67,119,42Z"/><path class="cls-14" d="M119,47l2.81.1c0,1.29.05,2.57.07,3.86l-2.84.08-.12-.07C119,49.63,119,48.31,119,47Z"/><path class="cls-15" d="M96,57c0,1,0,2-.15,2.94-.24,1.75-1.32,3.4-3,3.22S92.06,61,92,59.81c-.13-3.59-.1-7.19-.13-10.79C99.24,48.6,94.76,54.3,96,57Z"/><path class="cls-14" d="M90.17,49,89.81,51,86.9,51c0-2,0-4,0-6H87L89.87,45Z"/><path class="cls-13" d="M96,45c1.42,0,2,.74,1.75,2.17C96.26,47.19,95.92,46.27,96,45Z"/><path class="cls-22" d="M157.89,45l.27,1.87-.33.31-3.9-.16-2.78-.1L151,45l.2.1C153.4,44.69,155.59,41.08,157.89,45Z"/><path class="cls-24" d="M143.13,48.92l-4.17-2c.38-2.47,2.28-1.82,3.84-1.87Z"/><path class="cls-15" d="M121.89,51c0-1.29,0-2.57-.07-3.86.07-.68.15-1.35.23-2l3.75.08c.23,1.13.73,2,2,2,0,2.63.1,5.25.16,7.88-2.09.23-2.12,1.81-2,3.28.38,4.5-1.9,2.59-3.8,1.64C122.1,56.93,122,53.94,121.89,51Z"/><path class="cls-12" d="M86.94,45c0,2,0,4,0,6l-3.71,0c-.12-1.25-.23-2.5-.35-3.74C83.23,44.67,85.19,45,86.94,45Z"/><path class="cls-4" d="M144.87,49.11c.06-1.36.13-2.72.19-4.08L149,45c0,1.33,0,2.65,0,4l-4,0Z"/><path class="cls-21" d="M149,49c0-1.33,0-2.65,0-4l2,0,.18,1.92c-.1,1.37-.21,2.74-.31,4.11H149C149,50.33,149,49.65,149,49Z"/><path class="cls-14" d="M149,51h1.81l.32,0,0,8.92c0,2.69-.07,5.37-.11,8-2-.64-5,1.62-6-2,5.23.59,3.86-3.19,4-6Z"/><path class="cls-24" d="M122.21,59.92c1.9.95,4.18,2.86,3.8-1.64-.13-1.47-.1-3.05,2-3.28,0,3-.1,5.89-.16,8.84A2,2,0,0,0,126,66l-3.94,0Z"/><path class="cls-12" d="M149,60c-.11,2.8,1.26,6.58-4,6,0-3,0-6,0-9.06,0-1.34-.05-2.69-.07-4l.25.11C149.19,53.84,144.8,59.28,149,60Z"/><path class="cls-17" d="M151,68c0-2.68.07-5.36.11-8L154,60l.18,1.9c-.54,3,.39,4.57,3.7,3.94.09.7.19,1.41.29,2.11C155.76,70.17,153.38,68.36,151,68Z"/><path class="cls-17" d="M122.05,66,126,66c.19,2.35-.08,4.05-3.21,4.09s-4.13-1.18-3.76-4l.06,0Z"/><path class="cls-17" d="M137.17,65.87l5.7-.05c-.07,1.52.88,3.75-1.56,3.93S137.51,68.28,137.17,65.87Z"/><path class="cls-22" d="M144.87,52.93c0,1.34,0,2.69.07,4l-1.74.18C143.14,55.5,142.36,53.56,144.87,52.93Z"/><path class="cls-15" d="M154.13,61.93,154,60l-.06-9.1,0-3.93,3.9.16.27,9.89c0,1.67,0,3.34,0,5l-.17-.11Z"/><path class="cls-24" d="M154.13,61.93l3.79,0-.09,3.92C154.52,66.5,153.59,64.9,154.13,61.93Z"/><path class="cls-25" d="M122.05,66l-3,0,0-15,2.84-.08c.11,3,.21,6,.32,9C122.15,61.94,122.1,64,122.05,66Z"/><path class="cls-1" d="M83.19,51l3.71,0,2.91.06,0,3.9C82.54,56,86.42,60.49,87,64l-4,.09Q83,60.5,83,56.94C83,55,83.12,53,83.19,51Z"/><path class="cls-14" d="M87,64c-.61-3.47-4.49-7.94,2.75-9q0,4.56.11,9.13Z"/><path class="cls-4" d="M87,64l2.86.11c0,.61,0,1.23,0,1.85-2.25-.71-5.42,2-6.8-1.87Z"/><path class="cls-1" d="M149,60c-4.15-.75.24-6.19-3.83-7L145,49l4,0c0,.67,0,1.35,0,2C149,54,149,57,149,60Z"/><path class="cls-25" d="M153.93,47c0,1.31,0,2.62,0,3.93l-2.74.1-.32,0c.1-1.37.21-2.74.31-4.11Z"/><path class="cls-22" d="M151.15,51l2.74-.1L154,60,151.12,60Z"/></g></g></svg>