<svg xmlns="http://www.w3.org/2000/svg" viewBox="0 0 320 124"><defs><style>.cls-1{fill:#030302;}.cls-2{fill:#8a0000;}.cls-3{fill:#b8c0bb;}.cls-4{fill:#cd8653;}.cls-5{fill:#815332;}.cls-6{fill:#360504;}.cls-7{fill:#694e34;}.cls-8{fill:#3c3628;}.cls-9{fill:#98643e;}.cls-10{fill:#18120e;}.cls-11{fill:#240101;}.cls-12{fill:#a6a7a3;}.cls-13{fill:#272019;}.cls-14{fill:#41413c;}.cls-15{fill:#0d0b07;}.cls-16{fill:#888781;}.cls-17{fill:#591d1e;}.cls-18{fill:#999594;}.cls-19{fill:#ad6e44;}.cls-20{fill:#5e0101;}.cls-21{fill:#470201;}.cls-22{fill:#82735a;}.cls-23{fill:#646563;}.cls-24{fill:#5f5951;}.cls-25{fill:#4e4f4e;}.cls-26{fill:#575858;}.cls-27{fill:#6f0302;}.cls-28{fill:#757370;}.cls-29{fill:#702929;}</style></defs><title>Asset 11</title><g id="Layer_2" data-name="Layer 2"><g id="Layer_1-2" data-name="Layer 1"><path class="cls-1" d="M230,122.11l0,1.89h-4c-2.57-12.94-2.09-26.44-4.78-39-1.76-8.31-.78-17-4.06-24.95,1.72-.39,4.14,1.08,4.9-1.86L224,58l2.08-.09,5.84,0,3.84-.07,3.24.15q0,7.6.05,15.2,0,21.45,0,42.91c0,2.15.47,4.5-3,4.07q-1-5.55-2-11.12a14.66,14.66,0,0,1-2.05-7.91c.28-8.72,1.87-17.45,0-26.16V73.08c1.45-3.9,2.43-7.58-3.63-8.15-.12,0-.18-.59-.27-.9L232,64c1.47-.18,3.64.65,3.82-1.74.21-2.86-2.2-2.05-3.81-2.23-1.78,0-3.56,0-5.33,0-1.19,0-2.29.22-2.5,1.7A1.85,1.85,0,0,0,226,64c0,4.07-.23,8.17.11,12.22.19,2.28-1.77,5.4,1.91,6.75v3q0,6,0,12c-4.25,3.6.54,3.64,2,5,0,2,0,4,0,6v2c.89,1.67-4.89,3.31,0,5Z"/><path class="cls-2" d="M15,0H49c0,2,.08,4,.13,6-.07,3-.14,6-.2,9L47,15l-.1-7c-.16-1.36.65-3.88-1.29-3.61a6.48,6.48,0,0,0-5.34,5.24c-.67,7.1-6.32-.48-8.33,3.09-.46.82-1.88-1.13-2-2.56-.09-1-.34-2.11-1.72-1.84S27.17,9.83,27,10.79c-.2,1.2.56,2.67-1,3.61-2.11-1.48,0-4.21-1.53-5.59C18.91,10.26,18.54,14.42,19,19L19,23H17.06Q17,20,17,17c-.73-3,1.95-6.7-1.86-9.07L14.85,6l0-2Z"/><path class="cls-3" d="M85,0h68l.17,2c-.1.67-.2,1.34-.29,2l-3.81,2c-.44-.5-.87-1-1.3-1.52l-.84,1.52c-2.32-2.45-4.6.06-6.9,0-.42-2.4-2.32-2-3.91-2q-22.65,0-45.3.1L87,4,85.1,3.87l0-.05Z"/><path class="cls-4" d="M85,0c0,1.27.09,2.54.13,3.82a7.84,7.84,0,0,1-5.67.61c-4.14-.88-8.7.43-13,.12-3.84-.28-8,4.32-11.52-.65L55,0Z"/><path class="cls-5" d="M164,0h2c0,2.66.06,5.31.1,8L166,11h-4.07c0-1.7-.11-3.39-.16-5.09l.38.09C165.46,4.85,163.41,2,164,0Z"/><path class="cls-6" d="M198,0l-.16,4c-3.9-3-8.46-1.77-12.8-2,0-.68,0-1.35,0-2Z"/><path class="cls-6" d="M168,0h15c0,.67,0,1.35,0,2H168Z"/><path class="cls-7" d="M6.06,3.93C5.54.78,10.05,2.68,10,0h5l-.18,4L10,4,8,4Z"/><path class="cls-8" d="M0,75l2-.06c0,1.27.58,2.07,2,2,.81,2.52-1.49,4-2,6.12L0,83Z"/><path class="cls-9" d="M158,0h2c0,2,.09,4,.13,6-.09.66-.19,1.31-.28,2L158,8h-3c.07-.69.13-1.39.2-2.08C159.8,5.69,157.34,2.1,158,0Z"/><path class="cls-10" d="M49.13,6,49,0h4l0,3.92c-1.43,0-1.84,1-2.11,2.13Z"/><path class="cls-4" d="M158,0c-.66,2.1,1.8,5.69-2.81,5.92l-.33-4L155,0Z"/><path class="cls-11" d="M183,2c0-.67,0-1.35,0-2h2c0,.68,0,1.35,0,2l0,2-.17,3.86-1.84,0L183,6C183,4.68,183,3.35,183,2Z"/><path class="cls-11" d="M168,0c0,.67,0,1.34,0,2l0,2-.16,4L166.1,8c0-2.66-.07-5.31-.1-8Z"/><path class="cls-4" d="M164,0c-.59,2,1.46,4.85-1.87,6,0-2-.09-4-.13-6Z"/><path class="cls-10" d="M162,0c0,2,.09,4,.13,6l-.38-.09L160.13,6,160,0Z"/><path class="cls-12" d="M53,3.92,53,0h2l-.09,3.9Z"/><path class="cls-1" d="M318.07,55.9,320,56v2l-1.95.08C318.06,57.36,318.07,56.63,318.07,55.9Z"/><path class="cls-13" d="M155,0c-.05.63-.09,1.26-.14,1.89L153.17,2,153,0Z"/><path class="cls-6" d="M177,80.85l-5.48.15c-5,.16-10.85-1.79-13.36,5L145,92h0c-.14-.72-.14-1.7-1.2-1.47-.35.07-.53.95-.79,1.46h0c-5-1.22-10-1.9-15,0-.75-2.46,1.43-4,2-6,8.76,4.66,14.74,2.68,15-5a1.89,1.89,0,0,0,2-2c.49-2.67,2.72-2.24,4.29-2C159,78.48,161.28,75,160,68V56c.2-2.55-1.55-4.81-3.38-4.66A39,39,0,0,1,147,51V49l3.83-.1L153,49h10.92l6,0c.36,2.94-1.29,6.86,2,8.47,3.65,1.78,4-3.26,6.49-4.38A1.93,1.93,0,0,1,179,53q0,9,0,18c0,2,0,4,0,6l0,2A1.9,1.9,0,0,0,177,80.85Z"/><path class="cls-6" d="M318.07,55.9c0,.73,0,1.46,0,2.18-3.65,2.17-7.31,4.35-11,6.51-4.71,2.79-9.4,5.64-14.18,8.3-.73.41-1.93,0-2.91-.07,0-.6,0-1.21,0-1.81,4-3.06,1.14-7.38,2-11V58l0,0c3.26-.2,2.05-3.91,4.3-5.66S294.6,49,292,49c-14.88,0-29.77.07-44.65-.09a13.82,13.82,0,0,0-8.29,2.19l-3.15,0-3.87,0-6-.05v-.43c-2.49-2.44-4.87-3-7,.39l-2,.09H190c0-.7,0-1.39-.07-2.08l5.95-.13c4.36-.88,9.32,2.29,13.17-2l66-.05c5.41,0,10.83.17,16.25.06,1.71,0,4.16,1.16,4.8-1.87,2.82-.26,1.47-2.67,2.08-4.07,2-.25,1.81-1.69,1.75-3.09l0,0c2.31-.13,4.57,4.17,6.92.08-.12,3,2.46,3.95,4.11,5.64,1.4,1.44,2.66,3,2.18,5.28-.73-.32-1.44-.67-2.18-.95-2.65-1-3.08,1.73-4.53,2.73-.64.45-1.25,1.82-.25,1.87,4.28.23,7.2,5.14,12,3.34Z"/><path class="cls-13" d="M190,49c0,.69,0,1.38.07,2.08,0,4.83.06,9.66-.07,14.49-.11,4,1.24,8.53-3.15,11.41-1.55-.13-3.52.52-3.82-2a1.84,1.84,0,0,0,2-2l-.79-1.49L183,73c0,.67,0,1.34,0,2l-4,2c0-2,0-4,0-6,1.71-.22,2.21-1.43,2-2.85-.74-4.3.68-6.86,4.8-6.63C183,57.72,187,51.24,181,49Z"/><path class="cls-14" d="M115,97.82,40,97.84c0-.61.09-1.21.13-1.81L59,96l45,0c5,1,9.26-.66,13-4l.15,1.87L117,96.07A1.66,1.66,0,0,0,115,97.82Z"/><path class="cls-15" d="M155,94.12c.35,2.73-.16,4.15-3.59,4-7.8-.37-15.63-.21-23.44-.27,0-.6,0-1.21,0-1.82,2.68-1.44,5.88-.23,8.25-1.09,2.17-.8,7.45,4.14,6.75-2.93h2c0,2.19-.54,4.28,3.32,2.54C149.71,93.91,152.7,90.74,155,94.12Z"/><path class="cls-11" d="M155,94.12c-2.34-3.38-5.33-.21-6.73.43C144.45,96.29,145,94.2,145,92l13.14-6C156.38,88.46,161.3,93.43,155,94.12Z"/><path class="cls-8" d="M12,97.85H10c-.11-1.56.57-3.53-2-3.87V92l0-1.86c.52-.3,1.4-.51,1.49-.92.27-1.09-.78-1.13-1.5-1.36,2-2.3,1.56-4.62,0-6.94,1.31,0,1.86-.73,2-1.9l1.78-.1L12,83c0,1.67,0,3.35,0,5l.05,5.92Z"/><path class="cls-8" d="M38,97.84H15V94L15,92.12c1.28,0,1.85.69,2,1.89.49,2.67,2.63,2,4.28,2,5.54.06,11.09,0,16.63,0Z"/><path class="cls-8" d="M117,96.07l.12-2.2c1.43,0,1.82-.91,1.79-2.15s-.75-1.6-1.81-1.65l2.07-4.24,1.8,0,.18,4.31c.12,1.55-.88,3.62,1.87,3.91.13,1.87,1.43,2,2.88,1.94l.14,1.9-9,0C117,97.23,117,96.65,117,96.07Z"/><path class="cls-13" d="M8,92v5.8C.2,99.59,2,94.15,2.16,90,5.54,86.51,6,91.65,8,92Z"/><path class="cls-15" d="M8,92c-2.06-.36-2.47-5.5-5.85-2l0-4C4.48,85,5.06,82.8,6,80.83l2.05.09h0c1.52,2.32,2,4.64,0,6.95,0,.75,0,1.51,0,2.27Z"/><path class="cls-13" d="M6,80.83c-1,2-1.54,4.21-3.83,5.18L2,83.08C2.47,81,4.77,79.48,4,77l.21-4L6,73Z"/><path class="cls-10" d="M217,51.1l2-.09c0,.68.06,1.36.08,2,0,2.28-.78,5,3,5.1-.76,2.94-3.18,1.47-4.9,1.86Q217.09,55.56,217,51.1Z"/><path class="cls-8" d="M179,77l4-2h0c.3,2.52,2.27,1.87,3.82,2v2L179,79Z"/><path class="cls-13" d="M179,79l7.83,0c-2.61,4.21-6.6,1-9.85,1.84A1.9,1.9,0,0,1,179,79Z"/><path class="cls-15" d="M38,97.84,37.91,96c0-1.32.07-2.64.1-4a2,2,0,0,1,2-2v2l.1,1.93,0,2.09c0,.6-.09,1.2-.13,1.81Z"/><path class="cls-13" d="M15,94v3.85H12c0-1.31,0-2.61.05-3.91Z"/><path class="cls-10" d="M8,97.81V94c2.53.34,1.85,2.31,2,3.87Z"/><path class="cls-10" d="M126,97.85c0-.63-.1-1.27-.14-1.9l.15-2h2v2c0,.61,0,1.22,0,1.82Z"/><path class="cls-13" d="M117,96.07c0,.58,0,1.16,0,1.74H115A1.66,1.66,0,0,1,117,96.07Z"/><path class="cls-10" d="M239.05,51.11a13.82,13.82,0,0,1,8.29-2.19c14.88.16,29.77.08,44.65.09q0,4.5,0,9l0,0h-2c-3.81-5.61-7.47,1-11.26.18-.93-.2-1.37.73-.79,1.69,2.15,3.54.56,7.43,1.05,11.13h0c-3.43-1.71-4-4.72-4.08-8.19-.05-2.17,1.35-5.71-1.19-6.21A7.73,7.73,0,0,0,266,60h-4l-.79-1.53c-.41.51-.82,1-1.24,1.54l-3.93,0c-.29-.52-.58-1-.86-1.56l-1.28,1.66c-.88.06-2.31-.47-2.31.87s1.44.81,2.32.87c0,2,0,3.95.09,5.92s-.34,3.51-2.44,3.55S249,69.79,249,67.92a49.14,49.14,0,0,0-.12-7.87c-.34-2.36-1.31-1.95-1.92,0-.74.07-1.67,0-1.47,1.12.06.3,1,.46,1.46.68q0,5.46.07,10.94h-2l-1-1.43-1,1.43-4,.29q0-7.6-.05-15.2C239,55.66,239,53.38,239.05,51.11Z"/><path class="cls-15" d="M266,60a7.73,7.73,0,0,1,7.74-3.42c2.54.5,1.14,4,1.19,6.21.08,3.47.65,6.48,4.08,8.19,0,.61,0,1.23,0,1.84H268c0-.61,0-1.22,0-1.83,5.14-1.12,5.11-5.06,4.95-9.07A1.69,1.69,0,0,0,271,60c-6.35,2.18-1.48,7.47-3,11-4.05-2.25-1.05-6.08-2-9Z"/><path class="cls-10" d="M279,72.84c0-.61,0-1.23,0-1.84h0c3.4-1,1.49-3.79,2-5.76s-1.2-4.49,2.07-5.21c.05,2,1.46,2,2.88,1.89.49,1.65,1.16,2.63,2,.21.5-1.51-.56-3.73,2.1-4.13h0a1.85,1.85,0,0,0,2,2c-.84,3.64,2.06,8-2,11-.34-1.63.9-3.8-1.41-4.76-1-.4-2.42,0-2.29,1.06.34,2.85-2.61,3.47-3.29,5.54Z"/><path class="cls-15" d="M253.91,60.14l1.28-1.66c.28.52.57,1,.86,1.56.83,3.62-2.06,7.9,2,10.94l0,1.87-11,0q0-5.47-.07-10.94c0-.6,0-1.2,0-1.8.61-2,1.58-2.4,1.92,0a49.14,49.14,0,0,1,.12,7.87c0,1.87.5,3.46,2.58,3.43s2.5-1.73,2.44-3.55-.06-3.95-.09-5.92C253.92,61.3,253.91,60.72,253.91,60.14Z"/><path class="cls-15" d="M230,111v-2h4q1,5.57,2,11.12c-.88,4-4.18.77-6,2q0-3.06,0-6.1C233.14,114.36,233.18,112.69,230,111Z"/><path class="cls-10" d="M258,72.85,258,71l2,0c4.11-2.23,1.07-6.07,2-9h4c1,2.93-2,6.76,2,9h0c0,.61,0,1.22,0,1.83Z"/><path class="cls-15" d="M283,72.85c.68-2.07,3.63-2.69,3.29-5.54-.13-1.1,1.33-1.46,2.29-1.06,2.31,1,1.07,3.13,1.41,4.76,0,.6,0,1.21,0,1.81Z"/><path class="cls-1" d="M243,72.84l1-1.43,1,1.43Z"/><path class="cls-16" d="M298.19,41c-.61,1.4.74,3.81-2.08,4.07H275l-1.91-.15L286,36A1.92,1.92,0,0,0,288,34l0,0c1.48-.21,3.42.61,3.9-1.78,3.7.61,7.91-2.21,11.13,1.65-3.09-.21-3.15,1.89-3.11,4.07l0,0C297.64,38,298,39.53,298.19,41Z"/><path class="cls-6" d="M199.84,26c1.49,2.59-1.79,3.75-1.77,5.89-.09.71-.17,1.41-.25,2.12-11.33,1.53-21,7.83-31.78,11h0l0-2,.08-2c2-.14,1.95-1.57,1.95-3,5.7-.21,11.43-.36,15-6Z"/><path class="cls-17" d="M199.84,26l-16.84,6h-4a1.94,1.94,0,0,1-2-2c2.65-1.84,5.61-2.15,8.76-2.1,5,.08,7.55-1.72,4.27-6.92,3,.21,5.1-1,6-4h1.84C197.32,20.26,201.44,22.5,199.84,26Z"/><path class="cls-18" d="M228,32.16l15.06,0,2,3.79c-4.58-.84-8.41,3.23-13.06,2-3.86.08-7.53-.31-9.93-3.94C224,33.41,226.87,35.48,228,32.16Z"/><path class="cls-19" d="M228,32.16c-1.13,3.32-4,1.25-5.94,1.88-5.93,1.49-11.42,5-17.92,3.93l-.3-1.91c.07-1.34-.67-1.92-1.9-2.05l0-1.85Z"/><path class="cls-20" d="M197.83,17H196c-3-4.33-7.57-7.56-9-13,3.52,1.17,7,2.68,10.86,2C197.83,9.66,197.83,13.33,197.83,17Z"/><path class="cls-11" d="M318.11,55.93c-4.76,1.8-7.68-3.11-12-3.34-1-.05-.39-1.42.25-1.87,1.45-1,1.88-3.74,4.53-2.73.74.28,1.45.63,2.18.95C316.34,50.15,318.8,51.91,318.11,55.93Z"/><path class="cls-5" d="M245.05,36l-2-3.79,7.92,0c0,.58,0,1.16,0,1.74.14,2,1.56,2.06,3,2l-4.8,4.9C249,38.28,247.43,36.78,245.05,36Z"/><path class="cls-21" d="M197.84,6C194,6.71,190.5,5.2,187,4l-1.91,0,0-2c4.34.19,8.9-1.06,12.8,2Z"/><path class="cls-22" d="M254,32.15l10.05.06A1.69,1.69,0,0,0,266,34l0,0a1.94,1.94,0,0,1-2.13,2,1.77,1.77,0,0,0-1.88,1.91c-2.2-2.3-4.26-4.87-8-3.9h0Z"/><path class="cls-21" d="M299.9,37.94c0-2.18,0-4.28,3.11-4.07,1.84.86,3.67,1.72,3.81,4.15C304.47,42.11,302.21,37.81,299.9,37.94Z"/><path class="cls-23" d="M266.09,32.25l8.84,0c.52,2.49,2.53,1.61,4.07,1.8h0A1.9,1.9,0,0,1,277,36h-3.86c-1.43-3.82-4.7-1.31-7-2.05l0,0Z"/><path class="cls-24" d="M201.94,34c1.23.13,2,.71,1.9,2.05-2.37-.74-3.77,1.42-5.74,1.9-.09-1.31-.19-2.63-.28-3.94.08-.71.16-1.41.25-2.12l1.94.28A1.81,1.81,0,0,0,201.94,34Z"/><path class="cls-23" d="M279,32.21H288L288,34l0,0h-5l-4,0h0C279,33.4,279,32.8,279,32.21Z"/><path class="cls-5" d="M288,34l0-1.79h3.93C291.4,34.61,289.46,33.79,288,34Z"/><path class="cls-5" d="M279,32.21c0,.59,0,1.19,0,1.79-1.54-.19-3.55.69-4.07-1.8Z"/><path class="cls-9" d="M254,32.15c0,.62,0,1.24,0,1.85l-3,0c0-.58,0-1.16,0-1.74Z"/><path class="cls-25" d="M201.94,34A1.81,1.81,0,0,1,200,32.18l2,0Z"/><path class="cls-5" d="M266.09,32.25,266,34a1.69,1.69,0,0,1-2-1.74Z"/><path class="cls-10" d="M234,109h-4c0-2,0-4,0-6-.38-1.77,1.15-4.3-2-5q0-6,0-12c.6-.42,1.57-.74,1.72-1.28.35-1.26-.73-1.55-1.73-1.71-3.68-1.35-1.72-4.47-1.91-6.75-.34-4-.11-8.15-.11-12.22H228c.09.31.15.89.27.9,6.06.57,5.08,4.25,3.63,8.15l-3.41-1.3c-.12.62-.49,1.32-.32,1.84.64,2,2.38,1.15,3.73,1.3,1.88,8.71.29,17.44,0,26.16A14.66,14.66,0,0,0,234,109Zm-6.24-30.22,1.08,1.69c.36-.42,1-.81,1-1.26s-.43-1-.67-1.58Z"/><path class="cls-16" d="M226,51.05l6,.05c0,2.25-.07,4.5-.11,6.75l-5.84,0Z"/><path class="cls-13" d="M228,64H226a1.85,1.85,0,0,1-1.82-2.32c.21-1.48,1.31-1.68,2.5-1.7,1.77,0,3.55,0,5.33,0,0,1.33,0,2.65,0,4Z"/><path class="cls-13" d="M239.05,51.11c0,2.27,0,4.55-.05,6.82l-3.24-.15c-1.68-2.25-1.45-4.46.14-6.64Z"/><path class="cls-8" d="M222.06,58.15c-3.79-.06-3-2.82-3-5.1l3,0c3.06.71,1.48,3.25,2,5Z"/><path class="cls-26" d="M235.9,51.14c-1.59,2.18-1.82,4.39-.14,6.64l-3.84.07c0-2.25.07-4.5.11-6.75Z"/><path class="cls-25" d="M224,58c-.49-1.73,1.09-4.27-2-5,.22-2.64,2.57-1.73,4-2.38v.43l.09,6.84Z"/><path class="cls-10" d="M232,64c0-1.32,0-2.64,0-4,1.61.18,4-.63,3.81,2.23C235.62,64.63,233.45,63.8,232,64Z"/><path class="cls-15" d="M228,98c3.12.7,1.59,3.23,2,5C228.56,101.64,223.77,101.6,228,98Z"/><path class="cls-10" d="M230,111c3.17,1.68,3.13,3.35,0,5C225.12,114.32,230.9,112.68,230,111Z"/><path class="cls-8" d="M231.93,74.92c-1.35-.15-3.09.67-3.73-1.3-.17-.52.2-1.22.32-1.84l3.41,1.3Z"/><path class="cls-13" d="M228,83c1,.16,2.08.45,1.73,1.71-.15.54-1.12.86-1.72,1.28C228,85,228,84,228,83Z"/><path class="cls-21" d="M19,23c0-1.33,0-2.65.05-4l6,0c.2,1.52-.43,4.06,1.93,3.79,5.26-.59,11,.87,15.55-.45C47.8,20.82,47,22.82,47,26l0,8c-1.41-.5-4.61,1.05-4-1.49,1-4.06-1.9-2.53-2.91-2.32C33.09,31.62,25.86,29.7,19,32Z"/><path class="cls-27" d="M25,19l-6,0c-.46-4.57-.09-8.73,5.46-10.18C26,10.19,23.88,12.92,26,14.4c1.58-.94.82-2.41,1-3.61.16-1-.06-2.16,1.22-2.42s1.63.81,1.72,1.84c.11,1.43,1.53,3.38,2,2.56,2-3.57,7.66,4,8.33-3.09a6.48,6.48,0,0,1,5.34-5.24c1.94-.27,1.13,2.25,1.29,3.61-3.55-.22-2.84,2.4-2.88,4.43-.05,2.38-.88,5.21-3.41,3.7-3.56-2.13-4.46-.14-5.94,3.68-1-6.25-3.15-5.2-5.85-2.88A19.35,19.35,0,0,1,25,19Z"/><path class="cls-20" d="M25,19A19.35,19.35,0,0,0,28.82,17c2.7-2.32,4.9-3.37,5.85,2.88,1.48-3.82,2.38-5.81,5.94-3.68,2.53,1.51,3.36-1.32,3.41-3.7,0-2-.67-4.65,2.88-4.43,0,2.32.07,4.64.1,7,.18,1.54-.66,3.6,1.94,4Q49,22.5,49,26l-2,0c0-3.17.81-5.17-4.54-3.62-4.57,1.32-10.29-.14-15.55.45C24.54,23.09,25.17,20.55,25,19Z"/><path class="cls-27" d="M19,23,19,32c-.13,3.77.72,7.72-2,11l-1.93,0c-.06-.67-.12-1.35-.19-2L15,34c4.17-3,.93-7.44,2-11Z"/><path class="cls-6" d="M49,26q0-3.52,0-7c0-1.33,0-2.67,0-4,.06-3,.13-6,.2-9l1.71.1.38-.11,0,17-.3,7.08H49.05Z"/><path class="cls-6" d="M17.06,23c-1.12,3.6,2.12,8-2,11l-.09-2,0-2,0-7,.07-6.06L17,17Z"/><path class="cls-13" d="M14.85,6l.24,2Q15,11.48,15,15c-5.82-1.38-1.75-6.05-3-9Z"/><path class="cls-20" d="M15,15q.06-3.51.13-7C18.9,10.34,16.22,14,17,17l-1.89-.1C15,16.29,15,15.64,15,15Z"/><path class="cls-8" d="M14.85,6H10l0-2,4.83,0Z"/><path class="cls-27" d="M48.93,15c0,1.33,0,2.67,0,4-2.6-.36-1.76-2.42-1.94-4Z"/><path class="cls-19" d="M53,3.92l2,0c3.53,5,7.68.37,11.52.65,4.33.31,8.89-1,13-.12a7.84,7.84,0,0,0,5.67-.61l0,.05c.05.75-.06,1.73,1.06,1.6.33,0,.56-.94.83-1.44l3.83.07L91,6c.63,2.71-1.09,4.79-1.93,7.1C87,13.48,85.4,15.64,83,15l-2,0H79c-3.82-.11-8.32-4.09-11,2-4.33,2.23-8.66.76-13,0l-2,0c-1.19-3.61,2-7.94-1.82-11.11l-.38.11C51.11,4.91,51.52,3.91,53,3.92Z"/><path class="cls-18" d="M140,6c2.3,0,4.58-2.49,6.9,0l.14.14c-.11,1.44-.22,2.87-.35,4.42-1.6.14-2.46-3.9-4.44-.23-.84,1.56-4.18,1.57-6.07-.41-.64-.67-.7-1.84-2.07-.74-6.85,5.5-12.17,2-17.19-3C124.64,6.09,132.34,7.49,140,6Z"/><path class="cls-12" d="M140,6c-7.69,1.52-15.39.12-23.08.09h-3.9c-4.37,3.28-8.74-1.71-13.1,0-2.69.29-3.21,3.19-5.53,4.81C93.83,8.64,94.49,5.55,91,6L90.82,4.1Q113.47,4,136.12,4C137.71,4,139.61,3.57,140,6Z"/><path class="cls-18" d="M149.07,5.93l3.81-2c.05,1.33.1,2.66.16,4l-3.76,2.9-.36-4.76Z"/><path class="cls-14" d="M153,7.94c-.06-1.33-.11-2.66-.16-4,.09-.66.19-1.33.29-2l1.69-.06.33,4c-.07.69-.13,1.39-.2,2.08l0,0-1.83-.09Z"/><path class="cls-18" d="M146.93,5.93l.84-1.52c.43.51.86,1,1.3,1.52l-.14.14h-1.86Z"/><path class="cls-4" d="M87,4c-.27.5-.5,1.4-.83,1.44-1.12.13-1-.85-1.06-1.6Z"/><path class="cls-24" d="M4.17,73,4,77c-1.4.05-1.93-.75-2-2C2.15,64.3,1.85,53.63,3.87,43.1c2-.8,4.72-2,3.58-4.28C5.32,34.6,8.73,36.52,10,36l1.94.22L12,41l.09,4L12,48.88c-.11,1.16-.58,2-1.88,2l-.89-1.54L8,51c-3.54,2.93-3.39,5.91-.13,8.94.09.68.18,1.35.26,2l-.36,2H6.06c-.3-.61-.46-2.06-1.23-1.33s-.41,2.24-.57,3.42ZM7.61,45.72c-.3-.12-.63-.37-.83-.29s-.25.49-.37.76c.27.12.6.38.8.31S7.47,46,7.61,45.72Z"/><path class="cls-14" d="M2.15,32l.09-19,1.58,0c.11,1.37.23,2.74.34,4.11l.08,1.72c0,2.7,2.1,1.87,3.55,2.14l.35,0c0,2.36-.08,4.71-.11,7.07l0,2,0,0L6,30c-.43-2.12.88-4.52-1.93-7.81V30L4,32l0,0Z"/><path class="cls-14" d="M10,36c-1.24.51-4.65-1.41-2.52,2.81,1.14,2.24-1.56,3.48-3.58,4.28L4,43c-.47-1.72,1.21-4.23-1.84-5V36c2.7-.35,1.68-2.45,1.88-4l0,0c2.48,1.57,4.54,2.29,4-2l0,0h2Z"/><path class="cls-26" d="M3.81,13,2.24,13c0-1.68,0-3.37,0-5H4L8,8c0,2.34,0,4.68.05,7Z"/><path class="cls-18" d="M8,8,4,8,4,6.05l2.1-2.12L8,4c0,.63.07,1.26.11,1.9S8,7.29,8,8Z"/><path class="cls-13" d="M2.15,38C5.2,38.8,3.52,41.31,4,43,.18,42.54,2.64,39.74,2.15,38Z"/><path class="cls-15" d="M4,32c-.2,1.53.82,3.63-1.88,4V32Z"/><path class="cls-25" d="M4,6.05,4,8H2.23C1.62,6.28,2.42,5.83,4,6.05Z"/><path class="cls-13" d="M166.1,8l1.79,0c.06,1,.12,2,.17,3,0,2.67,0,5.34,0,8,0,1.31,0,2.61,0,3.91L166,23h-2c.51-4.34-1.57-3.45-4-2-.14-1.21-.69-2-2-2-.13-1.86-1.37-2.13-2.89-2l-.06-5.93L158,11l.12,1.89c2.89,3.43,5,2.92,7.87-1.88Z"/><path class="cls-8" d="M166,11c-2.85,4.8-5,5.31-7.88,1.89,1.31,0,1.79-.82,2-1.93l1.8,0Z"/><path class="cls-13" d="M161.91,11l-1.8,0c-.09-1-.17-2-.26-3,.09-.66.19-1.31.28-2l1.62-.06C161.8,7.62,161.86,9.31,161.91,11Z"/><path class="cls-21" d="M168.05,4.05l0-2h15c0,1.33,0,2.66,0,4A41.13,41.13,0,0,0,168.05,4.05Z"/><path class="cls-13" d="M8.11,5.89C8.07,5.25,8,4.62,8,4l2,0,0,2,0,0Z"/><path class="cls-5" d="M159.85,8c.09,1,.17,2,.26,3-.22,1.11-.7,1.94-2,1.93,0-.64-.07-1.27-.11-1.9,0-1,0-2,0-3Z"/><path class="cls-7" d="M158,8c0,1,0,2,0,3l-2.9.1L155,8l0,0Z"/><path class="cls-27" d="M168.05,4.05A41.13,41.13,0,0,1,183,6c0,.65,0,1.3.07,2-.07,1.45-.16,2.91,1.91,3L185,11c-.23,1.79-1.15,5.5-2.56,3.44-4.16-6.09-9.68-2.38-14.42-3.46-.05-1-.11-2-.17-3C168,6.69,168,5.37,168.05,4.05Z"/><path class="cls-27" d="M185.07,4.06,187,4c1.44,5.41,6,8.64,9,13-.91,3-3,4.22-6,4-2.19.54-3.15-1.84-5-2.11.61-2.62,4.78-5.21.06-7.86L185,11c0-1-.05-2-.07-3.05Z"/><path class="cls-21" d="M184.9,7.92c0,1,0,2,.07,3.05-2.07-.1-2-1.56-1.91-3Z"/><path class="cls-25" d="M150.83,48.92,147,49l-2,.06-15,.11-1.89-.08-2.31,0L123.07,49l-2.14,0c-1.32-.08-1.93.6-2,1.87l-1.77.06c-.23-2.58-2.22-1.93-3.75-2-4.46-.1-8.93-.13-13.4-.18L100,47l2,0a212.38,212.38,0,0,0,38-2c1-.13,3.26-.18,2.13-1.34-4.05-4.12.74-2.36,1.66-2.56,1.47-.33,3-.09,3.21-2.25.16-1.9-1.12-2.19-2.45-3.06-5-3.25-10.13-3.8-16.05-4.34-6.8-.63-13.73,0-20.46-1.43l0-4c1.94.07,4.22-.48,5.77.33,4.15,2.18,4.69-.35,5.22-3.33h2c-.09,1.91.52,3.09,2.74,3,2.06-.1,2.27-1.42,2.25-3h0a5.66,5.66,0,0,1,2,.1c4.28,2,8.44,8,13,.27a3.2,3.2,0,0,1,1.7.49c2.86,1.83,9.56,1.39,12.26-.87.05,2.35.09,4.69.14,7,0,1.32-.05,2.63-.08,3.95-2.53.52-1.86,2.47-1.85,4.13L153,43c-2.59.35-1.93,2.36-2,4Z"/><path class="cls-15" d="M190,49,181,49l-2,0h-9l-6,0c0-1.32.07-2.63.11-4l2,0h0c4.39,3.08,9.17,1.57,13.42.27,5.48-1.67,10.82-3,16.54-2.23V45c0,1.3-.06,2.61-.08,3.91Z"/><path class="cls-8" d="M164,45c0,1.32-.07,2.63-.11,4h-3.88c-.28-1.14.44-2.59-1.48-3.66-.23,1.35-.44,2.5-.64,3.66H153a1.83,1.83,0,0,0-2-2c.11-1.62-.55-3.63,2-4,3-1.58,3.05-3.21.1-4.9,0-1.66-.68-3.61,1.85-4.13.23.94.46,2.07,1.72,1.72.55-.16.89-1.09,1.32-1.67,1.33,0,1.92.78,2,2,.62,2.28-1.79,5.38,1.87,6.83.11,1.21.63,2,2,2.11Z"/><path class="cls-17" d="M160,68c1.3,7-1,10.5-8.68,9.12-1.57-.29-3.8-.72-4.29,2C142,77.84,137,81,132,78.93L132,77c5.82,1,11-2.92,16.87-2.16,4.52.58,10.1.77,6.11-6.85Z"/><path class="cls-10" d="M179,49l2,0c5.92,2.2,2,8.68,4.72,12.48-4.12-.23-5.54,2.33-4.8,6.63.24,1.42-.26,2.63-2,2.85q0-9,0-18C179,51.68,179,50.34,179,49Z"/><path class="cls-20" d="M160,68l-5,0-6-.12c.39-2.41,2.35-1.75,3.85-1.94,1.68-.21,2.67-2.13,1.79-2.54-3.5-1.58-2.07-5.19-3.67-7.42,3-.41,6,3.38,9,0Z"/><path class="cls-21" d="M145,81c-.26,7.66-6.24,9.64-15,5h-.1c0-1,.1-2,.16-3C135.09,82.73,140.6,86.09,145,81Z"/><path class="cls-11" d="M179,49c0,1.33,0,2.67,0,4a1.93,1.93,0,0,0-.48.08c-2.46,1.12-2.84,6.16-6.49,4.38-3.32-1.61-1.67-5.53-2-8.47Z"/><path class="cls-11" d="M128,96V92h0c5-1.89,10-1.21,15,0,.7,7.07-4.58,2.13-6.75,2.93C133.88,95.79,130.68,94.58,128,96Z"/><path class="cls-20" d="M145,81c-4.4,5.07-9.91,1.71-14.95,2l0-2a1.77,1.77,0,0,0,1.91-2l0,0C137,81,142,77.84,147,79.05A1.89,1.89,0,0,1,145,81Z"/><path class="cls-21" d="M160,56c-3,3.36-6-.43-9,0l-3.95-3L147,51a39,39,0,0,0,9.6.36C158.43,51.21,160.18,53.47,160,56Z"/><path class="cls-13" d="M121.14,90.1,121,85.79c.62-1.41,7.17-1.27,8.94.2h.1c-.56,2-2.74,3.53-2,6h0l-2,0c-.27-1.34.66-3.22-1.35-3.77-1.24-.34-1.57.85-1.81,1.83Z"/><path class="cls-15" d="M147,51c0,.68,0,1.36.05,2l-.12,2.89-2,.1-.06,0V51l.07-2,2-.06Z"/><path class="cls-15" d="M157.93,49c.2-1.16.41-2.31.64-3.66,1.92,1.07,1.2,2.52,1.48,3.66Z"/><path class="cls-10" d="M151,47a1.83,1.83,0,0,1,2,2l-2.18,0C150.88,48.27,150.94,47.62,151,47Z"/><path class="cls-11" d="M145,92h-2c.26-.51.44-1.39.79-1.46C144.85,90.31,144.85,91.29,145,92Z"/><path class="cls-25" d="M273.05,44.91l1.91.15c0,.6.06,1.21.1,1.81l-66,.05h0c0-.61,0-1.23-.07-1.85l26.91-.14c7.63.29,15.38,1.32,22-3.9l0,0c.16,1.54-.66,3.56,1.89,4L264,45h7Z"/><path class="cls-23" d="M275.06,46.87c0-.6-.07-1.21-.1-1.81h21.15c-.64,3-3.09,1.84-4.8,1.87C285.89,47,280.47,46.91,275.06,46.87Z"/><path class="cls-11" d="M195.92,48.88c0-1.3.05-2.61.08-3.91,4.31,1,8.48,2.94,13.08,2h0C205.24,51.17,200.28,48,195.92,48.88Z"/><path class="cls-11" d="M292,58q0-4.5,0-9c2.61,0,6.52,1.65,4.32,3.34S295.27,57.81,292,58Z"/><path class="cls-13" d="M226,50.62c-1.4.65-3.75-.26-4,2.38l-3,0c0-.68-.05-1.36-.08-2C221.13,47.62,223.51,48.18,226,50.62Z"/><path class="cls-21" d="M298.19,41c-.18-1.46-.55-3,1.75-3.09C300,39.3,300.15,40.74,298.19,41Z"/><path class="cls-15" d="M292,60a1.85,1.85,0,0,1-2-2h2C292,58.66,292,59.33,292,60Z"/><path class="cls-14" d="M183,75c0-.67,0-1.34,0-2l2,0a1.84,1.84,0,0,1-2,2Z"/><path class="cls-10" d="M185,73l-2,0,1.21-1.52Z"/><path class="cls-26" d="M104,96,59,96a1.86,1.86,0,0,0-2-2c-1.15-2.21-2.66-4.59,2-4,.54,2.73,2.82,2.19,4.4,1.9,5.78-1.07,11.51.13,17.26.08,1.89,0,3.78,0,6.08,0-3.18-5.8-7.62-6.84-12.77-5.91-2,.36-3.55,2.56-6,1.86,4.21-6.09-.77-4.83-4-5L64,81H85c1.55-.29,3.11.74,4.25,1.1,6.32,2,12.65-1.47,18.93.72A7.11,7.11,0,0,1,112,86.13c1.27,1.88-.78,3.05-1.74,3.39-4.21,1.5.87,2.72.29,3.67C108.46,95.09,104.94,92.28,104,96ZM86.63,86.73c-.3-.12-.63-.38-.82-.3a.83.83,0,0,0-.33.74.82.82,0,0,0,.74.33C86.42,87.42,86.49,87,86.63,86.73Z"/><path class="cls-25" d="M104,96c1-3.7,4.47-.89,6.56-2.79.58-1-4.5-2.17-.29-3.67,1-.34,3-1.51,1.74-3.39a7.11,7.11,0,0,0-3.83-3.31c-6.28-2.19-12.61,1.25-18.93-.72-1.14-.36-2.7-1.39-4.25-1.1.19-2.78-1.18-6.59,4-6,3.44-3.29,7.48-.94,11.24-1.29,6.24-.59,12.43-1.75,18.64-2.67l.26-.1-.21,6-10.57.54c2.56,4.27,6.87,4.26,10.56,5.51l.23,2.81-2.07,4.24c0,.64-.09,1.28-.13,1.92C113.25,95.32,109,96.93,104,96Zm1.64-17.7c-.12-.29-.17-.7-.36-.78s-.53.17-.79.27c.1.27.14.68.33.77S105.33,78.39,105.63,78.28Z"/><path class="cls-8" d="M57.05,94a1.86,1.86,0,0,1,2,2L40.08,96c0-.7,0-1.39,0-2.09Z"/><path class="cls-10" d="M117,92c0-.64.09-1.28.13-1.92,1.06.05,1.77.48,1.81,1.65s-.36,2.13-1.79,2.15Z"/><path class="cls-7" d="M10.15,50.89c1.3,0,1.77-.85,1.88-2l2.93.06c-.08,1.41-.15,2.82-.22,4.24-2.38-.36-2.75,1.1-2.74,3,0,3.29,0,6.58,0,9.87l-.16,12.91L10.1,79c-.09-1.37-.19-2.74-.28-4.11l.06-4,0-5,0-4,0-3.93Z"/><path class="cls-15" d="M11.88,78.93Q12,72.48,12,66l2.89-.13L15.08,68V81l-.19,2L12,83Z"/><path class="cls-15" d="M15,94l-2.91,0c0-2,0-4-.05-5.92h2.84c.07.65.15,1.3.22,1.94l0,2.15Z"/><path class="cls-13" d="M14.86,88H12c0-1.67,0-3.35,0-5l2.9,0h.25Z"/><path class="cls-28" d="M9.82,74.92c.09,1.37.19,2.74.28,4.11-.16,1.17-.71,2-2,1.9h0c0-2,.09-4,.13-6Z"/><path class="cls-1" d="M8.05,90.15c0-.76,0-1.52,0-2.27.72.22,1.77.26,1.5,1.35C9.45,89.64,8.57,89.85,8.05,90.15Z"/><path class="cls-20" d="M15,92.12c0-.71,0-1.43,0-2.15,3.13-2.29,3-4.61.07-7H14.9c.06-.66.13-1.32.19-2,5.28.07,10.67-.45,15.81.44,3.35.58,5.3,0,7.12-2.49l1.88,0L40,83l0,.08c-3.17,1.57-3,3.19-.09,4.87l.1,2a2,2,0,0,0-2,2c-1.55-.34-2.45,1.13-4.36,1-5.51-.29-11.38-3.2-16.65,1C16.89,92.81,16.32,92.1,15,92.12Z"/><path class="cls-17" d="M17,94c5.27-4.15,11.14-1.24,16.65-1,1.91.1,2.81-1.37,4.36-1,0,1.31-.06,2.63-.1,4-5.54,0-11.09.06-16.63,0C19.63,96,17.49,96.68,17,94Z"/><path class="cls-15" d="M119.16,85.83c-.08-.93-.15-1.87-.23-2.81.06-.65.12-1.3.19-2,3.49.37,4.1-1.61,3.93-4.54-.17-2.76.63-6-3.9-5.6l-.26.1-.06-3,.33-1.92L123,66c1.76-.44,4.53,1.36,4.88-2.21L128,62l1.82,0c.1,1.39.19,2.77.28,4.15-.09,1.6-.18,3.19-.26,4.79-1.91.51-1.39-2.89-3.81-2.1v11.5H128V73l1.85,0q.16,2.92.35,5.84c0,.73-.09,1.45-.14,2.17l0,2-.15,3c-1.77-1.47-8.32-1.61-8.94-.2Z"/><path class="cls-14" d="M122.87,90.08c.24-1,.57-2.17,1.81-1.83,2,.55,1.08,2.43,1.35,3.77,0,.66,0,1.31,0,2l-.15,2c-1.45.08-2.75-.07-2.88-1.94C123,92.7,122.92,91.39,122.87,90.08Z"/><path class="cls-15" d="M122.87,90.08c0,1.31.09,2.62.14,3.93-2.75-.29-1.75-2.36-1.87-3.91Z"/><path class="cls-8" d="M8.2,74.94c0,2-.09,4-.13,6L6,80.83V73l1.78-.09C7.93,73.61,8.07,74.28,8.2,74.94Z"/><path class="cls-15" d="M7.8,72.94,6,73,4.17,73l.09-6.87,1.61,0,.27,1.86c-.09,1.39-.39,2.9,1.67,3.15L8.06,71Z"/><path class="cls-7" d="M57.05,94l-17,0c0-.64-.06-1.29-.09-1.93l2,0c2.63-.33,1.83-2.41,2-4,4.06-.21,8.66.67,12-1,2.59-1.29,7.72,1.55,8-4.06,3.22.15,8.2-1.11,4,5-3.36-.84-6,1.5-9,2.08C54.39,89.4,55.9,91.78,57.05,94Z"/><path class="cls-1" d="M42,92l-2,0V90c0-.68-.07-1.35-.1-2s.09-1.35.13-2l1.9.08Z"/><path class="cls-15" d="M126,94c0-.66,0-1.31,0-2l2,0v2Z"/><path class="cls-15" d="M283.06,60c-3.27.72-1.61,3.38-2.07,5.21S282.4,70,279,71c-.49-3.7,1.1-7.59-1.05-11.13-.58-1-.14-1.89.79-1.69,3.79.84,7.45-5.79,11.26-.18-2.66.4-1.6,2.62-2.1,4.13-.8,2.42-1.47,1.44-2-.21C285.88,59.91,284.44,60,283.06,60Z"/><path class="cls-13" d="M260,71l-2,0c-4-3-1.14-7.32-2-10.94L260,60C260,63.68,260,67.34,260,71Z"/><path class="cls-15" d="M260,71c0-3.66,0-7.32,0-11,.42-.51.83-1,1.24-1.54.27.51.53,1,.79,1.53v2C261,64.93,264.08,68.77,260,71Z"/><path class="cls-13" d="M262,62V60h4v2Z"/><path class="cls-8" d="M253.91,60.14c0,.58,0,1.16,0,1.74-.88-.06-2.31.46-2.32-.87S253,60.2,253.91,60.14Z"/><path class="cls-14" d="M247,60.09c0,.6,0,1.2,0,1.8-.51-.22-1.4-.38-1.46-.68C245.28,60.14,246.21,60.16,247,60.09Z"/><path class="cls-10" d="M273,61.93c.16,4,.19,7.95-4.95,9.07h0c1.56-3.51-3.31-8.8,3-11C271,61.3,271.65,62,273,61.93Z"/><path class="cls-8" d="M273,61.93C271.65,62,271,61.3,271,60A1.69,1.69,0,0,1,273,61.93Z"/><path class="cls-8" d="M283.06,60c1.38,0,2.82-.12,2.88,1.89C284.52,62,283.11,62.05,283.06,60Z"/><path class="cls-22" d="M273.05,44.91,271,45c-.14-2-1.52-2-3-2l-.15-.15,0-1.74L271,41c.59-.42,1.54-.75,1.68-1.29C273,38.45,272,38.17,271,38l0,0,0-1.85,2.12-.12h2c.24.5.4,1.37.74,1.44,1,.21,1-.73,1.15-1.45A1.9,1.9,0,0,0,279,34l4,0c.09,2.06,1.6,2,3,2.06Z"/><path class="cls-5" d="M286,36c-1.45,0-3,0-3-2.06h5A1.92,1.92,0,0,1,286,36Z"/><path class="cls-11" d="M196,43c-5.72-.78-11.06.56-16.54,2.23-4.25,1.3-9,2.81-13.42-.27,10.77-3.13,20.45-9.43,31.78-11,.09,1.31.19,2.63.28,3.94-5,1.53.67,3.37-.15,5Z"/><path class="cls-21" d="M179,32.05h4c-3.57,5.59-9.3,5.74-15,6h0c0-.67,0-1.33,0-2l.06-2C171.62,33,176,36.24,179,32.05Z"/><path class="cls-8" d="M166.05,41c0,.66-.05,1.32-.08,2l-2,0c-.7-2.32,1.66-5.49-1.93-7l-.14,0,.08-2,2-.06a1.93,1.93,0,0,1,2,2v2Z"/><path class="cls-21" d="M166.05,41c0-1,0-2,0-3h2C168,39.42,168,40.85,166.05,41Z"/><path class="cls-13" d="M164,43l2,0,0,2-2,0-.16,0Z"/><path class="cls-29" d="M185,18.9c1.85.27,2.81,2.65,5,2.11,3.28,5.2.78,7-4.27,6.92-3.15-.05-6.11.26-8.76,2.1l-7,0c.06-.69.11-1.38.17-2.07,1.81-.88,4.65-1.52,4.39-3.67s-3-.95-4.65-1.18l0,0,.2-2.15C175.3,21.86,179.78,17.78,185,18.9Z"/><path class="cls-20" d="M170,30l7,0a1.94,1.94,0,0,0,2,2C176,36.24,171.62,33,168,34l0-2c1.34,0,1.91-.74,1.93-2Z"/><path class="cls-9" d="M235.92,44.93,209,45.07l-1.89-.19c-.07-.64-.13-1.29-.2-1.94.22-2.43-1.54-1.87-2.9-1.93l.12-3c6.5,1.07,12-2.44,17.92-3.93,2.4,3.63,6.07,4,9.93,3.94,1.28,5.89,6,1.67,8.87,3.07C240.88,44.46,236,41.65,235.92,44.93Z"/><path class="cls-16" d="M240.86,41.05C238,39.65,233.27,43.87,232,38c4.65,1.22,8.48-2.85,13.06-2,2.38.81,3.93,2.31,4.18,4.93Z"/><path class="cls-13" d="M204.14,38,204,41c0,.65,0,1.29,0,1.93s0,1.37,0,2.06c-2.06-.53-3.57-2.72-6-2,.82-1.65-4.83-3.49.15-5,2-.48,3.37-2.64,5.74-1.9Z"/><path class="cls-28" d="M240.86,41.05l8.37-.15L254,36v0c2.46.77,4,2.25,3.92,5-6.65,5.22-14.4,4.19-22,3.9C236,41.65,240.88,44.46,240.86,41.05Z"/><path class="cls-22" d="M251,34l3,0h0c0,.67,0,1.34,0,2v0C252.55,36,251.13,36,251,34Z"/><path class="cls-7" d="M254,36c0-.67,0-1.34,0-2,3.78-1,5.84,1.6,8,3.9V38c0,1.42-.07,2.82,1.89,3l.2,1.93L264,45l-4.16,0c0-1.63.81-3.63-1.89-4l0,0C258,38.27,256.49,36.79,254,36Z"/><path class="cls-5" d="M271,41l-3.11.15c-2.3.23-1.49-3.48-3.92-3.09l-.06-2a1.94,1.94,0,0,0,2.13-2c2.33.74,5.6-1.77,7,2.05l-2.12.12c-.84.21-2.39.44-2.39.65,0,1.74,1.48,1,2.43,1.2l0,0C271,39,271,40,271,41Z"/><path class="cls-28" d="M263.93,36l.06,2,0,0h-2v-.09A1.77,1.77,0,0,1,263.93,36Z"/><path class="cls-28" d="M277,36c-.12.72-.11,1.66-1.15,1.45-.34-.07-.5-.94-.74-1.44Z"/><path class="cls-8" d="M227.75,78.77l1.42-1.15c.24.53.71,1.08.67,1.58s-.65.84-1,1.26Z"/><path class="cls-20" d="M17,43c2.72-3.29,1.87-7.24,2-11,6.85-2.29,14.08-.37,21-1.83,1-.21,3.88-1.74,2.91,2.32-.6,2.54,2.6,1,4,1.49-.41.65-.68,1.61-1.27,1.9-6.31,3.12-13.2.94-19.8,1.9-3.81.56-5.49,1.35-4.9,5.22C19.67,45.84,18.35,45.86,17,43Z"/><path class="cls-27" d="M21,43c-.59-3.87,1.09-4.66,4.9-5.22,6.6-1,13.49,1.22,19.8-1.9.59-.29.86-1.25,1.27-1.9l0-8,2,0c0,1.34.07,2.68.1,4l.06,6L49,41a2,2,0,0,0-2,2c-1.5.44-3.12,1.48-4.48,1.21C35.41,42.79,28.2,43.07,21,43Z"/><path class="cls-29" d="M21,43c7.21.08,14.42-.2,21.57,1.26,1.36.27,3-.77,4.48-1.21,0,1.94,0,3.87,0,5.8l-3,.26-2-.1-2,.1-23.19-.25C17,47.59,16.3,47,15.1,47l-.18-2L15.08,43,17,43C18.35,45.86,19.67,45.84,21,43Z"/><path class="cls-10" d="M12,41c0-1.59-.05-3.18-.07-4.77.13-2-.31-4.47,3-4.24L15,34q-.06,3.5-.11,7Z"/><path class="cls-15" d="M12,41H14.9l.18,2c-.06.65-.11,1.29-.16,1.94H12.08Z"/><path class="cls-18" d="M51.22,5.94c3.86,3.17.63,7.5,1.82,11.11C53,19,52.89,21,52.82,23H51.18Z"/><path class="cls-16" d="M51.18,23h1.64c-.64,3.61,2,7.71-1.62,10.87l-.32-3.8Z"/><path class="cls-10" d="M50.88,30.05c.11,1.26.22,2.53.32,3.8,0,.7-.06,1.4-.1,2.1l-2,.06-.06-6Z"/><path class="cls-10" d="M10,6h2c1.23,2.91-2.84,7.58,3,9,0,.65.07,1.3.1,2Q15,20,15,23H12L8.14,21l-.35,0c.13-.65.27-1.3.4-1.95a1.76,1.76,0,0,0,1.7-2.25L9.78,15l0-6.89L10,6Z"/><path class="cls-1" d="M12,23h3q0,3.49,0,7H12l-.06-4Z"/><path class="cls-15" d="M12,30h3l0,2c-3.31-.23-2.87,2.2-3,4.24L10,36q0-3,0-6v0Z"/><path class="cls-5" d="M51.1,36c0-.7.07-1.4.1-2.1,3.67-3.16,1-7.26,1.62-10.87.07-2,.15-4,.22-5.93l2,0c-.05,4.18,0,9.07,5.57,8.74,4.43-.27,8.33-3,7.43-8.75,2.72-6.05,7.22-2.07,11-2,0,2.18-2.39,2-3.33,3.26-2,2.72-3.35,5.28.29,7.72l0,4c-1.32.37-2.61,1.08-.4,1.81,1.63.55,3.58.16,5.39.19,2.55.38,5.29-.74,7.65.84a8.29,8.29,0,0,1,1.65,2.23,7.06,7.06,0,0,1-1.54.89C84.59,37,80.51,38.73,76,38.07c-2.18-.17-4.28-.23-4,3l-1.93,0c-3.37,1.53-6.53-3.9-10-.31,0-4.15-5.28,1.75-5.13-2.69a1.87,1.87,0,0,0-2.07-2Z"/><path class="cls-16" d="M147.07,6.07h1.86c.1,1.42.2,2.83.35,4.77L153,7.94l.1-.06-.15,5.2c-10.12.27-20.06,2.6-30.32,2.07a194,194,0,0,0-25.28.19c-2.43.19-6.41,1.52-8.32-2.22C89.91,10.81,91.63,8.73,91,6c3.49-.47,2.83,2.62,3.42,4.85,2.32-1.62,2.84-4.52,5.53-4.81.74,3.41,3.55,2.58,5.81,3.56,4.86,2.09,7.3,2.82,7.29-3.57H117c5,5.07,10.34,8.55,17.19,3.05,1.37-1.1,1.43.07,2.07.74,1.89,2,5.23,2,6.07.41,2-3.67,2.84.37,4.44.23C146.85,8.94,147,7.51,147.07,6.07Z"/><path class="cls-23" d="M121,23h-2c-3.66-1.74-7.33.11-11,0-1.7-.21-3.53-.44-5.09-.61C94.51,21.49,87.23,26.9,79,26c1.38-3.5,2.64-7,2-10.91l2,0c.17,2.52-.64,4.28,3.72,5.46,4.64,1.27,4.55-4.38,6.05-3,3.23,3,5.41,1.31,8.7.6,2.44-.52,5.25-1.71,8.34-1,9.75,2.08,19.63.88,29.48.17,4.55-.32,9.13-.13,13.7-.17A1.8,1.8,0,0,0,154.87,19c0,.68,0,1.36,0,2-8.19,0-16.37-.06-24.56,0-1.66,0-3.84-.75-4.36,2h0C124.33,24.78,122.67,19,121,23Z"/><path class="cls-28" d="M153,17c-4.57,0-9.15-.15-13.7.17-9.85.71-19.73,1.91-29.48-.17-3.09-.67-5.9.52-8.34,1-3.29.71-5.47,2.39-8.7-.6-1.5-1.4-1.41,4.25-6.05,3C82.35,19.28,83.16,17.52,83,15c2.41.64,4-1.52,6.08-1.88C91,16.86,95,15.53,97.39,15.34a194,194,0,0,1,25.28-.19c10.26.53,20.2-1.8,30.32-2.07C153,14.4,153,15.72,153,17Z"/><path class="cls-9" d="M68,17c.9,5.77-3,8.48-7.43,8.75C55,26.08,54.94,21.19,55,17,59.33,17.76,63.66,19.23,68,17Z"/><path class="cls-22" d="M81,15c.63,3.88-.63,7.41-2,10.91L79,26H76c-3.64-2.44-2.24-5-.29-7.72C76.64,17,79,17.21,79,15Z"/><path class="cls-18" d="M113.05,6.05c0,6.39-2.43,5.66-7.29,3.57-2.26-1-5.07-.15-5.81-3.56C104.31,4.34,108.68,9.33,113.05,6.05Z"/><path class="cls-22" d="M153,17c0-1.32,0-2.64,0-4l.15-5.2L155,8l.12,3.14.06,5.93c-.09.65-.19,1.3-.28,1.95A1.8,1.8,0,0,1,153,17Z"/><path class="cls-12" d="M10.15,50.89c-.1,2.38-.21,4.77-.3,7.15l-1.7,0L8,51l1.24-1.64Z"/><path class="cls-15" d="M8,51c0,2.34.08,4.69.13,7-.09.64-.17,1.28-.26,1.91C4.63,56.9,4.48,53.92,8,51Z"/><path class="cls-13" d="M12.08,45h2.84l.18,2c0,.65-.11,1.3-.16,1.94h0L12,48.88C12,47.58,12.06,46.27,12.08,45Z"/><path class="cls-12" d="M9.87,62l0,4H8.07l-.28-2,.36-2Z"/><path class="cls-26" d="M7.79,64c.1.66.19,1.32.28,2-.07.7-.13,1.4-.2,2.1l-1.73-.17-.27-1.86c.06-.69.13-1.38.19-2.06Z"/><path class="cls-13" d="M6.06,64c-.06.68-.13,1.37-.19,2.06l-1.61,0c.16-1.18-.1-2.78.57-3.42S5.76,63.38,6.06,64Z"/><path class="cls-3" d="M9.87,62H8.15c-.08-.68-.17-1.35-.26-2,.09-.63.17-1.27.26-1.91l1.7,0C9.85,59.35,9.86,60.66,9.87,62Z"/><path class="cls-8" d="M7.61,45.72c-.14.29-.21.71-.4.78s-.53-.19-.8-.31c.12-.27.17-.69.37-.76S7.31,45.6,7.61,45.72Z"/><path class="cls-28" d="M8.19,19c-.13.65-.27,1.3-.4,1.95-1.45-.27-3.56.56-3.55-2.14l1.41-.9-1.49-.82c-.11-1.37-.23-2.74-.34-4.11l4.23,2,1.73,0c0,.6.07,1.21.11,1.81A1.82,1.82,0,0,0,8.19,19Z"/><path class="cls-13" d="M12,23c0,1,0,2,0,3A1.87,1.87,0,0,0,10,28L8,28c0-2.36.07-4.71.11-7.07Z"/><path class="cls-10" d="M4.08,30V22.18C6.89,25.47,5.58,27.87,6,30Z"/><path class="cls-15" d="M4.08,30,6,30l2,0c.49,4.33-1.57,3.61-4,2Z"/><path class="cls-12" d="M4.16,17.11l1.49.82-1.41.9C4.21,18.26,4.19,17.69,4.16,17.11Z"/><path class="cls-1" d="M8,28,10,28c0,.67,0,1.34,0,2v0H8C8,29.35,8,28.68,8,28Z"/><path class="cls-16" d="M9.78,15,8.05,15C8,12.65,8,10.31,8,8L8,8l1.85.08Z"/><path class="cls-23" d="M9.82,8.07,8,8c0-.7.09-1.4.14-2.1L10,6C9.93,6.7,9.87,7.38,9.82,8.07Z"/><path class="cls-2" d="M185,18.9c-5.2-1.12-9.68,3-14.85,2.06-.21-1.18-.8-1.95-2.11-1.92,0-2.68,0-5.35,0-8,4.74,1.08,10.26-2.63,14.42,3.46,1.41,2.06,2.33-1.65,2.56-3.44C189.76,13.69,185.59,16.28,185,18.9Z"/><path class="cls-15" d="M164,34,162,34a1.86,1.86,0,0,0-2-2c0-3.65.05-7.29.07-10.94,2.39-1.48,4.47-2.37,4,2,0,2.3.05,4.61.08,6.91C164.06,31.27,164,32.62,164,34Z"/><path class="cls-1" d="M170.15,27.92c-.06.69-.11,1.38-.17,2.07l0,0-1.9.18L166,30l.06-7,2-.07,1.86.17,0,0C170,24.69,170.07,26.3,170.15,27.92Z"/><path class="cls-8" d="M160.07,21.05c0,3.65,0,7.29-.07,10.94l-1.92-.07L158,30l0-9L158,19C159.38,19.05,159.93,19.84,160.07,21.05Z"/><path class="cls-8" d="M166,23,166,30l-1.86-.06c0-2.3-.05-4.61-.08-6.91Z"/><path class="cls-15" d="M158,19c0,.65,0,1.29-.07,1.94l-2.82,0-.24.1c0-.68,0-1.36,0-2s.19-1.3.28-1.95C156.67,16.9,157.91,17.17,158,19Z"/><path class="cls-5" d="M169.93,23.11l-1.86-.17c0-1.3,0-2.6,0-3.91,1.31,0,1.9.75,2.11,1.93C170.06,21.68,170,22.39,169.93,23.11Z"/><path class="cls-23" d="M70.1,41.05,72,41c2.1,0,4.2.12,4-3,4.48.66,8.56-1,12.74-2.13a7.06,7.06,0,0,0,1.54-.89,8.29,8.29,0,0,0-1.65-2.23c-2.36-1.58-5.1-.46-7.65-.84.52-2.68,2.67-1.92,4.32-1.94C91.54,30,97.75,30,104,30c5,2.06,9.12,6.06,15,6a18,18,0,0,1,3.3.54,27.21,27.21,0,0,1-1.27,3A7.46,7.46,0,0,1,116,43.13c-4.66,1.34-10.29-.71-14,3.85l-2,0c-8.64-1-17.59,2.12-26-2A5.16,5.16,0,0,1,70.1,41.05Z"/><path class="cls-26" d="M102,47c3.74-4.56,9.37-2.51,14-3.85a7.46,7.46,0,0,0,4.93-3.57,27.21,27.21,0,0,0,1.27-3,18,18,0,0,0-3.3-.54c-5.83.05-10-3.95-15-6l4,0c6.73,1.39,13.66.8,20.46,1.43,5.92.54,11.08,1.09,16.05,4.34,1.33.87,2.61,1.16,2.45,3.06-.18,2.16-1.74,1.92-3.21,2.25-.92.2-5.71-1.56-1.66,2.56,1.13,1.16-1.18,1.21-2.13,1.34A212.38,212.38,0,0,1,102,47Z"/><path class="cls-2" d="M130.12,66.19,129.85,62c-.41-2,1.74-4.73-1.58-6l-.16-6.94,1.89.07c0,.59.07,1.18.1,1.78,2.59,8.49,9.7,3.88,14.8,5.1l.07,0c.25,1.14.14,2.66.84,3.31s1-.65,1.25-1.3c4.66,2.63.57,5.24,0,7.85l-4.16.12h-2.8a2,2,0,0,0-2.15,2l-5.8,0C131.9,66.91,131.45,66.06,130.12,66.19Z"/><path class="cls-24" d="M108,30l-4,0c-6.21,0-12.42-.05-18.63,0-1.65,0-3.8-.74-4.32,1.94-1.81,0-3.76.36-5.39-.19-2.21-.73-.92-1.44.4-1.81,3.16.3,3-1.86,3-4L79,26c8.22.95,15.5-4.46,23.9-3.56,1.56.17,3.39.4,5.09.61,0,1,0,2,0,3Z"/><path class="cls-3" d="M100,48.83c4.47.05,8.94.08,13.4.18,1.53,0,3.52-.61,3.75,2l-.3,2c-2.57-2.35-5.08.18-7.64.12-13.72-.3-27.49.65-41.09-2.06-1.08-.16-2-.47-1.88-1.87l7.74-.3Z"/><path class="cls-26" d="M126,23c.52-2.71,2.7-1.95,4.36-2,8.19-.06,16.37,0,24.56,0l.24-.1c-.08.69-.15,1.37-.23,2.05-2.7,2.26-9.4,2.7-12.26.87a3.2,3.2,0,0,0-1.7-.49c-4.54,7.71-8.7,1.71-13-.27A5.66,5.66,0,0,0,126,23Z"/><path class="cls-26" d="M100,48.83H74V47l0-2c8.39,4.12,17.34,1,26,2C100,47.61,100,48.22,100,48.83Z"/><path class="cls-26" d="M108,26c0-1,0-2,0-3,3.67.11,7.34-1.74,11,0-.53,3-1.07,5.51-5.22,3.33C112.23,25.52,110,26.07,108,26Z"/><path class="cls-5" d="M128.11,49.11c0,2.31.11,4.62.16,6.94-.16,1.3-.31,2.61-.46,3.91l-1.74,0c-.45-.58-.79-1.51-1.36-1.68-1.22-.36-1.57.68-1.78,1.67l-2,.15-1.72.15-.12-2.1a2.19,2.19,0,0,0,2-2.14l2-.06c2.27.31,3.23-.63,2.75-2.92V49.06Z"/><path class="cls-21" d="M130.1,51c0-.6-.07-1.19-.1-1.78l15-.1c0,.65,0,1.3-.07,2C140,52.23,135,50.89,130.1,51Z"/><path class="cls-13" d="M154.92,23c.08-.68.15-1.36.23-2.05L158,21l0,9-2.94,0C155,27.67,155,25.33,154.92,23Z"/><path class="cls-22" d="M119.1,58.12l.12,2.1c0,.63,0,1.26.08,1.88l-.31,0L117.11,62,117,58c0-1.7-.11-3.4-.16-5.11l.3-2,1.77-.06c.1.7.19,1.4.28,2.1Z"/><path class="cls-26" d="M121,23c1.67-4,3.33,1.79,5,0,0,1.57-.19,2.89-2.25,3C121.52,26.08,120.91,24.9,121,23Z"/><path class="cls-10" d="M155.06,30,158,30c0,.65.06,1.29.08,1.93L158,34c-.43.58-.77,1.51-1.32,1.67-1.26.35-1.49-.78-1.72-1.72C155,32.65,155,31.34,155.06,30Z"/><path class="cls-18" d="M125.8,49.06V53L123,52.88l0-3.87Z"/><path class="cls-10" d="M153.13,38.1c3,1.69,2.93,3.32-.1,4.9C153.07,41.37,153.1,39.73,153.13,38.1Z"/><path class="cls-8" d="M123.07,49l0,3.87-.24,0-1.51-.05L121,53l-.07-3.93Z"/><path class="cls-4" d="M120.93,49.05,121,53l-1.78,0c-.09-.7-.18-1.4-.28-2.1C119,49.65,119.61,49,120.93,49.05Z"/><path class="cls-10" d="M198,43c2.47-.7,4,1.49,6,2l3.13-.12,1.89.19c0,.62.05,1.24.07,1.85-4.6,1-8.77-1-13.08-2V43Z"/><path class="cls-14" d="M164,43l-.12,2c-1.33-.08-1.85-.9-2-2.11l.15-6.87C165.66,37.52,163.3,40.69,164,43Z"/><path class="cls-15" d="M162.07,36l-.15,6.87c-3.66-1.45-1.25-4.55-1.87-6.83h1.88Z"/><path class="cls-13" d="M161.93,36h-1.88c-.11-1.24-.7-2-2-2l.06-2.1L160,32a1.86,1.86,0,0,1,2,2C162,34.7,162,35.37,161.93,36Z"/><path class="cls-29" d="M142.87,66l4.16-.12c0,1.3.59,2.08,2,2l6,.12c4,7.62-1.59,7.43-6.11,6.85C143,74.11,137.83,78,132,77c1.51-3.6,7.61-1.14,8.08-6.12C144.19,71.08,142.68,68.06,142.87,66Z"/><path class="cls-5" d="M140.09,70.91c-.47,5-6.57,2.52-8.08,6.12l-.06,1.9,0,0-1.77-.12q-.18-2.91-.35-5.84h.4a1.91,1.91,0,0,0,1.87-2c2.11-.71,5.92,1.82,5.84-3.06a2,2,0,0,1,2.15-2C140.08,67.65,140.09,69.28,140.09,70.91Z"/><path class="cls-27" d="M149,67.9c-1.41.07-2-.71-2-2,.6-2.61,4.69-5.22,0-7.85,0-.71-.08-1.41-.13-2.11l.12-2.89L151,56c1.6,2.23.17,5.84,3.67,7.42.88.41-.11,2.33-1.79,2.54C151.38,66.15,149.42,65.49,149,67.9Z"/><path class="cls-17" d="M130.16,78.83l1.77.12A1.77,1.77,0,0,1,130,81C130.07,80.28,130.11,79.56,130.16,78.83Z"/><path class="cls-20" d="M130.1,51c4.94-.07,9.87,1.27,14.81.08v5C139.8,54.84,132.69,59.45,130.1,51Z"/><path class="cls-21" d="M146.93,55.93c0,.7.09,1.4.13,2.11-.26.65-.51,2-1.25,1.3s-.59-2.17-.84-3.31Z"/><path class="cls-22" d="M258,41c2.7.33,1.91,2.33,1.89,4C257.31,44.56,258.13,42.54,258,41Z"/><path class="cls-22" d="M264,45l.12-2.08,3.74,0L268,43c0,.65-.08,1.3-.13,1.95Z"/><path class="cls-7" d="M267.9,45c.05-.65.09-1.3.13-1.95,1.47-.07,2.85,0,3,2Z"/><path class="cls-5" d="M41.93,86,40,85.94c0-1,0-1.89,0-2.84L40,83c2.72-.29,1.62-2.62,2.16-4.07,2.15-.34,1.71-2,1.82-3.45s.52-3,2.32-2c6,3.26,8.45.89,8.72-5.26.08-1.85,1.32-3.45,2.85-3.45,1.8,0,.79,2.06,1.11,3.19.92,2.37-2.39,6.53,3,7l0,0c.57,2-1.53,4.9,2,6L64,83c-.28,5.61-5.41,2.77-8,4.06-3.35,1.65-8,.77-12,1A1.87,1.87,0,0,0,41.93,86Z"/><path class="cls-24" d="M64,81c-3.48-1.07-1.38-4-2-6,6.36-.85,12.81-.47,19.18-1.81,2.35-.49,6-2,7.82,1.75-5.2-.57-3.83,3.24-4,6Z"/><path class="cls-23" d="M59,90c3-.58,5.65-2.92,9-2.08,2.41.7,3.91-1.5,6-1.86,5.15-.93,9.59.11,12.77,5.91-2.3,0-4.19,0-6.08,0-5.75,0-11.48-1.15-17.26-.08C61.82,92.22,59.54,92.76,59,90Z"/><path class="cls-23" d="M86.63,86.73c-.14.28-.21.69-.41.77a.82.82,0,0,1-.74-.33.83.83,0,0,1,.33-.74C86,86.35,86.33,86.61,86.63,86.73Z"/><path class="cls-23" d="M89,75c-1.85-3.78-5.47-2.24-7.82-1.75C74.82,74.57,68.37,74.19,62,75l0,0c1-2.24,2.75-4.31,2-7.06l.14-2c4,4.28,6.27,5.81,8.07,4.9,3.32-1.67,7.74-.77,10.22-4.6.42-.65,2.52-.17,3.84-.29,8.27-.73,16.17,2.7,24.48,2.12,2.66-.19,5.41-2.69,8.14-.15l.06,3c-6.21.92-12.4,2.08-18.64,2.67C96.49,74,92.45,71.69,89,75Z"/><path class="cls-14" d="M119.12,81.06c-.07.66-.13,1.31-.19,2-3.69-1.25-8-1.24-10.56-5.51L118.94,77Z"/><path class="cls-13" d="M119.12,81.06,118.94,77l.21-6c4.53-.37,3.73,2.84,3.9,5.6C123.22,79.45,122.61,81.43,119.12,81.06Z"/><path class="cls-14" d="M105.63,78.28c-.3.11-.63.35-.82.26s-.23-.5-.33-.77c.26-.1.6-.35.79-.27S105.51,78,105.63,78.28Z"/><path class="cls-2" d="M16.93,48.85l23.19.25c0,1.27.08,2.54.11,3.81l0,7.15v4L39.9,66c-4.26-2,0-6.83-3.37-9.74a23.81,23.81,0,0,0-.5,3.7c.07,2.45-.39,4.7-3.43,4-3.22-.76-8.12,2.94-9.46-2.8-.74-3.14-1.53-2.86-3.2-1A5.1,5.1,0,0,1,15.09,62l-.35-8.78c.07-1.42.14-2.83.22-4.24h0Z"/><path class="cls-8" d="M14.74,53.18c.12,2.92.23,5.85.35,8.78-.05,1.31-.11,2.62-.16,3.93L12,66c0-3.29,0-6.58,0-9.87C12,54.28,12.36,52.82,14.74,53.18Z"/><path class="cls-18" d="M7.87,68.08c.07-.7.13-1.4.2-2.1H9.9c0,1.66,0,3.32,0,5L8.06,71l-.25.08Z"/><path class="cls-16" d="M8.06,71l1.82,0-.06,4-1.62,0c-.13-.66-.27-1.33-.4-2C7.89,72.29,8,71.64,8.06,71Z"/><path class="cls-27" d="M14.93,65.89c.05-1.31.11-2.62.16-3.93a5.1,5.1,0,0,0,4.85-1.87c1.67-1.85,2.46-2.13,3.2,1,1.34,5.74,6.24,2,9.46,2.8,3,.73,3.5-1.52,3.43-4a23.81,23.81,0,0,1,.5-3.7C39.88,59.14,35.64,64,39.9,66V79L38,79c0-.67,0-1.33,0-2,1.8-5.29-4.52-6.39-4.73-8.94L23,71c-1.95-2.82-6-.17-7.92-3Z"/><path class="cls-21" d="M15.08,68c1.93,2.88,6,.23,7.92,3,.29,1.79,1.89,3.71,3,3.27,4.83-2,8.37.31,12,2.73,0,.66,0,1.32,0,2-1.82,2.46-3.77,3.07-7.12,2.49-5.14-.89-10.53-.37-15.81-.44Q15.09,74.5,15.08,68Z"/><path class="cls-27" d="M15.15,83c2.92,2.35,3.06,4.67-.07,7-.07-.64-.15-1.29-.22-1.94C15,86.36,15.05,84.69,15.15,83Z"/><path class="cls-10" d="M39.9,79V66c.09-.64.18-1.29.28-1.93l1.64,0,.29-.13.08,15c-.54,1.45.56,3.78-2.16,4.07C40,81.67,40,80.32,39.9,79Z"/><path class="cls-27" d="M40,83.1c0,1,0,1.89,0,2.84,0,.68-.08,1.36-.13,2C37,86.29,36.82,84.67,40,83.1Z"/><path class="cls-28" d="M118.83,68c-2.73-2.54-5.48,0-8.14.15-8.31.58-16.21-2.85-24.48-2.12-1.32.12-3.42-.36-3.84.29-2.48,3.83-6.9,2.93-10.22,4.6-1.8.91-4.07-.62-8.07-4.9.24-3.88,5.63-.1,5.89-4A2,2,0,0,1,71.91,60c-.34,3.36,1.38,4.11,4.46,4.08,14.16-.13,28.33-.07,42.49-.07l.3,2.07Z"/><path class="cls-8" d="M128,73v7.35h-1.91V73Z"/><path class="cls-13" d="M128,73l-1.91,0V68.87c2.42-.79,1.9,2.61,3.81,2.1.12.67.23,1.35.35,2h-.4Z"/><path class="cls-9" d="M130.21,73c-.12-.67-.23-1.35-.35-2,.08-1.6.17-3.19.26-4.79,1.33-.12,1.78.73,2,1.83,0,1,0,2,0,3A1.91,1.91,0,0,1,130.21,73Z"/><path class="cls-11" d="M127.81,60c.15-1.3.3-2.61.46-3.91,3.32,1.25,1.17,4,1.58,6L128,62Z"/><path class="cls-13" d="M119.16,66.05l-.3-2.07c0-.64.09-1.28.13-1.92l.31,0,1.61-.08.08.07a1.79,1.79,0,0,0,2,1.9v2Z"/><path class="cls-10" d="M123,66c0-.66,0-1.32,0-2l0,0,3.21-.11,1.64-.09C127.5,67.33,124.73,65.53,123,66Z"/><path class="cls-7" d="M127.85,63.76l-1.64.09-.27-3.8.13-.12,1.74,0,.21,2C128,62.59,127.91,63.17,127.85,63.76Z"/><path class="cls-8" d="M7.87,68.08l-.06,3c-2.06-.25-1.76-1.76-1.67-3.15Z"/><path class="cls-24" d="M41.93,86A1.87,1.87,0,0,1,44,88c-.2,1.56.6,3.64-2,4C42,90,42,88,41.93,86Z"/><path class="cls-16" d="M267.88,42.88l-3.74,0c-.07-.65-.14-1.29-.2-1.93,0-1,.05-2,.07-3l0,0c2.43-.39,1.62,3.32,3.92,3.09Z"/><path class="cls-23" d="M271,41c0-1,0-2,0-3,1,.15,2,.43,1.72,1.67C272.56,40.23,271.61,40.56,271,41Z"/><path class="cls-28" d="M271,38c-.95-.19-2.42.54-2.43-1.2,0-.21,1.55-.44,2.39-.65C271,36.75,271,37.37,271,38Z"/><path class="cls-13" d="M164.11,29.93,166,30l2.13.13,0,1.83,0,2L168,36h-2a1.93,1.93,0,0,0-2-2C164,32.62,164.06,31.27,164.11,29.93Z"/><path class="cls-15" d="M166,36h2c0,.67,0,1.33,0,2h-2C166,37.33,166,36.67,166,36Z"/><path class="cls-5" d="M170.15,27.92c-.08-1.62-.17-3.23-.26-4.85,1.66.23,4.38-1,4.65,1.18S172,27,170.15,27.92Z"/><path class="cls-29" d="M168.07,32l0-1.83,1.9-.18C170,31.21,169.41,32,168.07,32Z"/><path class="cls-10" d="M204,42.94c0-.64,0-1.28,0-1.93,1.36.06,3.12-.5,2.9,1.93Z"/><path class="cls-14" d="M204,42.94h2.92c.07.65.13,1.3.2,1.94L204,45C204,44.31,204,43.63,204,42.94Z"/><path class="cls-24" d="M264,38c0,1-.05,2-.07,3-2-.16-1.93-1.56-1.89-3Z"/><path class="cls-15" d="M51.1,36l1.83.06L53.14,38c-.66,1.74.86,4.39-2.16,5.13L49,43l0-2,.12-5Z"/><path class="cls-10" d="M49,41c0,.67,0,1.34,0,2l-.09,5.85H47.06c0-1.93,0-3.86,0-5.8A2,2,0,0,1,49,41Z"/><path class="cls-19" d="M71.91,60A2,2,0,0,0,70,62c-4.33,0-10.32-1.76-12.64.41-5.34,5-10,3.19-15.22,1.51l-.29.13c0-1.34,0-2.68,0-4L42,53l.11-4,2,.1c-1.15,5.9,1.48,7.47,7.08,7,6.29-.51,12.65-.19,19-.23,1.34,0,1.89.83,2,2.06L72,60Z"/><path class="cls-4" d="M70.1,55.88c-6.33,0-12.69-.28-19,.23-5.6.46-8.23-1.11-7.08-7l3-.26h1.88l17.32.27c-.14,1.4.8,1.71,1.88,1.87Z"/><path class="cls-15" d="M42.07,49c0,1.32-.08,2.63-.11,4l-1.73,0c0-1.27-.07-2.54-.11-3.81Z"/><path class="cls-24" d="M16.93,48.85l-2,.1c.05-.64.11-1.29.16-1.94C16.3,47,17,47.59,16.93,48.85Z"/><path class="cls-13" d="M8.19,19a1.82,1.82,0,0,1,1.7-2.25A1.76,1.76,0,0,1,8.19,19Z"/><path class="cls-10" d="M10,30c0-.67,0-1.34,0-2a1.87,1.87,0,0,1,1.93-2L12,30Z"/><path class="cls-7" d="M51,43.08c3-.74,1.5-3.39,2.16-5.13l1.86.1c-.15,4.44,5.13-1.46,5.13,2.69,3.44-3.59,6.6,1.84,10,.31A5.16,5.16,0,0,0,74,45c0,.66,0,1.33,0,2-6.32,0-12.65-.13-19,0C52,47.13,50.61,46.16,51,43.08Z"/><path class="cls-24" d="M76,38.07c.2,3.07-1.9,3-4,3C71.75,37.84,73.85,37.9,76,38.07Z"/><path class="cls-7" d="M79,26c.07,2.11.19,4.27-3,4l0-4Z"/><path class="cls-22" d="M55,38.05,53.14,38,52.93,36A1.87,1.87,0,0,1,55,38.05Z"/><path class="cls-29" d="M132.08,71c0-1,0-2,0-3l5.8,0C138,72.85,134.19,70.32,132.08,71Z"/><path class="cls-27" d="M140.09,70.91c0-1.63,0-3.26,0-4.9h2.8C142.68,68.06,144.19,71.08,140.09,70.91Z"/><path class="cls-12" d="M70.1,55.88l-2-4.89c13.6,2.71,27.37,1.76,41.09,2.06,2.56.06,5.07-2.47,7.64-.12,0,1.71.11,3.41.16,5.11l-2,0-1.23-1.56L113,58c-2.16,0-4.33,0-6.48,0-3.62.13-7.83,1.62-10.73.28-8.07-3.75-15.73-3-23.65-.34C72,56.71,71.44,55.91,70.1,55.88Z"/><path class="cls-24" d="M51,43.08c-.37,3.08,1.05,4.05,4,4,6.32-.18,12.65,0,19,0,0,.6,0,1.21,0,1.82l-7.74.3-17.32-.27L49,43Z"/><path class="cls-19" d="M119.22,53,121,53l.28-.11c-.06,1-.13,2.07-.2,3.11a2.19,2.19,0,0,1-2,2.14Z"/><path class="cls-16" d="M123,52.88l2.76.12c.48,2.29-.48,3.23-2.75,2.92-.09-1-.17-2-.25-3Z"/><path class="cls-7" d="M122.93,59.92c.21-1,.56-2,1.78-1.67.57.17.91,1.1,1.36,1.68l-.12.12h-2.9Z"/><path class="cls-7" d="M122.8,52.92c.08,1,.16,2,.25,3l-2,.06c.07-1,.14-2.07.2-3.11Z"/><path class="cls-8" d="M120.91,62l-1.61.08c0-.62-.06-1.25-.08-1.88l1.72-.15Z"/><path class="cls-7" d="M120.91,62l0-2,2-.15.12.13c0,.65-.07,1.3-.1,1.94l-2,.1Z"/><path class="cls-16" d="M113,58l.81-1.52L115,58c.15,1.62-.61,3.72,2.11,4l1.88.07c0,.64-.09,1.28-.13,1.92-14.16,0-28.33-.06-42.49.07-3.08,0-4.8-.72-4.46-4.08H72c3-.36,6.09-.14,9.22-.7,2.87-.52,8.78-.51,9,0,2.91,5.41,8,3.1,11,2.3C105.11,60.55,111.14,65.23,113,58Z"/><path class="cls-18" d="M117.11,62c-2.72-.26-2-2.36-2.11-4l2,0C117.06,59.35,117.08,60.67,117.11,62Z"/><path class="cls-9" d="M42.11,64c5.25,1.68,9.88,3.46,15.22-1.51,2.32-2.17,8.31-.39,12.64-.41-.26,3.86-5.65.08-5.89,4,0,.65-.09,1.31-.14,2L59,68c-.32-1.13.69-3.2-1.11-3.19-1.53,0-2.77,1.6-2.85,3.45-.27,6.15-2.68,8.52-8.72,5.26-1.8-1-2.2.53-2.32,2s.33,3.11-1.82,3.45Q42.15,71.45,42.11,64Z"/><path class="cls-22" d="M59,68l4.93,0c.79,2.75-.92,4.82-2,7.06C56.62,74.53,59.93,70.37,59,68Z"/><path class="cls-8" d="M40.23,52.91,42,53l-.18,7.1h-1.6Z"/><path class="cls-13" d="M40.18,60.06h1.6c0,1.35,0,2.69,0,4l-1.64,0Z"/><path class="cls-20" d="M38,77c-3.65-2.42-7.19-4.71-12-2.73-1.09.44-2.69-1.48-3-3.27l10.27-2.94C33.48,70.61,39.8,71.71,38,77Z"/><path class="cls-8" d="M121,62.09l2-.1c0,.66,0,1.32,0,2l0,0A1.79,1.79,0,0,1,121,62.09Z"/><path class="cls-13" d="M123,64c0-.65,0-1.31,0-2s.07-1.29.1-1.94H126c.08,1.27.17,2.54.26,3.8Z"/><path class="cls-18" d="M113,58c-1.82,7.26-7.85,2.58-11.7,3.6-3,.8-8.1,3.11-11-2.3-.27-.51-6.18-.52-9,0-3.13.56-6.17.34-9.22.7l.12-2c7.92-2.67,15.58-3.41,23.65.34,2.9,1.34,7.11-.15,10.73-.28C108.63,57.93,110.8,58,113,58Z"/></g></g></svg>