<svg xmlns="http://www.w3.org/2000/svg" viewBox="0 0 184 105"><defs><style>.cls-1{fill:#02122b;}.cls-2{fill:#135fd9;}.cls-3{fill:#010c1f;}.cls-4{fill:#104998;}.cls-5{fill:#0b346a;}.cls-6{fill:#041c40;}.cls-7{fill:#1658bc;}.cls-8{fill:#07285b;}.cls-9{fill:#06204b;}.cls-10{fill:#0c3c84;}.cls-11{fill:#031839;}.cls-12{fill:#134ba7;}.cls-13{fill:#2179f5;}.cls-14{fill:#2a75db;}.cls-15{fill:#296bd1;}.cls-16{fill:#3d9dec;}.cls-17{fill:#2f77b3;}.cls-18{fill:#142e54;}.cls-19{fill:#235faf;}.cls-20{fill:#205098;}.cls-21{fill:#2763c5;}.cls-22{fill:#3188f6;}.cls-23{fill:#3383c8;}.cls-24{fill:#378fd8;}.cls-25{fill:#21191d;}.cls-26{fill:#40a5f7;}.cls-27{fill:#362006;}.cls-28{fill:#625204;}.cls-29{fill:#957a00;}</style></defs><title>Asset 13</title><g id="Layer_2" data-name="Layer 2"><g id="Layer_1-2" data-name="Layer 1"><path class="cls-1" d="M141,91.84h-2l-1-1.42-1,1.42h-2l-.89-1.4-1.05,1.66,0,0c-8-2.74-15.86.57-23.79.85-.8,0-1.54,1.91-2.31,2.93l-2,.28c-4.86-2.46-10.11-.05-15-1.18-5.29-1.2-7.6,4.69-13.24,4.61-5.81-.09-11.48-3.26-18.33.16C54.22,101.83,55,102.27,56,105H52c-.42-4.3-6.19-2.24-7.1-6a16.31,16.31,0,0,0,2-.05c1.56-.21,3.7.82,4.56-.88,1.2-2.36-1.76-2.26-2.72-3.31-3.66-4-7.6-7.77-11.43-11.64-.56-.56-.93-2.64-1.79-1.25-2.76,4.48-3.29.17-4.54-1-2.41-2.16-4.51-3.61-5,1.31-.13,1.19-1,1.62-2,1.78-4,.06-6.47-4.8-10.88-3.21-.4-5.17,3.33-4.32,5.9-3.42,3.35,1.17,5.28,0,7.1-2.4,5.76,1.7,12.45,1.56,15.56,8.39.53,1.15,2.26,1.75,3.43,2.6,2.69,4.41,16.41,9.42,21,7.6.46-.18.65-1,1-1.6h2c3,3.11,15.73.44,19-4h4c7-.72,14.39,2.78,21-2,.29.57.63,1.64.86,1.62,6.83-.62,13.75-.86,20.41-2.3,3.09-.67,7,1.48,8.77-.75,5.37-6.67,12.71-10.25,19.75-14.45,1.46-.86,2.26-3.6,3.59-3.78C173,65.45,175.64,59.65,180,56c.37-1.82-1.07-4.39,2.1-5l1.9,0v3c-4.3,2.07-3.64,8-3.39,9.73.95,6.61-4.82,8.8-6.93,13.1-1.13,2.29-2.34,4.92-3.78,7.25-2.93,4.76-7.43,3.92-11.78,4C151.62,85.12,144.39,86.73,141,91.84Z"/><path class="cls-2" d="M58,2.15c1.39,0,2.24-.59,2-2.15h4c0,1,.09,1.93,1.52,2,4.72.2,9.48,1.2,14,1.52C86.55,4,93.25,7.23,100.4,6c2.37-.41,2.82,1,2.65,2.89,1.82,3.35,3.83,3,5.94.28h2c.33,3.08,4.32,3,5,5.82l-11,0A29,29,0,0,0,86,9.05c-4.84-.27-11,1.23-14.26-1.19C65.25,3,61.4,3.06,57.72,10.2c-.22.43-1.14.51-1.74.75C54.92,7.62,58.53,5.36,58,2.15Z"/><path class="cls-3" d="M56,105c-1-2.73-1.78-3.17,2.45-5.29,6.85-3.42,12.52-.25,18.33-.16,5.64.08,8-5.81,13.24-4.61,4.92,1.13,10.17-1.28,15,1.18-.31,1.08.61,3.21-1.58,2.8C97,97.71,91.08,101.28,84.71,101c-5.67-.22-10.92,3.37-16.78,2.13-.17,0-.61,1.2-.93,1.84Z"/><path class="cls-4" d="M0,36l3-.17.15.35V41L3,47v2l0,2,.05,5-.27,8L0,64Z"/><path class="cls-5" d="M0,64l2.81,0c0,1.67,0,3.33,0,5L0,69Z"/><path class="cls-6" d="M0,69l2.85,0c0,.65.07,1.3.1,1.95l-.06-.06L0,71Z"/><path class="cls-7" d="M116,15c-.67-2.79-4.66-2.74-5-5.82,10.23,2.53,20.87,2.65,31.1,5.57,5,1.43,10.89-.54,15.9,2.43A1.79,1.79,0,0,0,160,19h0a1.85,1.85,0,0,1-2,2c-6.32-.8-12.49-3-19-2-4.65-3.26-10-1.62-15-2C121.31,16.42,119.68,11.64,116,15Z"/><path class="cls-8" d="M179.83,43c.07.63.14,1.27.2,1.91,0,1.36,0,2.73,0,4.1-2.78-.11-3.89,1.87-5.19,3.86C171.05,58.59,162.49,63.62,158,60V56c4.29.71,6.8-2.26,10.16-4,4.42-2.32,8.21-3.95,8.87-9Z"/><path class="cls-9" d="M158,60c4.48,3.61,13-1.42,16.81-7.15,1.3-2,2.41-4,5.19-3.86h1.82l.27,2c-3.17.66-1.73,3.23-2.1,5-7.14-.46-9.69,8.83-17,8h-5C158,62.66,158,61.34,158,60Z"/><path class="cls-4" d="M160,17.17c2.71.58,7.55-2.84,7.07,3.75l-.15.15c-2.75.77-4.32-2.41-6.94-2.06h0C160,18.39,160,17.78,160,17.17Z"/><path class="cls-7" d="M109,9.16c-2.11,2.71-4.12,3.07-5.94-.28Z"/><path class="cls-10" d="M171,27.87c1.33,0,2.25.41,2,2L173,34c-2.58-.38-1.78-2.45-2-4C171,29.3,171,28.58,171,27.87Z"/><path class="cls-6" d="M179.83,43,177,43c0-.65,0-1.31,0-2s0-1.34,0-2h2.83C179.83,40.32,179.83,41.66,179.83,43Z"/><path class="cls-3" d="M179.84,39H177l0-2.94.08-.12C179.36,35.71,180.63,36.42,179.84,39Z"/><path class="cls-8" d="M173,34l.06-4.17c3.2.11,1.51,2.65,2,4.09l-.07.11-2,0Z"/><path class="cls-11" d="M181.83,49H180c0-1.37,0-2.74,0-4.1C183.27,45.1,181.67,47.44,181.83,49Z"/><path class="cls-4" d="M171,27.87c0,.71,0,1.43-.08,2.14a1.88,1.88,0,0,1-2-2l0-2h1.83Z"/><path class="cls-4" d="M167.08,20.92c2.47-.2,1.82,1.68,2,3l-.08.15c-1.88-.19-2-1.57-2.06-3Z"/><path class="cls-11" d="M175.06,33.94c1.49-.15,2.15.51,2,2l-.08.12L175,36l0-1.94Z"/><path class="cls-5" d="M170.85,26H169l0-1.89.08-.15C170.49,23.89,171.36,24.34,170.85,26Z"/><path class="cls-12" d="M160,17.17c0,.61,0,1.22,0,1.84a1.79,1.79,0,0,1-2-1.85Z"/><path class="cls-3" d="M107,95.84c.77-1,1.51-2.9,2.31-2.93,7.93-.28,15.77-3.59,23.79-.85-.36.63-.79,1.83-1.06,1.8C123.55,92.8,115.52,97.57,107,95.84Z"/><path class="cls-3" d="M141,91.84c3.39-5.11,10.62-6.72,17.12-3.8-.19.59-.33,1.66-.6,1.69C152,90.49,146.25,89,141,91.84Z"/><path class="cls-3" d="M133.06,92.1l1.05-1.66.89,1.4Z"/><path class="cls-3" d="M137,91.84l1-1.42,1,1.42Z"/><path class="cls-11" d="M163,64c7.31.83,9.86-8.46,17-8-4.36,3.65-7,9.45-13.62,10.34-1.33.18-2.13,2.92-3.59,3.78-7,4.2-14.38,7.78-19.75,14.45-1.8,2.23-5.68.08-8.77.75-6.66,1.44-13.58,1.68-20.41,2.3-.23,0-.57-1.05-.86-1.62,1.7-1.18,1.26-5.21,5.72-3,1.89.92,8.07.59,8.5,0,3.32-4.52,10.35-2.64,12.91-8a3.2,3.2,0,0,1,2.43-1.19c5.28-.09,8-3.16,9.44-7.81h2C156.94,65.08,160.74,68,163,64Z"/><path class="cls-6" d="M152,66c-1.46,4.65-4.16,7.72-9.44,7.81A3.2,3.2,0,0,0,140.13,75c-2.56,5.31-9.59,3.43-12.91,8-.43.59-6.61.92-8.5,0-4.46-2.16-4,1.87-5.72,3-6.61,4.78-14,1.28-21,2V86c.86-3.13,4.29,1.1,5.3-1.9,1.26-3.7,5.38.23,7.06-2.53,3.84,2.53,6.55.92,9.38-2A4.88,4.88,0,0,1,118.93,78c1.19.35,7.93,2.87,6.07-4.33A4.66,4.66,0,0,1,131.38,70c3.8,1.31,9.9,2.11,12.2,0C146.34,67.49,148.19,65.41,152,66Z"/><path class="cls-3" d="M44.9,99C39,92.94,31.56,89.25,24.16,85.46c-.26-.14-.19-.93-.27-1.42,1.06-.16,1.9-.59,2-1.78.53-4.92,2.63-3.47,5-1.31,1.25,1.13,1.78,5.44,4.54,1,.86-1.39,1.23.69,1.79,1.25C41.12,87,45.06,90.79,48.72,94.8c1,1,3.92,1,2.72,3.31-.86,1.7-3,.67-4.56.88A16.31,16.31,0,0,1,44.9,99Z"/><path class="cls-6" d="M45,86c-1.17-.85-2.9-1.45-3.43-2.6C38.46,76.57,31.77,76.71,26,75L26,75C25.3,72.51,27.46,71,28,69c4.08-1.74,3.42,4.84,7,4,7.09-.21,9.44,4.51,10.87,11.18,1.58-3.65,5-4.3,7-3.38C55.37,82,53.57,85.51,54,88c-.4,2.25-1.18,1.37-2.53.58C49.48,87.43,47.74,85.33,45,86Z"/><path class="cls-6" d="M69,92H67c-1.76-2.35-5.81-.68-7-4,.18-1.06.48-1.68,1.89-1.57C69.93,87,78,87.59,86,86h0c-1.11,3.77-4,3.82-7.31,4.13S71.52,87.94,69,92Z"/><path class="cls-11" d="M60,88c1.2,3.33,5.25,1.66,7,4-.32.55-.51,1.42-1,1.6-4.62,1.82-18.34-3.19-21-7.6,2.74-.67,4.48,1.43,6.47,2.57,1.35.79,2.13,1.67,2.53-.58h2c.26.51.43,1.38.79,1.46,1.06.24,1.06-.75,1.21-1.46Z"/><path class="cls-6" d="M13,80.83c-1.55-.17-3.88,1.48-4.09-1.78l1.56-1.21-.32-.32L9,79.08C7.24,77.79,3.76,81.42,3.17,77q1.86-.42,3.72-.87A53,53,0,0,1,26,75L26,75c-1.82,2.41-3.75,3.57-7.1,2.4C16.34,76.51,12.61,75.66,13,80.83Z"/><path class="cls-11" d="M69,92c2.52-4.06,6.45-1.57,9.69-1.87S84.89,89.77,86,86a1.86,1.86,0,0,1,2,2C84.73,92.44,72.05,95.11,69,92Z"/><path class="cls-6" d="M88,88a1.86,1.86,0,0,0-2-2h0c1.34-2.89,2.67-2.9,4,0v2Z"/><path class="cls-11" d="M90,88V86h2v2Z"/><path class="cls-4" d="M28,21.15l4-2.22c1.38,0,2.86.25,3-1.77l3.95-2.22c1.4,0,2-.72,2-2.08l0,.08L43,13c-.42,5.19,3.09,10.87-2,15.51-.26.23-.06.95-.08,1.45a31.44,31.44,0,0,1-14.69-2l-.5-4,.23-.11C28.06,24,28,22.54,28,21.15Z"/><path class="cls-7" d="M41,30c0-.5-.18-1.22.08-1.45,5.05-4.64,1.54-10.32,2-15.51,0-.62,0-1.24,0-1.85L44.83,11C46.29,11,47,10.3,47,8.85l-.09.09c2.1.12,2.2-1.26,2.1-2.8l9-4c.54,3.21-3.07,5.47-2,8.8v0c-1.38.21-3-.41-3.83,1.47C49.86,17.4,47,22.18,49,28A11.53,11.53,0,0,1,41,30Z"/><path class="cls-13" d="M25.77,24l.5,4-.37,0C19.81,30.63,13.37,29.92,7,30L7,28.18C12.8,24.9,19.61,25.9,25.77,24Z"/><path class="cls-2" d="M7,28.18,7,30c0,1.34,0,2.67-.08,4L3.15,32C2.33,28.62,3.57,27.32,7,28.18Z"/><path class="cls-7" d="M3.15,32l3.78,2c0,1.68,0,3.36,0,5-2.3.41-1.29-3.62-3.85-2.86L3,35.83C3,34.55,3.08,33.26,3.15,32Z"/><path class="cls-5" d="M35,17.16c-.18,2-1.66,1.8-3,1.77C31.82,16.43,33.49,17,35,17.16Z"/><path class="cls-5" d="M49,6.14c.1,1.54,0,2.92-2.1,2.8C47.31,7.82,46.14,5.49,49,6.14Z"/><path class="cls-5" d="M28,21.15c0,1.39.09,2.83-2,2.72C26.22,22.64,25.16,20.5,28,21.15Z"/><path class="cls-5" d="M40.94,12.86c0,1.36-.63,2.09-2,2.08C38.78,13.46,39.52,12.83,40.94,12.86Z"/><path class="cls-8" d="M43.05,11.15c0,.61,0,1.23,0,1.85l-2.11-.06C40.89,11.48,41.41,10.64,43.05,11.15Z"/><path class="cls-10" d="M47,8.85C47,10.3,46.29,11,44.83,11,44.84,9.58,45.48,8.8,47,8.85Z"/><path class="cls-10" d="M3.16,75l-.27-4.06L3,71c2.54-.69,4.09-2.21,4.2-5,2.23-.19,4.66-1.16,6.49-1.18C19.15,64.79,23,61,28,60L28.05,62,28,64c-1.85,3-7.53-.21-8,5C13.35,68.09,9,73.69,3.16,75Z"/><path class="cls-8" d="M3.16,75C9,73.69,13.35,68.09,20,69c2.66,2.35,5.31-1.33,8,0l0,0C27.46,71,25.3,72.51,26,75A53,53,0,0,0,6.89,76.13Q5,76.58,3.17,77Z"/><path class="cls-13" d="M56,11c.6-.24,1.52-.32,1.74-.75,3.68-7.14,7.53-7.16,14-2.34C75,10.28,81.15,8.78,86,9.05c2.66,3.1,1.67,5-2,6-2.92-.06-5.31-3.44-8.3-1.9-4.89,2.51-10.13,1.3-14.88.89-4-.34-2.42,1.61-2.86,3-3.43-1.11-1.32-4-2-6.06Z"/><path class="cls-14" d="M84,15c3.67-1,4.66-2.86,2-6A29,29,0,0,1,105,15l2,4-6,0H92l-6,0Z"/><path class="cls-15" d="M107,19l-2-4,11,0c3.68-3.34,5.31,1.44,8,2L122,21C117.08,19.67,112.17,18.36,107,19Z"/><path class="cls-16" d="M7.15,66C7,68.78,5.49,70.3,3,71c0-.65-.06-1.3-.1-1.95,0-1.66,0-3.32,0-5l.27-8H6.86C5.82,59.41,6.47,62.72,7.15,66Z"/><path class="cls-5" d="M3,47l.09-6,3.82,0,.24-.06-.24,6Z"/><path class="cls-17" d="M6.86,56H3.08c0-1.68,0-3.36-.05-5H7c0,.67.06,1.34.1,2Z"/><path class="cls-18" d="M6.92,41,3.1,41V36.18C5.66,35.42,4.65,39.45,7,39Z"/><path class="cls-19" d="M7,51H3c0-.66,0-1.33,0-2H7Z"/><path class="cls-20" d="M7,49H3V47l3.91,0Z"/><path class="cls-19" d="M139,19c6.5-1,12.67,1.19,19,2l0,5a5.55,5.55,0,0,0,4,4c4.21,1.46,4.94,5,4.94,8.81,0,1.07-.32,1.92-1.81,1.28-5.56-2.35-11.42-.43-17.11-1.11-.24-3,1.84-3,3.91-3a3.42,3.42,0,0,0,3.28-2.57,11.77,11.77,0,0,0-1-4.77c-5.31.92-8.8-3.21-13.21-4.63C141.59,21.81,139.11,20.88,139,19Z"/><path class="cls-21" d="M139,19c.11,1.88,2.59,2.81,2,5-5.31-3-11.07-3.46-17-3l-2,0L124,17C129,17.38,134.35,15.74,139,19Z"/><path class="cls-12" d="M158,26l0-5a1.85,1.85,0,0,0,2-2c2.62-.35,4.19,2.83,6.94,2.06,0,1.44.18,2.82,2.06,3L169,26l0,2C165.7,25.33,161.79,26.09,158,26Z"/><path class="cls-18" d="M158,60c0,1.33,0,2.65,0,4l-4,0-11,0c.75-3.84,4.9-.54,6.47-3.09-1.64-2.21-5.72.93-6.45-2.92,1.77-.38,4.31,1.18,5-2,7,1.34,9.14-1.9,8-8.39a34.48,34.48,0,0,1-.23-4.44l2-.17c.08.65.17,1.31.25,2v6L158,56Z"/><path class="cls-5" d="M158,56c0-1.68,0-3.36.05-5a28.74,28.74,0,0,1,6.8-2.17C169.34,48,175.2,48.13,175,41l2,0c0,.65,0,1.31,0,2-.66,5.06-4.45,6.69-8.87,9C164.81,53.73,162.3,56.7,158,56Z"/><path class="cls-6" d="M154,64l4,0h5c-2.26,4-6.06,1.08-9,2C154,65.33,154,64.67,154,64Z"/><path class="cls-20" d="M158.06,45c-.08-.66-.17-1.32-.25-2-.15-2.24-1.87-2-3.3-2q-27.82,0-55.63.13L96,41l0-1.9,17-.14,35,0c5.69.68,11.55-1.24,17.11,1.11,1.49.64,1.82-.21,1.81-1.28,0-3.83-.73-7.35-4.94-8.81a5.55,5.55,0,0,1-4-4c3.77.08,7.68-.68,11,2a1.88,1.88,0,0,0,2,2c.23,1.56-.57,3.63,2,4h0c-.55,3.5,1.94,8.41-2.72,10C166.54,45.37,162.15,44.75,158.06,45Z"/><path class="cls-8" d="M177,41l-2,0,0-5,2,.06L177,39C177,39.66,177,40.33,177,41Z"/><path class="cls-10" d="M175,36l0,5c.16,7.16-5.7,7.05-10.18,7.81a28.74,28.74,0,0,0-6.8,2.17V45c4.09-.23,8.48.39,12.2-.9,4.66-1.64,2.17-6.55,2.72-10l2,0C175,34.7,175,35.35,175,36Z"/><path class="cls-9" d="M154,64c0,.66,0,1.32,0,2h-2c-3.81-.59-5.66,1.49-8.42,4-2.3,2.07-8.4,1.27-12.2,0A4.66,4.66,0,0,0,125,73.68c1.86,7.2-4.88,4.68-6.07,4.33a4.88,4.88,0,0,0-5.19,1.51c-2.83,3-5.54,4.57-9.38,2-1.68,2.76-5.8-1.17-7.06,2.53-1,3-4.44-1.23-5.3,1.9H90c-1.34-2.9-2.67-2.89-4,0-8,1.6-16.06,1.05-24.11.43-1.41-.11-1.71.51-1.89,1.57H58l-.77-1.52L56,88H54c-.43-2.48,1.37-6-1.15-7.19-2-.92-5.4-.27-7,3.38C44.44,77.51,42.09,72.79,35,73c2.74-3.18,6.38-2.43,9.88-2.26-1,4,6.23,3.07,4.64,7.53,0,0,1,.59,1.24.43,4.08-2.85,4.8,1.77,6.93,3.15.73.48.26,1.79,2.31,1.06,6.07-2.15,12.81-5.63,18.57-4.59,7.35,1.33,13.45-6.23,20.5-1.45.29.2,1.14-.6,1.76-.67,4.28-.52,5.73-3.41,6.17-7.19l2,0a61.66,61.66,0,0,1,7.45.06c6.32.77,11.49-1.9,16.57-5l10,0Z"/><path class="cls-8" d="M107,69c-.44,3.78-1.89,6.67-6.17,7.19-.62.07-1.47.87-1.76.67-7-4.78-13.15,2.78-20.5,1.45-5.76-1-12.5,2.44-18.57,4.59-2,.73-1.58-.58-2.31-1.06-2.13-1.38-2.85-6-6.93-3.15-.22.16-1.24-.42-1.24-.43,1.59-4.46-5.6-3.5-4.64-7.53-3.5-.17-7.14-.92-9.88,2.26-3.57.85-2.91-5.73-7-4l0,0,0-5c0-.66,0-1.31.05-2a34.54,34.54,0,0,0,6.86,2.2c5.26,1.19,11,.83,15.15,6.25,2,2.63,6.84,3.3,10.83,3.14s8-.89,11.89-.47c6.3.67,12.54,2.72,17.66-3.27.8-.94,3.1-.53,4.68-.9,3.44-.82,7.43,1.91,10.55-2.15C106.59,65.63,106.7,68.1,107,69Z"/><path class="cls-6" d="M56,88l1.23-1.52L58,88c-.15.71-.15,1.7-1.21,1.46C56.43,89.37,56.26,88.5,56,88Z"/><path class="cls-1" d="M9,79.08l1.21-1.56.32.32L8.92,79.05Z"/><path class="cls-7" d="M26.27,28A31.44,31.44,0,0,0,41,30L41,30c.29,2.86-.89,3.73-3.84,4.13-3.56.48-5.91-2.76-9.26-2.13l-1.8-.13L25.9,28Z"/><path class="cls-15" d="M27.94,32c3.35-.63,5.7,2.61,9.26,2.13,2.95-.4,4.13-1.27,3.84-4.13A11.53,11.53,0,0,0,49,28l0,0c0,1.32,0,2.64,0,4-2.56.39-1.86,2.38-2,4,0,1,0,2,0,3-6.56,1.26-13.9.09-19,6Z"/><path class="cls-15" d="M56,11c.66,2-1.45,4.95,2,6.06L52,28H49l0,0c-2-5.81.87-10.59,3.15-15.54C53,10.57,54.59,11.19,56,11Z"/><path class="cls-22" d="M25.9,28l.24,3.93C22,32.9,19.29,35.64,17,39c-.11,2.15-.15,4.26,3,4l0,2L13,45a25.64,25.64,0,0,0,0-3.92c-.25-1.73,1.13-4.64-1.77-4.79-3.5-.18-1.64,3.14-2.29,4.85l-1.74-.22L6.92,41l0-2c0-1.68,0-3.36,0-5,0-1.33.06-2.66.08-4C13.37,29.92,19.81,30.63,25.9,28Z"/><path class="cls-5" d="M107,69c-.3-.91-.41-3.38-1.33-2.18-3.12,4.06-7.11,1.33-10.55,2.15-1.58.37-3.88,0-4.68.9-5.12,6-11.36,3.94-17.66,3.27-3.9-.42-7.92.3-11.89.47s-8.84-.51-10.83-3.14c-4.11-5.42-9.89-5.06-15.15-6.25A34.54,34.54,0,0,1,28.05,62C28,61.35,28,60.66,28,60s.07-1.28.1-1.93c2.39-.36,5.25-1,7.1-.81,3.39.4,6.86-2,10.87,1.61,2.37,2.1,5.72,5.3,9.1,6.25a34.32,34.32,0,0,0,11.24,1.55c3.88-.2,8.15,1.24,12-.72,4.61-2.35,9.14.54,13.42-.18A110.16,110.16,0,0,1,113,64c0,2.75-5,1.43-4,5Z"/><path class="cls-12" d="M28.08,58.05c0,.65-.07,1.29-.1,1.93-4.94,1-8.83,4.81-14.34,4.87-1.83,0-4.26,1-6.49,1.18-.68-3.31-1.33-6.62-.29-10,.06-1,.12-2,.19-3H8.94C9,54.67,9,56.31,9,58c.2,1.75-.12,4.65.7,5,1.84.82,2.89-1.59,4-2.83A6.93,6.93,0,0,1,20,58c3-.58,4.18-5.05,8.05-3.93Z"/><path class="cls-5" d="M28,64l0,5c-2.66-1.32-5.31,2.36-8,0C20.47,63.79,26.15,67,28,64Z"/><path class="cls-22" d="M52,28,58,17c.43-1.43-1.16-3.38,2.85-3,4.75.41,10,1.62,14.88-.89,3-1.54,5.38,1.84,8.3,1.9l2,4L75,19c-4.72,1.56-11.6-4.24-14.27,6-.87,3.33-2.31,5.72-.72,9l0,7c-5.24.71-7.87-5.28-12.94-5,.11-1.6-.59-3.59,2-4C52.14,32.3,52.06,30.14,52,28Z"/><path class="cls-23" d="M113,38.92l-17,.14L71,39H69c.82-5.84,5.39-1.82,8-3,7.56.92,15.08-1.09,22.71-.21,2.53.29,6.36.42,8.17-2,2.57-3.44-1.22-11.6-5.43-13-.61-.19-1-1.16-1.43-1.77l6,0c5.16-.63,10.07.68,15,2l2,0c-.73,3-2.35,6.48-.7,8.93,4.5,6.7-.54,5.63-4.3,6.13C116.77,36.35,113.22,34.3,113,38.92Z"/><path class="cls-16" d="M77,36c-2.58,1.21-7.15-2.81-8,3l-.12,2c-3-3.52-6,.33-8.92,0v0l0-7c5.9-1.27,11.81-2.53,17.7-3.89a1.88,1.88,0,0,0,.52-1.64c-2-2.83-.5-6.88-3.23-9.45l11,0,6,0c3.64,6.62.32,12-7,13.94C82.5,33.61,78.41,32,77,36Z"/><path class="cls-24" d="M77,36c1.42-4,5.51-2.38,8-3,7.35-1.9,10.67-7.32,7-13.94h9c.47.61.82,1.58,1.43,1.77,4.21,1.38,8,9.54,5.43,13-1.81,2.43-5.64,2.3-8.17,2C92.07,34.9,84.55,36.91,77,36Z"/><path class="cls-7" d="M8.94,53H7.05c0-.67-.07-1.34-.1-2l0-2-.06-2.07.24-6,1.74.22C8.94,43.09,9,45,9,47Z"/><path class="cls-17" d="M113,38.92c.25-4.62,3.8-2.57,6-2.87,3.76-.5,8.8.57,4.3-6.13-1.65-2.45,0-6,.7-8.93,5.92-.48,11.68,0,17,3,4.41,1.42,7.9,5.55,13.21,4.63a11.77,11.77,0,0,1,1,4.77,3.42,3.42,0,0,1-3.28,2.57c-2.07.06-4.15,0-3.91,3Z"/><path class="cls-5" d="M143,64l-10,0-13,0c-.31-2.47,3.3-1.22,3.35-3.3-1.56-1.56-4.76.64-5.35-2.64L127,58c4.72-.29,9.7,1.17,14-2L143,56l.06,2c.73,3.85,4.81.71,6.45,2.92C147.89,63.45,143.74,60.15,143,64Z"/><path class="cls-8" d="M98.88,41.16q27.81-.07,55.63-.13c1.43,0,3.15-.26,3.3,2l-2,.16L152,43.09H141l-1.92,0-6.08,0-33.89-.14Z"/><path class="cls-25" d="M152,43.09l3.75.08a32.84,32.84,0,0,0,.22,4.45c1.14,6.49-1,9.73-8,8.39H143l-1.9-.05c0-.66-.05-1.31-.07-2h2.07l2-.08c5.6,1.08,8.22-.85,6.85-6.8l.08-2.07Z"/><path class="cls-6" d="M143,56H148c-.69,3.15-3.23,1.59-5,2Z"/><path class="cls-25" d="M98.88,41.16c.06.59.13,1.18.2,1.77-1.32.15-2.9-.12-3.09,1.89-4,.36-9.64-1.4-8,6.22H86c0-2,0-3.95-.08-5.92C83,40.79,78.61,44,75,43l0-1.92L96,41Z"/><path class="cls-4" d="M96,41l-21,.09-2.1,0L71,41V39l25,.05C96,39.69,96,40.33,96,41Z"/><path class="cls-8" d="M120,64l13,0c-5.08,3.13-10.25,5.8-16.57,5A61.66,61.66,0,0,0,109,69c-1-3.56,4-2.24,4-5Z"/><path class="cls-26" d="M20,45l0-2c.07-2.13.16-4.27-3-4,2.27-3.36,5-6.1,9.12-7.09l1.8.13L28,45l-.09,0Z"/><path class="cls-21" d="M28,45c5.08-5.94,12.42-4.77,19-6,3.73,1.86,7.13,4.08,9,8H49c.4-3.08-.9-4.44-4-4-4.85,1.8-13.53-2.66-13,7.93h0L28,51,28,51V47l0-2Z"/><path class="cls-14" d="M56,47c-1.85-3.95-5.25-6.17-9-8,0-1,0-2,0-3,5.07-.24,7.7,5.75,12.94,5v0c0,2,0,4,.05,5.94l-4,0Z"/><path class="cls-14" d="M52,28c0,2.11.11,4.27-3,3.95,0-1.32,0-2.64,0-4Z"/><path class="cls-16" d="M9,47c0-1.94-.09-3.88-.13-5.82.65-1.71-1.21-5,2.29-4.85,2.9.15,1.52,3.06,1.77,4.79A25.64,25.64,0,0,1,13,45a1.84,1.84,0,0,0-2,2Z"/><path class="cls-24" d="M11,47a1.84,1.84,0,0,1,2-2L20,45l7.91,0,0,2Z"/><path class="cls-16" d="M17,39c3.14-.26,3.05,1.88,3,4C16.87,43.26,16.91,41.15,17,39Z"/><path class="cls-10" d="M120,64l-7,0a110.16,110.16,0,0,0-21.19,1.75c-4.28.72-8.81-2.17-13.42.18-3.85,2-8.12.52-12,.72A34.32,34.32,0,0,1,55.15,65.1c-3.38-.95-6.73-4.15-9.1-6.25-4-3.57-7.48-1.21-10.87-1.61-1.85-.22-4.71.45-7.1.81,0-1.33,0-2.66,0-4l0,0c2.14.05,4.27.07,3.9-3.07h0c1.06-.35,2.11-.72,3.18-1.05,3.23-1,6.47-1.89,9.89-.93.34,4,.18,9,5.76,8.45,2.05-.21,3.49.35,5.21.55h0c-.45,3.11.9,4.42,4,4l11,0,31.23,0c3.54,0,6.59-1,8.78-4h7c.59,3.28,3.79,1.08,5.35,2.64C123.28,62.76,119.67,61.51,120,64Z"/><path class="cls-14" d="M11,47H28v2c-2.49,0-5,.08-7.48,0-3.73-.12-7.13.16-7.48,5,.35,3-.84,4.44-4,3.93C9,56.31,9,54.67,8.94,53L9,47Z"/><path class="cls-7" d="M9,58c3.13.51,4.32-.93,4-3.93l4,0,3,4a6.93,6.93,0,0,0-6.24,2.14c-1.12,1.24-2.17,3.65-4,2.83C8.92,62.6,9.24,59.7,9,58Z"/><path class="cls-21" d="M20,58l-3-4,.9-2.65c3.49,3.5,6.65-1.88,10.06-.38L28,51c0,1,0,2,0,3l0,0C24.17,52.94,23,57.41,20,58Z"/><path class="cls-26" d="M75,19c2.73,2.57,1.18,6.62,3.23,9.45a1.88,1.88,0,0,1-.52,1.64C71.81,31.47,65.9,32.73,60,34c-1.59-3.29-.15-5.68.72-9C63.39,14.78,70.27,20.58,75,19Z"/><path class="cls-12" d="M71,39v2l-1.88,0L68.9,41,69,39Z"/><path class="cls-24" d="M60,47c0-2,0-4-.05-5.94,3,.33,5.94-3.52,8.92,0l.23-.09Q69,44,69,47Z"/><path class="cls-6" d="M141,54c0,.65.05,1.3.07,2-4.31,3.18-9.29,1.72-14,2L127,56c2-.59,4.86,1.47,6-1.89l5.93-.19Z"/><path class="cls-18" d="M127,56l.06,2L118,58h-7l0,0V56Z"/><path class="cls-27" d="M141,54l-2.06-.09c-.53-2.72,2.19-7-3.82-7s-3.67,4-3.93,6.88l-5.27,0c-.64-2.41,2.29-6.31-2.83-6.87-3.09-.34-5.7-.05-5.32,4.11L113,51c.36-3.72-.06-6.07-5.06-6.1s-5.31,2.48-5,6.12L99,51.19,99,51c.18-2.16.35-4.31-2.82-4.23l-.14-2c.19-2,1.77-1.73,3.09-1.88l33.89.14c2,2.92,4,2.9,6.08,0l1.92,0q0,5.44,0,10.91Z"/><path class="cls-3" d="M141,54q0-5.46,0-10.91H152l0,2c-7.44-1.48-10.55,1.38-8.95,9Z"/><path class="cls-25" d="M139.05,43.12C137,46,135,46,133,43.07Z"/><path class="cls-28" d="M151.92,47.12c1.37,6-1.25,7.88-6.85,6.8C143.82,48.09,146.31,46,151.92,47.12Z"/><path class="cls-27" d="M151.92,47.12c-5.61-1.09-8.1,1-6.85,6.8l-2,.08c-1.6-7.57,1.51-10.43,8.95-9C152,45.74,152,46.43,151.92,47.12Z"/><path class="cls-18" d="M72.94,41l2.1,0c0,.65,0,1.29,0,1.93v2c-1.65,8.89,4.93,5.52,8.93,6L86,51h2l2-.09L99,51l.08.17V54c-3.1,0-6.24-.33-9.27.13S83.19,52,81,55.94c-4.19-.64-8.4-1.26-8.18-7Z"/><path class="cls-28" d="M90.06,51,88,51c-1.68-7.62,4-5.86,8-6.22.05.65.1,1.31.14,2C93.6,47.43,89.24,45.41,90.06,51Z"/><path class="cls-27" d="M75,44.93V43c3.59,1,8-2.19,10.93,2.13l-2.1.12Z"/><path class="cls-28" d="M83.85,45.23l2.1-.12c0,2,0,4,.08,5.93L84,50.93C83.92,49,83.88,47.13,83.85,45.23Z"/><path class="cls-7" d="M72.94,41c0,2.63-.07,5.26-.11,7.89L69,51c0-1.35,0-2.7-.05-4q.08-3,.17-6L71,41Z"/><path class="cls-12" d="M45,49c-3.42-1-6.66-.09-9.89.93-1.07.33-2.12.7-3.18,1.05-.51-10.59,8.17-6.13,13-7.93a5.37,5.37,0,0,0,4,4h0c.88,2.9,5.51,3.08,5,7C49.17,55.69,48.57,49.68,45,49Z"/><path class="cls-15" d="M28,51c-3.41-1.5-6.57,3.88-10.06.38L17,54l-4,0c.35-4.87,3.75-5.15,7.48-5,2.49.07,5,0,7.48,0C28,49.64,28,50.3,28,51Z"/><path class="cls-19" d="M54,54c.47-3.88-4.16-4.06-5-7h7c-.43,3.09.93,4.4,4,4,0,1,0,2,0,3H56Z"/><path class="cls-12" d="M28.06,54c0-1,0-2,0-3L32,51C32.33,54.11,30.2,54.09,28.06,54Z"/><path class="cls-19" d="M49,47a5.37,5.37,0,0,1-4-4C48.1,42.56,49.4,43.92,49,47Z"/><path class="cls-15" d="M60,51c-3.07.4-4.43-.91-4-4l4,0H69c0,1.34,0,2.69.05,4H60Z"/><path class="cls-20" d="M69,51l3.82-2.1c-.22,5.77,4,6.39,8.18,7l26,2,4,.05,0,0c-2.19,3-5.24,4-8.78,4L71,62c-.55-2-2.72-3.54-2-6,0-1.67,0-3.34,0-5Z"/><path class="cls-12" d="M69,56c-.71,2.46,1.46,4,2,6L60,62c.41-3.06-.93-4.39-4-4h0c0-1.32,0-2.65,0-4h4c.34,2.64,2.4,1.83,4,2Z"/><path class="cls-4" d="M56,54c0,1.33,0,2.66,0,4-1.72-.2-3.16-.76-5.21-.55C45.22,58,45.38,53,45,49c3.53.7,4.13,6.71,9,5Z"/><path class="cls-4" d="M56,58c3.06-.41,4.4.92,4,4C56.92,62.41,55.57,61.1,56,58Z"/><path class="cls-9" d="M125.9,53.82l5.27,0,1.82.31c-1.15,3.36-4,1.3-6,1.89H107c-1.53-.22-3.62.68-4-1.94l2-.25,5.93,0,7.13,0Z"/><path class="cls-28" d="M133,54.11l-1.82-.31c.26-2.88-2-6.91,3.93-6.88s3.29,4.28,3.82,7ZM137.37,50c-1.33-.49-1.85-.86-2.33-.81s-.93.53-1.4.82c.46.29.91.76,1.39.82S136,50.49,137.37,50Z"/><path class="cls-10" d="M107,56h4v2l-4,0C107,57.3,107,56.65,107,56Z"/><path class="cls-28" d="M111,53.85l-5.93,0c.06-1.51-.28-2.73-2.13-2.8-.29-3.64-.06-6.15,5-6.12s5.42,2.38,5.06,6.1C111.2,51.15,111,52.41,111,53.85Z"/><path class="cls-28" d="M125.9,53.82l-7.8.06c-.12-.94-.23-1.88-.35-2.82-.38-4.16,2.23-4.45,5.32-4.11C128.19,47.51,125.26,51.41,125.9,53.82Z"/><path class="cls-29" d="M90.06,51c-.82-5.54,3.54-3.52,6.07-4.16,3.17-.08,3,2.07,2.82,4.23Z"/><path class="cls-25" d="M117.75,51.06c.12.94.23,1.88.35,2.82l-7.13,0c0-1.44.23-2.7,2-2.86Z"/><path class="cls-25" d="M102.91,51c1.85.07,2.19,1.29,2.13,2.8l-2,.25L99,54V51.19Z"/><path class="cls-5" d="M99,54l4,.08c.36,2.62,2.45,1.72,4,1.94,0,.65,0,1.3,0,2l-26-2c2.18-3.95,5.82-1.39,8.75-1.83S95.93,54,99,54Z"/><path class="cls-29" d="M83.85,45.23c0,1.9.07,3.8.1,5.7-4-.48-10.58,2.89-8.93-6Z"/><path class="cls-21" d="M69,56H64c-.36-2.62-2.42-1.83-4-2h0c0-1,0-2,0-3h9C69,52.67,69,54.34,69,56Z"/><path class="cls-19" d="M60,54c1.57.17,3.63-.62,4,2C62.41,55.83,60.35,56.64,60,54Z"/><path class="cls-29" d="M137.37,50c-1.33.5-1.86.88-2.34.83s-.93-.53-1.39-.82c.47-.29.91-.76,1.4-.82S136,49.5,137.37,50Z"/></g></g></svg>