<svg xmlns="http://www.w3.org/2000/svg" viewBox="0 0 79 304"><defs><style>.cls-1{fill:#c8c8c8;}.cls-2{fill:#391c0a;}.cls-3{fill:#130f0d;}.cls-4{fill:#623809;}.cls-5{fill:#4e4034;}.cls-6{fill:#7d561d;}.cls-7{fill:#9d968a;}.cls-8{fill:#2d2618;}.cls-9{fill:#3b332d;}.cls-10{fill:#635542;}.cls-11{fill:#9a8069;}.cls-12{fill:#8f7867;}.cls-13{fill:#a7a6a5;}.cls-14{fill:#b9b9b7;}.cls-15{fill:#bfc0bf;}.cls-16{fill:#996f35;}.cls-17{fill:#834707;}.cls-18{fill:#6e3f0c;}.cls-19{fill:#4e290c;}.cls-20{fill:#876e50;}.cls-21{fill:#d2d1d0;}.cls-22{fill:#c7baa6;}.cls-23{fill:#b5802e;}.cls-24{fill:#cdc7b6;}.cls-25{fill:#1a120e;}.cls-26{fill:#c2ab96;}.cls-27{fill:#aa9d88;}.cls-28{fill:#b99b86;}.cls-29{fill:#c1a38f;}</style></defs><title>Asset 41</title><g id="Layer_2" data-name="Layer 2"><g id="Layer_1-2" data-name="Layer 1"><path class="cls-1" d="M28.14,72C28.09,68.21,28,64.4,28,60.59c0-1.73,0-3.26-2.15-3.86C21.31,55.46,21.69,52,23.15,49c6.68-14.08,8.46-29.76,14.55-44,.61-1.43.23-3.28.3-4.93h2l0,7.89c-1.66,3.23.21,7.63-3.41,10.2C39.1,19.16,34.55,22.2,38,23v2c-5.75,1-3,6.85-5.62,9.91C29.58,38.17,29.57,42.26,34,45v2c-7.31,3.42-2.67,10-4,15C29.2,65.31,31.85,69.26,28.14,72Z"/><path class="cls-2" d="M72.16,229c-1.2-3.6-5.45-5.07-6.23-9L66,220c1.25,0,1.92-.62,1.9-1.9-.36-3.08,1-4.49,4.09-4.08,1.65,0,2.16,1.24,3.19,2.21,3.32,3.09-.44,8.34,3.78,10.82v8c-2.21-.4-3.37-1.89-4-3.89C75,229.18,73.67,229,72.16,229Z"/><path class="cls-3" d="M38,304c-.27-4.75-2.89-8.75-4.88-12.77-.72-1.48-.55-2.91-1.24-4.19L36,289c1.41,4.69,5.33,3.9,8.82,4-.6,4.11-4.66,6.69-4.86,11Z"/><path class="cls-4" d="M79,227c-4.22-2.48-.46-7.73-3.78-10.82-1-1-1.54-2.24-3.19-2.21-.08-1.42-1-1.94-2.24-2.18.89-2.26-1.5-5.55,2.17-6.94,0,.74.07,1.48.1,2.22-.24,2.15.74,3.1,2.87,2.94.4,2.61,2.44,1.89,4.07,2Z"/><path class="cls-5" d="M72.06,207.07c0-.74-.06-1.48-.1-2.22s-.07-1.31-.1-2l0-3.78.18,0L75,199l1.9,0c1.25,1.82-2.2,5.32,2.15,6v2l-4,.15Z"/><path class="cls-6" d="M0,229V214l2-.1L2.07,229l0,0Z"/><path class="cls-7" d="M0,205v-2a1.8,1.8,0,0,0,2-2l0-2.06L1.9,199H4q-.1,3.84-.23,7.66Z"/><path class="cls-8" d="M75,207.15l4-.15v5c-1.63-.1-3.67.62-4.07-2Z"/><path class="cls-5" d="M0,205l3.78,1.64.27.43,0,3-1.87,0L0,210Z"/><path class="cls-9" d="M0,210l2.13.07L2,213.9,0,214Z"/><path class="cls-10" d="M0,229l2,.07c0,1.33,0,2.66,0,4l.09.05L0,233Z"/><path class="cls-11" d="M2,201A1.8,1.8,0,0,1,0,203v-2Z"/><path class="cls-10" d="M2,201,0,201v-2l2-.08Z"/><path class="cls-6" d="M0,233l2.15.11c0,1.44-.65,2.15-2.15,1.89Z"/><path class="cls-11" d="M50.83,113q0,4.5,0,9L49,122c.16-2.86.21-5.64-4-5-2.78.46-2,2.67-2,4.33-.06,10.1,0,20.21,0,30.32,0,2.11.49,4.63-3,4.34a110.42,110.42,0,0,0-.09-11.22c-.27-2.61,1.85-5.95-1.86-7.77l-.09-7q0-17,0-34L38,55l0-4H43l0,6c0,10.72,0,21.44.05,32.15,0,1.76-1,4.18,1.95,4.86-.83,6.87,5.74,11.78,5,18.65C50,112.76,50.53,112.91,50.83,113Z"/><path class="cls-12" d="M49,122l1.82,0c.06,7.15.25,14.3.14,21.44-.14,10,3,19.18,5.87,28.47a7.24,7.24,0,0,1,.16,2c0,3.64-.64,7.47,2.85,10.13-1.48-.05-2.8.1-2.77,2.06l0,0a1.76,1.76,0,0,0-2,2l0,0a1.79,1.79,0,0,0-2,2.11L52.89,192,49,192l0-.09c0-2-.05-3.93-.08-5.89.52-.25,1.4-.43,1.47-.77.22-1.07-.76-1.05-1.48-1.18h0Z"/><path class="cls-7" d="M50.83,113c-.3-.12-.87-.27-.86-.36.75-6.87-5.82-11.78-5-18.65,2.69-.52,2-2.68,2-4.36.05-7.11-.06-14.22.05-21.33.07-4.51-1-9.22,2-13.32,1.33,1.14,2.83-4.13,4.07.11-1.84,2.41-2.15,5.12-2.14,8.12C51,79.84,50.88,96.44,50.83,113Z"/><path class="cls-13" d="M53.06,55.12c-1.24-4.24-2.74,1-4.07-.11-3.31-3.25-3.52,2.81-6,2,0-2,0-4,0-6,0-1.35,0-2.7,0-4,0-1.67,0-3.33,0-5l0-2c3.62,3.48,5.23-1.33,7.86-1.92,1.91,4.28,3.72,8.6,4.11,13.32C55.1,52.87,55.62,54.86,53.06,55.12Z"/><path class="cls-14" d="M50.87,38c-2.63.59-4.24,5.4-7.86,1.92-1.19-2.58,2.72-7.08-3-7.94-2.72-1.75.16-5.11-2-7,0-.67,0-1.33,0-2l6.87-4A72.81,72.81,0,0,1,50.87,38Z"/><path class="cls-15" d="M44.87,19,38,23c-3.45-.8,1.1-3.84-1.38-4.91,3.62-2.57,1.75-7,3.41-10.2C44.9,10.19,43.23,15.33,44.87,19Z"/><path class="cls-16" d="M71.86,202.88c0,.66.07,1.32.1,2-3.67,1.39-1.28,4.68-2.17,6.94L66,209.91c0-.94,0-1.87,0-2.81.75-.15,1.65-.16,1.51-1.29,0-.15-.69-.39-.73-.35-.33.48-.6,1-.89,1.52-2.62-.4-1.69-2.51-2-4q3-4,6-8l2.12,4.12-.18,0c-1.08,0-1.77.47-1.82,1.64S70.39,202.89,71.86,202.88Z"/><path class="cls-17" d="M55.11,201c1.6.78,4.45-1.6,5,1.95,0,.71-.07,1.42-.1,2.13l-3,0c-3.35,1.37-6.71-5.63-10.06,0-4.71-2.06.38-4,.05-6.06l4.13,0,0-.08C51.3,201.7,53.46,200.82,55.11,201Z"/><path class="cls-6" d="M72.06,199.05l-2.12-4.12c.71-1.66-1.43-4.46,2-5,.14,2,1.47,2.2,3,2.11l0,7Z"/><path class="cls-6" d="M60,205c0-.71.07-1.42.1-2.13l3.9,0c.26,1.54-.67,3.65,1.95,4l.11.12c0,.94,0,1.87,0,2.81L60,210l0-.11C60,208.25,60,206.65,60,205Z"/><path class="cls-18" d="M75,192c-1.57.09-2.9-.15-3-2.11.08-.64.15-1.27.23-1.91,1.44,0,2.83,0,2.77-2.07l.3-3.91,1.6.11V192Z"/><path class="cls-19" d="M51.12,198.93,47,199c-.05-1.35-.1-2.7-.16-4.05L46.9,192l2.16-.13,0,.09c0,1,0,2,0,3.06a1.8,1.8,0,0,0,1.85,2Z"/><path class="cls-19" d="M75,192h1.86q0,3.48,0,7L75,199Z"/><path class="cls-5" d="M49,195c0-1,0-2,0-3.06l3.85.07c0,1.39.77,3.17-1.79,3Z"/><path class="cls-4" d="M55.11,201c-1.65-.14-3.81.74-4-2.11C52.44,199.51,55.05,197.79,55.11,201Z"/><path class="cls-20" d="M57.07,186.09c0-2,1.29-2.11,2.77-2.06C60.41,186.73,58.23,185.73,57.07,186.09Z"/><path class="cls-10" d="M74.94,185.91c.06,2-1.33,2.08-2.77,2.07C71.58,185.28,73.79,186.31,74.94,185.91Z"/><path class="cls-20" d="M55.07,188.1a1.76,1.76,0,0,1,2-2C57.16,187.48,56.46,188.14,55.07,188.1Z"/><path class="cls-8" d="M49,195H51.1c-.09.67-.17,1.34-.26,2A1.8,1.8,0,0,1,49,195Z"/><path class="cls-20" d="M53.07,190.18a1.79,1.79,0,0,1,2-2.11C55.2,189.51,54.43,190.13,53.07,190.18Z"/><path class="cls-21" d="M28,196.81c1-5.6-5.46-5.66-7.1-9.62-1.14-2.75-2.32-4.48-.67-7.55,2.14-4,.82-8.76,2.6-13.27,7.82-19.84,4.51-40.84,5.32-61.41l1.9,0c0,.66,0,1.33,0,2,.64,7.34,1.54,15.28.61,22-1.41,10.22,3.32,19.68.88,29.67a62.06,62.06,0,0,0-1.32,17c.17,4.09-2.48,8.82,1.82,12.35l0,4,.07.13c-2.28-.06-1.94,1.53-1.87,3l-.38,1.81Z"/><path class="cls-22" d="M30,107c0-.66,0-1.33,0-2,0-4.82.23-9.66-.09-14.47C29.74,88,31.67,84.8,28.19,83c0-3.65,0-7.29-.05-10.94,3.71-2.77,1.06-6.72,1.87-10,4.23-.68-.24-6.33,4-7l.07,2Q34,75.52,34,94l0,15Z"/><path class="cls-23" d="M28,196.81l1.83,0,.39.27c-.25,4.72-3.9,6.26-7.41,7.92-1.55,0-3.39-.53-3.79,1.85l-.08.08c-1.9.15-1.9,1.56-1.94,2.94l-2.07-.08,0-4.74.23-.23c1.21.1,1.71-.55,1.77-1.67Z"/><path class="cls-23" d="M4,186c3.22,2.13,4,5.34,4,8.92,0,2,1.31,2.16,2.82,2.1l.14,2h0l-4.93-.06,0,.05c-.87-2.27,1.77-5.54-2-7-.2-1-.59-1.88-1.86-1.83,0-1.41,0-2.81,0-4.22Z"/><path class="cls-24" d="M28.19,83c3.48,1.83,1.55,5,1.72,7.56.32,4.81.09,9.65.09,14.47l-1.9,0Z"/><path class="cls-10" d="M2.19,190.18c1.27-.05,1.66.79,1.86,1.83L4,199l0,0H1.9C2,196.05,2.09,193.11,2.19,190.18Z"/><path class="cls-23" d="M11,199c3.39-.6.65,4.78,4.05,4.16,0,.57,0,1.14.08,1.71l-.23.23-1.93,0-2,0v-6Z"/><path class="cls-16" d="M4,186H2.21c0-1.33-.93-2.85.76-4C4.8,183,3.64,184.69,4,186Z"/><path class="cls-16" d="M10.87,197c-1.51.06-2.83-.12-2.82-2.1C9.26,195.22,11.47,194.21,10.87,197Z"/><path class="cls-6" d="M15.14,204.86c0-.57-.05-1.14-.08-1.71l1.85,0C16.85,204.31,16.35,205,15.14,204.86Z"/><path class="cls-3" d="M51,220.12c-3.3,2.06-4.85,4.95-4.2,8.88L43,227a35.66,35.66,0,0,0-11.09-4.94l0,0c-1.31-2-1.24-5-3.94-6.09l2-4,2.1-.14v0c4.51,5.4,13.58,5.45,18.92.09l1.87-.13c2.95-.21,4.62.87,4.14,4.11C54.22,216.19,50.31,214.8,51,220.12Z"/><path class="cls-25" d="M43,227l3.83,2q0,13,0,26c-3.08-1-1.35-3.66-1.81-5.55s1.2-4.53-1.93-5.48c0-2.32-.07-4.63-.1-7l0-4C43,231,43,229,43,227Z"/><path class="cls-8" d="M43.08,244c3.13.95,1.46,3.59,1.93,5.48S43.74,254,46.82,255c-.62,7.77,3.75,15.12,2,23l-1.68,0A35.94,35.94,0,0,0,43,259v-4Z"/><path class="cls-9" d="M44.86,293c-3.49-.13-7.41.66-8.82-4V276l2,0,.12,6.07c0,3.35-1,7.63,3.42,8.43,2.4.43,3.67-2.68,3.58-5.4L47,285l.06.06,0,2C48.24,289.78,45.17,290.89,44.86,293Z"/><path class="cls-2" d="M57,216c.48-3.24-1.19-4.32-4.14-4.11-.08-2.84,0-5.55,4.09-4.87-.1,2.18.79,3.28,3.1,2.85l0,.11c2.22,2.21,5.22,4,4,8l-.14.14c-2.08.83-1.72-2.86-3.79-2Z"/><path class="cls-25" d="M57,216l3.11,0c-2.45,2.65-5.76,3.37-9.09,4.08C50.31,214.8,54.22,216.19,57,216Z"/><path class="cls-9" d="M47.14,278l1.68,0v7l-1.77,0L47,285c0-2.33,0-4.66,0-7Z"/><path class="cls-3" d="M72.16,229c1.51-.07,2.8.16,2.8,2.09C73.84,230.66,71.45,231.91,72.16,229Z"/><path class="cls-2" d="M65.93,220.07c-1.48.15-2.15-.52-2-2l.14-.14,2,.07V220Z"/><path class="cls-8" d="M47.05,285.05l1.77,0c.59,1.72-.4,2.07-1.79,2.08Z"/><path class="cls-8" d="M43,227c0,2,0,4,0,6-2.91-.21-5.66-.21-5,4C40.59,241.77,40,246.91,40,252c-1,.2-2,.53-1.68,1.75.16.56,1.1.88,1.69,1.31h0v12l-2,0,0,0c-.95-2.44-1.9-4.88-3.13-8-.82,2.71-1.85,4.72-4.7,4,2.94-13.55,1.78-27.28,1.77-40.95A35.66,35.66,0,0,1,43,227Z"/><path class="cls-25" d="M30.15,263c2.85.69,3.88-1.32,4.7-4,1.23,3.13,2.18,5.57,3.13,8-3.95,2.3-1.1,6.07-1.94,9v13L31.88,287c-2.53.13-1.86-1.76-1.85-3.09C30,277,30.11,270,30.15,263Z"/><path class="cls-19" d="M28,220.11c-4.32.53-7.21-2.78-10.85-4.07h-9l-.18,0c0-.66,0-1.31,0-2,3.77-4.39,8.76-.9,13-2-.46,3.09.94,4.35,4,4C24.78,218.27,28.3,217.77,28,220.11Z"/><path class="cls-4" d="M11.14,222.06c-1.8,3.46-3.29,7.16-7.1,9l-.06-2c.94-4.49-2.64-10.35,4-13.14l.18,0L8,220a16.35,16.35,0,0,0-1.43.89C7.64,223,9.63,221.56,11.14,222.06Z"/><path class="cls-2" d="M8,220l.09-4h9a5.71,5.71,0,0,1-4,4Z"/><path class="cls-2" d="M28,220.11c.35-2.34-3.17-1.84-3-4.06l3-.06c2.7,1.13,2.63,4.06,3.94,6.09C30.59,221.47,28.06,223.25,28,220.11Z"/><path class="cls-19" d="M8,220l5.08.06c.05,1.36-.43,2.2-2,2-1.51-.5-3.5.93-4.54-1.18A16.35,16.35,0,0,1,8,220Z"/><path class="cls-8" d="M4,229.13l.06,2c.18,1.51-.56,2.08-2,2,0-1.33,0-2.66,0-4l0,0Z"/><path class="cls-15" d="M38,25c2.17,1.91-.71,5.27,2,7-3.47,1-1.38,4-2,6-3.57,1.06-4.29,3.75-4,7-4.42-2.74-4.41-6.83-1.62-10.09C35,31.85,32.24,26,38,25Z"/><path class="cls-15" d="M34,55c-4.23.68.24,6.33-4,7,1.31-5-3.33-11.6,4-15,0,1.35,0,2.7,0,4Z"/><path class="cls-14" d="M34,51c0-1.35,0-2.7,0-4V45c-.29-3.26.43-6,4-7,0,1.34,0,2.68,0,4v5l0,0C35.19,46.91,36.82,51.12,34,51Z"/><path class="cls-19" d="M66,218l-2-.07c1.19-3.94-1.81-5.76-4-8l6-.06,3.78,1.88C71,212,72,212.55,72,214c-3.13-.41-4.45,1-4.09,4.08Z"/><path class="cls-4" d="M66,218l1.9,0c0,1.28-.65,1.88-1.9,1.9Z"/><path class="cls-2" d="M75,207.15l0,2.86c-2.13.16-3.11-.79-2.87-2.94Z"/><path class="cls-11" d="M71.86,202.88c-1.47,0-1.84-.89-1.8-2.14s.74-1.63,1.82-1.64C71.88,200.36,71.87,201.62,71.86,202.88Z"/><path class="cls-17" d="M4,229.13,2.07,229,2,213.9l.18-3.83L4,210l-.06.13c.27,1.46-.53,3.48,2,3.76L8,214c0,.66,0,1.31,0,2C1.34,218.78,4.92,224.64,4,229.13Z"/><path class="cls-10" d="M3.78,206.64Q3.9,202.82,4,199l0,0,2.06,0,0-.05.24,5.79-.25,2.17-2,.17Z"/><path class="cls-8" d="M4.05,207.07l2-.17c0,1,0,2.08,0,3.12l-2.07.15L4,210C4,209.05,4,208.06,4.05,207.07Z"/><path class="cls-26" d="M32,192c0-1.32,0-2.64,0-4,2.71-21.27,1.87-42.65,2-64,3.81.38.17,5.61,3.92,6l.09,7q0,9.51,0,19c0,.71.09,1.43.14,2.14.21,10-.31,20-2.61,29.79C32.69,187.79,35.27,192.5,32,192Z"/><path class="cls-20" d="M49,122q0,31,0,62L47,184l-.09-4c-.54-2.38,1.69-5.49-1.89-7.05q0-3.91-.11-7.83L45,117C49.21,116.35,49.16,119.13,49,122Z"/><path class="cls-27" d="M43,57c2.49.81,2.7-5.25,6-2-3,4.1-1.89,8.81-2,13.32-.11,7.11,0,14.22-.05,21.33,0,1.68.69,3.84-2,4.36-2.95-.68-1.93-3.1-1.95-4.86C42.94,78.45,43,67.73,43,57Z"/><path class="cls-28" d="M34,94l.06-37L38,55q0,20.5-.07,41Z"/><path class="cls-29" d="M34,94l3.92,2q0,17,0,34c-3.75-.41-.11-5.64-3.92-6q0-7.47-.07-15Z"/><path class="cls-16" d="M45,117l-.06,48.12c-3-.8-1.43-3.36-1.93-5.12-.07-2-1.53-2-3-2L40,156h0c3.5.29,3-2.23,3-4.34,0-10.11,0-20.22,0-30.32C43,119.66,42.22,117.45,45,117Z"/><path class="cls-27" d="M38,156q0-9.51,0-19c3.71,1.82,1.59,5.16,1.86,7.77A110.42,110.42,0,0,1,40,156h0Z"/><path class="cls-26" d="M38,55l-3.93,2L34,55l0-4c2.79.08,1.16-4.13,3.94-4.06L38,51Z"/><path class="cls-27" d="M38,51,38,47l0,0h5l0,4Z"/><path class="cls-6" d="M47,184,49,184h0c0,.65,0,1.3,0,1.95,0,2,.05,3.93.08,5.89l-2.15.13c-.58.49-1.51.89-1.65,1.47-.23,1,.67,1.36,1.57,1.44.06,1.35.11,2.7.16,4.05.33,2-4.76,4-.05,6.06,0,.69,0,1.37,0,2.06l-3.81-.32L43,203c-1.4-2,3.23-4,0-6l0-7,.3-2C49.71,191.55,45.9,185.42,47,184Z"/><path class="cls-20" d="M49,186c0-.65,0-1.3,0-1.95.72.13,1.7.11,1.48,1.18C50.38,185.55,49.5,185.73,49,186Z"/><path class="cls-26" d="M38,42c0-1.34,0-2.68,0-4,.63-2-1.46-4.92,2-6,5.73.86,1.82,5.36,3,7.94,0,.68,0,1.36,0,2Z"/><path class="cls-28" d="M38,42h5c0,1.67,0,3.33,0,5H38C38,45.33,38,43.67,38,42Z"/><path class="cls-7" d="M65.91,207c.29-.52.56-1,.89-1.52,0,0,.71.2.73.35.14,1.13-.76,1.14-1.51,1.29Z"/><path class="cls-4" d="M46.92,207.08c0-.69,0-1.37,0-2.06,3.35-5.64,6.71,1.36,10.06,0l0,2c-4.11-.68-4.17,2-4.09,4.87L51,212l-6.13-.15C45.14,210.09,47.75,209.31,46.92,207.08Z"/><path class="cls-18" d="M57,207l0-2,3,0c0,1.61.07,3.21.11,4.82C57.76,210.29,56.87,209.19,57,207Z"/><path class="cls-16" d="M46.83,194.91c-.9-.08-1.8-.47-1.57-1.44.14-.58,1.07-1,1.65-1.47C46.88,193,46.86,193.94,46.83,194.91Z"/><path class="cls-24" d="M34,109q0,7.48.07,15c-.14,21.35.7,42.73-2,64-4.3-3.53-1.65-8.26-1.82-12.35a62.06,62.06,0,0,1,1.32-17c2.44-10-2.29-19.45-.88-29.67.93-6.69,0-14.63-.61-22Z"/><path class="cls-16" d="M32,192c3.31.55.73-4.16,3.59-4h2.36c-.74,2.33-2.49,4.36-2.07,7-1.08.13-1.73.67-1.68,1.84l-4,.29-.39-.27c.12-.61.25-1.21.38-1.81,1.92-.17,1.81-1.62,1.87-3Z"/><path class="cls-11" d="M32,192.08c-.06,1.34,0,2.79-1.87,3C30.09,193.61,29.75,192,32,192.08Z"/><path class="cls-17" d="M30.17,197.12l4-.29,1.7.43c0,.58.09,1.17.13,1.76-.78,4.24-2.94,8.26-2,12.77l-1.9.13v0L32,210c.28-3.21-1.81-3.15-4-2.9H25l-2.15-.14-.12-1.9C26.27,203.38,29.92,201.84,30.17,197.12Z"/><path class="cls-6" d="M6,210c0-1,0-2.08,0-3.12.09-.72.17-1.45.25-2.17l1.72.34c.27,2.09-1.08,5.26,3.15,4.73l1.94-.07,1.76.1,2.07.08c2.06,0,2-1.48,1.94-2.94l.08-.08,2,.1,0,3,0,2,0,.05c-4.27,1.1-9.26-2.39-13,2l-2.06-.09Z"/><path class="cls-29" d="M14.88,209.83l-1.76-.1L12.94,207l0-2,1.93,0Z"/><path class="cls-16" d="M21,207l-2-.1c.4-2.38,2.24-1.83,3.79-1.85l.12,1.9Z"/><path class="cls-16" d="M18.89,207c.09,1.46.12,2.89-1.94,2.94C17,208.53,17,207.12,18.89,207Z"/><path class="cls-28" d="M8,205.07l-1.72-.34-.24-5.79L11,199c0,2,0,4,0,6l0,0Z"/><path class="cls-7" d="M6.05,199,4,199l.06-7C7.82,193.45,5.18,196.72,6.05,199Z"/><path class="cls-24" d="M13,205.07c0,.65,0,1.3,0,2l-1.83-.12-.06-1.9,0,0Z"/><path class="cls-8" d="M32.09,211.92l1.9-.13,6,.2,4.93-.13L51,212C45.67,217.37,36.6,217.32,32.09,211.92Z"/><path class="cls-25" d="M28,216l-3,.06c-3,.32-4.42-.94-4-4l0,0h7l2,.06Z"/><path class="cls-2" d="M30,212,28,212c0-.66,0-1.32,0-2l4,0,.06,1.93Z"/><path class="cls-5" d="M40,252c0-5.05.63-10.19-1.91-14.93L43,237c0,2.32.07,4.63.1,7,0,3.68,0,7.36-.08,11l-3,0h0C40,254,40,253,40,252Z"/><path class="cls-9" d="M43,237l-4.93,0c-.71-4.24,2-4.24,5-4Z"/><path class="cls-5" d="M40,267v-8h3a35.94,35.94,0,0,1,4.13,19L47,278a2,2,0,0,1-1.93-2.37c.89-4.89-1.39-5.18-5-3.63C40,270.33,40,268.66,40,267Z"/><path class="cls-9" d="M43,259H40v-4l3,0Z"/><path class="cls-20" d="M45.11,285.1c.09,2.72-1.18,5.83-3.58,5.4-4.46-.8-3.46-5.08-3.42-8.43,3.63-1.9,1.08-5.37,2-8C45.4,276.14,42.14,282,45.11,285.1Z"/><path class="cls-10" d="M45.11,285.1c-3-3.07.29-9-5-11L40,274v-2c3.66-1.55,5.94-1.26,5,3.63A2,2,0,0,0,47,278c0,2.33,0,4.66,0,7Z"/><path class="cls-8" d="M36,276c.84-3-2-6.74,1.94-9l0,0c0,2.34,0,4.68,0,7l0,2Z"/><path class="cls-10" d="M38,276l0-2,2,0,.13.12c-.93,2.59,1.62,6.06-2,8Z"/><path class="cls-9" d="M40,274l-2,0c0-2.34,0-4.68,0-7l2,0c0,1.67,0,3.34,0,5C40,272.66,40,273.33,40,274Z"/><path class="cls-9" d="M40,252c0,1,0,2,0,3.06-.59-.43-1.53-.75-1.69-1.31C37.92,252.49,39,252.16,40,252Z"/><path class="cls-16" d="M6,210l-.09,3.91c-2.51-.28-1.71-2.3-2-3.76Z"/><path class="cls-6" d="M37.91,188H35.55c2.3-9.8,2.82-19.77,2.6-29.79L40,158c1.44,0,2.9,0,3,2-1.33,0-3.1,0-2.9,1.79.88,7.44-2.83,15.48,2.85,22.29H40.07c-2.75.17-1.88,2.31-2.1,3.86Z"/><path class="cls-11" d="M40,158l-1.89.2c0-.71-.08-1.43-.13-2.14l2,0Z"/><path class="cls-18" d="M43,184.07c-5.68-6.81-2-14.85-2.85-22.29C39.91,160,41.68,160,43,160c.5,1.76-1.12,4.32,1.93,5.12q.06,3.91.11,7.83c.6,2.36-1.72,5.5,1.89,7.05l.09,4c-1.13,1.45,2.68,7.58-3.78,4C43.15,186.66,43.06,185.36,43,184.07Z"/><path class="cls-6" d="M46.94,180c-3.61-1.55-1.29-4.69-1.89-7.05C48.63,174.5,46.4,177.61,46.94,180Z"/><path class="cls-16" d="M43,203c0,1.26.08,2.52.13,3.79l-.18.3c-2.32-.37-3.34.57-3,2.92l-.29.16c-1.4-.47-4.7.27-2.92-2.59s1-5.61,1.1-8.44C40.77,198.8,39.46,204.09,43,203Z"/><path class="cls-27" d="M43,184.07c.1,1.29.19,2.59.29,3.89l-.3,2c-1.47,0-2.84.17-3,2.07-2.38-.41-1.59,3.1-3.71,3l-.4-.07c-.42-2.68,1.33-4.71,2.07-7H38c2.61-.24,1.87-2.31,2.1-3.86Z"/><path class="cls-23" d="M43,203c-3.52,1.11-2.21-4.18-5.12-3.86L36,199l-.13-1.76a2.57,2.57,0,0,0,.26-.49l3.93.25,2.88,0C46.21,199,41.58,201,43,203Z"/><path class="cls-20" d="M44.88,211.86,40,212l-.27-1.84L40,210c2.34.4,3.26-.63,3-2.92l.18-.3,3.81.31C47.75,209.31,45.14,210.09,44.88,211.86Z"/><path class="cls-11" d="M42.93,197,40,197l-.09-5c.16-1.91,1.53-2.08,3-2.08C42.94,192.31,42.94,194.65,42.93,197Z"/><path class="cls-11" d="M35.86,197.26l-1.7-.43c0-1.17.6-1.71,1.68-1.84l.4.07-.12,1.71A2.57,2.57,0,0,1,35.86,197.26Z"/><path class="cls-6" d="M39.68,210.15,40,212l-6-.2c-.94-4.51,1.22-8.53,2-12.77l1.87.1c-.13,2.83.69,5.54-1.1,8.44S38.28,209.68,39.68,210.15Z"/><path class="cls-4" d="M28,210c0,.65,0,1.31,0,2H21l0-2c2.1.07,4.21.16,4-2.92h3C28,208.05,28,209,28,210Z"/><path class="cls-19" d="M28,210c0-1,0-2,0-2.94,2.21-.25,4.3-.31,4,2.9Z"/><path class="cls-18" d="M25,207.08c.19,3.08-1.92,3-4,2.92l0-3,1.9-.05Z"/><path class="cls-16" d="M11.05,205l.06,1.9c0,1,0,1.94.07,2.9C7,210.33,8.3,207.16,8,205.07Z"/><path class="cls-11" d="M11.18,209.8c0-1,0-1.93-.07-2.9l1.83.12.18,2.71Z"/><path class="cls-20" d="M40.07,184.08c-.23,1.55.51,3.62-2.1,3.86C38.19,186.39,37.32,184.25,40.07,184.08Z"/><path class="cls-13" d="M42.93,207.07c.3,2.29-.62,3.32-3,2.92C39.59,207.64,40.61,206.7,42.93,207.07Z"/><path class="cls-24" d="M36.12,196.77l.12-1.71c2.12.09,1.33-3.42,3.71-3l.09,5Z"/></g></g></svg>