<svg xmlns="http://www.w3.org/2000/svg" viewBox="0 0 51 304"><defs><style>.cls-1{fill:#1e150d;}.cls-2{fill:#0b0908;}.cls-3{fill:#372818;}.cls-4{fill:#47321e;}.cls-5{fill:#6e482a;}.cls-6{fill:#271d12;}.cls-7{fill:#402d1c;}.cls-8{fill:#5a420b;}.cls-9{fill:#312315;}.cls-10{fill:#645032;}.cls-11{fill:#9a7650;}.cls-12{fill:#181711;}.cls-13{fill:#442d19;}.cls-14{fill:#583e25;}.cls-15{fill:#644024;}.cls-16{fill:#4e3922;}.cls-17{fill:#5d4127;}.cls-18{fill:#865e3a;}.cls-19{fill:#7a510c;}.cls-20{fill:#8d6441;}.cls-21{fill:#60442b;}.cls-22{fill:#7e5432;}.cls-23{fill:#3c2805;}.cls-24{fill:#7c5c3c;}.cls-25{fill:#5c3b21;}.cls-26{fill:#6a4427;}.cls-27{fill:#5b4b2e;}.cls-28{fill:#744b2b;}.cls-29{fill:#784d2c;}</style></defs><title>Asset 52</title><g id="Layer_2" data-name="Layer 2"><g id="Layer_1-2" data-name="Layer 1"><path class="cls-1" d="M32.06,233.06,31.82,259c-2.66,3.13-2.66,15.89,0,19L32,304H28l-.1-1.95,0-2c0-.72,0-1.45,0-2.17l0-2.89,0-2q0-18,0-36l-.06-4.08v-2.88l.06-1.94-.09-2.33.12-12.69L28,227h2c.65,2-1.55,4.9,1.95,5.94Z"/><path class="cls-2" d="M51,231l-9-.17c0-5.16-.19-10.33.07-15.47.12-2.42-1.63-5.63,1.56-7.16,3.63-1.74,2.68,3.56,5.2,3.81L49,224.16c0,1.41-.37,3.1,2,2.84Z"/><path class="cls-3" d="M8,230.86l-4,0c.44-3.12-1.07-4.21-4-3.84V212c2.11,1,3.77,1.44,2.62,4.91-1.1,3.3,1,6.25,5.31,6.06Q8,226.92,8,230.86Z"/><path class="cls-4" d="M7.93,223c-4.34.19-6.41-2.76-5.31-6.06C3.77,213.44,2.11,213,0,212v-7l4,3c-.25,3,1,5,3.92,6L8.07,220Z"/><path class="cls-5" d="M13.17,10.05C12.26,5.86,13,2.3,17,0h4c0,3.44.49,7-2,9.93L15,10Z"/><path class="cls-6" d="M23,0h9c0,1.39.78,2,2.14,1.93l-.07-.06a12,12,0,0,1-2,8L28,10,28,4C27.89.65,23,3.4,23,0Z"/><path class="cls-7" d="M4,208l-4-3V195l4,0L4,208Z"/><path class="cls-8" d="M23,0c0,3.4,4.89.65,5,4-3.95.09-3.17,4-4.87,6L23,10l-4-.08C21.49,7,21,3.44,21,0Z"/><path class="cls-9" d="M4,195,0,195v-2c4.44-2.1.73-6.16,2.15-9L4,184c.37,2.58,2.35,1.93,4,2C5.23,188.36,2.92,190.93,4,195Z"/><path class="cls-10" d="M27.92,300.06c0,.67,0,1.33,0,2-2.93.82-6.64-1.92-8.9,1.95H17c.05-1.34.09-2.68.14-4Z"/><path class="cls-11" d="M19,304c2.26-3.87,6-1.13,8.9-1.95,0,.65.07,1.3.1,1.95Z"/><path class="cls-12" d="M0,227c2.92-.37,4.43.72,4,3.84L0,231Z"/><path class="cls-2" d="M34.14,1.93C32.78,2,32,1.39,32,0h2Z"/><path class="cls-13" d="M39.84,73v2c-2.92,2-2.9,4,0,6,.1.64.19,1.28.28,1.92-2,.37-3,1.8-3.9,3.38-1,1.8,1.22,4.84-2.22,5.71-2.32-4.08-1.93-8.57-2-13,0-.67,0-1.33,0-2,4-2.26,1.08-6.06,2-9V60c-2.57-5.44-1.34-10.38,2-15l0,0c.81,2.63-1.93,6.14,2,8l0,7C39.05,64.27,35.8,69.14,39.84,73Z"/><path class="cls-3" d="M41.84,105v2c-2.9,2-2.89,4,0,6v2c-4,3.11-.86,7.39-1.82,11v9q0,4,0,8l-4,2c-.23-10,1-20.17-2-30,2.41-.38,1.72-2.31,2-3.85.85-4.2,1.86-8.38,2.86-12.8C41.2,100.42,38.29,104,41.84,105Z"/><path class="cls-1" d="M48.84,212c-2.52-.25-1.57-5.55-5.2-3.81-3.19,1.53-1.44,4.74-1.56,7.16-.26,5.14-.07,10.31-.07,15.47H38V227c3.11-3,3.1-6,0-9l0-1c0-3.1-.35-6.25.12-9.28S35.94,201.12,40,199c2.06,3.19,4,8,6.5.2.09-.29,1.53-.15,2.34-.21Z"/><path class="cls-14" d="M36,45c-3.33,4.65-4.56,9.59-2,15l-5.91,0c0-2.48.58-5.19-.23-7.38-1-2.76,3-5.09.17-7.61,3.4-3-.48-6,.11-9L30,36c2.59-.35,1.85-2.36,2-4a2,2,0,0,0,2.07-2.14c1.39,0,2.17.5,2,2Z"/><path class="cls-9" d="M41.84,105c-3.55-1-.64-4.58-3-6.65-1,4.42-2,8.6-2.86,12.8-.3,1.54.39,3.47-2,3.85-1-3.27,2.14-7.37-2-10-1.24-4.62,2.84-8.42,2-13,3.44-.87,1.25-3.91,2.22-5.71.85-1.58,1.95-3,3.9-3.38h-.06c.35,1.78-1.23,4.25,1.8,5.08v2c-2.83,2-2.87,4,0,6Z"/><path class="cls-1" d="M45.12,156c3.25.15,1.8,2.66,1.82,4.08.13,9.95.09,19.9.1,29.85-.87,2.56-1.33,2.81-1.88,1.76C43.87,189.19,41.8,190.3,40,190c1.39-2.49,2.53-5,2-8q0-5.52,0-11c1.53,0,3-.1,2.85-2.2C44.74,167,43.32,167.06,42,167c-.14-2.35,7.83-4.73,0-7v-4Z"/><path class="cls-6" d="M45.12,156,42,156l-2-13q0-4,0-8l4.82-2Q45,144.48,45.12,156Z"/><path class="cls-2" d="M40,190c1.78.28,3.85-.83,5.14,1.62.55,1.05,1,.8,1.88-1.76,4.29,2.31,1,6.12,1.8,9.11-.81.06-2.25-.08-2.34.21-2.45,7.78-4.44,3-6.5-.2C40,196,40,193,40,190Z"/><path class="cls-2" d="M32,9.91a12,12,0,0,0,2-8c2.83,2.32,2.87,23.78,0,26.18-2-.11-2.17-1.5-2.12-3.05l0,0c4.49-3.35-.11-6.72,0-10.08V13.1c1-.18,2.12-.53,1.74-1.82C33.6,10.71,32.64,10.36,32,9.91Z"/><path class="cls-6" d="M40,126c1-3.61-2.16-7.89,1.82-11l.2,4.88c0,2-.44,4.3,2.8,4.1v4Z"/><path class="cls-1" d="M40,126l4.82,2v5L40,135Z"/><path class="cls-3" d="M32,25c-.05,1.55.12,2.94,2.12,3.05l-.06,1.85A2,2,0,0,1,32,32l-2,0a1.83,1.83,0,0,0-2-2H25l0-2c2.11-.26,5.17,1.07,5-3Z"/><path class="cls-7" d="M36,45,36,31.91c4.3,3.85.94,8.77,1.81,13.09H36Z"/><path class="cls-9" d="M39.84,73c-4-3.85-.79-8.72-1.83-13h1.82Q39.85,66.5,39.84,73Z"/><path class="cls-6" d="M39.83,60H38l0-7L38,48.88C42.33,52,39,56.32,39.83,60Z"/><path class="cls-3" d="M38,48.88,38,53c-3.9-1.87-1.16-5.38-2-8h1.83Z"/><path class="cls-1" d="M44.84,124c-3.24.2-2.84-2.08-2.8-4.1C45.5,119.53,45.26,121.7,44.84,124Z"/><path class="cls-6" d="M41.83,113c-2.89-2-2.9-4,0-6Z"/><path class="cls-9" d="M39.83,81c-2.89-2-2.91-4,0-6Z"/><path class="cls-1" d="M41.86,96c-2.88-2-2.84-4,0-6Z"/><path class="cls-1" d="M41.85,88c-3-.83-1.45-3.3-1.8-5.08C43.81,83.49,41.4,86.25,41.85,88Z"/><path class="cls-6" d="M38,217c0,.34,0,.69,0,1q0,4.48,0,9v3.86c-2-.74-1.82,3-4,2,0-1.27,0-2.55,0-3.82,3.07-2,3.09-4,0-6H32q0-6.51,0-13c1.79.54,3.91,1.64,3.12,3.51C33.61,217.13,36.55,216.27,38,217Z"/><path class="cls-12" d="M31.84,278c-2.68-3.11-2.68-15.87,0-19Q31.83,268.5,31.84,278Z"/><path class="cls-1" d="M34,229c0,1.27,0,2.55,0,3.82l-1.93.24-.11-.12L32,225c0-.66,0-1.32,0-2h2C34,225,34,227,34,229Z"/><path class="cls-15" d="M4.17,139c-1.76-11.47,2.05-22.62,2-34L10,103c1.43,3.33-5.61,6.66,0,10a52.19,52.19,0,0,1-4,22C5.81,136.53,6.64,138.53,4.17,139Z"/><path class="cls-16" d="M4,184,2.15,184Q2.08,171.47,2,158.93c0-1.45-.33-3.09,2-3.05.18,12.75,1.42,14.83,9,15.13,0,1.33,0,2.67,0,4l-3,0c-.36-1.33-1.89-2.39-1.68-.49.46,4.35-2.95,6.35-4.35,9.49Z"/><path class="cls-17" d="M13,171c-7.61-.3-8.85-2.38-9-15.13l.2-1.89H6l3,11.77c.57-2,.78-2.73,1-3.44.37-1.42-.8-4,1.64-3.87,2.19.13,1.27,2.64,1.34,4.14C13.09,165.4,13,168.2,13,171Z"/><path class="cls-5" d="M6.16,98c-1.77-10.83,2.3-21.29,2-32H10c-.58,4.12,2.1,4.23,5,4.06V73l-2,0c-4.82.13-2.39,3.82-3,6L10,83C6.35,84.52,8.66,87.68,8,90l0,6A1.84,1.84,0,0,1,6.16,98Z"/><path class="cls-7" d="M25,28l0,2A2,2,0,0,1,23,32.07l-1.92,0-1.94-.19c-.36-2.81-2.49-1.79-4.1-1.9l0,0L14.87,28l.42-.16c1.88,0,1.64-1.42,1.69-2.62l0-.29,2.06,0,1.83,0c2.34-.68,4.29-2.74,7-1.94,1.6.18,3.7-.61,4.09,2l0,0H30C27.87,25.24,24.82,23.92,25,28Z"/><path class="cls-18" d="M8.18,55l0-8H10c.15,1,.44,2.09,1.7,1.74.54-.15.86-1.12,1.28-1.72V45l2,0q0,4,0,8h0c-3.67,1.46-1.29,4.66-2,7H10.06C9.56,58.28,11.11,55.8,8.18,55Z"/><path class="cls-16" d="M6,154H4.16V139c2.47-.47,1.64-2.47,1.83-4a2.65,2.65,0,0,1,1.78,4.21C5.11,143.31,6.29,147.72,6,152Z"/><path class="cls-19" d="M19,9.93,23,10c0,1,0,2,0,3-1.5.27-3.6-.69-3.93,1.94l-4.18,2c.27-1.4-.5-1.84-1.72-1.86V12.92c2-.1,1.87-1.51,1.8-2.89Z"/><path class="cls-18" d="M10.21,40q0-3,0-6c1.65-.45,4.29,1.31,4.64-2.07L15,32c4,1.82,1.23,5.37,2,8l-2,0c-.25-1.15.55-2.62-1.1-3.51C12.59,37.57,13,40.63,10.21,40Z"/><path class="cls-19" d="M14.87,28c-3.49-1.66-1.23-4.68-1.69-7.06,1.21-.05,1.89-.59,1.71-1.9,1.59-.27,3.76.6,4.11-2.09L21,17l.1,2.07.09,1.81-.24.19c-3-.48-4.39.75-4,3.83l0,.29c-2.2-.18-2,1.19-1.69,2.62Z"/><path class="cls-20" d="M10.21,40c2.82.64,2.38-2.42,3.71-3.48,1.65.89.85,2.36,1.1,3.51l0,5-2,0c-1.49,0-2.9-.09-3-2.09Z"/><path class="cls-14" d="M6.16,98A1.84,1.84,0,0,0,8,96l2,0,0,7-3.84,2Z"/><path class="cls-21" d="M8.18,55c2.93.76,1.38,3.24,1.88,4.94Q10,63,10,66H8.18Z"/><path class="cls-22" d="M19,16.93c-.35,2.7-2.52,1.83-4.11,2.1l-1.73.06c0-.74,0-1.47,0-2.2l1.74.06,4.18-2,0,.14Z"/><path class="cls-22" d="M10,42.93c.1,2,1.51,2.1,3,2.09v2l-3,0H8.16C8.32,45.44,6.74,43.11,10,42.93Z"/><path class="cls-21" d="M14.81,31.9c-.35,3.38-3,1.62-4.64,2.07-.63-2.81,1.58-1.68,2.75-2Z"/><path class="cls-23" d="M15,10c.07,1.38.19,2.79-1.8,2.89V10.05Z"/><path class="cls-23" d="M13.16,19.09,14.89,19c.18,1.31-.5,1.85-1.71,1.9C13.17,20.32,13.16,19.7,13.16,19.09Z"/><path class="cls-3" d="M14.81,31.9,12.92,32c-.09-1.52.56-2.23,2.12-1.93l0,0,0,2Z"/><path class="cls-1" d="M14.89,17l-1.74-.06c0-.6,0-1.2,0-1.8C14.39,15.11,15.16,15.55,14.89,17Z"/><path class="cls-7" d="M15,230.84H13l0-7.82c-2.75-6.76-3.27-13.86-3.36-21,0-.34-1-.66-1.55-1-2.61-4.24-2.13-7.95,1.89-11.06.43,2-1.07,5.26,3.07,5,1.37,5-3.34,11.6,4,15C17.38,217,13.52,223.69,15,230.84Z"/><path class="cls-5" d="M17.17,280V250L21,248.11V253c-1.85,2.65-2.18,5.61-2.11,8.78.15,6.08.06,12.16.07,18.24Z"/><path class="cls-12" d="M15,230.84c-1.51-7.15,2.35-13.8,2-20.85l.09-2h1.82L19,231l-2.06.13Z"/><path class="cls-2" d="M12.94,223l0,7.82H8q0-3.95-.08-7.89c0-1,.09-2,.14-2.94C10.29,220.05,10.18,223.88,12.94,223Z"/><path class="cls-4" d="M27.92,300.06,17.14,300l0-7L19,293A1.91,1.91,0,0,0,21,295c.53,5.25,4.52,2.13,6.93,2.86Z"/><path class="cls-7" d="M21,248.11,17.17,250v-6L19,244a1.78,1.78,0,0,0,2.19,1.83l6.65-.08.09,2.33Z"/><path class="cls-14" d="M19,244l-1.78,0-.27-12.93L19,231l.08.14Q19,237.54,19,244Z"/><path class="cls-14" d="M19,293l-1.85,0V280H19Z"/><path class="cls-20" d="M27.88,257q0,18,0,36c-5.26.94-7.83-.83-6.91-6.56A43.44,43.44,0,0,0,21,280c2-.37,3.89-2,3.65-3.46-.7-4.31.29-8.46.37-12.68.06-3-.16-5.39-4.09-4.88C22.43,255.27,25.58,257.68,27.88,257Z"/><path class="cls-24" d="M27.88,257c-2.3.66-5.45-1.75-6.91,1.92q0,10.51.07,21a43.44,43.44,0,0,1-.08,6.46c-.92,5.73,1.65,7.5,6.91,6.56,0,.67,0,1.34,0,2L21,295A1.91,1.91,0,0,1,19,293l0-13c0-6.08.08-12.16-.07-18.24-.07-3.17.26-6.13,2.11-8.78l2,0c.14.72.14,1.69,1.2,1.46.35-.07.52-.95.78-1.45l2.83-.08Z"/><path class="cls-18" d="M27.8,245.79l-6.65.08c-.06-.61-.13-1.23-.19-1.84l.05-6c4,.59,4.26-1.87,4-4.81l2.94-.09Z"/><path class="cls-7" d="M27.92,233.1l-2.94.09,0-.33L25,227l0-2H28l0,2Z"/><path class="cls-6" d="M28,227l0-2,.06-9H30l0,9,0,2Z"/><path class="cls-11" d="M27.82,252.94,25,253H23l-2,0c0-1,0-1.95,0-2.92h6.79Z"/><path class="cls-22" d="M21,295l6.9,0,0,2.89C25.47,297.16,21.48,300.28,21,295Z"/><path class="cls-3" d="M30,227c0-.67,0-1.34,0-2h2l0,7.95C28.45,231.9,30.65,229,30,227Z"/><path class="cls-24" d="M27.83,250.06H21v-1.94h6.85Z"/><path class="cls-12" d="M12.94,223c-2.76.85-2.65-3-4.87-3C8,218,8,216,7.91,214c0-1.33,0-2.66,0-4L8,201c.54.33,1.55.65,1.55,1C9.67,209.17,10.19,216.27,12.94,223Z"/><path class="cls-16" d="M7.92,210c0,1.33,0,2.66,0,4C5,213,3.74,211,4,208H4Z"/><path class="cls-8" d="M23,13c0-1,0-2,0-3l.1-.09L28,10l4-.09c.6.45,1.56.8,1.73,1.37.38,1.29-.7,1.64-1.74,1.82l-4,0-4.95,0Z"/><path class="cls-23" d="M28,10l-4.92-.08C24.79,8,24,4,28,4,28,6,28,8,28,10Z"/><path class="cls-14" d="M7.92,210,4,208q0-6.51,0-13c-1-4,1.28-6.61,4-9,0-.66,0-1.32,0-2,3.66,1,1.35,3.94,1.94,5.94-4,3.11-4.5,6.82-1.89,11.06C8,204,8,207,7.92,210Z"/><path class="cls-12" d="M8,184c0,.65,0,1.31,0,2-1.63-.07-3.61.58-4-2l0,0Z"/><path class="cls-25" d="M34,92c.87,4.56-3.21,8.36-2,13,.82,10.11-.92,20-2,30H28V124c1.73-3.66-.12-7.33,0-11,1.52-11.28,2.62-22.59,2-34h2C32.06,83.43,31.67,87.92,34,92Z"/><path class="cls-15" d="M28.07,60,34,60q0,4,0,8c-3.12.7-1.58,3.26-2,5-4.18-.74.25-6.3-3.94-7h0Z"/><path class="cls-16" d="M32,73c.44-1.77-1.1-4.33,2-5-.9,3,2,6.75-2,9,0-.67,0-1.34,0-2S32,73.68,32,73Z"/><path class="cls-26" d="M32,75c0,.68,0,1.35,0,2s0,1.33,0,2H30C30.16,77.42,29.4,75.4,32,75Z"/><path class="cls-4" d="M30,135c1.1-10,2.84-19.91,2-30,4.13,2.65,1,6.75,2,10,3,9.84,1.78,20,2,30l0,13c-4,3.07-1.12,7.38-2,11l0,2c-3.69,1.36-1.31,4.51-2,6.76-.83,2.7,2,6.27-2,8.23l-.08-1.92c-.82-3,2.08-6.74-1.91-9,0-.68,0-1.36-.05-2,0-2.66,0-5.32,0-8L28,145c3.88-1.88,1.17-5.37,1.95-8Z"/><path class="cls-9" d="M36,158l0-13,4-2,2,13v4c0,1.45,0,2.88-2,3H38c-.4-1.76,1.13-4.28-2-5Z"/><path class="cls-9" d="M38,217c-1.43-.72-4.37.14-2.85-3.48.79-1.87-1.33-3-3.12-3.51H30v-2c3.2-.84,2-3.49,1.91-5.34-.25-7.87.13-15.56,4.08-22.65l4,2h2c.56,3-.58,5.52-2,8,0,3,0,6,0,9-4.06,2.12-1.44,5.8-1.9,8.71S38,213.89,38,217Zm-3-16.85c1.21-4.44,1.69-7-.18-10.11C33.68,193.22,33.79,195.72,34.94,200.14Z"/><path class="cls-2" d="M38,227q0-4.47,0-9C41.11,221,41.12,224,38,227Z"/><path class="cls-18" d="M28.07,60c0,2-.05,4-.08,6-1.32-.07-3-.09-2.85-1.85C25.61,59.54,24,55.34,23,51c3.83-.19,0-6.81,5-6,2.83,2.52-1.2,4.85-.17,7.61C28.65,54.8,28,57.51,28.07,60Z"/><path class="cls-20" d="M28,45c-5-.81-1.18,5.81-5,6l0-8c2-.16,2-1.57,1.95-3V36c.15-1.92,1.47-2,3-1.92l.2,1.9C27.53,39,31.41,42,28,45Z"/><path class="cls-4" d="M28.12,36c-.07-.63-.13-1.26-.2-1.9,0-1.35.06-2.7.08-4.05a1.83,1.83,0,0,1,2,2v4Z"/><path class="cls-27" d="M30,36V32l2,0C31.85,33.63,32.59,35.64,30,36Z"/><path class="cls-6" d="M42,182H40V163c2-.13,2-1.56,2-3,7.86,2.32-.11,4.7,0,7,0,1.31,0,2.62,0,3.93Q42,176.49,42,182Z"/><path class="cls-2" d="M42,171c0-1.31,0-2.62,0-3.93,1.28,0,2.7-.09,2.84,1.73C45,170.87,43.56,171,42,171Z"/><path class="cls-23" d="M21.22,20.9l-.09-1.81c2.11-3.17,7-.32,8.83-4.06L32,14.94c-.12,3.36,4.48,6.73,0,10.08-.39-2.64-2.49-1.85-4.09-2C26.67,19.14,23.39,21.8,21.22,20.9Z"/><path class="cls-1" d="M32,14.94,30,15l-1.9-.1V13.05l4,0Z"/><path class="cls-10" d="M28,30c0,1.35-.05,2.7-.08,4.05-1.48-.13-2.8,0-3,1.92l-2,0L23,32.07A2,2,0,0,0,25,30Z"/><path class="cls-6" d="M25,28c-.18-4.08,2.87-2.76,5-3C30.17,29.07,27.11,27.74,25,28Z"/><path class="cls-7" d="M30,210h2q0,6.51,0,13c0,.66,0,1.32,0,2H30q0-4.5,0-9Z"/><path class="cls-3" d="M34,229c0-2,0-4,0-6C37.09,225,37.07,227,34,229Z"/><path class="cls-5" d="M10,103c0-2.34,0-4.68,0-7l0-6,3,0,0,2c1.26,8,.75,16.33,3.66,24.16.93,2.48,0,7.29,3.08,6.79,2.9-.47.61-5.19,1.26-7.94h2c1.24,7.51-3.25,14.49-2,22-4.56,1.05.55,6.94-4,8V135c3.95-2.47,1.47-5.4,0-8.23V133a1.87,1.87,0,0,0-2,2c-4.05-2.26-1.06-6.08-2-9,0-4.09.06-8.17-.05-12.25a3.12,3.12,0,0,0-1.13-2.37c-1.18-.52-1.63.59-1.81,1.63C4.39,109.66,11.43,106.33,10,103Z"/><path class="cls-14" d="M10,113c.18-1,.63-2.15,1.81-1.63a3.12,3.12,0,0,1,1.13,2.37c.11,4.08.05,8.16.05,12.25-2.9-.18-3,1.71-3,3.86,0,5.25-.1,10.51,0,15.75.08,3.15-.87,5.41-4,6.42.28-4.3-.9-8.71,1.77-12.81A2.65,2.65,0,0,0,6,135,52.19,52.19,0,0,0,10,113Z"/><path class="cls-10" d="M6,152c3.15-1,4.1-3.27,4-6.42-.14-5.24,0-10.5,0-15.75,0-2.15.1-4,3-3.86.95,2.94-2,6.76,2,9l0,21,0,19H13c0-1.34,0-2.68,0-4,0-2.81.1-5.61,0-8.41-.07-1.5.85-4-1.34-4.14-2.44-.15-1.27,2.45-1.64,3.87-.18.71-.39,1.41-1,3.44L6,154C6,153.34,6,152.68,6,152Z"/><path class="cls-6" d="M8,184H4c1.4-3.14,4.81-5.14,4.35-9.49-.21-1.9,1.32-.84,1.68.49-.22,2.17.75,3.2,2.94,3L13,195c-4.14.22-2.64-3-3.07-5C9.33,187.94,11.64,185,8,184Z"/><path class="cls-3" d="M13,178c-2.19.16-3.16-.87-2.94-3l3,0h0Z"/><path class="cls-18" d="M15,73V70q0-3,0-6.06l0-11h2c0,3,.05,6,.07,9V75L17,94a1.87,1.87,0,0,1-2-2Z"/><path class="cls-22" d="M15,64q0,3,0,6.06c-2.9.17-5.58.06-5-4.06q0-3,.1-6H13C13.19,61.54,12.35,63.62,15,64Z"/><path class="cls-22" d="M15,73,15,92l-2,0,0-2c0-.67,0-1.35,0-2V79L13,73Z"/><path class="cls-4" d="M12.93,79c0,3,0,5.95,0,8.92-4.1.2-2.6-2.94-3-5L10,79Z"/><path class="cls-17" d="M10,83c.36,2-1.14,5.17,3,5,0,.67,0,1.35,0,2l-3,0L8,90C8.66,87.68,6.35,84.52,10,83Z"/><path class="cls-17" d="M12.93,79H10c.57-2.22-1.86-5.91,3-6C13,75,13,77,12.93,79Z"/><path class="cls-13" d="M8,90l2,0,0,6L8,96C8,94,8,92,8,90Z"/><path class="cls-22" d="M17,53H15q0-4,0-8l0-5,2,0c.34,1.43-.71,3.21,2.08,5.07V31.92l1.94.19c.09,1.58-.58,3.55,2,3.89l2,0c0,1.34,0,2.67,0,4-2,.16-2,1.56-1.95,3l0,8c1,4.34,2.61,8.54,2.14,13.15C25,65.91,26.67,65.93,28,66h0c0,4.4-.06,8.8,0,13.2,0,2.15-.13,4-3,3.8.94-5.79-1.6-10.94-2.64-16.61-2.86,1.7.52,5.86-3.35,6.6l0-11C18.42,59,23.76,54.66,17,53Z"/><path class="cls-11" d="M19.09,31.92V45.06C16.3,43.2,17.35,41.42,17,40c-.81-2.63,1.94-6.18-2-8,0-.66,0-1.31,0-2C16.6,30.13,18.73,29.11,19.09,31.92Z"/><path class="cls-17" d="M21.22,20.9c2.17.9,5.45-1.76,6.71,2.09-2.75-.8-4.7,1.26-7,1.94,0-.63,0-1.26,0-1.88l.05-2Z"/><path class="cls-18" d="M21,21.09c0,.65,0,1.31-.05,2a1.67,1.67,0,0,0-1.87,1.84l-2.06,0C16.59,21.84,18,20.61,21,21.09Z"/><path class="cls-20" d="M23,36c-2.55-.34-1.88-2.31-2-3.89l1.92,0C23,33.38,23,34.69,23,36Z"/><path class="cls-6" d="M15.29,27.83C15,26.4,14.78,25,17,25.21,16.93,26.41,17.17,27.8,15.29,27.83Z"/><path class="cls-11" d="M19.06,24.89a1.67,1.67,0,0,1,1.87-1.84c0,.62,0,1.25,0,1.88Z"/><path class="cls-28" d="M15,64c-2.62-.36-1.78-2.44-2-4,.72-2.31-1.66-5.51,2-7C15,56.67,15,60.32,15,64Z"/><path class="cls-5" d="M10,47l3,0c-.42.6-.74,1.57-1.28,1.72C10.44,49.09,10.15,48,10,47Z"/><path class="cls-8" d="M28.06,14.93,30,15c-1.84,3.74-6.72.89-8.83,4.06,0-.69-.07-1.38-.1-2.07.15-1.49-.66-2-2-1.94l0-.14C19.4,12.31,21.5,13.27,23,13l.1.09C23.81,16.25,26.32,14.54,28.06,14.93Z"/><path class="cls-11" d="M19,15.08c1.34-.05,2.15.45,2,1.94l-2-.08Z"/><path class="cls-16" d="M13,178l0-3h2v9.4c2.75-2.59,1.69-4.64,2-6.39h2l0,8.05c-2.71.51-1.89,2.7-1.91,4.32-.06,5.88,0,11.76,0,17.65L17,210c-7.33-3.41-2.62-10-4-15Q13,186.51,13,178Z"/><path class="cls-16" d="M28,173c0,.68,0,1.36.05,2l0,0c-2.83-.23-3,1.57-3,3.73s.57,3.47,3,3.25l.14,2.1-.17,5.9c-4.39.57-1.85-4.09-4.92-6v32c-.06,3.67-3.13,7.33,0,11l-.13,4.1-1.81,0-2,0L19,231q0-11.46-.07-22.92c0-1,.09-2,.14-3.05,2.71-.52,1.91-2.7,1.93-4.34.07-7.54,0-15.09,0-22.64,2.4-4.33,1-8.66,0-13,4-3.07,1.11-7.38,2-11h2l0,11C26.19,167.59,22.21,172.1,28,173Z"/><path class="cls-6" d="M19,205c-.05,1-.1,2-.14,3.05H17.07c0-5.89-.09-11.77,0-17.65,0-1.62-.8-3.81,1.91-4.32Z"/><path class="cls-14" d="M21,244c.06.61.13,1.23.19,1.84A1.78,1.78,0,0,1,19,244l0,0Z"/><path class="cls-10" d="M21,244l-2,0q0-6.47.05-12.91h2L21,238Z"/><path class="cls-11" d="M21,280q0-10.51-.07-21c3.93-.51,4.15,1.9,4.09,4.88C25,268,24,272.19,24.69,276.5,24.93,278,23,279.59,21,280Z"/><path class="cls-5" d="M23,253h2c-.26.5-.43,1.38-.78,1.45C23.15,254.7,23.15,253.73,23,253Z"/><path class="cls-22" d="M21,238l0-6.92,1.81,0c.18,1.25.7,2.07,2.16,1.76l0,.33C25.27,236.13,25,238.59,21,238Z"/><path class="cls-4" d="M23,197V184c3.07,1.91.53,6.57,4.92,6q0,13,.1,26L28,225H25c0-3,0-6,0-9,0-4.09.25-8.19-.08-12.24C24.72,201.49,26.7,198.37,23,197Z"/><path class="cls-9" d="M25,216c0,3,0,6,0,9,0,.68,0,1.35,0,2l-2,0c-3.1-3.67,0-7.33,0-11Z"/><path class="cls-12" d="M23,227l2,0,0,5.84c-1.46.31-2-.51-2.16-1.76C22.89,229.73,22.94,228.37,23,227Z"/><path class="cls-12" d="M28,216q0-13-.1-26c.05-2,.11-3.93.16-5.9h1.85c0,.64,0,1.28.08,1.92q0,11,0,22v2l0,6Z"/><path class="cls-23" d="M28.06,14.93c-1.74-.39-4.25,1.32-5-1.84l4.95,0C28.05,13.68,28.06,14.3,28.06,14.93Z"/><path class="cls-28" d="M25,83c2.88.22,3-1.65,3-3.8-.05-4.4,0-8.8,0-13.2,4.19.73-.24,6.29,3.94,7,0,.66,0,1.31,0,2-2.56.42-1.8,2.44-2,4,.62,11.41-.48,22.72-2,34H25a1.87,1.87,0,0,0-2-2C25.68,101.81,24.89,92.37,25,83Z"/><path class="cls-15" d="M25,113h3c-.12,3.67,1.73,7.34,0,11-5.88,1.37-1.78,6.08-3,9-2.67.5-1.94,2.65-2,4.31-.07,5.56,0,11.12,0,16.69-.89,3.63,2,7.94-2,11,0-.68,0-1.35,0-2V137c-1.25-7.51,3.24-14.49,2-22h0A1.87,1.87,0,0,0,25,113Z"/><path class="cls-5" d="M25,133c1.23-2.93-2.87-7.64,3-9v11H25C25,134.33,25,133.67,25,133Z"/><path class="cls-15" d="M25,135h5c0,.67,0,1.33,0,2-1.87.15-2.8,2.62-5,2Z"/><path class="cls-7" d="M30,208q0-11,0-22c3.93-2,1.15-5.53,2-8.23.69-2.25-1.69-5.4,2-6.76,0,2.33,0,4.66,0,7a1.85,1.85,0,0,0,2,2c-4,7.09-4.33,14.78-4.08,22.65C32,204.5,33.21,207.15,30,208Z"/><path class="cls-15" d="M25,165l0-11q0-4.5,0-9h3L28,165Z"/><path class="cls-25" d="M28,145H25v-2c.89-.17,2.38.36,2.38-1s-1.49-.83-2.38-1v-2c2.18.61,3.11-1.86,5-2C29.2,139.63,31.91,143.12,28,145Z"/><path class="cls-9" d="M34,178c0-2.33,0-4.66,0-7,0-.66,0-1.32,0-2l2,0c.2,1.57-.62,3.65,2,4C38.19,175.88,38.2,178.61,34,178Z"/><path class="cls-27" d="M25,165H28c0,2.66,0,5.32,0,8C22.21,172.1,26.19,167.59,25,165Z"/><path class="cls-7" d="M36,169l-2,0c.85-3.64-2.05-8,2-11h0C36,161.67,36,165.33,36,169Z"/><path class="cls-3" d="M29.94,184.07H28.09c0-.7-.08-1.4-.13-2.1l0-7,0,0C32,177.33,29.12,181.09,29.94,184.07Z"/><path class="cls-3" d="M34,178c4.19.62,4.18-2.11,4-5V163h2v19l-4-2A1.85,1.85,0,0,1,34,178Z"/><path class="cls-6" d="M38,163v10c-2.63-.36-1.81-2.44-2-4,0-3.66,0-7.32,0-11C39.13,158.72,37.6,161.24,38,163Z"/><path class="cls-12" d="M34.94,200.14c-1.15-4.42-1.26-6.92-.18-10.11C36.63,193.16,36.15,195.7,34.94,200.14Z"/><path class="cls-18" d="M23,43C23,41.55,23,40.15,25,40,25,41.44,25,42.85,23,43Z"/><path class="cls-26" d="M25,83c-.12,9.38.67,18.82-2,28v4H21c0-9.21,0-18.42,0-27.63,0-1.65.76-3.82-1.93-4.35L19,75l0-2c3.87-.74.49-4.9,3.35-6.6C23.41,72.05,26,77.2,25,83Z"/><path class="cls-29" d="M19,83c2.69.53,1.92,2.7,1.93,4.35.06,9.21,0,18.42,0,27.63-.65,2.75,1.64,7.47-1.26,7.94-3.1.5-2.15-4.31-3.08-6.79C13.76,108.32,14.27,100,13,92l2,0a1.87,1.87,0,0,0,2,2l.1,0v12.31l1.84,0V94Z"/><path class="cls-27" d="M21,137v26c-4.25-.67.25-6.33-4-7h0c0-3.67,0-7.34,0-11C21.55,143.94,16.44,138.05,21,137Z"/><path class="cls-16" d="M17,145c0,3.66,0,7.33,0,11l-2,0,0-21a1.87,1.87,0,0,1,2-2v12Z"/><path class="cls-10" d="M17,135v-8.23C18.48,129.59,21,132.52,17,135Z"/><path class="cls-26" d="M15,156l2,0h0q0,9.51,0,19H15Q15,165.49,15,156Z"/><path class="cls-13" d="M19,83c0,3.64-.07,7.29-.1,10.94H17.1L17,94l.06-19H19Z"/><path class="cls-17" d="M19,75H17.06q0-6.48,0-13L19,62l0,11C19,73.66,19,74.34,19,75Z"/><path class="cls-28" d="M19,62l-1.92,0c0-3-.05-6-.07-9C23.76,54.66,18.42,59,19,62Z"/><path class="cls-17" d="M17,175q0-9.51,0-19c4.25.67-.25,6.33,4,7,0,.67,0,1.34,0,2,1,4.32,2.4,8.65,0,13H17Z"/><path class="cls-27" d="M19,178h2c0,7.55,0,15.1,0,22.64,0,1.64.78,3.82-1.93,4.34L19,186.06Z"/><path class="cls-10" d="M17,175l0,3c-.34,1.75.72,3.8-2,6.39V175Z"/><path class="cls-14" d="M25,143v2q0,4.5,0,9H23c0-5.57-.05-11.13,0-16.69,0-1.66-.71-3.81,2-4.31,0,.66,0,1.32,0,2v8Z"/><path class="cls-3" d="M25,216H23V197c3.69,1.36,1.71,4.48,1.89,6.76C25.23,207.82,25,211.92,25,216Z"/><path class="cls-27" d="M28,175l0,7c-2.42.22-3-1.11-3-3.25S25.16,174.77,28,175Z"/><path class="cls-5" d="M23,115v-4a2,2,0,1,1,0,4Z"/><path class="cls-15" d="M25,143v-2c.89.17,2.38-.36,2.38,1S25.89,142.83,25,143Z"/><path class="cls-14" d="M17.1,94h1.84v12.32l-1.84,0Z"/></g></g></svg>