<svg xmlns="http://www.w3.org/2000/svg" viewBox="0 0 115 322"><defs><style>.cls-1{fill:#d7d7d2;}.cls-2{fill:#d1ceba;}.cls-3{fill:#cbc8ad;}.cls-4{fill:#b6ac8b;}.cls-5{fill:#4f4531;}.cls-6{fill:#261f14;}.cls-7{fill:#1a0f0a;}.cls-8{fill:#2e0e0a;}.cls-9{fill:#7e6f54;}.cls-10{fill:#564028;}.cls-11{fill:#38120f;}.cls-12{fill:#461b0f;}.cls-13{fill:#4a1f1c;}.cls-14{fill:#0f0803;}.cls-15{fill:#664b39;}.cls-16{fill:#a08a68;}.cls-17{fill:#471e17;}.cls-18{fill:#3b3625;}.cls-19{fill:#7c6647;}.cls-20{fill:#ab9b79;}.cls-21{fill:#5c2514;}.cls-22{fill:#b59c80;}.cls-23{fill:#c5bd9c;}.cls-24{fill:#984d2a;}.cls-25{fill:#632d28;}.cls-26{fill:#7a3f3b;}.cls-27{fill:#986660;}.cls-28{fill:#e2d2a7;}.cls-29{fill:#8e5b57;}</style></defs><title>Asset 60</title><g id="Layer_2" data-name="Layer 2"><g id="Layer_1-2" data-name="Layer 1"><path class="cls-1" d="M0,107c4.68-4.73,5.85-11.56,9.94-16.64C15.1,84,17.09,75.94,21.1,69c1.31,0,1.86-.77,1.89-2a1.76,1.76,0,0,1,2-2c3.24-.63,1.65-3.23,2-5,0-1.93-.39-4.13,2.65-4.08C31,58.79,28.2,62.71,31.92,65c.07.64.13,1.29.2,1.93-.09,1.34-.18,2.69-.28,4-5.48.33-9.3,6.4-6.89,11-2.48.39-1.78,2.42-2.05,4-9.71,1.46-6.34,9.59-7.8,15.26.75,2.44-1.57,3.81-2,5.82-1.8.92-4.28-2.43-4.55-.78-1,6.22-5.54,3-8.5,3.8Z"/><path class="cls-2" d="M0,110c3-.83,7.48,2.42,8.5-3.8.27-1.65,2.75,1.7,4.55.79,4.63,1.74-.82,3.28-.1,5l-2.85.15A1.82,1.82,0,0,0,8,114c-1.39.17-3.59-.47-3.72,1.48-.44,6.72-.38,13.47-.74,20.2C3.22,141.28,7.33,147.89,0,152Z"/><path class="cls-3" d="M0,152c7.33-4.11,3.22-10.72,3.52-16.33.36-6.73.3-13.48.74-20.2.13-2,2.33-1.31,3.72-1.48-2.41,14.28,5.79,30-6,43H0Z"/><path class="cls-4" d="M0,157H2c2.68,1.87,5.35,4.62,8,0l2.78.16c-4,2.66,1.17,5.19.12,7.81-1.85.38-4.63-1-4.9,2.45-.18,2.42-.24,4.72,3.24,4.76.54,0,1.58,1.07,1.52,1.54-.56,4.66,3.34,8.56,2.2,13.28h0l-2.08,0,0,0c0-2-1.33-2.13-2.82-2.06.1-5.57-4.12-9.65-5.23-14.9-.35-1.63-.61-3.35-.93-5-.15-1.61.66-3.69-2-4.09H0Z"/><path class="cls-5" d="M115,99v13a1.77,1.77,0,0,0-2,1.94c-2.64,2.19-5.72,2.32-8.91,2,0-1.31,0-2.62,0-3.94,5.6,1.07,7.89-1.15,7.06-6.86a35.47,35.47,0,0,1,.12-5.91Z"/><path class="cls-6" d="M70,322c1.84-4.35-3.46-5.6-3.9-9l5.87.23L72,322Z"/><path class="cls-5" d="M72,322l0-8.73,0-.46,1.91.12L74,320.1l0,1.9Z"/><path class="cls-7" d="M74,0l-.18,5H72.18L72,0Z"/><path class="cls-8" d="M113,113.94a1.78,1.78,0,0,1,2-1.94v4l-2,.09C113,115.37,113,114.66,113,113.94Z"/><path class="cls-9" d="M115,99l-3.78.2L111,99l.24-2,1.91,0,1.9,0Z"/><path class="cls-10" d="M115,97l-1.9,0c0-.7,0-1.39-.07-2.08l2,.13Z"/><path class="cls-11" d="M46.83,144v2c-7.07-1-8.77,3.19-8.84,9,0,2,0,4,0,6H36c-5.87-.45-2.62-4.16-2.32-6.71.57-4.76,4.54-8.49,4.3-13.48-.37-7.89,1.35-15,7-20.83l4,2,0,3c-3.56,4.24-.93,9.79-3,15.53-.55-1.81-.82-2.5-1-3.22-.51-2.37-1.76-3.17-2.74-.57-.64,1.71-1.22,4.34,1.7,5.48A17.23,17.23,0,0,1,46.83,144Z"/><path class="cls-12" d="M66.14,281q0-22.49,0-45l3.78.06c-.45,1-1.53,2.26-1.26,3C71.34,246.62,67,254.53,70,262c.18,1.53-.72,3.56,1.85,4,0,3,0,6,0,9-1.71.27-2.13,1.44-1.61,2.82.68,1.82,2.42,1.07,3.77,1.2,0,.63,0,1.26,0,1.9l-3.84.27Z"/><path class="cls-4" d="M32,222.87c-5.45-1.53-9.49-4.26-9.07-10.75,0-1.26-.5-2-1.84-2.1l-6.15-19c0-1.35,0-2.7,0-4.05h0l4,2v2c-2,4.17,2.2,4.31,4,6,1.72,2.82.86,6.81,4,9C26.78,212.2,32.88,216.5,32,222.87Z"/><path class="cls-13" d="M44.84,202c.94,6.3,3.27,12.45,2,19L45,221c-.59-2.21,1.78-5.87-3-6,.05-4.76-.65-9.29-4-13h0L38,193.05l0-6,0,0,4,0c.7,2.11-1.84,5.77,2.85,6v2c-2.63-.2-2.86,1.47-2.86,3.5S42.22,202.2,44.84,202Z"/><path class="cls-14" d="M49,125c0-1,0-2,0-3,.8-2,1.4-3.31,4.44-3,5.43.58,11.5.93,12.58-7a2,2,0,0,0,2-2.1L70,110l2,.1c-.37,2.06-2.77,3.49-1.86,6-2.72,1.11-2.54,4.17-4.09,6.07l-12.93,5C52.72,124.49,50.66,125.12,49,125Z"/><path class="cls-12" d="M42,187l-4,0c.72-8.77-3.48-17.15-2-26h2l2,0c.22,1.52-.65,3.54,1.85,4L42,184.89Z"/><path class="cls-10" d="M66.14,281l4,.21c0,1.54-.77,3.39,1.6,4,0,.56,0,1.11,0,1.67-2.27.59-1.77,2.41-1.79,4q-.09,9.14-.2,18.26L66.17,309Z"/><path class="cls-15" d="M67.88,234l.3-56,1.74,0q0,28.07,0,56.13Z"/><path class="cls-8" d="M49,125c1.65.14,3.71-.49,4,2.15-1.52,4.14-4.46,7.93-3.93,12.57.26,2.31-2.74,2.27-2.28,4.3A17.23,17.23,0,0,0,44,142.2c-2.92-1.14-2.34-3.77-1.7-5.48,1-2.6,2.23-1.8,2.74.57.15.72.42,1.41,1,3.22C48.08,134.77,45.45,129.22,49,125Z"/><path class="cls-8" d="M40,161l-2,0c0-2,0-4,0-6,.07-5.82,1.77-10.05,8.84-9q-2.51,6.5-5,13A1.82,1.82,0,0,0,40,161Z"/><path class="cls-16" d="M32,222.87C32.88,216.5,26.78,212.2,27,206l.13-.13,3,0A2.08,2.08,0,0,1,32,208c0,1.67-.54,3.62,1.92,4.17,0,.94.08,1.88.11,2.82,0,.68,0,1.35,0,2,.17,1.56-.64,3.56,1.86,4l.2,3.81C33.91,225.85,34,222.34,32,222.87Z"/><path class="cls-9" d="M69.82,309.08q.11-9.13.2-18.26c0-1.59-.48-3.41,1.79-4l.32.31c-.16,1.4-.48,2.9,1.76,2.78l0,2.21c-2.69.27-1.8,2.4-1.83,3.84-.09,4.33,0,8.66,0,13l0,3.86,0,.46L66.1,313c0-.7,0-1.4,0-2.11C67.63,310.87,69.68,311.89,69.82,309.08Z"/><path class="cls-17" d="M66.14,155q0-5.47,0-11c2.65,0,1-4.09,3.75-4,0,3.34.07,6.69.1,10l0,1.95-.3,2.95-1.68.24Z"/><path class="cls-18" d="M66,122.08c1.55-1.9,1.37-5,4.09-6.07L74,114l0,4c-1.13.26-3.16-.66-3.16,1s2,.74,3.15,1c0,.67,0,1.34,0,2-2.18-.18-4.26-.22-4,2.93l-2,.12-1.75,0Z"/><path class="cls-15" d="M36.07,224.83l-.2-3.81.32-.05L38,221c2.32,3.12,4.66-1.65,7,0l1.88-.05c0,1.33,0,2.67,0,4l-7,.1Z"/><path class="cls-12" d="M67.94,125.06l2-.12,1.78.16c-.26,2.05-2.48,3.53-1.72,5.89-1.53,2-1.32,4-.14,6.1L66.16,137c0-2,0-4,0-6C69.44,129.82,67.43,127.06,67.94,125.06Z"/><path class="cls-9" d="M66.18,167l0-8.08L68,159h0a1.77,1.77,0,0,0,2,2l.1,6,0,2.94-2.16.15,0,.1C68,168.77,68.21,167.27,66.18,167Z"/><path class="cls-11" d="M42,187l0-2.12c6.14.9,1.55,5.51,2.8,8.1C40.15,192.78,42.69,189.12,42,187Z"/><path class="cls-11" d="M44.84,202c-2.62.21-2.87-1.43-2.86-3.48s.23-3.7,2.86-3.5Z"/><path class="cls-19" d="M39.85,225.08l7-.1v4.84C45.85,226.05,40.84,228.41,39.85,225.08Z"/><path class="cls-8" d="M66.16,137l3.71.07c0,.95,0,1.9.07,2.86-2.75,0-1.1,4-3.75,4Z"/><path class="cls-5" d="M67.89,170.05l2.16-.15,0,0L71.91,174H68.15Z"/><path class="cls-10" d="M68.15,174h3.76c0,.6-.07,1.2-.11,1.81A2.12,2.12,0,0,0,69.92,178l-1.74,0Z"/><path class="cls-11" d="M67.94,125.06c-.51,2,1.5,4.76-1.77,5.93,0-2,0-4,0-6Z"/><path class="cls-7" d="M40,161a1.82,1.82,0,0,1,1.86-2v6C39.33,164.56,40.2,162.54,40,161Z"/><path class="cls-20" d="M2,161c2.64.4,1.83,2.48,2,4.09C1,164.87,2.39,162.51,2,161Z"/><path class="cls-21" d="M67.88,234l2.05.13.15,1.84-.15.14L66.15,236C65.68,234.43,66.39,233.86,67.88,234Z"/><path class="cls-15" d="M68,159l-1.85,0c0-1.33,0-2.66,0-4l2,.17C68.07,156.42,68,157.71,68,159Z"/><path class="cls-18" d="M69.82,309.08c-.14,2.81-2.19,1.79-3.71,1.85l.06-1.9Z"/><path class="cls-20" d="M15,187c0,1.35,0,2.7,0,4.05-3.06-.11-1.49-2.61-2.06-4Z"/><path class="cls-15" d="M66.18,167c2,.23,1.79,1.73,1.74,3.11C65.64,170.07,65.93,168.54,66.18,167Z"/><path class="cls-20" d="M10.14,185c1.49-.07,2.82.08,2.82,2.06C11.71,186.82,9.71,187.6,10.14,185Z"/><path class="cls-20" d="M21.13,210c1.34.06,1.86.84,1.84,2.1C21.65,212,20.76,211.58,21.13,210Z"/><path class="cls-14" d="M74,122c0-.67,0-1.34,0-2v-2l0-4,0-9q0-4,0-8c0-.66.06-1.32.1-2,6.16-2.22,1.31-7.48,3-10.93l2-.14c4.11,1.15,1.35,4.36,1.78,6.54.53,2.7.15,5.58.16,8.39,0,1.37,0,2.74,0,4.11-2.64,1.23-4.21,4.78-3.33,6,2.15,3,3-1.4,4.68-1.8A24.26,24.26,0,0,1,86.8,107c.1,1,.2,2,.29,3l-1.65,1.27,1.54.94c.78,3.52,1.22,7.17,4,9.86,2.13,6.47,8.46,5.07,13,7,1.72.43,4.2-1.15,5,1.86-7.4,3.33-13.91-3.11-21.18-2.25-.26,0-3.35-4.39-2.84-7.64.21-1.38.5-3-2-3S81,119.69,81,121c-.09,12-.13,24-.19,36-4-.84.4-6.27-3.83-7V125c.21-2.16-.76-3.17-2.93-3Z"/><path class="cls-14" d="M74,280.91c0-.64,0-1.27,0-1.9l.12,0c3.4.06,2.89-2.41,2.89-4.5q0-19.29,0-38.58l.06-2.09c1.93.22,4.13-.58,4.06,3.05-.28,14.69-.2,29.38-.25,44.06L77,281,74.09,281Z"/><path class="cls-6" d="M77,233.88,77,236l-2.79,0-.32-.09,0-2c0-1.31,0-2.62,0-3.93q0-27-.08-53.91l.25.08.22-.12h2.61Q76.94,204.94,77,233.88Z"/><path class="cls-7" d="M77,281l3.87,0c.05,9.62.57,19.26-.06,28.83-.27,4-1.45,8.89-6.77,10.28l-.09-7.17L74,313c3.19.24,3.07-1.9,2.93-4.06L77,294Z"/><path class="cls-6" d="M109,130.84c-.75-3-3.23-1.43-5-1.86-.32-4.36,1.63-8.71,0-13.07,3.19.35,6.27.22,8.91-2l.06,2.15c-.06,2-.13,4-.19,5.92-3.82,2.28-1,5.94-1.83,8.83Z"/><path class="cls-7" d="M77,150c4.23.72-.17,6.15,3.83,7,.06,3.56.11,7.12.18,10.68,0,1.38,0,2.71-2,2.18-.76-2.26,1.76-5.47-2-6.86,0-2.64,0-5.29-.08-7.93Z"/><path class="cls-6" d="M77,163c3.75,1.39,1.23,4.6,2,6.86A1.88,1.88,0,0,0,76.84,172l-2.68,0-.27-2.09v-3l.24.12C77.17,167.19,77,165,77,163Z"/><path class="cls-7" d="M111,130.84c.87-2.89-2-6.55,1.83-8.83C111.88,124.88,115.54,128.71,111,130.84Z"/><path class="cls-7" d="M74.16,172l2.68,0c0,1.33,0,2.65,0,4H74.24C74.22,174.68,74.19,173.35,74.16,172Z"/><path class="cls-17" d="M39.84,80c.31,2.13,3.43,3.2,2.21,5.89,0,1.37,0,2.74,0,4.11-1.06,4.23-1.28,8.23,3,11h0c-1.62.31-3.77-.88-4.72,1.3-.63,1.45.13,2.48,1.75,2.73l0,2c-1.49,6.85-2.53-2.22-3.88-.11-.88-2,1.5-5-2-6.09l0,.11-.22-4,0-5,0-1.95L33.9,82,34.11,69H35.8c.08.63.16,1.26.23,1.89.16,1.62-.71,3.78,2.1,4l-.07,0C38.38,76.68,36.82,79.13,39.84,80Z"/><path class="cls-12" d="M68,110a2,2,0,0,1-2,2.09v-.19c-.5-2.23,1.34-6.23-1.46-6.42-5.12-.35-10.77-2.66-15.57,1.49l-4-2v-4h0c2.66-.4,1.81-2.53,2-4.13l2,.28c.51,2.41,2.46,1.81,4,1.83,4.32.06,8.65,0,13,0l.1.06c0,1.3.68,1.87,1.9,2l.06,4Z"/><path class="cls-20" d="M66.25,58c0-2,0-4-.08-6,1.29,0,1.76-.78,1.83-1.94q.07-6.52.14-13c3.07-.83,1.44-3.3,1.77-5.09L70,30c.06-1.34.12-2.67.17-4,2.75,0,1,4.06,3.72,4.15q.15,8.48.29,17l-.4-.09C70.38,48.61,72.66,51.69,72,54l0,2-2,0a1.9,1.9,0,0,0-2,2Z"/><path class="cls-19" d="M73.89,30.09c-2.68-.09-1-4.12-3.72-4.15q0-5.49,0-11c1.43,0,1.85-.82,1.85-2.05s.12-2.65.17-4h1.7c.06,2.66.11,5.33.17,8,0,1,.09,2,.14,3l0,4Z"/><path class="cls-22" d="M66.25,58l1.69,0a1.81,1.81,0,0,0,2-2l2,0L72,60,72,67,70.06,67a1.82,1.82,0,0,0-2,2l-2,0,0-2.09Z"/><path class="cls-23" d="M66,69l2,0,2,0,3.87,2,.3,6.1-.29,2.83-1.77,0c-.18-2.68-1.78-4.17-4.21-4.94l.07.1c0-1.28-.43-2.1-1.86-2,.3-1.85-2.71-2.06-2-4.1Z"/><path class="cls-11" d="M47.05,96.87c-.24,1.6.61,3.73-2,4.13-4.27-2.79-4-6.79-3-11h2.83C46.18,92.08,47.74,94.12,47.05,96.87Z"/><path class="cls-8" d="M66,99c-4.32,0-8.65,0-13,0-1.55,0-3.5.58-4-1.83L66,96.86Z"/><path class="cls-17" d="M66,99l0-2.14c.08-2.28.15-4.55.23-6.83l1.75,0c.71,1.62,1.41,3.25,2.12,4.87l0,2,0,2-3.9.11Z"/><path class="cls-10" d="M67.93,90.08l-1.75,0c.59-2.69-2.31-6.14,1.76-8.08l.12.07A1.74,1.74,0,0,0,70,84c.74,1.89-1.91,2.21-1.77,3.82Z"/><path class="cls-23" d="M31.92,65c-3.72-2.3-1-6.22-2.28-9.12L30,56l2,0c0,1.34,0,2.69,0,4L32.18,62Z"/><path class="cls-9" d="M67.91,75c2.43.77,4,2.26,4.21,4.94l-2.22.12-1.73,0Z"/><path class="cls-7" d="M44.84,90H42c0-1.37,0-2.74,0-4.11C45.47,85.55,45.28,87.68,44.84,90Z"/><path class="cls-16" d="M69.91,31.88c-.33,1.79,1.3,4.26-1.77,5.09,0-1.67,0-3.35,0-5Z"/><path class="cls-2" d="M27,60c-.4,1.79,1.19,4.39-2,5C25.51,63.27,23.74,60.59,27,60Z"/><path class="cls-15" d="M31.92,65c.08-1,.17-2,.26-3l1.68,0L34,64.92l-.18,2.22-1.71-.2Z"/><path class="cls-8" d="M39.84,80c-3-.85-1.46-3.3-1.78-5.1C41.81,75.48,39.4,78.23,39.84,80Z"/><path class="cls-6" d="M73.85,9h-1.7l0-4h1.64Z"/><path class="cls-6" d="M38.13,74.92c-2.81-.24-1.94-2.4-2.1-4C39.31,70.89,37.46,73.56,38.13,74.92Z"/><path class="cls-6" d="M33.83,67.14,34,64.92c3.37.14,1.62,2.54,1.79,4.09H34.11C34,68.39,33.92,67.77,33.83,67.14Z"/><path class="cls-6" d="M32,56l-2,0c.07-.88-.25-2.13,1.24-1.89C31.56,54.19,31.72,55.35,32,56Z"/><path class="cls-9" d="M68,50c-.07,1.16-.54,1.94-1.83,1.94C65.77,50.35,66.64,50,68,50Z"/><path class="cls-15" d="M69.91,31.88l-1.75.06c-.47-1.66.5-2,1.84-2Z"/><path class="cls-18" d="M72,12.92c0,1.23-.42,2.1-1.85,2.05C69.65,13.3,70.6,12.92,72,12.92Z"/><path class="cls-18" d="M33.86,62l-1.68,0L32,60C33.55,59.8,34.35,60.28,33.86,62Z"/><path class="cls-18" d="M68.17,80.07l1.73,0,.15,2h-2L67.94,82C68,81.32,68.09,80.7,68.17,80.07Z"/><path class="cls-16" d="M66.12,73.06c1.43-.07,1.89.75,1.86,2C66.63,75.08,65.73,74.66,66.12,73.06Z"/><path class="cls-2" d="M23,66.94c0,1.24-.58,2-1.89,2C21,67.55,21.74,67,23,66.94Z"/><path class="cls-16" d="M66,69,64.08,69c-.34-1.58.52-2,1.9-2Z"/><path class="cls-18" d="M73.89,30.09,74.13,24l2.69,0L77,34.9c.55,2-1.48,4.84,1.79,6.08-1,7.17,3.46,13.8,2,21A17.9,17.9,0,0,1,77,51.07c0-2,.34-4.24-2.82-4Z"/><path class="cls-19" d="M87,99l.2-2c3.48-1.65,1.2-4.72,1.75-7.09l-.08.06L91,90c2.3,4.08,6.11,1,9.09,1.92l2,.08,0,0c0,1.69,0,3.39,0,5.08H93c-3.92.07-3,4.93-5.91,6L86.8,101Z"/><path class="cls-15" d="M74.18,77.06l-.3-6.1,0-3.94V60l.29-2c3.37-.11,2.91,2.35,2.82,4.39-.14,3.21.6,5.75,4.17,6.55l-.09,0,0,2.22c-.07.64-.13,1.27-.19,1.91-1.42,0-1.85.86-1.79,2.13l.1-.1Z"/><path class="cls-19" d="M113,94.87c0,.69,0,1.38.07,2.08l-1.91,0a2.28,2.28,0,0,0-2.22-2.1c.14-4.07-3-2.55-5-2.87l-2,0,0,0c-.56-2,1.65-5.06-2.08-6l0-1.88c2.56,1,3.83-2,6.09-2-.25,3.88,2.88,5.54,5.14,7.77l-.1,0c-.08,1.27.43,2,1.79,2.1Z"/><path class="cls-5" d="M81.14,68.92c-3.57-.8-4.31-3.34-4.17-6.55.09-2,.55-4.5-2.83-4.39-.09-1.31-.19-2.62-.28-3.93L73.78,47l.4.09c3.16-.21,2.84,2,2.82,4A17.9,17.9,0,0,0,80.85,62Z"/><path class="cls-15" d="M100.08,92c-3-.9-6.79,2.16-9.09-1.92,0-1.28,0-2.57,0-3.85L97.9,86l.25-.17.27.13C99,87.94,99.53,89.94,100.08,92Z"/><path class="cls-6" d="M74.18,77.06l5-2q0,4.45-.05,8.91l-2,.14L77,84c0-2.07-1.41-2.07-2.87-2L74,82l-.06-2.12Z"/><path class="cls-8" d="M87,99c-.07.67-.13,1.34-.19,2C83,105.07,83,105.07,81,103c0-1.37,0-2.74,0-4.11Z"/><path class="cls-15" d="M111.16,89.92c-2.26-2.23-5.39-3.89-5.14-7.77C112.18,81.8,110.67,86.52,111.16,89.92Z"/><path class="cls-10" d="M88.94,89.87c-.55,2.37,1.73,5.44-1.75,7.09C87.68,94.57,85.11,91.43,88.94,89.87Z"/><path class="cls-6" d="M76.82,24l-2.69,0,0-4,2.66,0Z"/><path class="cls-6" d="M78.82,41c-3.27-1.24-1.24-4-1.79-6.08C81,35.93,78.19,39,78.82,41Z"/><path class="cls-7" d="M76.82,20l-2.66,0c0-1-.09-2-.14-3C76.28,16.74,77.64,17.36,76.82,20Z"/><path class="cls-5" d="M91,86.18c0,1.28,0,2.57,0,3.85l-2.13-.1C89.8,88.82,87.36,85.78,91,86.18Z"/><path class="cls-10" d="M112.85,92c-1.36,0-1.87-.83-1.79-2.1C112.37,90,113.35,90.33,112.85,92Z"/><path class="cls-6" d="M79.05,75.15C79,73.88,79.42,73,80.84,73,81.42,74.72,80.4,75.07,79.05,75.15Z"/><path class="cls-7" d="M99.93,84.13c0,.63,0,1.25,0,1.88l-1.53-.07-.27-.13L97.9,86C97.9,84.62,98.19,83.58,99.93,84.13Z"/><path class="cls-18" d="M81,71.11l0-2.22c.63.29,1.73.5,1.82.91C83.15,71.22,81.85,70.93,81,71.11Z"/><path class="cls-22" d="M13,111.93c-.72-1.66,4.73-3.2.1-4.94.48-2,2.8-3.39,2-5.84,2.58-1.48,3.37-4.25,3.76-6.72.42-2.7.51-4.9,4-4.52.05.7.1,1.41.14,2.12l-.17,4.84c-3.24,1.2-1.37,4-1.88,6A1.84,1.84,0,0,0,19,105c-.06,2.29-.13,4.57-.19,6.86l-5.67.4Z"/><path class="cls-2" d="M22.88,89.91c-3.51-.38-3.6,1.82-4,4.52-.39,2.47-1.18,5.24-3.76,6.72,1.46-5.66-1.91-13.79,7.8-15.25L23,86c0,1.29-.07,2.58-.11,3.87Z"/><path class="cls-2" d="M25,82c-2.41-4.58,1.41-10.65,6.89-11,1.09,2.54-1.28,4-1.87,6-4-.15-2.7,2.88-3,5l-1.82.2Z"/><path class="cls-20" d="M30,77c.59-2,3-3.47,1.87-6,.1-1.34.19-2.69.28-4l1.71.2c.09.63.19,1.25.28,1.88L33.9,82,30.07,82l-.21-.16Z"/><path class="cls-2" d="M22.9,85.9c.27-1.53-.43-3.56,2.05-4l.18.18c-.29,1.52.46,3.61-2.11,3.89Z"/><path class="cls-23" d="M10,157c-2.68,4.62-5.35,1.87-8,0,11.76-13,3.56-28.73,6-43a1.81,1.81,0,0,1,2.11-1.9v13Z"/><path class="cls-20" d="M10.09,125v-13l2.86-.15.23.29q0,3.92-.08,7.83L13,125Z"/><path class="cls-16" d="M10.09,125,13,125q.06,16,.13,31.92l-.27.25L10,157Q10.07,141,10.09,125Z"/><path class="cls-22" d="M19,189l-4-2c1.14-4.72-2.76-8.62-2.2-13.28.06-.47-1-1.53-1.52-1.54-3.48,0-3.42-2.34-3.24-4.76.27-3.49,3.05-2.07,4.9-2.45.47,1.77-1.08,4.36,2.05,5.05,0,1.3.07,2.6.1,3.9A1.76,1.76,0,0,0,17,176h0c.16,3.95-1,8.18,3,11.2C21.27,188.12,20.06,188.78,19,189Z"/><path class="cls-16" d="M15,170c-3.13-.69-1.58-3.28-2.05-5.05,1.05-2.62-4.09-5.15-.12-7.81l.27-.25,1.81.17.24,9.81Z"/><path class="cls-7" d="M104.06,115.91c1.6,4.36-.35,8.71,0,13.07-4.57-1.91-10.9-.51-13-7,3.11.28,3.09-1.83,3-4,3.86.73.52,4.88,3.31,6.57l1.42-5.9c5.9,1.65,2.2-3.15,3.21-4.78l.16-1.79L104,112,104,112C104,113.29,104.05,114.6,104.06,115.91Z"/><path class="cls-9" d="M111.22,99.2a35.47,35.47,0,0,0-.12,5.91c.83,5.71-1.46,7.93-7.06,6.86L104,112c0-1.66,0-3.32,0-5l.06-6,0-.07a1.75,1.75,0,0,0,2-1.88l5-.11Z"/><path class="cls-20" d="M72,312.81c0-1.28,0-2.57,0-3.86l1.77.07.41-.06c-.07,1.35-.14,2.7-.22,4.05l-.09-.08Z"/><path class="cls-22" d="M111,99l-5,.11L106,99l3-3.9-.06-.17a2.28,2.28,0,0,1,2.22,2.1Z"/><path class="cls-13" d="M36,161c-1.46,8.83,2.74,17.21,2,26l0,0c-2.81.28-4.13-.75-4-3.82.07-1.83,1.19-4.42-2-5.2,0-.66,0-1.33,0-2l1.51-.78L32,174c0-.66,0-1.33,0-2,1-.24,1.77-.32,1.23-1.87-1.29-3.74-2.27-7.57-3.37-11.37.74-3,.2-6,1.19-9.19,2.28-7.33,3.38-15,5-22.59,1.17-2.19,2.63-4.3,1.92-7l.3-1.92,1.89-.07c1.77.34,4.26-1.08,4.93,2-5.69,5.81-7.41,12.94-7,20.83.24,5-3.73,8.72-4.3,13.48C33.37,156.85,30.12,160.56,36,161Z"/><path class="cls-7" d="M45,120c-.67-3.08-3.16-1.66-4.94-2,0-.63,0-1.27-.07-1.91,1.41.1,2.17-.47,2.08-2l8.76-.23c1.66,0,3.7.92,4.19-1.79l8.89-.19,2.08,0v.19c-1.08,7.89-7.15,7.54-12.58,7-3-.33-3.64,1-4.44,3Z"/><path class="cls-21" d="M70,262c-3-7.47,1.35-15.38-1.32-22.92-.27-.76.81-2,1.26-3l.15-.14h3.79l.32.09L74,238c-2.63.19-1.94,2.2-2,3.71-.06,6.75,0,13.51,0,20.26Z"/><path class="cls-24" d="M71.83,275c0-3,0-6,0-9l2.08.07c0,3,0,6,0,8.95Z"/><path class="cls-25" d="M73.92,266.06,71.84,266c-2.57-.43-1.67-2.46-1.85-4h2l1.93-.06C73.91,263.31,73.92,264.68,73.92,266.06Z"/><path class="cls-26" d="M71.83,275l2.1,0,.18,4L74,279c-1.35-.13-3.09.62-3.77-1.2C69.7,276.43,70.12,275.26,71.83,275Z"/><path class="cls-19" d="M71.77,285.15c-2.37-.58-1.6-2.43-1.6-4l3.84-.27.08,0c-.06.71-.11,1.41-.16,2.12-1.53-.31-2.09.35-1.8,1.83Z"/><path class="cls-16" d="M19,189c1-.22,2.26-.88,1-1.8-4-3-2.88-7.25-3-11.2h1.89c.07.65.13,1.3.2,1.94,0,1.62-.69,3.6,1.88,4,.13,1.35,0,2.85,1.82,3.23l.36,5.64-.24.23L19,191Z"/><path class="cls-16" d="M27,206c-3.15-2.19-2.29-6.18-4-9l-.06-5.93.24-.23c3.54,2.86,3.87,6.9,4,11l-.05,4Z"/><path class="cls-22" d="M22.91,191.09,23,197c-1.76-1.72-5.93-1.86-4-6Z"/><path class="cls-25" d="M32,178c3.14.78,2,3.37,2,5.2-.1,3.07,1.22,4.1,4,3.82l0,6c-3.05,3-3.11,6,.06,8.95h0c-1.27,4.77,2,8.8,2.26,13.38.13,2.18,1.36,1,1.75-.38,4.75.17,2.38,3.83,3,6-2.32-1.68-4.66,3.09-7,0-.18-1.57.62-3.63-2-4l0,0A1.86,1.86,0,0,0,34,215c0-.94-.07-1.88-.1-2.82,0-1.67.75-3.73-1.93-4.17a2.08,2.08,0,0,0-1.86-2.11c0-1.29-.07-2.59-.1-3.89.75-5.34-.63-10.25-3.07-14.94,5.34-.49,2.2-4.6,3-7l0-2Zm-.29,14.77,1.11,1.69c.36-.42,1-.81,1-1.26s-.43-1-.68-1.58Z"/><path class="cls-26" d="M42,215c-.39,1.35-1.62,2.56-1.75.38C40,210.79,36.73,206.76,38,202,41.36,205.7,42.06,210.23,42,215Z"/><path class="cls-26" d="M38,202c-3.17-3-3.11-5.95-.06-8.95Z"/><path class="cls-10" d="M73.93,105q0,4.49,0,9l-3.91,2c-.91-2.47,1.49-3.9,1.86-6,0-1.68,0-3.36.07-5Z"/><path class="cls-10" d="M68,110c0-1.66,0-3.32,0-5L70,105l0,5Z"/><path class="cls-6" d="M70,110c0-1.65,0-3.3,0-5h2c0,1.68,0,3.36-.07,5Z"/><path class="cls-9" d="M71.81,286.82c0-.56,0-1.11,0-1.67l.36-.25h1.76v2.2l-1.75,0Z"/><path class="cls-19" d="M73.87,235.92H70.08l-.15-1.84q0-28.07,0-56.13a2.12,2.12,0,0,1,1.88-2.13l.36.34q0,26.9-.08,53.79c.09,1.53-1,3.59,1.76,3.93Z"/><path class="cls-27" d="M30,202c0,1.3.07,2.6.1,3.89l-3,0c0-1.34,0-2.68.05-4Z"/><path class="cls-19" d="M35.87,221c-2.5-.47-1.69-2.47-1.86-4l2,0,0,0c0,1.33.11,2.66.17,4Z"/><path class="cls-15" d="M32,208c2.68.44,1.89,2.5,1.93,4.17C31.45,211.6,32,209.65,32,208Z"/><path class="cls-15" d="M36,217l-2,0c0-.67,0-1.34,0-2A1.86,1.86,0,0,1,36,217Z"/><path class="cls-6" d="M73.88,287.1c0-.73,0-1.47,0-2.2s0-1.22,0-1.83.1-1.41.16-2.12L77,281v13l-2.84,0-.28-1.86,0-2.21C73.89,289,73.88,288,73.88,287.1Z"/><path class="cls-28" d="M73.86,292.12l.28,1.86q-.15,7.51-.31,15L72.06,309c0-4.33-.12-8.66,0-13C72.06,294.52,71.17,292.39,73.86,292.12Z"/><path class="cls-3" d="M73.88,287.1c0,.94,0,1.87,0,2.81-2.24.12-1.92-1.38-1.76-2.78Z"/><path class="cls-21" d="M69.94,140c0-1,0-1.91-.07-2.86C68.69,135,68.48,133,70,131c2.77-.15,1.14,4,3.88,3.93L74,137c-1,0-1.9.29-1.89,1.5S73,140,74,140l-.11,4.11c-3.74.36,0,5.58-3.84,5.89Z"/><path class="cls-24" d="M70,150c3.82-.31.1-5.53,3.84-5.89.06,1.3.13,2.59.19,3.89s-.09,2.66-.13,4l-3.86,0Z"/><path class="cls-19" d="M70.08,151.94l3.86.05.21,3-.42,0-3.57.13-.38-.27Z"/><path class="cls-24" d="M68,159c0-1.3.07-2.59.1-3.88l1.68-.24.38.27c0,1.3,0,2.6.08,3.9L70,159H68Z"/><path class="cls-19" d="M71.73,125.1,70,124.94c-.23-3.15,1.85-3.11,4-2.93l.08,0,.15,3.09L74,125Z"/><path class="cls-10" d="M73.94,118v2c-1.13-.26-3.16.68-3.16-1S72.81,118.25,73.94,118Z"/><path class="cls-10" d="M36.19,221c-.06-1.32-.12-2.65-.17-4,2.6.38,1.8,2.44,2,4Z"/><path class="cls-24" d="M71.73,125.1,74,125c0,3.32,0,6.63-.07,9.94-2.74.11-1.11-4.08-3.88-3.93C69.25,128.63,71.47,127.15,71.73,125.1Z"/><path class="cls-20" d="M70.07,167q-.06-3-.1-6c0-.66,0-1.32,0-2l.23.06,3.52,0,0,2.06c-2.55,1.32-3,2.6.07,3.82l.27,2.14-.24-.12Z"/><path class="cls-16" d="M70.07,167l3.81,0c0,1,0,2,0,3H70.07l0,0C70.06,168.92,70.06,167.94,70.07,167Z"/><path class="cls-15" d="M70,159c0,.65,0,1.31,0,2a1.77,1.77,0,0,1-2-2Z"/><path class="cls-19" d="M70.07,169.94h3.82l.27,2.09c0,1.32.06,2.65.08,4l-.22.12-.25-.08-1.61.12-.36-.34c0-.61.08-1.21.11-1.81C71.3,172.65,70.69,171.3,70.07,169.94Z"/><path class="cls-7" d="M73.89,134.92c0-3.31,0-6.62.07-9.94l.25.08L77,125v23l-2.92,0c-.06-1.3-.13-2.59-.19-3.89S74,141.36,74,140c0-1,0-2,0-3Z"/><path class="cls-12" d="M81,103c2,2.07,2,2.07,5.8-2l.27,2.08c.08,1.32.15,2.65.23,4a2.07,2.07,0,0,0-.5-.06,24.26,24.26,0,0,0-4.45.25c-1.72.4-2.53,4.83-4.68,1.8C76.79,107.78,78.36,104.23,81,103Z"/><path class="cls-18" d="M72,105H70l-1.94,0L68,101A1.86,1.86,0,0,0,70,99l0-2,4,0q0,4,0,8Z"/><path class="cls-6" d="M94,118c.07,2.14.09,4.25-3,4-2.8-2.69-3.24-6.34-4-9.86l0-.24,4,2.1,0,.06c0,2.07-.12,4.24,3,3.91Z"/><path class="cls-6" d="M77.11,84.1c-1.71,3.45,3.14,8.71-3,10.93,0-1-.09-2-.14-3.07V90l0-3.86L74,84l0,0,3,0Z"/><path class="cls-16" d="M87.09,109.93c-.09-1-.19-2-.29-3a2.07,2.07,0,0,1,.5.06l6.76,0c-.24,2.08,1,5.08-3,4.83-.35-2.44-2.39-1.72-3.86-2.08Z"/><path class="cls-6" d="M74.07,148,77,148c0,.66,0,1.33,0,2l-.06,5.06L74.15,155l-.21-3C74,150.65,74,149.32,74.07,148Z"/><path class="cls-25" d="M73.94,92C74,93,74,94,74.08,95L74,97l-4,0,0-2Z"/><path class="cls-6" d="M77,125l-2.78.07L74.06,122C76.23,121.82,77.2,122.83,77,125Z"/><path class="cls-18" d="M87,112.14l-1.54-.94,1.65-1.27.14-.13c-.07.7-.15,1.4-.22,2.1Z"/><path class="cls-7" d="M74.11,279.05l-.18-4c0-3,0-6,0-8.95,0-1.38,0-2.75,0-4.12q0-12,.07-23.91l.21-2L77,236q0,19.29,0,38.58C77,276.64,77.51,279.11,74.11,279.05Z"/><path class="cls-28" d="M72.16,176.16l1.61-.12q0,27,.08,53.91H72.08Q72.11,203.06,72.16,176.16Z"/><path class="cls-22" d="M72.08,230h1.77c0,1.31,0,2.62,0,3.93C71.09,233.54,72.17,231.48,72.08,230Z"/><path class="cls-18" d="M73.83,309q.17-7.53.31-15L77,294q0,7.47,0,14.93H74.24Z"/><path class="cls-6" d="M74.24,309H77c.13,2.16.25,4.3-2.94,4.06C74.1,311.66,74.17,310.31,74.24,309Z"/><path class="cls-18" d="M74.15,155l2.79.06c0,2.64,0,5.29.08,7.93,0,2,.15,4.2-2.9,4.07l-.27-2.14-.07-3.82c0-.68,0-1.37,0-2.06l0-4Z"/><path class="cls-27" d="M30.07,82,33.9,82l2,8.08-1.44,1,1.49,1,0,5c-2.79,1.48-2.75,2.8.22,4l0-.11c0,2-.09,4.06-.14,6.1l-.09,5-8.91.11c-1.19.13-2.62-.63-3.76,1.43L27,114l.1,1.84-.15.27-5.9-.16c-.31-1.44.68-3.54-1.94-3.81l-.26-.29c.06-2.29.13-4.57.19-6.86A1.81,1.81,0,0,0,21,102.91c.51-2-1.36-4.84,1.88-6,.4,1.33-.47,3.23,1.48,3.82a2.39,2.39,0,0,0,2.15-.6c.8-1.51,1-3.38-.22-4.66-1.08-1.13-1-3.39-3.24-3.41,0-.71-.09-1.42-.14-2.12l0,0,2,0c2.95.29,5.75.38,4.94-4Z"/><path class="cls-26" d="M55,112.11c-.49,2.71-2.53,1.8-4.19,1.79-2.3-3.92-6-1-8.87-1.75l-1.86-.1H38.17l-.39-5,.41-.12c1.35-2.11,2.39,7,3.88.11,3.33,2.17,6.81,3.8,11,2.83l0,.16c.07,1.26.62,2,2,1.74Z"/><path class="cls-25" d="M53,109.89c-4.14,1-7.62-.66-11-2.83,0-.68,0-1.36,0-2l3,0,4,2C51,107,53.23,106.76,53,109.89Z"/><path class="cls-11" d="M45,105l-3,0c-1.62-.25-2.38-1.28-1.75-2.73.95-2.18,3.1-1,4.72-1.3C45,102.33,45,103.66,45,105Z"/><path class="cls-9" d="M36,107c0-2,.09-4.07.14-6.1,3.55,1.07,1.17,4.12,2,6.09l-.41.12Z"/><path class="cls-16" d="M36.09,101c-3-1.15-3-2.47-.22-4C35.94,98.33,36,99.65,36.09,101Z"/><path class="cls-16" d="M35.9,92l-1.49-1,1.44-1C35.86,90.69,35.88,91.34,35.9,92Z"/><path class="cls-21" d="M53,109.89c.21-3.13-2-2.93-4.05-2.92,4.8-4.15,10.45-1.84,15.57-1.49,2.8.19,1,4.19,1.46,6.42l-2.08,0c0-.64,0-1.27,0-1.91.33-3.39-2.07-3.07-4.19-3s-4.91-.87-4.83,2.9l0,.12H53Z"/><path class="cls-10" d="M70,99A1.86,1.86,0,0,1,68,101c-1.22-.09-1.94-.66-1.9-2Z"/><path class="cls-22" d="M73.78,47c0,2.37,0,4.73.08,7.1L72,54C72.66,51.69,70.38,48.61,73.78,47Z"/><path class="cls-23" d="M72,54l1.84,0c.09,1.31.19,2.62.28,3.93-.09.68-.19,1.36-.28,2H72L72,56C72,55.34,72,54.69,72,54Z"/><path class="cls-4" d="M70,56a1.81,1.81,0,0,1-2,2A1.9,1.9,0,0,1,70,56Z"/><path class="cls-3" d="M72,60h1.82v7L72,67Z"/><path class="cls-28" d="M72,67l1.91.07c0,1.31,0,2.63,0,3.94L70,69c0-.66,0-1.32,0-2Z"/><path class="cls-20" d="M70.06,67c0,.66,0,1.32,0,2l-2,0A1.83,1.83,0,0,1,70.06,67Z"/><path class="cls-19" d="M73.89,79.89,74,82h-3.9l-.15-2,2.22-.12Z"/><path class="cls-15" d="M73.94,92l-3.89,3c-.71-1.62-1.41-3.25-2.12-4.87.09-.76.17-1.52.26-2.27,1.85.89,3.21,3.1,5.75,2.14Z"/><path class="cls-16" d="M73.94,90c-2.54,1-3.9-1.25-5.75-2.14C68.05,86.2,70.7,85.88,70,84l0-2h4l.16-.05L74,84l0,0-1.61.75,1.53,1.36Z"/><path class="cls-15" d="M69.93,82l0,2a1.74,1.74,0,0,1-1.9-2Z"/><path class="cls-4" d="M94.06,107.05l-6.76,0c-.08-1.32-.15-2.65-.23-4,2.92-1.06,2-5.92,5.91-6,.39,1.36.77,2.72,1.16,4.07L94,101c-1,.16-2.42-.56-2.49,1.16,0,.23,1.54.52,2.37.78l.27,4.16Z"/><path class="cls-22" d="M94.14,101.13c-.39-1.35-.77-2.71-1.16-4.07h9c0,1.32.61,2.07,2,1.89,0,.66,0,1.32,0,2l0,.07-1.86.2Z"/><path class="cls-6" d="M98.42,85.94,100,86c3.73,1,1.52,4,2.08,6l-2-.08C99.53,89.94,99,87.94,98.42,85.94Z"/><path class="cls-5" d="M104,99c-1.43.18-2-.57-2-1.89,0-1.69,0-3.39,0-5.08l2,0c.05,1,.1,2,.14,3.07-.06,1.3-.12,2.6-.19,3.91Z"/><path class="cls-9" d="M104.13,95.08c0-1-.09-2-.14-3.07,2,.32,5.12-1.2,5,2.87l.06.17Z"/><path class="cls-5" d="M74,84,74.11,82c1.46,0,2.9,0,2.87,2Z"/><path class="cls-27" d="M13.1,120.06q0-3.91.08-7.83l5.67-.4.26.29C19.13,116.3,14.63,117.06,13.1,120.06Z"/><path class="cls-9" d="M23,92c2.21,0,2.16,2.28,3.24,3.41,1.23,1.28,1,3.15.22,4.66a2.39,2.39,0,0,1-2.15.6c-1.95-.59-1.08-2.49-1.48-3.82C22.91,95.26,23,93.64,23,92Z"/><path class="cls-9" d="M21,102.91A1.81,1.81,0,0,1,19,105,1.84,1.84,0,0,1,21,102.91Z"/><path class="cls-22" d="M25,89.91l-2,0C23,88.6,23,87.31,23,86c2.57-.28,1.82-2.37,2.11-3.89l1.82-.2,2.91-.05.21.16-.18,3.88C27.23,86,25.81,87.61,25,89.91Z"/><path class="cls-23" d="M29.86,81.88,27,81.93c.32-2.07-.94-5.1,3-5C29.93,78.61,29.89,80.25,29.86,81.88Z"/><path class="cls-15" d="M13.1,120.06c1.53-3,6-3.76,6-7.94,2.62.27,1.63,2.37,1.94,3.81-.71,5.34,3.21,3.84,6,4h0c-3,2.3-4.88,5.08-4.12,9.15.21,1.12-.79,1.68-1.86,1.88-.38-2.81.73-5.82-1.09-9.14C17,127,15.14,131.65,15,137A64,64,0,0,0,17,157l-2.11.08-1.81-.17Q13,141,13,125C13,123.35,13.05,121.7,13.1,120.06Z"/><path class="cls-27" d="M18.89,176H17a1.93,1.93,0,0,0-1.91-2.08c0-1.3-.06-2.6-.1-3.9l.15-3.13,1.79.17C15.89,170.41,19.58,172.73,18.89,176Z"/><path class="cls-16" d="M15.09,173.92A1.93,1.93,0,0,1,17,176,1.76,1.76,0,0,1,15.09,173.92Z"/><path class="cls-26" d="M16.93,167.06l-1.79-.17-.24-9.81L17,157h0c.28,1.14-.68,3.19,1,3.21s.71-2,1-3.17c3.79-6.18,5.63-12.75,4-20,1.12-.41,3,.84,3.43-2H21l0-4c1.06-.2,2.06-.76,1.85-1.88C22.14,125.05,24,122.27,27,120c.79.2,1.9.12,2.33.63,1.4,1.67.25,19.44-.57,21.31C26.63,146.84,24.93,152,23.05,157c.49,2.15-2.15,7.39,3.95,4q2.49,5.49,5,11c0,.66,0,1.33,0,2v2c0,.66,0,1.33,0,2H30c-.4-2.3-4.3-2.82-3-6,.28-2.92.27-5.61-3.92-5.08A1.9,1.9,0,0,0,21,165C17.85,162.15,17.88,165.58,16.93,167.06Z"/><path class="cls-15" d="M91.09,111.88c4,.25,2.73-2.75,3-4.83l.12.06L102,107l.14.15v5c-.05.59-.11,1.19-.16,1.79l-7.91.14H91l0-.06Z"/><path class="cls-6" d="M94.05,114.06l7.91-.14c-1,1.63,2.69,6.43-3.21,4.78l-1.42,5.9c-2.79-1.69.55-5.84-3.31-6.57l0-.06C94,116.67,94,115.36,94.05,114.06Z"/><path class="cls-18" d="M102.12,112.13v-5l1.79-.08c0,1.66,0,3.32,0,5Z"/><path class="cls-15" d="M103.91,107.05l-1.79.08L102,107c0-1.92.09-3.85.13-5.77L104,101Z"/><path class="cls-19" d="M104,100.94c0-.66,0-1.32,0-2l0,0L106,99l-.06.11A1.75,1.75,0,0,1,104,100.94Z"/><path class="cls-16" d="M106,99l-2.09,0c.07-1.31.13-2.61.19-3.91l4.9,0Z"/><path class="cls-29" d="M23.05,157c1.88-5.05,3.58-10.18,5.73-15.11.82-1.87,2-19.64.57-21.31-.43-.51-1.54-.43-2.33-.63h0c0-1.29-.05-2.59-.08-3.89l.15-.27L32,116c0,1.77,0,3.54,0,5.31.07,2.74-1,6.29,4,5.66-1.58,7.55-2.68,15.26-5,22.59-1,3.17-.45,6.19-1.19,9.19l-2.78.31C27.54,154.83,25.48,155.57,23.05,157Z"/><path class="cls-16" d="M36,127c-4.93.63-3.89-2.92-4-5.66,0-1.77,0-3.54,0-5.31l3.87.06c.3,1.49-.52,3.56,2,3.91C38.6,122.68,37.14,124.79,36,127Z"/><path class="cls-25" d="M27,159.07l2.78-.31c1.1,3.8,2.08,7.63,3.37,11.37.54,1.55-.24,1.63-1.23,1.87q-2.48-5.49-5-11C27,160.37,27,159.72,27,159.07Z"/><path class="cls-15" d="M38.17,112h1.94c0,1.35-.07,2.69-.11,4,0,.64,0,1.28.07,1.91l-1.88.07c-.08-.7-.17-1.39-.26-2.08,0-1.33-.07-2.66-.1-4Z"/><path class="cls-22" d="M37.93,116c.09.69.18,1.38.26,2.08l-.3,1.92c-2.53-.35-1.71-2.42-2-3.91L36,116Z"/><path class="cls-25" d="M32,176v-2l1.51,1.24Z"/><path class="cls-29" d="M64,110c0,.64,0,1.27,0,1.91l-8.89.18,0-.32c0-.58,0-1.17,0-1.75l0-.12Z"/><path class="cls-16" d="M42,112.15c2.92.74,6.57-2.17,8.87,1.75l-8.76.23C42,113.47,42,112.81,42,112.15Z"/><path class="cls-22" d="M42,112.15c0,.66.07,1.32.11,2,.09,1.48-.67,2.05-2.08,2,0-1.34.08-2.68.11-4Z"/><path class="cls-24" d="M74,238q0,12-.07,23.91L72,262c0-6.75,0-13.51,0-20.26C72,240.23,71.35,238.22,74,238Z"/><path class="cls-28" d="M73.93,283.07c0,.61,0,1.22,0,1.83H72.13C71.84,283.42,72.4,282.76,73.93,283.07Z"/><path class="cls-15" d="M30,202l-2.87-.12c-.14-4.1-.47-8.14-4-11l-.36-5.64.32-.32L25,185a1.93,1.93,0,0,1,2,2C29.4,191.73,30.78,196.64,30,202Z"/><path class="cls-15" d="M16.93,167.06c.95-1.48.92-4.91,4.06-2-1,2-1.69,3.58-.51,6.38,1.73,4.11,3.52,8.67,2.63,13.5l-.32.32C21,184.84,21.1,183.34,21,182c-.12-1.59.56-3.54-1.88-4.05-.07-.64-.13-1.29-.2-1.94C19.58,172.73,15.89,170.41,16.93,167.06Z"/><path class="cls-27" d="M19.09,178c2.44.51,1.76,2.46,1.88,4.05C18.4,181.55,19.13,179.57,19.09,178Z"/><path class="cls-13" d="M23.11,184.9c.89-4.83-.9-9.39-2.63-13.5-1.18-2.8-.54-4.33.51-6.38A1.9,1.9,0,0,1,23,167c-.26,2.9-.25,5.59,3.92,5.08-1.26,3.14,2.64,3.66,3,6,0,.67,0,1.34,0,2-6.44-3.08-4.8,1.86-5,5Z"/><path class="cls-17" d="M25,185c.16-3.14-1.48-8.08,5-5-.8,2.43,2.34,6.54-3,7A1.93,1.93,0,0,0,25,185Z"/><path class="cls-21" d="M31.71,192.77l1.45-1.15c.25.53.72,1.08.68,1.58s-.66.84-1,1.26Z"/><path class="cls-24" d="M74,137c0,1,0,2,0,3-1,0-1.89-.27-1.9-1.48S73,137,74,137Z"/><path class="cls-16" d="M73.73,155l0,4-3.52,0c0-1.3-.06-2.6-.08-3.9Z"/><path class="cls-28" d="M73.78,161.1l.07,3.82C70.76,163.7,71.23,162.42,73.78,161.1Z"/><path class="cls-10" d="M91.09,111.88,91,114l-4-2.1c.07-.7.15-1.4.22-2.1C88.7,110.16,90.74,109.44,91.09,111.88Z"/><path class="cls-18" d="M94.05,114.06c0,1.3,0,2.61-.08,3.91-3.13.33-3-1.84-3-3.91Z"/><path class="cls-15" d="M73.89,86.09l-1.53-1.36L74,84C73.94,84.69,73.92,85.39,73.89,86.09Z"/><path class="cls-20" d="M35.88,116.07,32,116l-4.91-.19c0-.61-.06-1.23-.1-1.84v-1.92l8.91-.11.15.11L36,116Z"/><path class="cls-26" d="M27,116.09c0,1.3.05,2.6.08,3.89-2.77-.21-6.69,1.29-6-4Z"/><path class="cls-16" d="M25,89.91c.86-2.3,2.28-3.91,4.94-4C30.7,90.29,27.9,90.2,25,89.91Z"/><path class="cls-22" d="M36,107l1.78.11.39,5-.34-.05-1.77.07-.15-.11Z"/><path class="cls-22" d="M27,112.06V114l-3.76-.49C24.38,111.43,25.81,112.19,27,112.06Z"/><path class="cls-9" d="M55,110c0,.58,0,1.17,0,1.75-1.38.24-1.93-.48-2-1.74Z"/><path class="cls-26" d="M64,110l-9-.1c-.08-3.77,2.73-2.83,4.83-2.9S64.3,106.63,64,110Z"/><path class="cls-9" d="M102.11,101.21c0,1.92-.08,3.85-.13,5.77l-7.8.13L93.91,103,94,101l.11.12Z"/><path class="cls-28" d="M94,101,93.91,103c-.83-.26-2.38-.55-2.37-.78C91.61,100.45,93.06,101.17,94,101Z"/><path class="cls-25" d="M23,137c1.64,7.26-.2,13.83-4,20l-2,0h0A64,64,0,0,1,15,137c.18-5.38,2-10.06,5-15.17,1.82,3.32.71,6.33,1.09,9.14l0,4A1.88,1.88,0,0,0,23,137Z"/><path class="cls-27" d="M27,159.07c0,.65,0,1.3,0,2-6.1,3.39-3.46-1.85-3.95-4C25.48,155.57,27.54,154.83,27,159.07Z"/><path class="cls-25" d="M27,172c-4.17.51-4.18-2.18-3.92-5.08C27.23,166.43,27.24,169.12,27,172Z"/><path class="cls-10" d="M23,137a1.88,1.88,0,0,1-2-2h5.41C26,137.86,24.11,136.61,23,137Z"/><path class="cls-15" d="M17,157l2,0c-.31,1.12.68,3.18-1,3.17S17.28,158.13,17,157Z"/><path class="cls-23" d="M36.06,112.06l1.77-.07c0,1.33.07,2.66.1,4H36C36,114.67,36.05,113.36,36.06,112.06Z"/></g></g></svg>