<svg xmlns="http://www.w3.org/2000/svg" viewBox="0 0 119 148"><defs><style>.cls-1{fill:#b36006;}.cls-2{fill:#f7e9a4;}.cls-3{fill:#ce8f2e;}.cls-4{fill:#ba6c0e;}.cls-5{fill:#f5d881;}.cls-6{fill:#e2ac43;}.cls-7{fill:#f5e5b5;}.cls-8{fill:#ca790f;}.cls-9{fill:#eccd94;}.cls-10{fill:#d08215;}.cls-11{fill:#f7fbf3;}.cls-12{fill:#f65139;}.cls-13{fill:#f7f9d6;}.cls-14{fill:#e7bd77;}.cls-15{fill:#f5ecdc;}.cls-16{fill:#f7f7cd;}.cls-17{fill:#db2b17;}.cls-18{fill:#be1b08;}.cls-19{fill:#f3c05c;}.cls-20{fill:#f24c33;}.cls-21{fill:#eb411f;}.cls-22{fill:#f7f8e1;}.cls-23{fill:#f7fbe5;}.cls-24{fill:#ed9b1d;}.cls-25{fill:#f0b766;}.cls-26{fill:#f4c46c;}.cls-27{fill:#ebd55c;}</style></defs><title>Asset 65</title><g id="Layer_2" data-name="Layer 2"><g id="Layer_1-2" data-name="Layer 1"><path class="cls-1" d="M62,131.05c-5.9-1.71-9-7.23-13.54-10.26-10.94-7.3-18.86-18.32-30.87-24.16-1.7-.83-2.9-3-3.94-4.8C10.52,86.49,4.23,85.7,0,82V80H2l4,0c4.72,3.7,8.82,8.31,14.88,10,1.64,1.7,1.62,5.13,5.12,4.88-.81,5.06,4,5.34,6.44,7.64,5.74,5.36,11,11.12,17.53,15.75,4.28,3,10.17,4.79,12,10.71Z"/><path class="cls-2" d="M109,5c5.42,1.27,5.06,8.31,10,10v2c-3.21.85-1.61,3.45-1.94,5.35l-.12,1.73h-1.88c-.11-4.76.61-9.76-4-13.13C110.51,8.9,108.29,7.44,109,5Z"/><path class="cls-3" d="M0,71l2,0,2,3.92a2.14,2.14,0,0,0-2,2.1L0,77Z"/><path class="cls-4" d="M82.78,146l.22,2H79l0-1.89c0-.71.05-1.43.07-2.14l1.84,0C81,145.13,81.49,146,82.78,146Z"/><path class="cls-5" d="M117.06,22.35c.33-1.9-1.27-4.5,1.94-5.35v5Z"/><path class="cls-6" d="M0,77l1.94,0C2,78,2,79,2,80H0Z"/><path class="cls-1" d="M79,144c0,.71,0,1.43-.07,2.14-4.53-4.87-11.95-6.42-15-13,0-.7.06-1.4.08-2.09,2,.51,3.49,2.67,5.91,2,.2,1.89,1.62,2,3,2A1.87,1.87,0,0,0,75,137C74.54,140.37,78.64,141.08,79,144Z"/><path class="cls-4" d="M64,131c0,.69-.05,1.39-.08,2.09-1.37,0-2.15-.57-2-2.06,0-.68,0-1.37,0-2.05A1.92,1.92,0,0,1,64,131Z"/><path class="cls-6" d="M111.06,51.93c3.82,1.78,1.81,5.16,1.8,7.73,0,2.4-1.26,4.81-2,7.21l-1.84.21c-.1-1.22-.58-2.09-2-2.06L107,62c1.24-.12,1.9-.73,1.73-2-.18-2.05,2.1-4.8-1.66-5.83-.11-1.34.45-2.09,1.84-2.14Z"/><path class="cls-7" d="M109.06,67.08l1.84-.21q-.09,3.19-.17,6.39c-2.2.45-1.56,2.21-1.67,3.62L108.88,80c-2.63.33-1.34,2.67-2,4l-4.59-.12-.1-1.59c1.37-.21,2.93-.19,2.61-2.3C104.57,75.1,109,71.83,109.06,67.08Z"/><path class="cls-3" d="M116.84,30c.38,3.2.23,6.28-1.93,8.94-3-.2-.74,4.2-3.59,4.14l-4.15,0,0-2A1.8,1.8,0,0,0,109,39h0c1.48-.06,2-.92,1.87-2.28s.73-1.85,2-1.81c3.49-.46,1.59-3.16,2-4.89Z"/><path class="cls-8" d="M98,107.1c1,5.08-2,8.87-4.19,12.92H92.06c0-1.32,0-2.63.08-4,1.38-.1,1.92-.85,1.67-2.19l.49-3.8c2.58,0,1.39-1.9,1.53-3.11l.29-1.87,1.73-.22.24.16Z"/><path class="cls-9" d="M111.32,43.06c2.85.06.57-4.34,3.59-4.14q0,4.08,0,8.18c-2.4-.23-1.81,1.47-1.79,2.79-1.27.09-2.16.56-2,2l-2.14.06c.08-1.61.17-3.21.25-4.81C112,46.88,110.69,44.48,111.32,43.06Z"/><path class="cls-3" d="M89.87,131c-3.44,2.05-1.31,7-4.69,9.06l-2,.12L83,140c0-1,0-2,0-3,2.2-1.43,1.13-5,3.93-6Z"/><path class="cls-4" d="M107,86c0,4.41.22,9-5,11.06h0c-.08-.71-.17-1.42-.26-2.12,0-1,.06-1.92.1-2.88l.36-1.9c3.69,1.08,1.71-4.49,4.8-4.1Z"/><path class="cls-4" d="M89.87,131l-3,0c.08-1.29.16-2.57.25-3.86,4.46,1,1.25-5.31,4.87-5.09h0C91.94,125.15,92.58,128.47,89.87,131Z"/><path class="cls-4" d="M102,97c.27,2.93,0,5.72-2.19,8l-1.75,0-.24-.16c.11-1.25.21-2.49.31-3.74,1.23-.24,1.91-.89,1.61-2.23L99.9,97H102Z"/><path class="cls-4" d="M106.83,83.94c.71-1.31-.58-3.65,2-4l1.93,0c-1.69,1.74-.52,5.3-3.83,6l0,0C107,85.32,106.9,84.63,106.83,83.94Z"/><path class="cls-10" d="M116.84,30l-2,.05-1.69,0L113,28c2-.7,2-2.31,1.9-4l.12.09h1.88C116.91,26.05,116.87,28,116.84,30Z"/><path class="cls-3" d="M82.78,146c-1.29,0-1.76-.88-1.91-2,0-1.31.07-2.62.11-3.93l2-.11.2.2c0,1.3-.09,2.6-.14,3.9Z"/><path class="cls-4" d="M83,144.06c0-1.3.09-2.6.14-3.9l2-.12C84.42,141.36,86.32,144.11,83,144.06Z"/><path class="cls-6" d="M109.06,76.88c.11-1.41-.53-3.17,1.67-3.62l.15,3.66Z"/><path class="cls-8" d="M113.1,49.89c0-1.32-.61-3,1.79-2.79C114.86,48.39,115.79,50.3,113.1,49.89Z"/><path class="cls-1" d="M109.06,76.88l1.82,0c0,1,0,2-.07,3.06l-1.93,0Z"/><path class="cls-1" d="M98.09,105.05l1.75,0c.54,1.68-.4,2.09-1.81,2.09Z"/><path class="cls-1" d="M92.06,120h1.78c.48,1.66-.38,2.09-1.82,2h0c-.08-.7-.15-1.39-.23-2.08Z"/><path class="cls-11" d="M28,2c.56.28,1.48.43,1.63.85,2,5.56,5.26,8.5,11.44,6.19l-3.17,6L38,17c-1,5.57,1,7.92,6.87,7.09,3.25-.45,6.61-.07,9.93-.06C56,26.1,51.91,25.88,53.09,28c-2.27,1.88-.66,4.91-2.09,7-2.81-.65-4,1.08-4.67,3.74-2.23-3.52-2.23-3.52-8.18-1.84-1.64-5.11-5.78-5.23-10.06-5,2.75-1.86,2.87-5.07,4-7.78,3.5-.09,5.33-.84,2.52-4.64C32.7,16.89,31,14.31,28,13Z"/><path class="cls-12" d="M75,4.82l2,.34c.54,2.56,2.57,1.64,4.14,1.78l1.89.2L83,9c0,.69,0,1.38,0,2.07A1.75,1.75,0,0,0,85,13c-.07,1.35.43,2.15,1.93,1.93-.41,2.14,1.34,5.63-1,6.15S83.13,18.18,82.62,16c-.09-.42-1-.65-1.57-1L77.41,8.57c-.2,3-.32,4.68-.44,6.4-4,3.14-1.2,7.4-1.85,11.09v2L75,28a1.94,1.94,0,0,0-2,2.08c-1.68,1.76-3.28-4-5,0-2.45,1.38-4.53,2.13-4.1-2.13.12-1.18-.79-1.72-1.87-1.93A20.8,20.8,0,0,1,68,11c0,.65.07,1.31.1,2l.12,1.95c0,2.17-1,4.46.56,6.57,2.12-.94.63-3.24,2.35-4.59,2.67-2.11-.3-1.59-1.32-1.88,0-.68.07-1.36.1-2,.89-.19,2.69.07,2.36-.94-.66-2.1-2.83-.62-4.29-1l-.08-2.16,0,.1H70c1.5.06,3,0,3-2.06l-.08,0a1.83,1.83,0,0,0,2.18-1.71Z"/><path class="cls-13" d="M54.82,24c-3.32,0-6.68-.39-9.93.06C39,24.9,37,22.55,38,17l3,.08c.08,1.28,0,2.71,1.8,2.83C44.88,20,45,18.54,45,17l3.75-.8C55.18,14.89,51.56,8,55,5h3c.69,2.69,1.39,5.37,2.09,8.06-.07,1.3-.13,2.6-.2,3.9l0-.06c-3.66.47-1.15,3.46-2.07,5.05l.06-.07C56.49,22,54.74,21.68,54.82,24Z"/><path class="cls-14" d="M4,74.94,2,71c-.11-1.4.62-2,1.93-2.15,2.76.27,1.44,5.09,5,4.47a5.42,5.42,0,0,0,4.12,3.6c-.06,1.48-.05,2.9,2,3,3.65,2.63,7.31,7,11,0l2.08,0,0,0,1.06,1.66.84-1.42A5.33,5.33,0,0,1,34,84l-2,0c-7.09,3.68-.62,7.32,0,11l-2,0c-2.37.22-1.52-3.51-3.95-3.22-1-2.13-3.07-2.87-5.11-3.59-4-2.68-7.1-6.63-11.72-8.45q.15-3.22-3.06-2.85l-.07-.06a1.67,1.67,0,0,0-2-1.84Z"/><path class="cls-11" d="M109,5c-.69,2.47,1.53,3.93,2,6-1.16,6.6-6.32,5.92-11,6.05-.7-2.05-1.39-4.1-2.09-6.14,0-.62.11-1.23.16-1.85A1.85,1.85,0,0,0,100,7l0-2,0,0c2.06-.09,2-1.59,2-3l0,0c1.41-.06,3,.13,3-2a1.85,1.85,0,0,1,2,2c0,1.46,0,2.94,2,3Z"/><path class="cls-15" d="M26,80c-3.67,6.93-7.33,2.61-11,0,0-1,0-2-.07-3-1.73-1.66-1.57-6.45-6-3.66-3.56.62-2.24-4.2-5-4.47-1.09-2.21-2.65-4.31-1.81-7C7.4,64.39,10.9,69.85,17,71h0C19.47,74.52,21.78,78.21,26,80Z"/><path class="cls-16" d="M28,2,28,13,28,13c-2.09-.32-2-1.93-2-3.44,0-2.77-2.16-3.29-3.74-2.27C17.67,10.27,13.4,13.7,9,17c-1.39,0-2.88.16-3-1.86,1.36-3.95,5.6-4.18,8.43-6.1C18.33,6.34,21.28,2.31,26.08.85,27.63.38,27.74,1,28,2Z"/><path class="cls-7" d="M55,5c-3.44,3,.18,9.9-6.24,11.23L45,17l-4,0L38,17c-.05-.66-.09-1.31-.13-2,3.68-1.93,8.34-2.74,9.15-8l0,0,2,0C52.3,6.88,52.07,2.53,55,2Z"/><path class="cls-17" d="M67.93,8.86,68,11h0a20.8,20.8,0,0,0-6,14.94C61.45,28,59.31,29.59,60,32.1c-2-1-4.1-1.77-5.07-4,4.81-.21,2.68-3.83,3-6.22l-.06.07c3.42-.56,1.75-3.21,2.07-5.05l0,.06c2.92-.27,1.92-2.49,2.07-4.14C62.72,9.63,65,8.79,67.93,8.86Z"/><path class="cls-5" d="M6,15.09c.14,2,1.63,1.86,3,1.86,0,1.37-.08,2.83,1.87,3h2c0,.7,0,1.39,0,2.09-2.31.65-5.55-1.84-6.89,2.05L5.84,30,2.17,28.06C2.11,25,2.17,21.87,2,18.8S3.1,14.65,6,15.09Z"/><path class="cls-9" d="M17,71c-6.14-1.1-9.64-6.56-14.91-9.1Q2.07,56.92,2,52c4,1.39-.6,7,3.92,8.08C10.06,63.28,14.34,66.31,17,71Z"/><path class="cls-10" d="M6,60.06C1.43,58.93,6,53.37,2,52c.59-1.71-1.71-4.48,1.88-5.09l1.8.23c0,2.05.91,3.24,3.13,3.05L9,52C9.94,55.4,8,57.74,6,60.06Z"/><path class="cls-14" d="M5.71,47.12l-1.8-.23C5.06,43.87.71,42,2.19,39c2.63,0,1-3.61,3.32-3.92,0,2.38,3.72,1.57,3.5,4.12C7.13,41.4,5.1,43.6,6.18,46.93Z"/><path class="cls-18" d="M90,11.15l1.92-.07q.1,3,.2,5.94c-.87,2.78,3.23,4.11,2,7-.57,1.68.38,2.05,1.76,2.05,0,.63,0,1.27,0,1.9h0l-3.89.13L91.89,24c-2.44-3.28-1.63-7.18-2-10.85Z"/><path class="cls-16" d="M47,7.06c-.81,5.22-5.47,6-9.15,8l3.17-6C43.08,8.47,44.57,6.26,47,7.06Z"/><path class="cls-2" d="M92.12,17q-.09-3-.2-5.94c2.74,0,1.44-4.06,4.14-4.06l2,0,0,2c0,.62-.11,1.23-.16,1.85a1.94,1.94,0,0,0-2,2C93.19,12.9,94.79,16.92,92.12,17Z"/><path class="cls-19" d="M5.51,35c-2.29.31-.69,3.91-3.32,3.92,0-3.63,0-7.26,0-10.89L5.84,30l.24,2Z"/><path class="cls-2" d="M55,5V2l2.93,0c0,1,0,2,.07,3H55Z"/><path class="cls-7" d="M98,7l-2,0c.32-2.62,2.39-1.84,4-2l0,2Z"/><path class="cls-20" d="M81.15,6.94c-1.57-.14-3.6.78-4.14-1.78C78.61,5.25,80.84,3.87,81.15,6.94Z"/><path class="cls-18" d="M62,12.81c-.15,1.65.85,3.87-2.07,4.14.07-1.3.13-2.6.2-3.9Z"/><path class="cls-7" d="M102,2c0,1.46,0,3-2,3.05C100,3.56,100,2.06,102,2Z"/><path class="cls-21" d="M73,6.89C72.92,9,71.45,9,70,9l0-1.78Z"/><path class="cls-2" d="M109,5c-2-.07-2-1.55-2-3C109.12,2,109,3.62,109,5Z"/><path class="cls-7" d="M73.07,5.1c.14-1-.6-2.35,1-2.56.19,0,.57,1.49.87,2.28l.07.39Z"/><path class="cls-22" d="M58,5c0-1,0-2-.07-3,.62.4,1.63.68,1.79,1.22C60.1,4.53,59,4.85,58,5Z"/><path class="cls-17" d="M90,11.15c0,.66-.11,1.32-.16,2L87,13h0V11l.07-.07Z"/><path class="cls-7" d="M105,0c0,2.14-1.61,2-3,2C102.06,0,103.53,0,105,0Z"/><path class="cls-20" d="M73.07,5.1l2,.11a1.83,1.83,0,0,1-2.18,1.71C72.94,6.31,73,5.71,73.07,5.1Z"/><path class="cls-23" d="M49,7,47,7l1.2-1.55Z"/><path class="cls-18" d="M83,9l0-1.84c1.62-.45,2.06.4,2,1.82L85,9Z"/><path class="cls-18" d="M70,7.17,70,9H67.89C67.94,7.6,68.31,6.62,70,7.17Z"/><path class="cls-17" d="M85,9c1.47-.15,2.15.5,2,2L87,11H85V9Z"/><path class="cls-8" d="M26,91.81c2.43-.29,1.58,3.44,3.95,3.22,4.16,5,10,7.92,15.1,11.73L47,107h0c2,5.07,5.25,8.55,11,9.07a2.15,2.15,0,0,0,2,2c2.26,3.38,4.43,6.85,8.11,8.94-.8,2.49,1.35,3.93,2.07,5.88l-.2.21c-2.42.63-3.88-1.53-5.91-2a1.92,1.92,0,0,0-2-2c-1.87-5.92-7.76-7.66-12-10.71-6.51-4.63-11.79-10.39-17.53-15.75C30,100.24,25.18,100,26,94.9,26,93.87,26,92.84,26,91.81Z"/><path class="cls-4" d="M9.2,79.77c4.62,1.82,7.71,5.77,11.72,8.45,0,.6,0,1.2-.05,1.8C14.81,88.32,10.71,83.71,6,80l.12-.12Z"/><path class="cls-3" d="M20.87,90c0-.6,0-1.2.05-1.8,2,.72,4.07,1.46,5.11,3.59,0,1,0,2.06,0,3.09C22.49,95.15,22.51,91.72,20.87,90Z"/><path class="cls-4" d="M2,80c0-1,0-2-.05-2.95a2.13,2.13,0,0,1,2-2.1l.09.08c0,1.35.68,1.94,2,1.84l.07.06,0,3L6,80Z"/><path class="cls-22" d="M92.12,17c2.67-.1,1.07-4.12,3.82-4.14-.3,3,.82,4.6,4.06,4.12,4.71-.13,9.87.55,11-6.05,4.64,3.37,3.92,8.37,4,13.13l-.12-.09c-5.9,3.41-12.6,3-19,4,0-.63,0-1.27,0-1.9.52-.32,1.52-.76,1.48-.92-.51-1.83-2.11-.84-3.24-1.13C95.35,21.13,91.25,19.8,92.12,17Z"/><path class="cls-8" d="M81,140.07c0,1.31-.08,2.62-.11,3.93L79,144c-.39-2.89-4.49-3.6-4.08-7l.29-.18c3.07-1.09,3.41,2.86,5.75,3.13Z"/><path class="cls-8" d="M73,135.06c-1.42,0-2.84-.11-3-2l.2-.21c1.35.11,2.79.07,3,1.94Z"/><path class="cls-4" d="M75,137a1.87,1.87,0,0,1-2-1.95l.16-.27a2.29,2.29,0,0,1,2.1,2Z"/><path class="cls-24" d="M102.14,82.23c0,.53.06,1.06.1,1.59l-2.19,4.23c-.07.62-.15,1.24-.22,1.86C96.9,91.43,98,95,96.13,97.08l-2,6-.45,3.81c-2.51,0-1.42,1.88-1.54,3.11l-.31,1.85L90,112l0-2-.2-3.16.42-3.71a1.72,1.72,0,0,0,1.65-2.28L92,99c3.3-2.85,2.7-7.22,4.19-10.78,1.21-.26,1.93-.9,1.71-2.25,0-.65.06-1.31.08-2a1.82,1.82,0,0,0,2-2.06V80l.1-2.88c2.94-1,1.79-3.62,2.22-5.61,1.54-.13,3-.37,2.72-2.47,1.31-.13,2-.8,1.8-2.18l.29-1.8c1.41,0,1.89.84,2,2.06,0,4.75-4.49,8-4.31,12.85C103.26,80,101.91,80.21,102.14,82.23Z"/><path class="cls-8" d="M109.17,47.18c-.08,1.6-.17,3.2-.25,4.81-1.39,0-2,.8-1.84,2.14-.06,1.2-.13,2.39-.19,3.58l-1.77.33-3-.07-.25-2,0-2,.27.11c1.46-.14,3-.16,2.67-2.37l.34-4.63,1.74-.12h2.06Z"/><path class="cls-7" d="M106.89,57.71c.06-1.19.13-2.38.19-3.58,3.76,1,1.48,3.78,1.66,5.83C107.36,59.85,107,58.88,106.89,57.71Z"/><path class="cls-2" d="M106.89,57.71c.11,1.17.47,2.14,1.85,2.25.17,1.31-.49,1.92-1.73,2h-1.79l-.35,0,.25-3.93Z"/><path class="cls-7" d="M105.22,62H107l.06,3c-.1.6-.2,1.2-.29,1.8C103.73,66,105.33,63.73,105.22,62Z"/><path class="cls-14" d="M100.05,88.05l2.19-4.23,4.59.12c.07.69.13,1.38.19,2.08-3.09-.39-1.11,5.18-4.8,4.1C101.93,89,101.79,87.67,100.05,88.05Z"/><path class="cls-6" d="M102.14,82.23c-.23-2,1.12-2.23,2.61-2.3C105.07,82,103.51,82,102.14,82.23Z"/><path class="cls-16" d="M105.14,47.07c-.11,1.54-.23,3.09-.34,4.63L102,52c-.58-1-1.15-1.94-1.75-2.89-4.22-6.6-3.17-9.95,4-12,1.31-.38,2.66-.3,2.81-2.08.66-3.5,4.47-4.29,6-7l.15,2.07-.33,4.85c-1.25,0-2,.47-2,1.81-1.41.12-1.9,1-1.87,2.28h0c-1.3.07-2.06.61-1.81,2.05l0,2c-.11.65-.22,1.3-.32,1.95C105.43,45,104.84,45.66,105.14,47.07Z"/><path class="cls-8" d="M106.85,45l.32-1.95,4.15,0c-.63,1.42.63,3.82-2.15,4.12l-.23-.24A1.71,1.71,0,0,0,107.26,45Z"/><path class="cls-1" d="M112.86,34.92l.33-4.85,1.69,0C114.45,31.76,116.35,34.46,112.86,34.92Z"/><path class="cls-6" d="M109,39c0-1.3.46-2.16,1.87-2.28C111,38.09,110.49,39,109,39Z"/><path class="cls-6" d="M107.2,41.06c-.25-1.44.51-2,1.81-2.05A1.8,1.8,0,0,1,107.2,41.06Z"/><path class="cls-9" d="M94.15,103.1l2-6L99.9,97c0,.64-.09,1.28-.13,1.91-1.32.18-1.69,1-1.61,2.23-.1,1.25-.2,2.49-.31,3.74l-1.73.22C95.89,104,95.65,102.94,94.15,103.1Z"/><path class="cls-14" d="M92.14,116.08c0,1.32,0,2.63-.08,4l-.26-.1L87,120l0-2.21c1.48.25,2.84.32,2.9-1.77Z"/><path class="cls-9" d="M92.14,116.08l-2.18,0h0l0-2.12L90,112h0l1.85-.14c.21,1.1.54,2.09,2,2C94.06,115.23,93.52,116,92.14,116.08Z"/><path class="cls-15" d="M92.16,110c.12-1.23-1-3.06,1.54-3.11l2.13.07c-.14,1.21,1,3.09-1.53,3.11Z"/><path class="cls-11" d="M95.83,107l-2.13-.07.45-3.81c1.5-.16,1.74.92,2,2C96,105.73,95.93,106.35,95.83,107Z"/><path class="cls-11" d="M92.16,110l2.14.07c-.16,1.27-.33,2.53-.49,3.8-1.42.07-1.75-.92-2-2C92,111.25,92.05,110.64,92.16,110Z"/><path class="cls-15" d="M87.16,127.1c-.09,1.29-.17,2.57-.25,3.86-2.8,1-1.73,4.59-3.93,6l-1.86-.12c.42-6-6-4.69-8.26-7.79-.74-4,1.86-7.31,2.11-11.09l2,.07c.44,2.4,2.34,1.93,4,2h0c1.11,3.47,2.78,5.18,6,1.93C87.05,123.69,87.1,125.4,87.16,127.1Z"/><path class="cls-14" d="M81.12,136.86,83,137c0,1,0,2,0,3l-2,.11V140C81,138.93,81.08,137.89,81.12,136.86Z"/><path class="cls-25" d="M99.9,97l-3.77.07c1.84-2.07.77-5.65,3.7-7.17L100.1,92c-.07,1.33-.39,2.8,1.66,2.93.09.7.18,1.41.26,2.12Z"/><path class="cls-15" d="M100.1,92l-.27-2.06c.07-.62.15-1.24.22-1.86,1.74-.38,1.88.92,2.17,2.07l-.36,1.9Z"/><path class="cls-7" d="M100.1,92l1.76,0c0,1-.07,1.92-.1,2.88C99.71,94.77,100,93.3,100.1,92Z"/><path class="cls-25" d="M87.16,127.1c-.06-1.7-.11-3.41-.17-5.11,0-.65,0-1.31,0-2l4.77-.1c.08.69.15,1.38.23,2.08C88.41,121.79,91.62,128.12,87.16,127.1Z"/><path class="cls-25" d="M98.16,101.15c-.08-1.19.29-2.05,1.61-2.23C100.07,100.26,99.39,100.91,98.16,101.15Z"/><path class="cls-11" d="M113,28c-1.57,2.71-5.38,3.5-6,7-3.7,2.69-6.48-7.54-11,1.32V28h0c6.39-1,13.09-.55,19-4C115.07,25.69,115,27.3,113,28Z"/><path class="cls-13" d="M38.15,36.9c6-1.68,6-1.68,8.18,1.84C47,36.08,48.19,34.35,51,35c3-.27,6.08,3.31,9.08-.06l0,0c.47,2.73,3,3.82,4.59,5.67.65.77,1.51,2.36,2.71,1.52.66-.45.49-2.1.69-3.22L70,38.82l2.93.28c-.19,1.6.76,2,2.1,2.1,1.64,1.93,1.23,3.86,0,5.79H66a11.82,11.82,0,0,0-9.35-2c-6.59,1.07,1,5.45-1.62,7.6-.26.21-.07,1-.09,1.45-3.54-2.8-5.75-7.09-10.09-9C42.2,45,43.79,41,41,41c.42-2.51-3.4-1.47-3.2-3.81Z"/><path class="cls-13" d="M32.05,24.08c-1.09,2.71-1.21,5.92-4,7.78L28,32a14.64,14.64,0,0,0-8.82-2.14l-.08.06.2-2c5,.61,2.35-2.09,1.7-3.92L26,24h6Z"/><path class="cls-23" d="M60.08,34.94c-3,3.37-6-.21-9.08.06,1.43-2.13-.18-5.16,2.09-7l1.8.13c1,2.24,3.08,3.05,5.07,4Z"/><path class="cls-16" d="M28,13c3,1.35,4.66,3.93,6.53,6.48,2.81,3.8,1,4.55-2.52,4.64L32,24c-1.33-3-2.68-6-4-8.94l0-2Z"/><path class="cls-16" d="M28.09,31.86c4.28-.19,8.42-.07,10.06,5l-.35.28L34,37.05c-.28-3.72-6.63-.19-6-5Z"/><path class="cls-18" d="M54.89,28.09,53.09,28C51.91,25.88,56,26.1,54.82,24c-.08-2.33,1.67-2,3.11-2.14C57.57,24.26,59.7,27.88,54.89,28.09Z"/><path class="cls-18" d="M75,41.2c-1.34-.05-2.29-.5-2.1-2.1s0-3.12,2.19-4.32c3-1.68,3.08-4.49,0-6.76v-2c3.82-3.16,1-7.43,1.85-11.09.12-1.72.24-3.43.44-6.4L81.05,15c.47,5-1.29,10.33,2,15,0,2.38,0,4.76,0,7.14C81.09,39.89,78.18,40.81,75,41.2Z"/><path class="cls-20" d="M83,30c-3.28-4.64-1.52-10-2-15,.55.31,1.48.54,1.57,1,.51,2.22.89,5.62,3.32,5.09s.61-4,1-6.15c0-.62,0-1.24,0-1.86l2.89.09c.42,3.67-.39,7.57,2,10.85-1.81,1.12-4.73,1.63-4.72,4.08C87.2,32.49,85.26,31.18,83,30Z"/><path class="cls-17" d="M75.12,28c3,2.27,3,5.08,0,6.76-2.17,1.2-2,2.64-2.19,4.32L70,38.82c-.08-1.28-.82-1.79-2-1.78-1.43-.5-3.93,1.14-4-2,3.21-.17,8.27,1.18,4.11-5,1.69-4,3.29,1.81,5,0,.34.48.89,1.42,1,1.37,1.65-.73.75-2.25,1-3.45Z"/><path class="cls-21" d="M68,30c4.16,6.2-.9,4.85-4.11,5l-3.86-.12,0,0L60,32.1C59.31,29.59,61.45,28,62.05,26c1.08.21,2,.75,1.87,1.93C63.49,32.14,65.57,31.39,68,30Z"/><path class="cls-17" d="M77,15c-.85,3.66,2,7.93-1.85,11.09C75.77,22.37,73,18.11,77,15Z"/><path class="cls-25" d="M69.84,15c1,.29,4-.23,1.32,1.88-1.72,1.35-.23,3.65-2.35,4.59-1.56-2.11-.56-4.4-.56-6.57Z"/><path class="cls-24" d="M68.13,13c0-.65-.07-1.31-.1-2h0c1.46.41,3.63-1.07,4.29,1,.33,1-1.47.75-2.36.94Z"/><path class="cls-21" d="M75,28c-.22,1.2.68,2.72-1,3.45-.12.05-.67-.89-1-1.37A1.94,1.94,0,0,1,75,28Z"/><path class="cls-20" d="M85,9c0,.68,0,1.37,0,2.05H83c0-.69,0-1.38,0-2.07Z"/><path class="cls-9" d="M68.13,13l1.81,0c0,.67-.07,1.35-.1,2l-1.59-.1Z"/><path class="cls-6" d="M83,11.05h2v0c0,.67,0,1.33,0,2l0,0A1.75,1.75,0,0,1,83,11.05Z"/><path class="cls-14" d="M87,13c0,.62,0,1.24,0,1.86-1.5.22-2-.58-1.93-1.93l0,0,2,0Z"/><path class="cls-16" d="M41,17.06l4,0c0,1.52-.13,3-2.23,2.87C41,19.77,41.06,18.34,41,17.06Z"/><path class="cls-18" d="M59.94,16.89c-.32,1.84,1.35,4.49-2.07,5.05C58.79,20.35,56.28,17.36,59.94,16.89Z"/><path class="cls-24" d="M6,60.06C8,57.74,9.94,55.4,9,52l2.07-.08L11,52c.41,2.25,2,3.36,4,4,1.08,2.64,4,2.66,5.91,4.07A2.14,2.14,0,0,0,23,62c1.66,4.07,4.59,6.51,9,7l3.84,2.11c.1.62.19,1.24.29,1.85,1.17,3.15,4.91,2.1,6.75,4.16,1.18,4,3.59,6.58,7.93,7A6.88,6.88,0,0,0,55,88c.82,2.41,3.09,2.93,5,3.88,3.57,2,4.6,7.57,9.91,7.18.3,1.85,1.83,1.68,3.12,1.91.08,2.09,2.09,2.76,3.07,4.19,2.54,3.66.88,8.37-3.12,8.82-3.27,0-4.94-2.64-6.54-4.66-1.79-2.26-3.05-4.65-6.4-4.36l-9-6.06c-.5-2.17-2.13-3.21-4-4-.54-3.65-3.28-5.29-6.18-6.79L38,88h0c-.43-2.23-2.06-3.25-4-4a5.33,5.33,0,0,0-4.09-3.83L28,79.91l0,0c-1.75-5.36-6.27-7.33-11-9h0C14.34,66.31,10.06,63.28,6,60.06Z"/><path class="cls-25" d="M40.93,88.1c2.9,1.5,5.64,3.14,6.18,6.79-3.64,1.1-1.66,4-2,6.21l.1,3.71-.11,2C40,103,34.14,100.06,30,95l2,0c1.4-1.29,2.59,4.36,4.08.13,2-.47,5.27,1,4.78-3.17l0-1.86Z"/><path class="cls-15" d="M40.91,90.09c0,.62,0,1.24,0,1.86-2.12.27-5.25-1-4.79,3.17C34.61,99.35,33.42,93.7,32,95c-.65-3.66-7.12-7.3,0-11,1,2.79,2.93,4.27,6,4h0C38,90.09,39.49,90,40.91,90.09Z"/><path class="cls-9" d="M17,71c4.77,1.67,9.29,3.64,11,9L26,80C21.78,78.21,19.47,74.52,17,71Z"/><path class="cls-7" d="M8.94,73.34c4.44-2.79,4.28,2,6,3.66l-1.89-.06A5.42,5.42,0,0,1,8.94,73.34Z"/><path class="cls-9" d="M38,88c-3.08.29-5-1.19-6-4l2,0C35.94,84.74,37.57,85.76,38,88Z"/><path class="cls-3" d="M6.11,79.89l0-3q3.21-.37,3.06,2.85Z"/><path class="cls-9" d="M13.06,76.94,15,77c0,1,.05,2,.07,3C13,79.84,13,78.42,13.06,76.94Z"/><path class="cls-9" d="M28,79.91l1.9.24-.84,1.42Z"/><path class="cls-3" d="M6.07,76.86c-1.32.1-2-.49-2-1.84A1.67,1.67,0,0,1,6.07,76.86Z"/><path class="cls-23" d="M100,17c-3.24.48-4.36-1.12-4.06-4.12a1.94,1.94,0,0,1,2-2C98.61,12.9,99.3,15,100,17Z"/><path class="cls-23" d="M98,7l2,0A1.85,1.85,0,0,1,98.07,9C98.05,8.34,98,7.67,98,7Z"/><path class="cls-7" d="M28,13c0,.66,0,1.33,0,2-4,2.26-1.07,6-1.95,9L21,24c-1.48-.07-1.94.88-2.13,2.11l-5.91-4.1c0-.7,0-1.39,0-2.09-.23-.83-.42-2.36-.68-2.38-1.7-.07-1,1.49-1.33,2.38C8.93,19.78,9,18.32,9,17c4.39-3.25,8.66-6.68,13.24-9.63,1.58-1,3.7-.5,3.74,2.27C26,11.1,25.88,12.71,28,13Z"/><path class="cls-4" d="M6.08,32l-.24-2,.21-5.85c5.34-.28,7.78,5.89,13,5.85l.08-.06c.32,2.37,2.61,4.15,2,6.78-.11,2.91-.09,5-3.81,2C14,35.89,9.87,34.15,6.08,32Z"/><path class="cls-19" d="M19.07,30c-5.24,0-7.68-6.13-13-5.85,1.34-3.89,4.58-1.4,6.89-2.05l5.9,4.1c.14.6.29,1.2.43,1.81Z"/><path class="cls-14" d="M10.88,20c.33-.89-.37-2.45,1.33-2.38.26,0,.45,1.55.68,2.38Z"/><path class="cls-9" d="M8.84,50.17c-2.22.19-3.09-1-3.13-3.05l.47-.19c2.05-.13,3,.9,3,2.88Z"/><path class="cls-5" d="M11.09,51.89,9,52l-.18-1.8.32-.36C10.28,50.06,11.16,50.53,11.09,51.89Z"/><path class="cls-8" d="M6.08,32c3.79,2.18,7.94,3.92,11.28,6.66,3.72,3,3.7.95,3.81-2L23,37c1.87,3,4.56,5.27,8,3.52s4,.41,5.13,2.37l-.23.17c-8.62.11-.7,4.75-1.9,6.9l-.08.15-4.06,2-3.83-2.15c.14-2.23-.88-3.21-3.11-2.89l-.11.06c-1.11-2.7-3.81-2.93-6.05-3.89l0,0c.28-1.56-.46-2.15-1.94-2-2-.42-3.48-2.53-5.83-2C9.23,36.6,5.5,37.41,5.51,35Z"/><path class="cls-15" d="M9,39.15c2.35-.55,3.8,1.56,5.83,2,0,1.25.46,2.15,1.94,2l0,0c-.65,2.19-1.29,4.38-1.94,6.57L11,52l.06-.07c.07-1.36-.81-1.83-1.93-2.08,0-2-.93-3-3-2.88C5.1,43.6,7.13,41.4,9,39.15Z"/><path class="cls-23" d="M75,41.2c3.18-.39,6.09-1.31,8.06-4.09,3.28-.34,6.48-.79,7-5,3.19-.06,1.47-2.66,2.1-4l-.06,0L96,28v8.37c4.56-8.86,7.34,1.37,11-1.32-.15,1.78-1.5,1.7-2.81,2.08-7.12,2.05-8.17,5.4-4,12,.6,1,1.17,1.92,1.75,2.89l.14,2.1-.27-.11c-3.94-2.19-7.91-5.18-11.5.58-.51.81-1.55,1.78-2.41.92a4.75,4.75,0,0,1-.9-3.1c0-2.69.16-6.45-2.88-6.37-2.44.07-.61,3.93-1.17,6h0c-2.47-2-3.1-6.91-8-5C76.23,45.06,76.64,43.13,75,41.2Z"/><path class="cls-21" d="M90,32.1c-.49,4.22-3.69,4.67-7,5,0-2.38,0-4.76,0-7.14,2.22,1.21,4.16,2.52,4.13-1.91,0-2.45,2.91-3,4.72-4.08l.18,4.1.06,0C89.31,28.31,90.18,30.47,90,32.1Z"/><path class="cls-11" d="M94.17,24c1.13.29,2.73-.7,3.24,1.13,0,.16-1,.6-1.48.92C94.55,26.05,93.6,25.68,94.17,24Z"/><path class="cls-12" d="M87,13l-2,0c0-.67,0-1.33,0-2h2C87,11.69,87,12.37,87,13Z"/><path class="cls-15" d="M45.19,104.81c0-1.24-.06-2.48-.1-3.71,2-.87,3.55-2.75,6-2.21l9,6.06c1.09,1.72,2.27,3.4,3.24,5.18.68,1.25,3.16,1.68,1.77,3.93-1.23,2-1.8,4.73-5.13,4a2.15,2.15,0,0,1-2-2c-3.52-3.19-5.72-8-11-9.07h0A1.86,1.86,0,0,0,45.19,104.81Z"/><path class="cls-14" d="M60,118c3.33.76,3.9-2,5.13-4,1.39-2.25-1.09-2.68-1.77-3.93-1-1.78-2.15-3.46-3.24-5.18,3.35-.29,4.61,2.1,6.4,4.36,1.6,2,3.27,4.67,6.54,4.66,0,.65,0,1.3,0,1.94,0,1.35.53,2.18,2,2.08h0c-.25,3.78-2.85,7.12-2.11,11.09-2.16.58-3-2-4.79-2.1C64.39,124.88,62.22,121.41,60,118Z"/><path class="cls-6" d="M68.07,127c1.84.14,2.63,2.68,4.79,2.1,2.27,3.1,8.68,1.83,8.26,7.79,0,1-.09,2.07-.13,3.1-2.34-.27-2.68-4.22-5.75-3.13a2.29,2.29,0,0,0-2.1-2c-.21-1.87-1.65-1.83-3-1.94C69.42,130.9,67.27,129.46,68.07,127Z"/><path class="cls-9" d="M47,107c5.25,1.1,7.45,5.88,11,9.07C52.24,115.55,49,112.07,47,107Z"/><path class="cls-9" d="M45.19,104.81A1.86,1.86,0,0,1,47,107l-1.91-.24C45.12,106.11,45.15,105.46,45.19,104.81Z"/><path class="cls-22" d="M90.19,103.11l-.42,3.71c-2.28-.12-3,1.14-2.75,3.19l0,0c-2.36-.24-2.83-4.29-6-3l0,0L80.87,103c.06-2,.11-4,.17-6l2,0,0,0a1.76,1.76,0,0,0,2.14,1.82L92,99l-.12,1.84C90.45,101,90,101.8,90.19,103.11Z"/><path class="cls-5" d="M92,99l-6.84-.14A1.85,1.85,0,0,0,83,97l0,0V95c4.06-1,8.47-1.51,8.93-7l0,0c2.42-.36,1.8-2.37,2.1-3.89l3.89,0c0,.65,0,1.31-.08,2a1.79,1.79,0,0,0-1.71,2.25C94.66,91.77,95.26,96.14,92,99Zm-.28-3.23-.84-.36c-.12.27-.37.59-.31.81a.82.82,0,0,0,.74.34C91.47,96.45,91.54,96.05,91.68,95.76Z"/><path class="cls-26" d="M105.22,62c.11,1.74-1.49,4,1.56,4.83.18,1.38-.49,2.05-1.8,2.18l-3,.07L100.06,69l-2,.29-1.76-.07-.11-1.87A2,2,0,0,0,98,65l0,0,1.8-.14a19,19,0,0,0,1.14,1.7c2-1.07.63-3,1.12-4.55l2.8-.05Z"/><path class="cls-16" d="M100.06,69l1.91.07c.1.8.19,1.6.29,2.4-.43,2,.72,4.6-2.22,5.61-.13-1.1-.53-2-1.82-2l1.55-4Z"/><path class="cls-9" d="M99.94,80c0,.66,0,1.32,0,2l-4,0,.14-4.86,1.79-.22C98.17,78.2,97.54,80.08,99.94,80Z"/><path class="cls-19" d="M96,82l4,0a1.82,1.82,0,0,1-2,2.06l-3.89,0c0-.69,0-1.38,0-2.07Z"/><path class="cls-11" d="M99.94,80c-2.4.12-1.77-1.76-2-3.06L98.22,75c1.29.08,1.69,1,1.82,2C100,78,100,79,99.94,80Z"/><path class="cls-5" d="M87,110c-.22-2.05.47-3.31,2.75-3.19.07,1.05.14,2.11.2,3.16Z"/><path class="cls-7" d="M102.26,71.47c-.1-.8-.19-1.6-.29-2.4l3-.07C105.23,71.1,103.8,71.34,102.26,71.47Z"/><path class="cls-27" d="M87,110l3,0,0,2h0l-2.94.07c0-.7-.09-1.4-.13-2.1Z"/><path class="cls-26" d="M90.19,103.11c-.21-1.31.26-2.12,1.65-2.28A1.72,1.72,0,0,1,90.19,103.11Z"/><path class="cls-26" d="M96.15,88.21A1.79,1.79,0,0,1,97.86,86C98.08,87.31,97.36,88,96.15,88.21Z"/><path class="cls-11" d="M83,52c.56-2.08-1.27-5.94,1.17-6,3-.08,2.85,3.68,2.88,6.37a4.75,4.75,0,0,0,.9,3.1c.86.86,1.9-.11,2.41-.92,3.59-5.76,7.56-2.77,11.5-.58l0,2c-2.41.52-1.78,2.43-1.84,4h0c-3.18.66-1.64,3.21-2,5l0,0-2,0c-.14-4.18-3-3.45-5.18-2.41-1.27.6-1.74,2.78-3.82,2.39-.28-.82-.56-1.64-.85-2.47-.31.26-.85.48-.9.78C85.06,64.6,86,64.84,87,65c.16.46.17,1.11.49,1.34,1.91,1.38,5.16,2.43,4.15,5.19-1.2,3.24-3.64.62-5.64.13-.84-.2-2,.84-3,1.31-.69-4.59-6-7.75-10-6-4.26.91-1.75-4.9-5-5-4.3-2.09-7.69-6.13-13-6l0-1.9c0-.5-.17-1.24.09-1.45,2.62-2.15-5-6.53,1.62-7.6A11.82,11.82,0,0,1,66,47c.32,6.87,5,0,7.34,2.27C74.79,50.73,74.75,48.08,75,47h0c4.9-1.9,5.53,3,8,5,.31.5.62,1,.92,1.5l.58-.58Zm-.92,14.77c.79-4.58,1.44-6.9,4.19-7.51-2.19-6.22-5.69.82-8.34-.83C77.81,61.47,81.24,62.05,82.08,66.77Zm9.55-7.49c-.13-.29-.18-.7-.37-.78s-.52.17-.78.27c.1.27.14.68.33.76S91.33,59.38,91.63,59.28Z"/><path class="cls-24" d="M104.87,62l-2.8.05-1.91,0L100,60h0c1.36,0,1.8-.93,2.09-2l3,.07C105,59.35,105,60.66,104.87,62Z"/><path class="cls-16" d="M102.09,58c-.29,1.1-.73,2-2.09,2,.06-1.59-.57-3.5,1.84-4C101.92,56.65,102,57.31,102.09,58Z"/><path class="cls-6" d="M102.13,54.07,102,52l2.81-.27C105.16,53.91,103.59,53.93,102.13,54.07Z"/><path class="cls-6" d="M105.14,47.07c-.3-1.41.29-2.09,1.71-2.09h.41c-.13.65-.26,1.31-.38,2Z"/><path class="cls-4" d="M106.88,47c.12-.65.25-1.31.38-2a1.71,1.71,0,0,1,1.68,1.95Z"/><path class="cls-5" d="M87,120c0,.65,0,1.31,0,2-3.26,3.25-4.93,1.54-6-1.93,3.5-1.07,1.53-4,2.1-6.1l3.85,0,.15,0v2.28l0,1.59Z"/><path class="cls-16" d="M87.06,117.82c0-.53,0-1.06,0-1.6l2.95-.17h0C89.9,118.14,88.54,118.07,87.06,117.82Z"/><path class="cls-6" d="M87.1,112.08,90,112c0,.64-.05,1.28-.08,1.92l-2.91,0-.15,0C87,113.35,87,112.72,87.1,112.08Z"/><path class="cls-27" d="M87.05,114l2.91,0,0,2.12-2.95.17C87.05,115.47,87.05,114.71,87.05,114Z"/><path class="cls-27" d="M83.05,114c-.57,2.08,1.4,5-2.1,6.1h0c-.29-2.71-2.36-1.89-4-2L75,118h0c.13-1.47-.74-2-2-2.08,0-.64,0-1.29,0-1.94,4-.45,5.66-5.16,3.12-8.82-1-1.43-3-2.1-3.07-4.19,2.45-.72,3.79,1.57,5.77,2.13.37,1.49-.44,3.63,2.15,3.9l0,0C80.19,109.76,81.91,111.78,83.05,114Z"/><path class="cls-5" d="M77,118.05c1.6.11,3.67-.71,4,2C79.34,120,77.44,120.45,77,118.05Z"/><path class="cls-10" d="M41,41c2.79,0,1.2,4,3.85,4.11-.88,4,3,5.76,4.23,8.79-2.57.43-1.95,2.55-2.22,4.2-5.17-1.26-10.31-2.58-12.9-8l.08-.15c3.67-1.47,1.31-4.59,1.9-6.9l.23-.17Z"/><path class="cls-6" d="M41,41l-4.83,1.87c-1.15-2-1.79-4-5.13-2.37S24.89,40,23,37c3.64,0,7.28,1.74,10.93.08l3.85.13C37.6,39.52,41.42,38.48,41,41Z"/><path class="cls-5" d="M49.09,53.89c-1.21-3-5.12-4.75-4.24-8.79,4.34,1.91,6.55,6.2,10.09,9,0,.63,0,1.27,0,1.9,0,1.33,0,2.67,0,4l-1.93,0a2.21,2.21,0,0,0-2-2.11L50.85,56c.08-1.28-.23-2.22-1.79-2.12Z"/><path class="cls-23" d="M60.05,34.91l3.86.12c.1,3.15,2.6,1.51,4,2,0,.62.07,1.23.1,1.84-.2,1.12,0,2.77-.69,3.22-1.2.84-2.06-.75-2.71-1.52C63.07,38.73,60.52,37.64,60.05,34.91Z"/><path class="cls-23" d="M75,47c-.24,1.09-.2,3.74-1.65,2.28C71,47,66.32,53.87,66,47Z"/><path class="cls-18" d="M68,38.88c0-.61-.07-1.22-.1-1.84,1.21,0,2,.5,2,1.78Z"/><path class="cls-5" d="M34,37.05C30.3,38.71,26.66,36.94,23,37l-1.85-.3c.59-2.63-1.7-4.41-2-6.78A14.64,14.64,0,0,1,28,32C27.32,36.86,33.67,33.33,34,37.05Z"/><path class="cls-2" d="M26,24C26.89,21,24,17.28,28,15c1.33,3,2.68,6,4,8.94Z"/><path class="cls-11" d="M19.27,28c-.14-.61-.29-1.21-.43-1.81C19,24.92,19.49,24,21,24,21.62,25.87,24.28,28.57,19.27,28Z"/><path class="cls-7" d="M78.84,103.09c-2-.56-3.32-2.85-5.77-2.13-1.29-.23-2.82-.06-3.12-1.91-1.17-3.53-5.21-5.19-5.91-9,2.74.79,1.78-7.27,5.61-2.67C73,91.32,77.37,93.67,81,97c-.06,2-.11,4-.17,6Z"/><path class="cls-7" d="M35.85,71.1,32,69l-6-7L26,60l.06-6.1L30,54l0,0a12.29,12.29,0,0,0,7.9,8.1V65C34.38,66.06,41.06,70.6,35.85,71.1Z"/><path class="cls-25" d="M14.87,49.78c.65-2.19,1.29-4.38,1.94-6.57,2.23,1,4.93,1.19,6,3.89-4,3.82-.84,8.71-1.93,13C19,58.66,16.09,58.64,15,56l.11-.18,1.42-.89L15,54.06Z"/><path class="cls-26" d="M37.92,65c0-1,0-1.94,0-2.92,0-.73.09-1.45.14-2.18,2.69,1.19,6.45,1,6.88,5.15-1.26.12-2,.72-1.73,2.07l0,1.81q0,3.92,0,7.85l-.34.34c-1.84-2.06-5.58-1-6.75-4.16,2-.19,5,1,4.81-2.82C40.87,67.94,42,64.88,37.92,65Z"/><path class="cls-9" d="M20.92,60.07c1.09-4.26-2.1-9.15,1.93-13L23,47c-.19,2.28.94,3.15,3.11,2.89l3.83,2.15c0,.64.07,1.27.1,1.91l-3.95-.05c-.26-1-.75-2.13-1.93-1.57-1.9.9-1,2.86-1.18,4.39-.24,2.2.68,3.45,3,3.28,0,.64,0,1.28,0,1.92l-3,0A2.14,2.14,0,0,1,20.92,60.07Z"/><path class="cls-26" d="M64,90c.7,3.85,4.74,5.51,5.91,9-5.31.39-6.34-5.14-9.91-7.18L62,88h2Z"/><path class="cls-5" d="M37.92,65c4.08-.11,2.95,3,3,5.14.14,3.8-2.76,2.63-4.81,2.82-.1-.61-.19-1.23-.29-1.85C41.06,70.6,34.38,66.06,37.92,65Z"/><path class="cls-19" d="M23,62l3,0,6,7C27.57,68.51,24.64,66.07,23,62Z"/><path class="cls-26" d="M50.82,84.09c-4.34-.4-6.75-3-7.93-7l.34-.34,1.84.11,6.33,6.88Z"/><path class="cls-5" d="M55,88a6.88,6.88,0,0,1-4.19-3.9l.57-.33L55,84l3,0,0,4Z"/><path class="cls-9" d="M51.12,98.89c-2.48-.54-4.07,1.34-6,2.21.36-2.17-1.62-5.11,2-6.21C49,95.68,50.62,96.72,51.12,98.89Z"/><path class="cls-19" d="M55,88h7l-2,3.86C58.1,90.92,55.83,90.4,55,88Z"/><path class="cls-26" d="M14.87,49.78,15,54.06c0,.58.07,1.17.1,1.76L15,56c-2-.68-3.57-1.79-4-4Z"/><path class="cls-9" d="M40.91,90.09C39.49,90,38,90.09,38,88l2.92.1C40.93,88.77,40.92,89.43,40.91,90.09Z"/><path class="cls-7" d="M36.1,95.12c-.46-4.17,2.67-2.9,4.79-3.17C41.37,96.16,38.08,94.65,36.1,95.12Z"/><path class="cls-24" d="M30,54c0-.64-.07-1.27-.1-1.91l4.06-2c2.59,5.43,7.73,6.75,12.91,8a2.05,2.05,0,0,0,2,2c0,2.32.05,4.65.07,7l-2,0-.07,0c.08-1.35-.69-1.91-1.91-2-.43-4.2-4.19-4-6.88-5.15C36,57.12,34.26,53.83,30,54Z"/><path class="cls-1" d="M35.94,43c-.59,2.31,1.77,5.43-1.9,6.9C35.24,47.78,27.32,43.14,35.94,43Z"/><path class="cls-6" d="M26.07,49.93c-2.17.26-3.3-.61-3.11-2.89C25.19,46.72,26.21,47.7,26.07,49.93Z"/><path class="cls-25" d="M16.78,43.18c-1.48.11-1.9-.79-1.94-2C16.32,41,17.06,41.62,16.78,43.18Z"/><path class="cls-17" d="M90,32.1c.15-1.63-.72-3.79,2.1-4C91.5,29.44,93.22,32,90,32.1Z"/><path class="cls-7" d="M73,115.91c1.28.11,2.15.61,2,2.08C73.53,118.09,73,117.26,73,115.91Z"/><path class="cls-2" d="M64,90c0-.67,0-1.34-.05-2s0-1.35,0-2c.14-1.61-.54-3.65,2-4l1.91.08,13,10c0,1.46,0,3,2.14,2.83L83,95v2l-2,0c-3.67-3.36-8.09-5.71-11.39-9.69C65.82,82.74,66.78,90.8,64,90Z"/><path class="cls-2" d="M83.05,114c-1.14-2.18-2.86-4.2-2-6.95,3.13-1.32,3.6,2.73,6,3,0,.7.09,1.4.13,2.1s-.13,1.27-.2,1.9Z"/><path class="cls-2" d="M78.84,103.09l2,0L81,107C78.4,106.72,79.21,104.58,78.84,103.09Z"/><path class="cls-7" d="M83,97a1.85,1.85,0,0,1,2.14,1.82A1.76,1.76,0,0,1,83,97Z"/><path class="cls-24" d="M80.94,92.06l-13-10c.45-1.77-1.09-4.34,2-5.06l0,0c-.22,2.21.8,3.17,3,3,1.41-.76,2.88,4,4.25,0,4.53,3.51,9.07,6.91,14.82,2.19L94,82h0c0,.7,0,1.39,0,2.08-.3,1.52.32,3.53-2.1,3.89L91,86.46l-.57.6,1.48.89C91.47,93.49,87.06,94,83,95l.08-.11C83.05,93.43,83,92,80.94,92.06Z"/><path class="cls-22" d="M91.68,95.76c-.14.29-.21.69-.41.79a.82.82,0,0,1-.74-.34c-.06-.22.19-.54.31-.81Z"/><path class="cls-22" d="M83,73c1-.47,2.13-1.51,3-1.31,2,.49,4.44,3.11,5.64-.13,1-2.76-2.24-3.81-4.15-5.19-.32-.23-.33-.88-.49-1.34h0c2.08.39,2.55-1.79,3.82-2.39,2.19-1,5-1.77,5.18,2.41.06.78.11,1.55.17,2.33s.07,1.25.11,1.87c-.8,1.93-1.61,3.87-2.41,5.81C91,75.81,92.51,78.28,92,80c-5.45.92-6.47-4-9-6.87Z"/><path class="cls-10" d="M93.87,75c.8-1.94,1.61-3.88,2.41-5.81l1.76.07A1.66,1.66,0,0,0,99.77,71l-1.55,4-.31,1.87-1.79.22-.24-.24c.14-1.21-.5-1.76-1.61-1.91Z"/><path class="cls-8" d="M100.16,62l1.91,0c-.49,1.52.92,3.48-1.12,4.55a19,19,0,0,1-1.14-1.7C99.93,63.91,100,63,100.16,62Z"/><path class="cls-16" d="M100.16,62c-.12,1-.23,1.91-.35,2.87L98,65c.35-1.8-1.19-4.35,2-5Z"/><path class="cls-8" d="M99.77,71A1.66,1.66,0,0,1,98,69.29l2-.29Z"/><path class="cls-15" d="M96.17,67.35c-.06-.78-.11-1.55-.17-2.33l2,0A2,2,0,0,1,96.17,67.35Z"/><path class="cls-10" d="M96,82l-2,0h0l.18-5,1.69-.06.24.24C96.07,78.74,96,80.36,96,82Z"/><path class="cls-16" d="M55,60c0-1.33,0-2.67,0-4,5.33-.13,8.72,3.91,13,6-2.36-.18-4.3.18-4,3.25-2.34-.42-2.73-4.44-6-3.23C57.86,60.08,56.32,60.2,55,60Z"/><path class="cls-7" d="M64,65.25c-.25-3.07,1.69-3.43,4-3.25,3.23.12.72,5.93,5,5,0,.62.06,1.25.1,1.88l-.17.27C69.49,68.86,66.24,68.14,64,65.25Z"/><path class="cls-23" d="M82.08,66.77c-.84-4.72-4.27-5.3-4.15-8.34,2.65,1.65,6.15-5.39,8.34.83C83.52,59.87,82.87,62.19,82.08,66.77Z"/><path class="cls-22" d="M73.08,68.9c0-.63-.07-1.26-.1-1.88,4-1.8,9.36,1.36,10,6l-.11.12C78.69,73.9,77.3,68.08,73.08,68.9Z"/><path class="cls-23" d="M87,65c-1-.16-1.94-.4-1.75-1.69,0-.3.59-.52.9-.78.29.83.57,1.65.85,2.47Z"/><path class="cls-23" d="M83,52l1.5.92-.58.58c-.3-.5-.61-1-.92-1.5Z"/><path class="cls-23" d="M91.63,59.28c-.3.1-.64.34-.82.25s-.23-.49-.33-.76c.26-.1.59-.35.78-.27S91.5,59,91.63,59.28Z"/><path class="cls-4" d="M48.9,60.13a2.05,2.05,0,0,1-2-2c.26-1.65-.36-3.77,2.21-4.2l0,0A1.77,1.77,0,0,0,50.85,56c.07.6.15,1.21.22,1.81A2.26,2.26,0,0,1,48.9,60.13Z"/><path class="cls-10" d="M48.9,60.13a2.26,2.26,0,0,0,2.17-2.28,2.21,2.21,0,0,1,2,2.11c-.16,3.61.54,6.62,4.92,7.07,2.48,5.9,7.84,3.12,12,4,.28,2.11,1.72,2,3.27,1.73l0,0L70,77c-3.1.72-1.56,3.29-2,5.06L66.05,82c0-1.31-.79-1.87-2-2-.09-1.4,0-2.94-2.09-2.91l-3.91-2.12-9-6L49,67.11Z"/><path class="cls-19" d="M58,67c-4.38-.45-5.08-3.46-4.92-7.07L55,60c1.32.2,2.86.08,3,2C58,63.69,58,65.36,58,67Z"/><path class="cls-10" d="M50.85,56a1.77,1.77,0,0,1-1.79-2.12C50.62,53.82,50.93,54.76,50.85,56Z"/><path class="cls-5" d="M30,54c4.23-.14,5.95,3.15,8,5.92,0,.73-.1,1.45-.14,2.18A12.29,12.29,0,0,1,30,54Z"/><path class="cls-15" d="M26,60c-2.37.17-3.29-1.08-3-3.28.16-1.53-.72-3.49,1.18-4.39,1.18-.56,1.67.55,1.93,1.57Z"/><path class="cls-5" d="M15.12,55.82c0-.59-.07-1.18-.1-1.76l1.52.87Z"/><path class="cls-22" d="M49,69l9,6c0,1.68,0,3.36-.07,5-3.07-.2-3.06,1.88-3,4l-3.62-.24q-3.15-3.45-6.32-6.88c-.93-2.58,1.61-6-1.88-8l0-1.81,3.64,0,.07,0A1.72,1.72,0,0,0,49,69Z"/><path class="cls-7" d="M43.19,68.92c3.49,2,1,5.38,1.88,8l-1.84-.11Q43.22,72.84,43.19,68.92Z"/><path class="cls-7" d="M46.86,67.08l-3.64,0c-.22-1.35.47-2,1.73-2.07C46.17,65.17,46.94,65.73,46.86,67.08Z"/><path class="cls-25" d="M64,86c0,.67,0,1.34,0,2H58c0-1.35,0-2.7,0-4,0-.64.07-1.28.1-1.92Z"/><path class="cls-7" d="M58.06,82c0,.64-.07,1.28-.1,1.92l-3,0c-.09-2.14-.1-4.22,3-4C58,80.67,58,81.35,58.06,82Z"/><path class="cls-7" d="M49,69a1.72,1.72,0,0,1-2.11-1.85l2,0C49,67.73,49,68.36,49,69Z"/><path class="cls-5" d="M58.06,82C58,81.35,58,80.67,58,80c0-1.68.05-3.36.07-5L62,77.06C62,78.51,62,80,64.05,80c1.21.13,2,.69,2,2-2.59.36-1.91,2.4-2,4Z"/><path class="cls-19" d="M80.94,92.06c2.07-.08,2.11,1.37,2.14,2.83C80.93,95,81,93.52,80.94,92.06Z"/><path class="cls-26" d="M92.06,82.14c-5.75,4.72-10.29,1.32-14.82-2.2-.13-1.59-.25-3.18-.37-4.77,4.61,3.14,7.82,9.47,15.07,6.63Z"/><path class="cls-4" d="M76.87,75.17c.12,1.59.24,3.18.37,4.77-1.37,4-2.84-.71-4.25,0,.2-2.18-.76-3.21-3-3l0,0,3.24-4.19Z"/><path class="cls-5" d="M94.19,76.94,94,82l-2,.19-.12-.34c0-.61,0-1.22,0-1.84.55-1.68-.95-4.15,1.91-4.93l.4-.06C94.25,75.63,94.22,76.29,94.19,76.94Z"/><path class="cls-10" d="M70,77c2.22-.25,3.18.78,3,3C70.81,80.2,69.79,79.24,70,77Z"/><path class="cls-8" d="M91.93,88l-1.48-.89.57-.6L92,87.92Z"/><path class="cls-2" d="M92,80c0,.62,0,1.23,0,1.84-7.25,2.84-10.46-3.49-15.07-6.63L73.21,72.8l0,0L73,71l-.07-1.8.17-.27c4.22-.82,5.61,5,9.84,4.19C85.49,76,86.51,80.88,92,80Z"/><path class="cls-1" d="M94.19,76.94c0-.65.06-1.31.08-2,1.11.15,1.75.7,1.61,1.91Z"/><path class="cls-26" d="M72.91,69.17c0,.6,0,1.2.07,1.8l-3,0c-4.15-.87-9.51,1.91-12-4,0-1.67,0-3.34,0-5,3.22-1.21,3.61,2.81,6,3.23C66.24,68.14,69.49,68.86,72.91,69.17Z"/><path class="cls-3" d="M70,71l3,0,.27,1.79C71.7,73,70.26,73.13,70,71Z"/><path class="cls-25" d="M64.05,80c-2,0-2-1.46-2.09-2.91C64.06,77,64,78.57,64.05,80Z"/></g></g></svg>