<svg xmlns="http://www.w3.org/2000/svg" viewBox="0 0 275 153"><defs><style>.cls-1{fill:#d03b00;}.cls-2{fill:#270c00;}.cls-3{fill:#706955;}.cls-4{fill:#300f00;}.cls-5{fill:#39362b;}.cls-6{fill:#4e4737;}.cls-7{fill:#877f6e;}.cls-8{fill:#ad3400;}.cls-9{fill:#b9aa7b;}.cls-10{fill:#968d7c;}.cls-11{fill:#55514b;}.cls-12{fill:#c5bca0;}.cls-13{fill:#9c2f00;}.cls-14{fill:#531800;}.cls-15{fill:#8a2b00;}.cls-16{fill:#431400;}.cls-17{fill:#982d00;}.cls-18{fill:#a79e8a;}.cls-19{fill:#370f00;}.cls-20{fill:#661f00;}.cls-21{fill:#d2ceca;}.cls-22{fill:#792500;}.cls-23{fill:#832600;}.cls-24{fill:#bd3700;}.cls-25{fill:#702300;}.cls-26{fill:#762400;}.cls-27{fill:#5e1c00;}.cls-28{fill:#87330a;}.cls-29{fill:#4b1700;}</style></defs><title>Asset 66</title><g id="Layer_2" data-name="Layer 2"><g id="Layer_1-2" data-name="Layer 1"><path class="cls-1" d="M88,0c2.21,5.38,7.61,5.43,12,7.17.25,2,1.7,1.83,3.11,1.77l0,0V11c-3,4.4-7.78-.81-11.06,2.06l-2,0c-1.63-3.35-6.2-1.65-6-1.16,1.61,5.4-2.08,9.48-2.9,14.18-1,2.94,1.95,6.75-2,9-1.54.1-3.82-.58-3.87,1.78-.1,4.94-4,5-7.14,6.14a1.86,1.86,0,0,0-2-2c-5.57,1.71-7.85-2-10-6,.29-5-1.33-10.29,2-14.87,4.34.93,5-3.87,7.91-5.11.41.83-.17,3.73,1.6,1.84S72.65,14.22,73,11c5.19.57,3.8-3.23,4-6a1.83,1.83,0,0,0,2-2.13L78.89,3C81,3,81,1.5,81,0Z"/><path class="cls-2" d="M186,153c.39-2.34-.51-3-2.94-3.06-10.63-.19-19.49-6.32-29.27-8.93-7.54-2-13.31-7.53-21.34-8.21-6.54-.54-10,4.94-15.41,6-4.93,1-8.82,4.85-14,5a5.21,5.21,0,0,1,3.6-3.71c6-1.89,9.18-7.13,13.4-11.13h2c1,3.31,2.17.7,2.93,0,2.26-2.17,3.77-4.56,7.47-1.07,1.76,1.67,6.8-.14,7.6-2.53,1.71-5.12,3.51-7,9.64-5.22,3.92,1.16,5.47,4.48,3.58,8.55-1.19,2.56.57,3.91,2.2,3.41,3.8-1.16,5.47,2,5.93,3.72,1.46,5.4,5.81,5.15,9.65,6.15,9.82,3.14,18.77,10.55,30.12,6l-.12,5Z"/><path class="cls-3" d="M275,78v8c-3.64-.86-7.61-3.39-10,2l-2,0c-3.07-4-7.37-1.11-11-2-.35-.51-.89-1.49-1-1.44-8.15,3.15-16.59.67-24.86,1.37,0-1.33,0-2.65,0-4,3.71-.43,7.35.5,11.21-.94s9.42-3.07,12.46-1.39c4,2.21,5.37.6,7.1-1.64,2.59-3.33,4.66-8,8.34-1a1.29,1.29,0,0,0,1.19.28C269.48,75.55,272.29,76,275,78Z"/><path class="cls-4" d="M120,129c-4.22,4-7.39,9.24-13.4,11.13a5.21,5.21,0,0,0-3.6,3.71c-5.81,2.21-11.27,5.35-17.49,6.52-.32.06-.35,1.72-.51,2.64H75c.51-2.74-1-2.88-3.25-3.14-2-.22-5,2.16-5.87-1.82,3.65-1,8,2,11.12-2h0c2-.5,4.55-1.34,5.66-2.28,4.13-3.49,11.81-1.55,13.35-8.71,1.95-.36,2,3.05,3.11,2.3,2.91-2,6.64-1.05,9.72-4.19C110.8,131.13,115.5,128.23,120,129Z"/><path class="cls-5" d="M275,103c-9.83.12-19.16.1-28.41-5.55-6.16-3.77-14.8-3.24-22.52-2.33A1.79,1.79,0,0,1,226,93c2.9,1.93,5.28-4.43,8.29-.52,1.19-3.92,3,.45,4.32-.3,5.2-2.9,10.21-5.29,14.07,2,.36.69,2.74,1.08,3.61.59,3.5-2,7.26-.39,9.62.87,3.73,2,6.17.86,9.1-.64Z"/><path class="cls-6" d="M275,95c-2.93,1.5-5.37,2.62-9.1.64-2.36-1.26-6.12-2.86-9.62-.87-.87.49-3.25.1-3.61-.59-3.86-7.29-8.87-4.9-14.07-2-1.35.75-3.13-3.62-4.32.3-3-3.91-5.39,2.45-8.29.52q.07-3.54.14-7.07c8.27-.7,16.71,1.78,24.86-1.37.13,0,.67.93,1,1.44a10.7,10.7,0,0,0,11,2l2,0c3.05,2.06,5.83,5.48,10,2Z"/><path class="cls-7" d="M275,78c-2.71-2-5.52-2.45-8.55-.69a1.29,1.29,0,0,1-1.19-.28c-3.68-7.08-5.75-2.37-8.34,1-1.73,2.24-3.08,3.85-7.1,1.64-3-1.68-8.55-.07-12.46,1.39s-7.5.51-11.21.94l2-4c2.89-1.16,7.49,2.78,8.86-3a25.77,25.77,0,0,0,5.35-.09c3.2-.7,7.13,2.14,9.62-1.94h2c1-.07,2.45.25,2.85-.27,6.24-8,12.22-6.62,18.16.29Z"/><path class="cls-5" d="M19.06,95.06c-5.51,4.66-11,9.4-19.06,7.94V82c3.17-.75,1.57-3.35,2-5.17s-1.38-4.7,1.86-5.78c.07,3.62.13,7.24.2,10.86-.21,2.18-.32,4.28,2.85,4.13L7.08,88l0,5c-.38,2.39.47,5.08,2.63,5.1,2.55,0,4.31-2.53,5.33-5l2,0a1.78,1.78,0,0,0,2,2Z"/><path class="cls-8" d="M175.06,7.15l3.86-.21c1.23,0,2-.47,2-1.77l5-.22A1.77,1.77,0,0,0,188,3.16c1.92-.31,4.78.57,4-3.16h9c0,1,0,1.93,0,2.89a1.82,1.82,0,0,0,2.07,2.05l-.05-.05L203,7a16.73,16.73,0,0,0-11,0c-2,2.62-6.38.55-8,4-4-1.21-7.17,2.09-11,2.07A2,2,0,0,1,171,11l0-1.8,2-.28C174.24,9,175,8.48,175.06,7.15Z"/><path class="cls-9" d="M275,56V67a5.31,5.31,0,0,1-4.09-4.89c-.23-1.87-2.75-4.08-3.19-3.22C265.15,64,258.28,63.87,256,69l-3.89,0L252,67h0c4.86-2.14,6.7-5.91,6-11.06l-.06-2,0,.1,2-.25,0,.4c1.2,3.26,4.43,2.34,5.71,1.43C269.18,53.1,272,54.18,275,56Z"/><path class="cls-10" d="M256,69c2.29-5.14,9.16-5,11.73-10.12.44-.86,3,1.35,3.19,3.22A5.31,5.31,0,0,0,275,67v6c-5.94-6.91-11.92-8.32-18.16-.29-.4.52-1.88.2-2.85.27Z"/><path class="cls-11" d="M275,90c-4.17,3.47-6.95,0-10-2,2.39-5.38,6.36-2.85,10-2Z"/><path class="cls-6" d="M3.88,71.05C.64,72.13,2.51,74.86,2,76.83S3.17,81.25,0,82V60c4.24.71-.21,6.28,3.94,7,.06.63.11,1.27.17,1.91Z"/><path class="cls-12" d="M275,56c-3-1.82-5.82-2.9-9.32-.41-1.28.91-4.51,1.83-5.71-1.43l2.89-.31c1.31.18,2.08-.31,2.07-1.72,3.72,1,6.54-2.26,10.07-2.13Z"/><path class="cls-3" d="M3.94,67c-4.15-.76.3-6.33-3.94-7V52l4,.08Q4,56,4.12,60Z"/><path class="cls-13" d="M81,0c0,1.5,0,3-2.11,3,0-1,.07-2,.11-3Z"/><path class="cls-12" d="M252,67l.09,2c0,1.33-.08,2.66-.11,4h0c-8-.49-16.27,1.31-24.08-1.94-4.32-3.75-.64-8.74-2-12.94,5.47,0,10.95-.2,16.41.07a14.25,14.25,0,0,0,7.84-2.07c0,1.15.45,1.84,1.72,1.68,1.4.16,2-.55,2.12-1.87L254,56l1.85-.11,2.11.07c.72,5.16-1.12,8.93-6,11.07a7.72,7.72,0,0,0-11.72-6.78,3.92,3.92,0,0,0-1.21,2.42c-.11.49.33,1.54.68,1.61C243.85,65.16,247.39,68.54,252,67Z"/><path class="cls-2" d="M225.87,58.11c1.4,4.2-2.28,9.19,2,12.94l.27,3.92c0,1,0,2,0,3l-2,4c0,1.32,0,2.64,0,4q-.06,3.52-.14,7.07a1.79,1.79,0,0,0-1.92,2.12c1,5.22-1.58,9.91-2.24,14.88a26.2,26.2,0,0,0-3.44,2.62,3.66,3.66,0,0,1-4,1.18c-1.95-.64-1.19-2.43-1.39-3.8,0-.66,0-1.33,0-2,5.24,0,2.14-4.6,3.66-6.77,5.13-7.33,5.74-16.3,7-24.65,1.76-11.26-6-22-3.72-33.6V41h1.85c2.56,5.07,2.19,10.55,2.29,16C224.14,57.36,225.27,57.73,225.87,58.11Z"/><path class="cls-14" d="M209.05,12.89c3.26,1.4,4.64,4.68,7,7-2,2.69-3.07,5.39,0,8.11,0,.67,0,1.33,0,2,0,2.34,0,4.68,0,7-5,.75-1.18-5.76-5-6-.94-3.62,2-7.93-2-11,0-1.66-.07-3.32-.1-5C209,14.3,209,13.59,209.05,12.89Z"/><path class="cls-15" d="M209.05,12.89c0,.7-.07,1.41-.1,2.11-1.43.56-2.32-2.82-3.66-.78C203.8,16.48,206.66,18,207,20c-.22,2.74,1.22,6.59-4,6V20q0-6.51,0-13l.06-2.11Q206,8.9,209.05,12.89Z"/><path class="cls-4" d="M216,30c0-.66,0-1.32,0-2,3.53-1.09,1.37-4.07,2-6.11,4.14,1.6,1.17,5.06,1.87,7.56.48,1.69.12,3.62.13,5.44.16,1.57-.74,3.58,1.8,4.11v2H220c-3.17-.8-1.54-3.42-2-5.25S219.36,31,216,30Z"/><path class="cls-16" d="M218,21.89c-.67,2,1.49,5-2,6.11-3-2.72-1.93-5.42,0-8.11C217.4,19.86,218.27,20.33,218,21.89Z"/><path class="cls-2" d="M221.84,39c-2.54-.53-1.64-2.54-1.8-4.11C223.3,35.1,221.68,37.44,221.84,39Z"/><path class="cls-11" d="M262.86,53.85l-2.89.31,0-.4c0-.53,0-1.06,0-1.59h2.94C262.9,52.73,262.88,53.29,262.86,53.85Z"/><path class="cls-17" d="M203.11,4.94A1.82,1.82,0,0,1,201,2.89C202.48,2.82,203.19,3.49,203.11,4.94Z"/><path class="cls-11" d="M255.88,55.87,254,56c-.17-1.44.24-2.28,1.9-1.84C255.91,54.72,255.89,55.29,255.88,55.87Z"/><path class="cls-10" d="M255.88,55.87c0-.58,0-1.15.05-1.73l2-.23.06,2Z"/><path class="cls-5" d="M260,52.17c0,.53,0,1.06,0,1.59L258,54C257.89,52.59,258.23,51.61,260,52.17Z"/><path class="cls-7" d="M251.84,57.79c-1.27.16-1.72-.53-1.72-1.68H252C251.92,56.67,251.88,57.23,251.84,57.79Z"/><path class="cls-18" d="M251.84,57.79c0-.56.08-1.12.11-1.68l2-.19C253.87,57.24,253.24,58,251.84,57.79Z"/><path class="cls-10" d="M262.86,53.85c0-.56,0-1.12.05-1.68l2,0C264.94,53.54,264.17,54,262.86,53.85Z"/><path class="cls-19" d="M201.12,148c-11.35,4.5-20.3-2.91-30.12-6a23.51,23.51,0,0,0-6.52-7.62c-.8-.6-1.18-1.77-1.75-2.68a14.08,14.08,0,0,1,3.2-.64c2.36.06,4.72,2.27,7.89.36.4.14,0-.12-.35-.32-.05,0-.4.35-.38.38.25.36.55.69.83,1,.2-.19.4-.38-.1-1.09.15-3.07,2.55-6.29-3.59-5.18-2.51.45-4-4.73-4.5-6.4-.72-2.24,2.62-8.87-4.77-6.42-.15,0-.63-.92-1-1.41a1.87,1.87,0,0,0-2-2h0a1.87,1.87,0,0,0-2-2h0c-.53-3.4,3.66-4.1,4-7,2.33-1.08,4.67-.17,7,0,.19,1.78,1.7,1.52,2.83,2.1,2.58,1.3,6.38-.75,7.86,1.86,3,5.34,4.82,11.47,7.27,17,3.76,8.46,2.86,9.74,6.56,14.36,3.59,4.46,7.41,3.35,11.48,3.7v2c0,1.38,0,2.75,0,4.13C203.23,147.59,202.58,148.22,201.12,148Z"/><path class="cls-4" d="M203,142v-2c.47-3-.78-6.1,1.07-9.1,3.41-5.55,7.26-11,7-18-.07-1.44.27-2.63,2-2.86.2,1.37-.56,3.16,1.39,3.8a3.66,3.66,0,0,0,4-1.18,26.2,26.2,0,0,1,3.44-2.62c-1.87,7.88,1,16.93-5.76,23.6-1.58,1.56-3.29,3-4.95,4.44C207.22,136.92,206,141.35,203,142Z"/><path class="cls-2" d="M203,142c3-.65,4.22-5.08,8.12-4a20.94,20.94,0,0,1-8.08,8.09Z"/><path class="cls-20" d="M46.87,37c1.21-4.41-2.65-10.4,4.09-13.08,2.06,2.77,2.29,5.94,2,9.23-.16,2.1,0,4.06,2.9,3.93.3,5.69,3.13,11,2.23,16.88L58,58.06l-7-.25c-.59-2,1.46-4.83-2-5.81V48l0-3h2l.85,2.47c.31-.26.85-.49.9-.78C53,45.39,52,45.16,51,45a1.88,1.88,0,0,0-2-2C48.42,40.94,50.51,37.94,46.87,37Z"/><path class="cls-21" d="M51,57.81l7,.25,0,0L57.83,63H21l-.2-4.76L45.13,58Z"/><path class="cls-9" d="M20.84,58.21c.06,1.59.13,3.17.2,4.76,0,.67-.05,1.33-.07,2l-7.9,2L7.15,71l-.22-2c-1.09-3,2.79-7.47-2.81-9Q4,56,4,52.08C4,50,5.36,49.9,6.94,50.25c.48,2.34-1.18,5.3,1.11,6.9.83.58,2.66-1.45,3-3.25C15.36,52.91,16.56,59.05,20.84,58.21Z"/><path class="cls-22" d="M51,57.81,45.13,58c0-6-.11-11.93-.11-17.9,0-1.34-.65-3.21,1.85-3.11,3.64,1,1.55,4,2.14,6,0,.68,0,1.35,0,2,0,1,0,2,0,3q-4.36,2,0,4C52.46,53,50.41,55.85,51,57.81Z"/><path class="cls-23" d="M55.91,37c-2.91.13-3.06-1.83-2.9-3.93.24-3.29,0-6.46-2-9.23,1.13-3.37,4.3-4.37,7-6,0,.73.11,1.47.16,2.21C54.71,24.7,56.33,30,56,35,56,35.67,56,36.36,55.91,37Z"/><path class="cls-17" d="M58.08,20.12c0-.74-.11-1.48-.16-2.21l0,0C60,17.91,60,16.4,60,14.88A11.48,11.48,0,0,1,65.88,9L68,9l.08.06c0,.64,0,1.28,0,1.93l-2,4C63.06,16.25,62.42,21.05,58.08,20.12Z"/><path class="cls-24" d="M77,5c-.18,2.76,1.21,6.56-4,6a1.93,1.93,0,0,0-2-2l0-2.08,0,0c1.2,0,2-.46,2.07-1.77,2,.69,1.84-3,4-2C77,3.78,77,4.4,77,5Z"/><path class="cls-12" d="M11,53.9c-.31,1.8-2.14,3.83-3,3.25-2.29-1.6-.63-4.56-1.11-6.9A4.57,4.57,0,0,1,11,53.9Z"/><path class="cls-13" d="M71,6.91,71,9h0l-3,.06L68,9c0-.6,0-1.21,0-1.81Z"/><path class="cls-23" d="M60,14.88c0,1.52.07,3-2.08,3.06C58.11,16.6,57.51,14.71,60,14.88Z"/><path class="cls-23" d="M68,7.17c0,.6,0,1.21,0,1.81L65.88,9C65.92,7.58,66.3,6.6,68,7.17Z"/><path class="cls-15" d="M73,5.17c-.07,1.31-.87,1.78-2.07,1.77C70.92,5.56,71.32,4.63,73,5.17Z"/><path class="cls-17" d="M77,5c0-.62,0-1.24,0-1.85L79,2.89A1.83,1.83,0,0,1,77,5Z"/><path class="cls-19" d="M77,146c-3.08,4.07-7.47,1.06-11.12,2-2.84-1.16-4.6-3.4-6-6L64,142l2,0c.92,2.53,2.81,5,5.33,3.69,3-1.54-1.09-2.37-1.25-3.78-.25-2.17,1-1.77,2.41-1.44,4.53,1.07,9,1.38,12.53-2.48h0q3.3.3,3-3h8c-1.54,7.16-9.22,5.22-13.35,8.71C81.55,144.66,79,145.5,77,146l-.92-1.5-.58.58Z"/><path class="cls-5" d="M44.94,95.06H19.06L19,95c.74-2.91,3.13-1.9,4.9-1.91C35.23,93,46.6,93,58,93v2l-5,.08Z"/><path class="cls-16" d="M47.16,127c1.12-4-2.52-7.12-2-11,3.24-3,1.27-7.78,3.83-11h2c0,1,0,2,0,3v8c-4,2.27-1.09,6.07-2,9l0,2Z"/><path class="cls-16" d="M64,142l-4.12,0c-3.61-2.36-7.13-4.81-9-9l.12-.14L56,133l6,5Z"/><path class="cls-16" d="M44.94,95.06l8.06,0c-.58,2,1.48,4.9-2,5.92l-.92-1.5-.58.58L51,101a1.87,1.87,0,0,1-2,2l-3.83-2Z"/><path class="cls-19" d="M45.17,101,49,103v2c-2.56,3.22-.59,8-3.83,11Z"/><path class="cls-14" d="M47.16,127H49c2.61.37,1.82,2.43,2,4l-2.09.05,0,.05A1.78,1.78,0,0,0,47.16,129Z"/><path class="cls-16" d="M47.16,129a1.78,1.78,0,0,1,1.78,2.11C47.52,131.1,46.6,130.68,47.16,129Z"/><path class="cls-19" d="M48.9,131.06,51,131h0l0,1.94-.12.14C49.44,133.22,48.81,132.5,48.9,131.06Z"/><path class="cls-23" d="M173,13.05c3.79,0,7-3.28,11-2.07-.14,1.78-1.49,1.71-2.8,2.11-7.35,2.26-8.87,5.5-5.53,12.34A9.08,9.08,0,0,1,177,30c-3.88-1.26-7.88-2.27-12-1.94s-9.91-2.36-11,4.92c-2.68,2.07-5.78,2.24-9,2-3.79-1.59-5.78,5.86-10,2-1.46,0-2.87,0-3-2,2.1-.51,4.78,1.27,6.21-1.17.32-.54-1.4-3.33-2.21-3.35-8-.11-4.84-6.42-6-10.3,3.32,2.42,7.14,1.83,10.87,1.79,1.57-.15,3.59.74,4.12-1.79,2.1-1.34,4.13-2.91,6.89-2.21H154c1.16,1.24-3.16,4.62.09,3.52C160.52,19.29,168.33,19.35,173,13.05Z"/><path class="cls-13" d="M113,13.17c1.49.23,3.84-1.54,4,1.71-3,5.79-2.92,11.91-2,18.12h-6l-.85-2.46c-.31.25-.85.48-.9.77-.2,1.3.78,1.53,1.75,1.69.84,2.72,3.06,4.27,5.23,5.7,1.2.79,3.36.86,2.44,2.86-1,2.22-2.1-.29-3.16-.48a61,61,0,0,1-16.85-5.9c-.87-.44-1.83-.73-2.67-1.21-2.18-1.24-4.42-1.54-3.53,1.77a7.76,7.76,0,0,0,5.6,5.16c1.09.28,2.38-.16,3.46.14,4.69,1.32,10.06,2,9.49,9h-2a2,2,0,0,0-2-2c.12-4-2.89-2.75-5-3l-2,0c-1.6-3.51-6-1.4-8-4l-2,0c-.36-1.38.91-3.63-1.92-3.71-3.52-.1-3.67-.86-2.22-4.22,2.18-5.06,7.58-4.54,11.26-6.94,3.42-2.22,10.28,2.38,11.16-5.46C116.36,25.18,111.89,16.67,113,13.17Z"/><path class="cls-8" d="M113,13.17c-1.11,3.5,3.36,12-6.71,7.49-.88,7.84-7.74,3.24-11.16,5.46-3.68,2.4-9.08,1.88-11.26,6.94-1.45,3.36-1.3,4.12,2.22,4.22,2.83.08,1.56,2.33,1.92,3.71-3.92-.57-10.3,2.58-9-5.93,4-2.28,1-6.09,2-9,4.58,2.23,6.66.88,7.09-4.29.24-2.91-2.2-6.6,1.86-8.73l2,0c3.6,4.08,8.12,1.85,12.11,1.29,1.55-.22,1.2-2.73-1-3.35V8.9C107,8.9,109.69,11.74,113,13.17Z"/><path class="cls-17" d="M115,33c-.88-6.21-.92-12.33,2-18.12,4.1-1.38,5.66,3,8.78,4.13,1.34.48,2.91.43,4.19,1.16,1.15,3.88-2,10.19,6,10.3.81,0,2.53,2.81,2.21,3.35-1.43,2.44-4.11.66-6.21,1.17-.68-2.17-1.45-2.35-1.94,0-.33,1.59-.24,4.15-2.32,3.48C123.35,37.11,119.23,34.88,115,33Z"/><path class="cls-13" d="M173,13.05c-4.71,6.3-12.52,6.24-19,8.44-3.25,1.1,1.07-2.28-.09-3.51,0-.94,0-1.87,0-2.81h2c.21.85-.39,2.24,1.12,2.17.3,0,.54-1.59.81-2.45l-.05.06c1.25,0,2-.46,2.12-1.79L161.9,13c1.24,0,2-.47,2.09-1.79l4.93-.2H171A2,2,0,0,0,173,13.05Z"/><path class="cls-25" d="M145,20.17c-.53,2.53-2.55,1.64-4.12,1.79C141.11,18.74,143.43,20.31,145,20.17Z"/><path class="cls-24" d="M103.1,8.94c-1.41.06-2.86.2-3.11-1.77C101.5,6.94,103.13,6.49,103.1,8.94Z"/><path class="cls-23" d="M157.94,14.89c-.27.86-.51,2.44-.81,2.45-1.51.07-.91-1.32-1.12-2.17Z"/><path class="cls-25" d="M154,15.17c0,.94,0,1.87,0,2.81l-2.07,0C152.33,16.84,151.11,14.47,154,15.17Z"/><path class="cls-23" d="M181,5.17c-.06,1.3-.8,1.81-2,1.77C178.9,5.56,179.27,4.61,181,5.17Z"/><path class="cls-15" d="M188,3.16A1.77,1.77,0,0,1,185.9,5C185.9,3.54,186.33,2.62,188,3.16Z"/><path class="cls-23" d="M171,11h-2.05c0-1.42.39-2.34,2.07-1.79Z"/><path class="cls-14" d="M175.06,7.15C175,8.48,174.24,9,173,8.89,172.82,7.29,173.51,6.71,175.06,7.15Z"/><path class="cls-20" d="M160,13.16c-.08,1.33-.87,1.83-2.12,1.79C157.9,13.52,158.34,12.62,160,13.16Z"/><path class="cls-20" d="M164,11.16c-.07,1.32-.85,1.82-2.09,1.79C161.9,11.53,162.33,10.62,164,11.16Z"/><path class="cls-24" d="M79,35.06c-1.32,8.51,5.06,5.36,9,5.93l2,0c2.64,6.81,4.09,12.88-7,11,.25-2.09,1.82-1.9,3.31-2,1-.08,2.67.57,2.91-.91a4,4,0,0,0-1.47-2.88c-2.65-2.35-5.94-1.21-8.88-1S77.37,48.28,77,50c-3.5-1.7-7-3.33-9-7,3.19-1.09,7-1.2,7.14-6.14C75.21,34.48,77.49,35.16,79,35.06Z"/><path class="cls-8" d="M68,43c1.91,3.71,5.46,5.34,9,7,0,1.33,0,2.66,0,4-2.28-.15-5.74-7.41-6.72,1.24-.15,1.34-3.53,1.26-4.93.4-2-1.22.41-2.1,1-2.94,2.74-4-1.14-2.17-2.31-2.71-.26-3.21,0-6.31,2-9A1.86,1.86,0,0,1,68,43Z"/><path class="cls-24" d="M66,41c-2,2.69-2.26,5.79-2,9Q61.06,52,58.14,53.92C59,48.08,56.21,42.73,55.91,37c.05-.68.09-1.37.13-2C58.15,39,60.43,42.71,66,41Z"/><path class="cls-24" d="M90,13c-4.06,2.13-1.62,5.82-1.86,8.73C87.7,26.91,85.62,28.26,81,26c.82-4.7,4.51-8.78,2.9-14.18C83.79,11.36,88.36,9.66,90,13Z"/><path class="cls-24" d="M103,11c2.25.62,2.6,3.13,1,3.35-4,.56-8.51,2.79-12.11-1.29C95.26,10.17,100,15.38,103,11Z"/><path class="cls-8" d="M71,9a1.93,1.93,0,0,1,2,2c-.37,3.21-3.64,3.93-5.43,5.84S66.4,15.84,66,15l2-4c1.48.06,2.85,0,3-2Z"/><path class="cls-4" d="M173,131c-2.35,2.32-4.71.11-7.07.05a14.08,14.08,0,0,0-3.2.64c.57.91,1,2.08,1.75,2.68A23.51,23.51,0,0,1,171,142c-3.84-1-8.19-.75-9.65-6.15-.46-1.68-2.13-4.88-5.93-3.72-1.63.5-3.39-.85-2.2-3.41,1.89-4.07.34-7.39-3.58-8.55-6.13-1.8-7.93.1-9.64,5.22-.8,2.39-5.84,4.2-7.6,2.53-3.7-3.49-5.21-1.1-7.47,1.07-.76.72-2,3.33-2.93,0-1.09-6.77,7.58-5.44,8.64-10.41,5.29,3.08,6.74-2.27,9.12-4.57,5.19-5,10.25-6.14,16-1.29,1.36,1.15,2,.93,2.26-.73h2c.33.49.81,1.46,1,1.41,7.39-2.45,4,4.18,4.77,6.42.54,1.67,2,6.85,4.5,6.4C176.37,125.12,174,128.34,173,131Z"/><path class="cls-19" d="M158,112c-.3,1.66-.9,1.88-2.26.73C150,107.88,145,109,139.76,114c-2.38,2.3-3.83,7.65-9.12,4.57-1.06,5-9.73,3.64-8.64,10.41h-2c-4.5-.77-9.2,2.13-11.16,4.12-3.08,3.14-6.81,2.18-9.72,4.19-1.07.75-1.16-2.66-3.11-2.3h0c5.9-2.73,8.82-9.8,16.07-10.78,1.8-.24,1-2.94.77-4.43-.32-2.17-1.45-.77-2.45-.33-1.51.67-3.81,1.33-4.41-.29-.67-1.81,1.89-3.85,3-3.87,6.13-.11,9-6.39,14.62-7.2,2-.28,2.45-1.39,2.38-3.09l2,0c2,.28,5.53-.75,2.76,3.48-.85,1.3.85,1.9,1.48,2.72a1.51,1.51,0,0,0,2.53,0c1.55-2,4.47-3,4.23-6.2h2c-.2,3.45,2.52,2.38,4.35,3.14,3.71,1.53,7.12-4.29,10.65-.13h0a1.87,1.87,0,0,0,2,2h0Z"/><path class="cls-11" d="M263,88a10.7,10.7,0,0,1-11-2C255.64,86.86,259.94,84,263,88Z"/><path class="cls-18" d="M228.18,75l-.27-3.92C235.72,74.3,244,72.5,252,73c-2.49,4.08-6.42,1.24-9.62,1.94A25.77,25.77,0,0,1,237,75Z"/><path class="cls-10" d="M228.18,75,237,75c-1.37,5.74-6,1.8-8.86,3C228.16,77,228.17,76,228.18,75Z"/><path class="cls-18" d="M252,73c0-1.33.07-2.66.11-4L256,69l-2,4Z"/><path class="cls-3" d="M6.93,69c.07.67.15,1.33.22,2,0,1.32,0,2.65,0,4,.35,1.5-1.26,3.58,1.41,4.4,5.13,1.57,10.25,1.12,15.54.84,11.26-.6,22.56-.21,33.85-.23l.27,2-.28,4c-12.36-.62-24.8,1.4-37.09-1.12-1.12-.23-1.23.35-1.81.93C15.57,89.2,11.41,89.17,7.08,88L6.93,86c.16-2.14.29-4.26-2.85-4.13C4,78.29,4,74.67,3.88,71.05c.08-.7.15-1.4.23-2.1Z"/><path class="cls-11" d="M7.08,88c4.33,1.19,8.49,1.22,11.92-2.2.58-.58.69-1.16,1.81-.93,12.29,2.52,24.73.5,37.09,1.12.06,1.36.13,2.71.19,4.07L58,90c-9.36,0-18.7-.08-28.07-.8-4.29-.33-10-2-12.9,3.81l-2,0c-2.65-.55-5.32,2.68-8-.05Z"/><path class="cls-6" d="M17,93c2.91-5.8,8.61-4.14,12.9-3.81C39.27,89.9,48.61,90,58,90c0,1,0,2,0,3-11.38,0-22.75,0-34.12,0-1.77,0-4.16-1-4.9,1.91A1.78,1.78,0,0,1,17,93Z"/><path class="cls-6" d="M7.05,93c2.64,2.73,5.31-.5,8,.05-1,2.52-2.78,5.08-5.33,5C7.52,98,6.67,95.35,7.05,93Z"/><path class="cls-6" d="M4.08,81.91c3.14-.13,3,2,2.85,4.13C3.76,86.19,3.87,84.09,4.08,81.91Z"/><path class="cls-17" d="M177,30a9.08,9.08,0,0,0-1.32-4.58c-3.34-6.84-1.82-10.08,5.53-12.34,1.31-.4,2.66-.33,2.8-2.11,1.62-3.43,6-1.36,8-4,.32,2.77,4.1,3.45,4,6.45-.25,5,2.92,6.27,7,6.55,0,2,0,4,0,6h-2c1.11-4.48-3-4.45-5.08-4.75s-5-1.83-6.37.51c-1.48,2.5-.93,5.54.45,8.23Z"/><path class="cls-13" d="M203,20c-4.11-.28-7.28-1.54-7-6.55.14-3-3.64-3.68-4-6.45a16.73,16.73,0,0,1,11,0Q203,13.5,203,20Z"/><path class="cls-7" d="M6.93,69,4.11,69C4.05,68.31,4,67.67,3.94,67L4.12,60C9.72,61.51,5.84,66,6.93,69Z"/><path class="cls-21" d="M252,67c-4.62,1.53-8.16-1.85-12.25-2.75-.35-.07-.79-1.12-.68-1.61a3.92,3.92,0,0,1,1.21-2.42A7.72,7.72,0,0,1,252,67Z"/><path class="cls-16" d="M213,110c-1.71.23-2.05,1.42-2,2.86.31,7-3.54,12.49-7,18-1.85,3-.6,6.09-1.07,9.1-4.07-.35-7.89.76-11.48-3.7-3.7-4.62-2.8-5.9-6.56-14.36-2.45-5.51-4.24-11.64-7.27-17-1.48-2.61-5.28-.56-7.86-1.86-1.13-.58-2.64-.32-2.83-2.1h2c2.16,0,4.32,0,6.47,0,7.72-.16,14.49,1.6,18.52,9l-1.5.92.58.58L194,110c2.92,3.09,12.29,2.9,5.4,11-1.14,1.35,1.31,2.89,2.63,3.57,1.62.85,2.45-.12,3-2,1.64-5.17,3.64-10.23,5.51-15.33.57-1.54-.2-2.12-1.57-2.33v-2c3.16-.83,1.51-3.45,2-5.29,1.36-5.06-.65-11.85,7-13.72-.37,3.06-.53,6.16-1.16,9.16-1,5-5.31,9.18-3.82,14.85C213,108.67,213,109.34,213,110Z"/><path class="cls-19" d="M213,108c-1.49-5.67,2.78-9.85,3.82-14.85.63-3,.79-6.1,1.16-9.16,2.13-3.38,5.3-6.37,4-11-.57-3.64-1.26-7.23-4-10,0-1.45,0-2.86-2-3,0-2.33,0-4.65,0-7,.12-3.82,1.07-7.31,4-10-2.27,11.65,5.48,22.34,3.72,33.6-1.3,8.35-1.91,17.32-7,24.65C215.15,103.41,218.25,108,213,108Z"/><path class="cls-16" d="M220,43c-2.92,2.7-3.87,6.19-4,10-3.4-2.19-6.57-5.24-2.79-8.78,2.51-2.35,2.86-4.42,2.78-7.21,0-2.34,0-4.68,0-7,3.35,1,1.5,3.78,2,5.76s-1.18,4.45,2,5.25Z"/><path class="cls-26" d="M209.05,20c4,3.08,1,7.39,2,11,1.56,5.95-5,10.92-2.05,17l-2,0c0-1.44,0-2.91-2-3h-4a8.59,8.59,0,0,1-7-2,1.85,1.85,0,0,0-2-2c.32-6.31-4.54-3.19-7.25-4s-7.94,2.71-7.76-4c4.51,3.85,9.44.14,14,.84,3.85.59,4.7-.78,5-3.83h3a4.45,4.45,0,0,0,3.53,4.74c2.52.69,2.28-1.56,2.62-3.13.08-.38,1.07-1,1.22-.87,4.4,3.17,2.43-1.4,2.52-2.33A79,79,0,0,0,209,20Z"/><path class="cls-27" d="M209,48c-2.93-6.11,3.61-11.08,2.05-17,3.78.26,0,6.77,5,6,.08,2.79-.27,4.86-2.78,7.21-3.78,3.54-.61,6.59,2.79,8.78,0,2.33,0,4.65,0,7,0,1,0,2,0,3-2.8.87-2.71-3-5-3C210.9,55.9,211.75,51.65,209,48Z"/><path class="cls-28" d="M207,20c-.35-2-3.21-3.53-1.72-5.79,1.34-2,2.23,1.34,3.66.78,0,1.66.06,3.32.1,5H209Z"/><path class="cls-23" d="M207,20l2,0a79,79,0,0,1-.09,8.43c-.09.93,1.88,5.5-2.52,2.33-.15-.1-1.14.49-1.22.87-.34,1.57-.1,3.82-2.62,3.13A4.45,4.45,0,0,1,199,30a1.88,1.88,0,0,1,2-2l.92,1.5.58-.58L201,28V26h2C208.23,26.6,206.79,22.75,207,20Z"/><path class="cls-29" d="M169,101h-2c-2.33-.17-4.67-1.08-7,0-3.5,0-7,0-10.49,0s-7.18-.53-8.51,4h-2a9.69,9.69,0,0,1-4.51-1.25c-2.11-1-5-2.28-6.49,1.24l-2,0-2,0a37.62,37.62,0,0,0,2-12c1.85-3.74,7-1.59,9-5,3.65-3.07,7.91-5.63,12.51-3.67C151.4,86,154.54,85,158,84c.62.91,1.53,2.7,1.82,2.61,10.38-3.38,8.65,4.26,9.12,9.89,0,.17.06.33.08.49C165.06,98.32,170.14,99.66,169,101Z"/><path class="cls-16" d="M141,105c1.33-4.53,5-4,8.51-4s7,0,10.49,0c-.34,2.9-4.53,3.6-4,7-3.53-4.16-6.94,1.66-10.65.13C143.52,107.37,140.8,108.44,141,105Z"/><path class="cls-16" d="M158,110a1.87,1.87,0,0,1-2-2A1.87,1.87,0,0,1,158,110Z"/><path class="cls-4" d="M174.63,131.83l-.71.67c-.28-.34-.58-.67-.83-1,0,0,.33-.41.38-.38A11.13,11.13,0,0,1,174.63,131.83Z"/><path class="cls-16" d="M158,112v-2a1.87,1.87,0,0,1,2,2Z"/><path class="cls-13" d="M58.14,53.92Q61.07,52,64,50c1.17.54,5-1.3,2.31,2.71-.58.84-3,1.72-1,2.94,1.4.86,4.78.94,4.93-.4,1-8.65,4.44-1.39,6.72-1.24L77,56l0,4c-6.43,0-12.89.33-19.09-2l0,0C58,56.68,58.08,55.3,58.14,53.92Z"/><path class="cls-25" d="M49,52q-4.36-2,0-4Z"/><path class="cls-25" d="M51,45c1,.16,2,.39,1.75,1.69,0,.29-.59.52-.9.78L51,45Z"/><path class="cls-25" d="M49,45c0-.67,0-1.34,0-2a1.88,1.88,0,0,1,2,2H49Z"/><path class="cls-15" d="M57.92,58c6.2,2.28,12.66,2,19.09,2H90c2.5,5.31,2.79,9-5,7v0c-3.42-5.62-6.65,1-10.17.25C72.65,66.79,73.17,69.48,73,71c-.31,2.32-2.59,2.73-3.94,4C67.35,76.7,67,78.44,68,80l3,4c-7.5,1.56-7.57-3.15-7-8.33.4-3.57-.49-5-4-2.68a1.81,1.81,0,0,0-1.86-2l-.34-4.07V63Z"/><path class="cls-12" d="M57.83,63c0,1.32,0,2.64,0,4-10.81,0-21.62-1.53-32.45,0-1.64.23-3.85.75-4.4-1.94,0-.67.05-1.33.07-2Z"/><path class="cls-18" d="M21,65c.55,2.69,2.76,2.17,4.4,1.94,10.83-1.5,21.64,0,32.45,0,.12,1.35.23,2.71.34,4.07l-.3,2c-1.65-.1-2.16,2.1-4.33,1.64C42.81,72.33,32,71.28,21,73a1.86,1.86,0,0,0-2-2c-2.67-.29-6.62,1.32-5.92-4Z"/><path class="cls-10" d="M13.07,67c-.7,5.3,3.25,3.69,5.92,4,.2,1.68-1.81,2.36-1.55,4.44.35,2.87-2.65,3.47-3.8,1.73C11.77,74.33,9.39,75.29,7.11,75c0-1.32,0-2.65,0-4Z"/><path class="cls-1" d="M71,9c-.12,2-1.49,2-3,2,0-.65,0-1.29,0-1.93Z"/><path class="cls-16" d="M124,105l2,0c.07,1.7-.42,2.81-2.38,3.09-5.59.81-8.49,7.09-14.62,7.2-1.14,0-3.7,2.06-3,3.87.6,1.62,2.9,1,4.41.29,1-.44,2.13-1.84,2.45.33.22,1.49,1,4.19-.77,4.43-7.25,1-10.17,8.05-16.07,10.78H88c1.84-2,4.07-3.49,1-6.86-.92-1-1.68-6.73,3-8.15,7.37.35,4.26-4.54,4-8h0c3.43.5,4.16-1,3-4,4.73,0,9.45-.05,14.18,0,2.16,0,4-.15,3.82-3Z"/><path class="cls-14" d="M92,120c-4.66,1.42-3.9,7.14-3,8.15,3.06,3.37.83,4.84-1,6.86h0q-3.3-.3-3,3h0c-6.27.25-12.06-3.28-18-1.63-4.44,1,3,3.88-1,5.64l-2,0-2-4c3.93-3-2.18-6,0-9v-2c-.21-7.31,4.52.15,6-2-.6,4.17,2.13,4.18,5,4,.71,3.61,4.27,3.68,6.62,5.23.14.09,1-.57,1.24-1,2.3-4.74,2.22-10.56,6.78-14.34.64-.54.62-2.85,0-3.74-3.87-5.77,3.82-5.32,4.81-8.8.75-2.64,1.45,2.79,3.53,1.67v4h0C89.77,112.22,92.73,117,92,120Z"/><path class="cls-16" d="M66,142c4-1.76-3.44-4.61,1-5.64,6-1.65,11.75,1.88,18,1.63-3.58,3.86-8,3.55-12.53,2.48-1.4-.33-2.66-.73-2.41,1.44.16,1.41,4.24,2.24,1.25,3.78C68.8,147,66.91,144.55,66,142Z"/><path class="cls-29" d="M85,138q-.3-3.3,3-3Q88.3,138.3,85,138Z"/><path class="cls-4" d="M77,146l-1.5-.92.58-.58L77,146Z"/><path class="cls-29" d="M49,105v-2a1.87,1.87,0,0,0,2-2h0c3.48-1,1.42-3.92,2-5.92L58,95c0,.65,0,1.31,0,2-3.42,1.09-1.42,4-2,6-2.17-.59-3.09,1.91-5,2Z"/><path class="cls-23" d="M58,97c0-.66,0-1.32,0-2V93c0-1,0-2,0-3l.12.05L60,90h0l0,7,0,4-2,.06Z"/><path class="cls-20" d="M60,101c0-1.33,0-2.67,0-4,2.35.17,4-.17,4-3.26S62.78,89.69,60,90h0C63,86,67.36,88.88,71,88q0,6.5,0,13c.84,3.55-2.24,5.43-4.14,6.54-5.06,3-3.15,5.93-1,9.26.69,1.09,1.45,2.14,2.18,3.21v5l0,0c-1.5,2.16-6.23-5.3-6,2l-4-2V112.71l-2,.08V118c-2.37-.14-3.08,1.12-3,3.3.09,3.23,0,6.47,0,9.71H51c-.16-1.58.63-3.64-2-4l0-2c4-2.29,1.05-6.08,2-9,0-2.66,0-5.32,0-8,2.8,0,5.61,0,8.41-.05s3.85-2.69,4.29-4.62C64.36,100.51,61.65,101.18,60,101Z"/><path class="cls-14" d="M60,101c1.67.19,4.38-.48,3.73,2.35-.44,1.93-1.39,4.53-4.29,4.62s-5.61,0-8.41.05c0-1,0-2,0-3,1.88-.1,2.8-2.6,5-2,.33.5.84,1.47,1,1.42,1.72-.63.79-2.19,1.07-3.36Z"/><path class="cls-14" d="M51,116c-.91,3,2,6.74-2,9C49.91,122.07,47,118.27,51,116Z"/><path class="cls-20" d="M62,129c-2.16,3,4,6,0,9l-6-5h0Z"/><path class="cls-14" d="M51,131h2c1.45,0,2.86.05,3,2h0l-4.94-.06C51,132.29,51,131.65,51,131Z"/><path class="cls-29" d="M51,101l-1.5-.92.58-.58L51,101Z"/><path class="cls-22" d="M135,37c4.24,3.87,6.23-3.58,10-2-1.44,2.84-3.25,5.61-6.64,5.87-3.05.24-3.11,1.79-3.45,4.17-1.38,9.4,5.34,6.6,10,6.92.34,2,2.11,2.69,3.16,1.55,1.84-2,7.11-.42,5.88-5.52l4,2c4,3.94,6.81,2.36,9-2l8,2a7.63,7.63,0,0,1-.94,1.63c-1.18,1.19-4.46-.84-4.12,1.75.25,1.89,2.39,3.7,5.32,3.1,2.49-.51,3.34,1.42,3.73,3.51-3.52-1.28-4.48,4.28-8,3-.17-1.46,0-3.08-.57-4.35-1.51-3.26-4.59-4.38-6.43-2.65-2.07.07-2.95,1.69-4.16,3-1.6,1.76-2.38,4.9-5.85,3.95-1-1.53,4.49-5.62-2-5-1.47,0-2.88,0-3,2h-4c-2.88-2.93-7.09.79-10-2-2,0-4.19-.61-5.81.12-3.14,1.43-7.83.13-9.19,4.87h-3c-.26-7.86,3-11.4,9.2-9.71,1.85.51,3.31,1.13,3.69-1.33.28-1.79.45-3.84-2.35-3.94-2.12-.08-3.77-1-3.34-3.27a4.38,4.38,0,0,1,4.13-3.69C131.27,40.82,133.63,39.76,135,37Z"/><path class="cls-15" d="M135,37c-1.36,2.76-3.72,3.82-6.66,4.06a4.38,4.38,0,0,0-4.13,3.69c-.43,2.31,1.22,3.19,3.34,3.27,2.8.1,2.63,2.15,2.35,3.94-.38,2.46-1.84,1.84-3.69,1.33C120,51.6,116.74,55.14,117,63h0l-4,0-2,0c.62-3.48-2.14-8.08,3.89-10L109,50h0c.57-6.93-4.8-7.63-9.49-9-1.08-.3-2.37.14-3.46-.14a7.76,7.76,0,0,1-5.6-5.16c-.89-3.31,1.35-3,3.53-1.77.84.48,1.8.77,2.67,1.21a61,61,0,0,0,16.85,5.9c1.06.19,2.14,2.7,3.16.48.92-2-1.24-2.07-2.44-2.86-2.17-1.43-4.39-3-5.23-5.7h6c4.23,1.88,8.35,4.11,12.74,5.5,2.08.67,2-1.89,2.32-3.48.49-2.38,1.26-2.2,1.94,0C132.12,37,133.53,37,135,37Z"/><path class="cls-20" d="M158,50l-4-2c-3.64-.11-6.79.92-9,4-4.7-.32-11.42,2.48-10-6.92.34-2.38.4-3.93,3.45-4.17,3.39-.26,5.2-3,6.64-5.87,3.2.22,6.3.05,9-2,3.5-1.75,6.59-2,9.22,1.71.47.66,2.49.23,3.8.31-.83,2.39-3.09,3-5,4l-.92-1.5-.58.58L162,39c-.85,1.93-1.44,4.17-4.46,2.78-1.42-.65-2,.85-2.68,1.63-.15.16.43,1.4.6,1.38C158,44.54,157.76,48,160,48A1.88,1.88,0,0,1,158,50Z"/><path class="cls-25" d="M167,35c-1.31-.08-3.33.35-3.8-.31C160.58,31,157.49,31.24,154,33c1.14-7.28,6.88-4.59,11-4.92s8.07.68,12,1.94h0c0,1,0,2,0,3-.18,6.69,4.95,3.11,7.76,4s7.57-2.28,7.25,4v2c-2.11,4.09-5.81,1.33-8.72,1.93-2,.42-4.49-.27-4.28,3.08h0a1.86,1.86,0,0,0-2,2h-2l-8-2-5,0c-.15-2.49,1.27-3.07,3.45-3,3,.09,6,.08,8.95,0,2.15-.08,4.7-2.18,3.48-3.26C174.73,39,172.68,33.76,167,35Zm7.61-1.28c-.29-.12-.62-.37-.81-.3s-.25.49-.36.76c.26.11.58.38.77.3S174.49,34,174.62,33.73Z"/><path class="cls-8" d="M90,60H77c0-1.35,0-2.69,0-4,2.78-.14,6.54,1.2,6-4,11.07,1.91,9.62-4.16,7-11,2,2.61,6.43.5,8,4a33.13,33.13,0,0,0,.06,4.46c.63,4.27,3.43,7.72,7.35,7.43,3.2-.24.89-4.55,1.61-6.93h2c.65,5-1.57,9.55-2.44,14.3-.91,5-3.92,2.08-5.84,2.59-2.48.66-6.54-.47-5.81-2.72C97.11,57.37,92,60.89,90,60Z"/><path class="cls-1" d="M107,50c-.72,2.38,1.59,6.69-1.61,6.93-3.92.29-6.72-3.16-7.35-7.43A33.13,33.13,0,0,1,98,45l2,0c-.11,4,2.9,2.75,5,3A2,2,0,0,1,107,50Z"/><path class="cls-8" d="M105,48c-2.13-.22-5.14,1-5-3C102.12,45.23,105.13,44,105,48Z"/><path class="cls-15" d="M109,33c-1-.16-2-.39-1.75-1.69,0-.29.59-.52.9-.77L109,33Z"/><path class="cls-1" d="M83,52c.57,5.17-3.19,3.83-6,4L77,54c0-1.33,0-2.66,0-4,.39-1.74-1-4.58,1.89-4.81s6.23-1.38,8.88,1a4,4,0,0,1,1.47,2.88c-.24,1.48-1.86.83-2.91.91C84.82,50.09,83.25,49.9,83,52Z"/><path class="cls-16" d="M128,105c1.54-3.52,4.38-2.25,6.49-1.24A9.69,9.69,0,0,0,139,105c.24,3.19-2.68,4.24-4.23,6.2a1.51,1.51,0,0,1-2.53,0c-.63-.82-2.33-1.42-1.48-2.72C133.53,104.24,130,105.27,128,105Z"/><path class="cls-7" d="M7.11,75c2.28.34,4.66-.62,6.53,2.22,1.15,1.74,4.15,1.14,3.8-1.73C17.18,73.36,19.19,72.68,19,71a1.86,1.86,0,0,1,2,2c-.64,3.9.9,5.21,4.91,5.11,10.63-.26,21.28-.1,31.92-.11l0,2c-11.29,0-22.59-.37-33.85.23-5.29.28-10.41.73-15.54-.84C5.85,78.53,7.46,76.45,7.11,75Z"/><path class="cls-26" d="M71,88c-3.64.88-8-2-11,2l-1.88,0C58,88.68,58,87.33,57.9,86c.1-1.33.19-2.66.28-4,3.78-2.35.92-6.06,1.84-9,3.5-2.32,4.39-.89,4,2.68-.57,5.18-.5,9.89,7,8.33h0Z"/><path class="cls-27" d="M60,73c-.92,2.94,1.94,6.65-1.84,9l-.27-2c0-.66,0-1.33,0-2V73l.3-2A1.81,1.81,0,0,1,60,73Z"/><path class="cls-15" d="M201,28a1.88,1.88,0,0,0-2,2h-9c-1.38-2.69-1.93-5.73-.45-8.23,1.38-2.34,4.44-.78,6.37-.51s6.19.27,5.08,4.75v2Z"/><path class="cls-23" d="M190,30h6c-.31,3.05-1.16,4.42-5,3.83-4.56-.7-9.49,3-14-.84,0-1,0-2,0-3Z"/><path class="cls-14" d="M169,101c1.13-1.33-3.95-2.67,0-4,5.66,6,7.19-3.66,11.24-2.94-.42-1.36-.83-2.71-1.25-4h2c7.29-2.58,10.12,4.42,15,7-.76,4.18,1,6.78,5,8-1,3.85,1.64,5.5,4.48,6.14,2.52.57,1-2,1.51-3.15,0-1,0-2,0-3h2c1.37.21,2.14.79,1.57,2.33-1.87,5.1-3.87,10.16-5.51,15.33-.59,1.84-1.42,2.81-3,2-1.32-.68-3.77-2.22-2.63-3.57,6.89-8.15-2.48-8-5.4-11h0c-4-7.41-10.8-9.17-18.52-9C173.33,101,171.17,101,169,101Z"/><path class="cls-14" d="M216,63c0-1,0-2,0-3,1.95.16,2,1.57,2,3,.28,3.76-1.39,8.29,4,10,1.3,4.62-1.87,7.61-4,11-7.63,1.87-5.62,8.66-7,13.72-.49,1.84,1.16,4.46-2,5.29-.8-3.07,2.5-8.33-4.41-8.17-1,0-1.07-.74-.66-1.76,1.44-3.63-.07-4.55-3.55-3.76-1.52.35-3-.54-4.7-.54-3.35,0-1.63-3-.55-4.8,1.32-2.19,3.58-2.27,5.74-1.86a6.37,6.37,0,0,1,2.87,1.71c3.95,3.62,7,3,9.26-1.82,5.18-.65,5.78-4.17,4.5-8.12-.52-1.61-1.7-3-1.52-4.89V67C216,65.68,216,64.35,216,63Z"/><path class="cls-27" d="M213,82c-2.27,4.81-5.31,5.44-9.26,1.82a6.37,6.37,0,0,0-2.87-1.71c-2.16-.41-4.42-.33-5.74,1.86-1.08,1.78-2.8,4.8.55,4.8,1.66,0,3.18.89,4.7.54,3.48-.79,5,.13,3.55,3.76-.41,1-.35,1.78.66,1.76,6.91-.16,3.61,5.1,4.41,8.17v2h-2c-.72-2.37.63-7.59-1.36-6.79-4.05,1.63-6.5-1-9.65-1.22-4.88-2.58-7.71-9.58-15-7,.19-1.06.79-2.18,1.87-1.88,7.27,2.08,8.72-3.64,11.13-8.12C200.47,79.42,206.71,81,213,82Z"/><path class="cls-14" d="M194,110l-.92,1.5-.58-.58L194,110Z"/><path class="cls-16" d="M222,73c-5.38-1.72-3.71-6.25-4-10C220.73,65.78,221.42,69.37,222,73Z"/><path class="cls-15" d="M209,48c2.77,3.63,1.92,7.88,2,12v5c.93,4.16-2.24,2.82-4.16,3.06-3,.39-1.71-2-1.8-3.2C204.86,61.91,205,59,205,56l0,0c3.26,0,5.42-.48,2.75-4.34-.65-.94-.52-2.42-.76-3.65Z"/><path class="cls-22" d="M179,48c-.21-3.35,2.23-2.66,4.28-3.08,2.91-.6,6.61,2.16,8.72-1.93h2a8.59,8.59,0,0,0,7,2v3C193.67,46.35,186.34,48.42,179,48Z"/><path class="cls-15" d="M201,48V45h4c0,3.66,0,7.33,0,11l0,0-4-2C199.54,52,204.15,50,201,48Z"/><path class="cls-13" d="M205,56c0-3.66,0-7.33,0-11,2,.09,2,1.56,2,3,.24,1.23.11,2.71.76,3.65C210.43,55.51,208.27,56,205,56Z"/><path class="cls-23" d="M194,43h-2V41A1.85,1.85,0,0,1,194,43Z"/><path class="cls-25" d="M211,65V60c2.25,0,2.16,3.9,5,3,0,1.33,0,2.66,0,4C213.82,67.6,212.89,65.13,211,65Z"/><path class="cls-15" d="M201,28l1.5.92-.58.58L201,28Z"/><path class="cls-27" d="M124,105l-7,0-2,0c1.13-6.25-3-10.37-6-15-.47-6.39,1.66-8.77,8.49-6.86A8.1,8.1,0,0,0,126,80c5.52,4.44,7-6.18,12.92-3.31,2.43,1.18,6.8-1.77,8.07,3.3l-1.5.92.58.58L147,80c1.94.62,3.7,3,5.93.58,1.3,1.72,6.15-1.82,5.07,3.42h0c-3.45,1-6.59,2-10.48.32-4.6-2-8.86.6-12.51,3.67-3-.41-6.09.63-9.16-.93-2.54-1.29-3.3,2-4.91,3.07-1.19.82-.71,1.77.07,2.91,1.83,2.69,3.36.11,5,0A37.62,37.62,0,0,1,124,105Z"/><path class="cls-27" d="M179,90c.42,1.34.83,2.69,1.25,4C176.2,93.34,174.67,103,169,97c0-.16-.06-.32-.08-.49-.47-5.63,1.26-13.27-9.12-9.89-.29.09-1.2-1.7-1.82-2.61h0c2.47,0,4.93,0,7.39,0C170.74,84.14,175.08,86.6,179,90Z"/><path class="cls-14" d="M126,93c-1.65.16-3.18,2.74-5,0-.78-1.14-1.26-2.09-.07-2.91,1.61-1.11,2.37-4.36,4.91-3.07,3.07,1.56,6.13.52,9.16.93C133,91.41,127.86,89.26,126,93Z"/><path class="cls-17" d="M90,60c2,.89,7.11-2.63,4.93,4.16-.73,2.25,3.33,3.38,5.81,2.72,1.92-.51,4.93,2.39,5.84-2.59.87-4.75,3.09-9.25,2.44-14.3l5.88,3c-6,1.88-3.27,6.48-3.89,10h0c-1.86,5.08-6,6.3-10.85,7.08-1.65.27-2.87.9-4.43-.19-1.37-1-2.11.52-2.77,1.28C91.89,72.41,93,72.79,94,73c-1.54,3.06-4.43,5.71-2.13,9.77A2.16,2.16,0,0,1,90,86c-.28-2.12-2.8-2.55-3.2-1.8-2.64,5-6.66.82-9.8,1.82-2.46.72-4-1.48-6-2h0l-3-4c6.09-2.24,14.11,1.38,18.4-6.78C88.1,70,82.79,69.58,85,67,92.79,69,92.5,65.31,90,60ZM83,82c.67-.25,2.08-.75,1.22-1.28C82.39,79.58,80.08,78.9,79,82,80.32,84.92,81.66,84.9,83,82Z"/><path class="cls-8" d="M85,67c-2.21,2.56,3.1,3,1.4,6.21C82.11,81.39,74.09,77.77,68,80c-1-1.57-.65-3.31,1.06-5,1.35-1.31,3.63-1.72,3.94-4,5.25,2.43,7.66-3.66,12-4Z"/><path class="cls-17" d="M85,67c-4.33.34-6.74,6.43-12,4,.17-1.52-.35-4.21,1.82-3.75C78.34,68,81.57,61.38,85,67Z"/><path class="cls-10" d="M57.86,73v5c-10.64,0-21.29-.15-31.92.11-4,.1-5.55-1.21-4.91-5.11,11-1.69,21.78-.64,32.5,1.65C55.7,75.08,56.21,72.88,57.86,73Z"/><path class="cls-14" d="M115,105l2,0c.18,2.86-1.66,3-3.82,3-4.73-.06-9.45,0-14.18,0H96v0c-.2-2.87,1.66-3,3.82-3C104.88,105,109.94,105,115,105Z"/><path class="cls-29" d="M92,120c.73-3-2.23-7.78,4-8C96.26,115.46,99.37,120.35,92,120Z"/><path class="cls-29" d="M96,108h3c1.15,2.95.42,4.49-3,4C96,110.67,96,109.34,96,108Z"/><path class="cls-20" d="M115,105c-5.06,0-10.12.05-15.18,0-2.16,0-4,.14-3.82,3-2.08,1.12-2.78-4.31-3.53-1.67-1,3.48-8.68,3-4.81,8.8.6.89.62,3.2,0,3.74-4.56,3.78-4.48,9.6-6.78,14.34-.23.46-1.1,1.12-1.24,1-2.35-1.55-5.91-1.62-6.62-5.23l0,0c2.22-1.94,3-4.91,6.49-6.31,1.74-.7,4.87-6.5,1.49-10.67.37-7,4.08-10.6,11-11h6c4.87-1.31,9.4,2.21,14.49,1.25-5.27-1.81-3-6-3.48-9.24V90C112,94.62,116.13,98.74,115,105Z"/><path class="cls-22" d="M56,133c-.18-1.94-1.59-2-3-2,0-3.24.07-6.48,0-9.71-.07-2.18.64-3.44,3-3.3.72,2.32-1.7,5.55,2,7l4,2v2Z"/><path class="cls-20" d="M73,129c-2.88.19-5.61.18-5-4l0,0h3c2.6.36,1.84,2.41,2,4Z"/><path class="cls-25" d="M58,101.05c-.28,1.17.65,2.73-1.07,3.36-.13,0-.64-.92-1-1.42.58-2-1.42-4.93,2-6C58,98.33,58,99.69,58,101.05Z"/><path class="cls-27" d="M60,90c2.78-.31,4.12.61,4.07,3.73s-1.7,3.43-4,3.26Q60,93.5,60,90Z"/><path class="cls-23" d="M92,101c-6.93.42-10.64,4-11,11a31.8,31.8,0,0,0-1.92,4.32c-.42,1.46.28,3.66-2.24,3.49S75.22,117.47,75,116a4.7,4.7,0,0,0,0-6c4.34-5.51.47-7.4-4-9q0-6.49,0-13V84c2,.52,3.54,2.72,6,2,0,1.33,0,2.67,0,4,0,1,0,2,0,3-.35,1.69-2.57,3.34.06,5.07,1.46,1,2.26,3.18,4.44,2.68S82.81,98.4,83,97l0-4C86.52,95.08,94.09,92.6,92,101Z"/><path class="cls-26" d="M75,116c.22,1.47-.63,3.64,1.84,3.81s1.82-2,2.24-3.49A31.8,31.8,0,0,1,81,112c3.38,4.17.25,10-1.49,10.67C76,124.07,75.24,127,73,129c-.18-1.58.58-3.63-2-4-.25-2.11,1-5.15-3-5-.73-1.07-1.49-2.12-2.18-3.21-2.1-3.33-4-6.3,1-9.26,1.9-1.11,5-3,4.14-6.54,4.45,1.63,8.32,3.52,4,9-2.47-1.72-4.64-1.5-6.61,1.2Z"/><path class="cls-15" d="M58,125c-3.72-1.46-1.3-4.69-2-7v-5.2l2-.08Z"/><path class="cls-25" d="M68,120c4-.16,2.74,2.88,3,5H68Z"/><path class="cls-20" d="M179,90c-3.92-3.41-8.26-5.87-13.61-6-2.46-.06-4.92,0-7.39,0,1.08-5.24-3.77-1.7-5.07-3.42-2.23,2.44-4,0-5.93-.58h0c-1.27-5.07-5.64-2.12-8.07-3.3-5.87-2.87-7.4,7.75-12.92,3.3-1.37-5.49,4.76-6.91,6-11h3c1.45,3.76,4.05,5.17,7.68,3.18a2.16,2.16,0,0,1,3.28.88c3.29,5.33,6.22,4.69,9.3-.19.54-.86,1.8-1.26,2.73-1.87a1.87,1.87,0,0,0,2,2c-2.94,3.22-1.3,5.69,1.6,7.42s5.68-1.1,8.62-.9c-.4-1-.76-2-1.23-3a4.62,4.62,0,0,0-.92-1c-4.73,5.64-4.83-3.43-8.07-2.54a1.87,1.87,0,0,0-2-2c-3.76-4.42-8.43-2.89-13-2,.35-2.31,1.1-4.23,4-4,1.46,0,2.88,0,3-2l2,0c3.47,1,4.25-2.19,5.85-3.95,1.21-1.33,2.09-3,4.16-3l7,7c3.55,3.86,9.59-.34,13,4,1.43,6.08,6.39,3.35,10,4v9c-2.41,4.48-3.86,10.2-11.13,8.12-1.08-.3-1.68.82-1.87,1.88Zm8.63-4.73c-.13-.29-.18-.7-.37-.78s-.51.17-.78.27c.1.27.14.68.33.76S187.33,85.38,187.63,85.28Z"/><path class="cls-23" d="M201,48c3.14,2-1.47,4,0,6-2,2-5.68.9-7,4-.7-.36-1.45-.67-2.12-1.1-2.27-1.5-4.66-1.12-7-.35a2.26,2.26,0,0,0-.54,2.08c1.34,2.45,3.78,1,5.73,1.34A25.63,25.63,0,0,0,194,60c.21,2.74.47,5.14-3.83,4-1.84-.48-4.31-.59-6.15,1a13,13,0,0,0-5-5c-.39-2.09-1.24-4-3.73-3.51-2.93.6-5.07-1.21-5.32-3.1-.34-2.59,2.94-.56,4.12-1.75A7.63,7.63,0,0,0,175,50h2c.33.49.85,1.45,1,1.4,1.69-.67.76-2.23,1-3.4h0C186.34,48.42,193.67,46.35,201,48Z"/><path class="cls-27" d="M135,69h-9l-4,0-2,0V63c1.36-4.74,6-3.44,9.19-4.87C130.81,57.4,133,58,135,58c.27,2-1,5.28,2.78,4.85,2.5-.29,6.62,2.51,7.22-2.85h4c0,1.67,0,3.33,0,5-2.9-.23-3.65,1.69-4,4Z"/><path class="cls-25" d="M179,60a13,13,0,0,1,5,5c0,.67,0,1.34,0,2-3.41-4.34-9.45-.14-13-4C174.52,64.28,175.48,58.72,179,60Z"/><path class="cls-20" d="M145,60c-.6,5.36-4.72,2.56-7.22,2.85C134,63.29,135.27,60,135,58,137.91,60.8,142.12,57.08,145,60Z"/><path class="cls-15" d="M145,52c2.25-3,5.4-4.08,9-4,1.23,5.1-4,3.52-5.88,5.52C147.07,54.66,145.3,54,145,52Z"/><path class="cls-25" d="M171,63l-7-7c1.84-1.73,4.92-.61,6.43,2.65C171,59.92,170.83,61.54,171,63Z"/><path class="cls-23" d="M162,48l5,0c-2.2,4.35-5,5.93-9,2a1.88,1.88,0,0,0,2-2Z"/><path class="cls-25" d="M149,65c0-1.67,0-3.33,0-5,.15-2,1.56-2,3-2,0,1.66,0,3.32,0,5C151.88,65,150.46,65,149,65Z"/><path class="cls-20" d="M120,63q0,3,0,6h-3l0-6h3Z"/><path class="cls-28" d="M152,63c0-1.66,0-3.32,0-5,6.46-.66,1,3.43,2,5Z"/><path class="cls-22" d="M117,63c0,2,0,4,0,6a5.14,5.14,0,0,1-6-4,1.88,1.88,0,0,0,2-2Z"/><path class="cls-23" d="M113,63a1.88,1.88,0,0,1-2,2c0-.67,0-1.34,0-2h0Z"/><path class="cls-27" d="M162,48l-2,0c-2.25,0-2.06-3.46-4.55-3.21-.17,0-.75-1.22-.6-1.38.72-.78,1.26-2.28,2.68-1.63,3,1.39,3.61-.85,4.46-2.78h0c1.92-1,4.18-1.6,5-4,5.67-1.25,7.72,3.94,10.85,6.69,1.22,1.08-1.33,3.18-3.48,3.26-3,.1-6,.11-8.95,0C163.25,44.91,161.83,45.49,162,48Z"/><path class="cls-27" d="M162,39l-1.5-.92.58-.58L162,39Z"/><path class="cls-22" d="M179,48c-.27,1.17.66,2.73-1,3.4-.12.05-.64-.91-1-1.4A1.86,1.86,0,0,1,179,48Z"/><path class="cls-27" d="M174.62,33.73c-.13.28-.2.69-.4.76s-.51-.19-.77-.3c.11-.27.17-.68.36-.76S174.33,33.61,174.62,33.73Z"/><path class="cls-20" d="M196,97c3.15.26,5.6,2.85,9.65,1.22,2-.8.64,4.42,1.36,6.79,0,1,0,2,0,3-2.6.21-2.24-5.5-6-3C197,103.78,195.24,101.18,196,97Z"/><path class="cls-27" d="M201,105c3.75-2.51,3.39,3.2,6,3-.49,1.11,1,3.72-1.51,3.15C202.64,110.5,200,108.85,201,105Z"/><path class="cls-22" d="M184,67c0-.67,0-1.34,0-2,1.84-1.57,4.31-1.46,6.15-1,4.3,1.12,4-1.28,3.83-4V58c1.33-3.11,5-2,7-4l4,2c0,3-.13,5.9.07,8.84.09,1.18-1.24,3.59,1.8,3.2,1.92-.24,5.09,1.1,4.16-3.06,1.87.14,2.8,2.61,5,2v2c-4.45.56-6.32,4.4-8.82,7.25-2.92,3.32-6.41,1.11-9.6,1.55-.35,0-1.28-1.57-1.23-1.61,4.95-4.35-1.41-3.56-2.34-5.19C190.39,70.35,185.43,73.08,184,67Z"/><path class="cls-25" d="M194,71c.93,1.63,7.29.84,2.34,5.19-.05,0,.88,1.65,1.23,1.61,3.19-.44,6.68,1.77,9.6-1.55,2.5-2.85,4.37-6.69,8.82-7.25-.18,1.87,1,3.28,1.52,4.89,1.28,4,.68,7.47-4.5,8.12-6.3-1-12.54-2.59-19-2Z"/><path class="cls-25" d="M126,69h6c-1.22,4.09-7.35,5.51-6,11a8.08,8.08,0,0,1-8.51,3.14c-6.83-1.91-9,.47-8.49,6.86,0,1,0,2,0,3-2.72-2.52-6.1-4.61-6-9-.62-3-3.09-1.7-4.83-2s-3.44-1.37-3.32-3S97,78.05,98.2,78C104.47,78,110.73,78,117,78c2.12-.24,5.17,1.06,5-3h0A5.19,5.19,0,0,0,126,69Z"/><path class="cls-20" d="M147,80l-.92,1.5-.58-.58L147,80Z"/><path class="cls-23" d="M117,78c-6.26,0-12.52,0-18.79.05-1.19,0-3.23-.7-3.35.95s1.53,2.66,3.32,3,4.21-1,4.83,2c-5.88,1.38-1.79,6.08-3,9-2.16-1.82-4.21-3.68-7.48-3.05-3.87.75-4.52-.85-2.51-4a2.16,2.16,0,0,0,1.88-3.21c-2.3-4.06.59-6.71,2.13-9.77a81.17,81.17,0,0,0,23,2h0Z"/><path class="cls-15" d="M90,86c-2,3.13-1.36,4.73,2.51,4,3.27-.63,5.32,1.23,7.48,3.05v2c-2.6.38-1.83,2.42-2,4h0c-1.57.16-3.62-.61-4,2H92c2.08-8.38-5.49-5.9-9-8-.14-4.75-3.8-2.41-6-3V86c3.14-1,7.16,3.15,9.8-1.82C87.2,83.43,89.72,83.86,90,86Z"/><path class="cls-15" d="M117,75a81.17,81.17,0,0,1-23-2c-1.06-.21-2.12-.59-1.06-1.82.66-.76,1.4-2.24,2.77-1.28,1.56,1.09,2.78.46,4.43.19,4.83-.78,9-2,10.85-7.08,0,.66,0,1.33,0,2a5.14,5.14,0,0,0,6,4h0C117,71,117,73,117,75Z"/><path class="cls-22" d="M79,82c1.08-3.1,3.39-2.42,5.23-1.26.86.53-.55,1-1.22,1.28Z"/><path class="cls-15" d="M79,82l4,0C81.66,84.9,80.32,84.92,79,82Z"/><path class="cls-26" d="M100,95V93c1.22-2.94-2.87-7.64,3-9-.1,4.4,3.28,6.49,6,9,.43,3.24-1.79,7.43,3.48,9.24-5.09,1-9.62-2.56-14.49-1.25V99h0C100.62,98.64,99.84,96.58,100,95Z"/><path class="cls-23" d="M98,99v2H94C94.37,98.39,96.42,99.16,98,99Z"/><path class="cls-13" d="M83,97c-.18,1.39.57,3.28-1.49,3.75s-3-1.71-4.44-2.68C74.43,96.35,76.65,94.7,77,93Z"/><path class="cls-28" d="M75,116l-6.61-4.78c2-2.7,4.14-2.92,6.61-1.2A4.7,4.7,0,0,1,75,116Z"/><path class="cls-28" d="M83,97l-6-4c0-1,0-2,0-3,2.21.59,5.87-1.75,6,3Z"/><path class="cls-25" d="M135,69h10c4.57-.89,9.24-2.42,13,2h0c-.93.61-2.19,1-2.73,1.87-3.08,4.88-6,5.52-9.3.19a2.16,2.16,0,0,0-3.28-.88C139.06,74.17,136.46,72.76,135,69Z"/><path class="cls-25" d="M160,73c3.24-.89,3.34,8.18,8.07,2.54a4.62,4.62,0,0,1,.92,1c.47,1,.83,2,1.23,3-2.94-.2-5.72,2.62-8.62.9s-4.54-4.2-1.6-7.42Z"/><path class="cls-25" d="M160,73a1.87,1.87,0,0,1-2-2h0a1.87,1.87,0,0,1,2,2Z"/><path class="cls-27" d="M187.63,85.28c-.3.1-.63.34-.82.25s-.23-.49-.33-.76c.27-.1.6-.35.78-.27S187.5,85,187.63,85.28Z"/><path class="cls-28" d="M194,58v2a25.63,25.63,0,0,1-3.92,0c-1.95-.29-4.39,1.11-5.73-1.34a2.26,2.26,0,0,1,.54-2.08c2.33-.77,4.72-1.15,7,.35C192.54,57.33,193.29,57.64,194,58Z"/><path class="cls-23" d="M117,75c0-2,0-4,0-6h3l2,0c0,2,0,4,0,6h-5Z"/><path class="cls-22" d="M122,75c0-2,0-4,0-6l4,0A5.19,5.19,0,0,1,122,75Z"/><path class="cls-22" d="M117,75h5c.16,4-2.89,2.75-5,3C117,77,117,76,117,75Z"/><path class="cls-23" d="M100,95c-.15,1.59.63,3.65-2,4C98.16,97.41,97.39,95.37,100,95Z"/></g></g></svg>