<svg xmlns="http://www.w3.org/2000/svg" viewBox="0 0 106 114"><defs><style>.cls-1{fill:#d81529;}.cls-2{fill:#f74433;}.cls-3{fill:#e82830;}.cls-4{fill:#dc202f;}.cls-5{fill:#f63d3a;}.cls-6{fill:#b71321;}.cls-7{fill:#a81220;}.cls-8{fill:#803626;}.cls-9{fill:#c61321;}.cls-10{fill:#b77c5a;}.cls-11{fill:#b99273;}.cls-12{fill:#941811;}.cls-13{fill:#dd192a;}.cls-14{fill:#cd1324;}.cls-15{fill:#d31427;}.cls-16{fill:#e12430;}.cls-17{fill:#f74f46;}.cls-18{fill:#f02f36;}.cls-19{fill:#f33639;}.cls-20{fill:#bf1523;}.cls-21{fill:#f7594a;}.cls-22{fill:#f76f62;}.cls-23{fill:#f74942;}.cls-24{fill:#791309;}.cls-25{fill:#8a0a14;}.cls-26{fill:#ca4e3d;}.cls-27{fill:#a12020;}.cls-28{fill:#f76a5d;}.cls-29{fill:#e8947b;}</style></defs><title>Asset 93</title><g id="Layer_2" data-name="Layer 2"><g id="Layer_1-2" data-name="Layer 1"><path class="cls-1" d="M4.16,56c-1-2-1.79-4.15-4.16-5V47c.49-.06,1.36,0,1.42-.21C3.66,38.9,6.47,31.1,7.82,23.06c1.44-8.59,4.32-12,13.06-12.11,3.45.24,6.92.33,10.33.82a3.12,3.12,0,0,1,1.95,2.39,2.18,2.18,0,0,1-2.75,2.06C27.18,15.37,23.58,18,24,19.44c2.06,6.92-3.06,3.91-5.52,4.56l-2.69.73a9,9,0,0,0,1.38,2.38A42.38,42.38,0,0,0,21,30l3.88.09L25,32c0,1.33,0,2.67,0,4-.51,3.63-3.52,5.11-6,7-1.28.11-3.14-.45-3.6,1-1.7,5.22-5.56,2.72-8.64,2.51-1.12-.07-2.38-1.91-2.68.64-.16,1.39-.51,3.52,1.52,3.63a87.65,87.65,0,0,0,15.37,0c2.36-.28,0-4.19,2-5.73h2c.13,2,1.55,2,3,2-.46,3.16,1,4.39,4,4,.16,2.88.1,5.58-4,5Z"/><path class="cls-2" d="M104.11,43,106,43v6c-4,2-.89,7-3.92,9.6-.65.56-1,1.39-2,1.5-.3-2.06-1.72-2.6-3.21-1.66C93.58,60.49,92.91,58.11,92,56c0-.65,0-1.29.07-1.94,4-.79,2.45-7.92,7.95-7C102.81,47.11,101.24,42.76,104.11,43Z"/><path class="cls-3" d="M53,0c0,3.28,2.55,1.83,4,2,3.75.31,7.74-.73,11,2.22C67.16,7.05,64.77,5.65,63,6s-4.31-1-5.5,1C56.17,9.18,60.44,8.79,60,11c-2.17-.6-3.08,1.89-4.95,2a1.9,1.9,0,0,1-2-2c2-4.52-5.23-4.95-4-9.11L49,0Z"/><path class="cls-3" d="M81,114H51c-.2-3.31,2.17-2.74,4.25-3.07,2.29-.37,5.36,1.74,6.75-1.88,4,.37,7.7,3,12,1.93,2.74.74,4.78-1,7-2Z"/><path class="cls-4" d="M62,109.05c-1.39,3.62-4.46,1.51-6.75,1.88-2.08.33-4.45-.24-4.25,3.07H34l-.08-2.92.24-.25c1.32.12,1.76-.66,1.84-1.81h2l1.22,1.52.8-1.49,7,0L62,109Z"/><path class="cls-5" d="M81,114v-5c1.52-.24,3.6.68,3.94-1.94L89,107c2.48,2.71,5.27,4,8.81,2,0,1.67.11,3.34.16,5Z"/><path class="cls-6" d="M28,56c4.14.61,4.2-2.09,4-5,2.77-.19,6.48,1,6.05-4L42,47h3c2,3.1,4,3,6,0l2,0,2,0,0,2a1.91,1.91,0,0,0-2,2c-4.66-.53-8.73.23-11,5-2.46-.69-4,1.47-6,2-4.14-1.19-5.31,4-9.13,4.1-4.35.08-6.22,4.15-8.81,6.92-1.07,1.15-.2,1.66,1,1.92,4.28,1,8.4,2.94,13,2h2l6,0h0v4l-23.09,0L8.18,64l7.4-.42c-3.27-2.23-5.54-1.29-7.67-1.5-1.45.06-2.25-.44-1.73-2.05,2.49,0,5,0,7.49,0C18.85,60.08,24.05,60.29,28,56Z"/><path class="cls-7" d="M16.91,77.05,40,77H57l9,0L68,77l2,0,7,.09c0,.64,0,1.28,0,1.92L21,79l-3.84,0Z"/><path class="cls-8" d="M15.14,101c0-.65,0-1.29,0-1.94,3-.54,6.61,1.44,8.76-2.86,1.82-3.67-3.94-1.32-2.69-4,1.11-.27,2.64.29,3.35-2.25H15.12c0-.69,0-1.39.05-2.07L28,88c0,3.92,0,7.85.07,11.77,0,2.25-.7,3.47-3.13,3.12-1.92-3.78-5.2-1.38-7.88-1.74Z"/><path class="cls-6" d="M28,88l-12.79-.18c-.86-2.08,2.69-1.87,2-3.85L23,84c4.45,1.34,8.83,3.37,13.36,3.82,4.7.47,2.11,2.47,1.65,4.23H30C29.81,90.44,30.66,88.32,28,88Z"/><path class="cls-9" d="M28,56c-3.95,4.29-9.15,4.08-14.33,4-2.5,0-5,0-7.49,0,.69-2-3-1.82-2-4Z"/><path class="cls-10" d="M21.23,92.17c-1.25,2.69,4.51.34,2.69,4-2.15,4.3-5.73,2.32-8.76,2.86,0-2.33,0-4.67-.05-7Z"/><path class="cls-4" d="M33.92,111.08c-5.8,0-11.6,0-17.4-.14-1.27,0-3.7,1.22-3.36-1.92L17,109l5.94,0,2,0,7,0,2,0,.16,1.81Z"/><path class="cls-10" d="M15.14,101l1.88.2c-.77,5.16,2.47,2.11,4.23,2.07-.13,1.22.6,1.67,1.64,1.85l.06,1.7-5.88.17L13.21,105C12.32,103,15.7,102.91,15.14,101Z"/><path class="cls-11" d="M21.23,92.17,15.11,92c0-.71,0-1.42,0-2.12h9.46C23.87,92.46,22.34,91.9,21.23,92.17Z"/><path class="cls-4" d="M23,84l-5.83,0V81l3.85-.1,2,.21C23,82,23,83,23,84Z"/><path class="cls-12" d="M7.91,62.06c2.13.21,4.4-.73,7.67,1.5L8.18,64Z"/><path class="cls-6" d="M13.21,105,17.07,107c0,.66,0,1.32,0,2l-3.87.06C13.18,107.69,13.19,106.36,13.21,105Z"/><path class="cls-12" d="M21,80.86l-3.85.1c0-.65,0-1.3,0-1.95L21,79Z"/><path class="cls-13" d="M49,1.89C47.77,6.05,55,6.48,53,11l-4,0H47c-1.77-.33-2.35,2.72-4.67,1.38-5.27-3-5.82.85-6.31,4.61a1.87,1.87,0,0,0-2,2c-1.92.37-3.62,1.8-3.69,3.36-.19,4-2.64,3.77-5.31,3.65-3.09-.44-4.43.88-4,4a42.38,42.38,0,0,1-3.85-2.88,9,9,0,0,1-1.38-2.38L18.48,24c2.46-.65,7.58,2.36,5.52-4.56-.42-1.41,3.18-4.07,6.41-3.22a2.18,2.18,0,0,0,2.75-2.06,3.12,3.12,0,0,0-1.95-2.39c-3.41-.49-6.88-.58-10.33-.82C22,6.61,26.86,8,29.39,6.76A43.81,43.81,0,0,1,49,1.89Z"/><path class="cls-14" d="M23,45c-2,1.54.35,5.45-2,5.73a87.65,87.65,0,0,1-15.37,0c-2-.11-1.68-2.24-1.52-3.63.3-2.55,1.56-.71,2.68-.64,3.08.21,6.94,2.71,8.64-2.51.46-1.43,2.32-.87,3.6-1Z"/><path class="cls-5" d="M25,26c2.67.12,5.12.31,5.31-3.65.07-1.56,1.77-3,3.69-3.36,2.88,1.41,2.49,4.22,2.84,6.7C28.58,26,33.26,32.4,32,36l-4,0L25,36c0-1.33,0-2.67,0-4,1.77-.87,3,2.49,4.66.71.57-.62.44-2.31.06-3.3-.88-2.31-3.1-1.08-4.75-1.41Z"/><path class="cls-15" d="M42,47l-3.92,0L38,47c-.29-2.72-2.4-1.82-4-2-2,.52-3.54,2.72-6,2-1.45,0-2.87,0-3-2,2.76-.58,5.4-1.39,7-4,4.15.58,4.18-2.13,4-5l2,1c-1.43,3.86,3.54,3.42,4,6Z"/><path class="cls-4" d="M32,41c-1.62,2.59-4.26,3.4-7,4H23l-4-2c2.51-1.9,5.52-3.38,6-7L28,36c-.15,2.85-.19,5.62,4,5Z"/><path class="cls-16" d="M28,47c2.47.73,4-1.47,6-2,.36,2.59,2.39,1.83,4,2l.11,0c.44,5-3.27,3.82-6,4C29,51.39,27.54,50.16,28,47Z"/><path class="cls-17" d="M25,28c1.65.33,3.87-.9,4.75,1.41.38,1,.51,2.68-.06,3.3C28.05,34.48,26.79,31.12,25,32l-.12-1.91Z"/><path class="cls-18" d="M25,28l-.09,2.09L21,30c-.45-3.1.89-4.42,4-4C25,26.67,25,27.33,25,28Z"/><path class="cls-17" d="M89,107l-4.09,0L81,107a1.93,1.93,0,0,0-2-2c0-.65,0-1.3,0-2a8,8,0,0,1,4.53,1.25c1.83,1.06,4.36,2.06,5.49-1.27.1-3.91-.93-8.13,3-11l3.82,0,0,11c-2.45.45-1.63,2.44-1.85,3.94Z"/><path class="cls-19" d="M95.85,73.05c.44,1.55-.32,2.06-1.74,2-2.38.64-5.56-1.71-7.12,1.94H79a1.87,1.87,0,0,0-2-2c-1.49,0-2.87-.08-3-2h0c2.79.06,7.1-.08,5.93-3.4S80.13,64.4,81,62l2,0c-1.69,4,4.83,3.4,4,7-1.57.2-3.65-.62-4,2C86.71,75.3,91.65,71.86,95.85,73.05Z"/><path class="cls-17" d="M87,69c.84-3.56-5.68-2.91-4-7l.07-.1c5.37.74,3.62-3.28,4-5.91l0,0L92,56c.94,2.14,1.61,4.52,4.85,2.47,1.49-.94,2.91-.4,3.21,1.66L99.83,62C95,61.8,89,60.37,92,69Z"/><path class="cls-20" d="M79,77h8l6.84.06,0,4-3.81.07-9,0-2,0a1.85,1.85,0,0,0-2-2h0c0-.64,0-1.28,0-1.92v-.14Z"/><path class="cls-5" d="M92,69c-3-8.63,3-7.2,7.83-7-.16,1.52,1.41,3.76-1.69,4C95.71,66.25,95.17,70.37,92,69Z"/><path class="cls-21" d="M92,69c3.17,1.37,3.71-2.75,6.14-2.94-.88,1.59,1.52,4.48-2,5L83,71c.32-2.64,2.4-1.82,4-2Z"/><path class="cls-18" d="M90.05,81.07,93.86,81c.07,2.33.13,4.65.2,7l-1.91,0c-.36-3.19-5-.6-5.26-3.87C89,84.15,90.21,83.35,90.05,81.07Z"/><path class="cls-22" d="M83,71l13.13.07-.29,2C91.65,71.86,86.71,75.3,83,71Z"/><path class="cls-3" d="M89,107,94,107l3.86.05v2C94.3,111.05,91.51,109.74,89,107Z"/><path class="cls-21" d="M92.15,88l1.91,0c3.19.2,1.58,2.52,1.79,4L92,92l-.1-.1c0-1.29-.05-2.58-.08-3.87Z"/><path class="cls-3" d="M93.83,77,87,77c1.56-3.65,4.74-1.3,7.12-1.94Z"/><path class="cls-5" d="M97.83,107,94,107c.22-1.5-.6-3.49,1.85-3.94C95.22,105,98.79,104.86,97.83,107Z"/><path class="cls-21" d="M96.11,13c3.49,1.44,3.34,5.8,3.41,7.66.21,5.31,3.67,10,2.6,15.33-1.74,0-1.9-1.34-2.35-2.59-.66-1.86-2.4-1.31-3.78-1.26-.49,0-1,.63-1.43,1,4.11,5.23-2,1.76-2.54,3l0,0c0-1.34,0-2.68,0-4L92.06,30c1.74-.6,4.07-2,3-3.49C93.19,23.92,91.72,19.79,87,21l0-4,0-2c2,.63,4.53,3.94,5.54-1.15C92.65,13.34,94.88,13.25,96.11,13Z"/><path class="cls-23" d="M92,36c.59-1.2,6.65,2.27,2.54-3,.47-.33.94-.94,1.43-1,1.38-.05,3.12-.6,3.78,1.26.45,1.25.61,2.58,2.35,2.59,3.73,1.46,1,4.77,2,7-2.87-.19-1.3,4.16-4.12,4,.29-2.12-.27-4.08-2.2-5-2.51-1.19-1.24,2.09-2.5,2.45A27.54,27.54,0,0,1,92,45h0C94.69,42,91.14,39,92,36Z"/><path class="cls-23" d="M96.11,13c-1.23.29-3.46.38-3.56.89C91.54,18.94,89,15.63,87,15l-.07,0c-1.09-4.4-4.57-4.11-7.94-4l0-5.12C84.94,4,89.44,9,95,9.2,96.92,9.28,95.56,11.72,96.11,13Z"/><path class="cls-5" d="M79.05,5.89c0,1.7,0,3.41,0,5.12H77a29.55,29.55,0,0,0-3.13-1.06C69.81,9.06,65.64,7.07,62,11l-2,0c.47-2.19-3.8-1.8-2.45-4,1.19-2,3.64-.6,5.5-1s4.14,1.06,5-1.82C71.66,4.77,75.87,2,79.05,5.89Z"/><path class="cls-21" d="M92,36c-.88,3,2.67,6,0,9-1.56,0-3.13.15-2.83,2.27.07.55,1.1,1.49,1.47,1.39,2-.53,1.13-2.33,1.36-3.66a27.54,27.54,0,0,0,3.29-.55c1.26-.36,0-3.64,2.5-2.45,1.93.91,2.49,2.87,2.2,5-5.5-.88-3.93,6.25-8,7,0-1.89-.53-3.24-2.77-3-3.44.41-1.85,3.15-2.26,5l0,0c-8.3-2.71-2.07,4.32-4,5.91L83,62l-2,0h0l-2-4L79.06,51c1.87-.26,5.2.9,5.35-1,.42-5.14,6.61-8.21,4.6-14l3,0Z"/><path class="cls-22" d="M87,56c.41-1.81-1.18-4.55,2.26-5,2.24-.27,2.8,1.08,2.77,3L92,56Z"/><path class="cls-18" d="M49,11l4,0a1.9,1.9,0,0,0,2,2,1.91,1.91,0,0,1-2,2c-3.71,1-3.72,3.15-2,5.93H47c-.56-2.05,1.67-5.31-2.32-5.88C37.28,14,43.45,19.22,42,20.93L42,21l-6-4c.49-3.76,1-7.65,6.31-4.61,2.32,1.34,2.9-1.71,4.67-1.38l1.24,1.52Z"/><path class="cls-23" d="M53,15a1.91,1.91,0,0,0,2-2c1.87-.14,2.78-2.63,4.95-2l2,0h0c0,2,0,4,0,6l-7,0A1.89,1.89,0,0,1,53,15Z"/><path class="cls-20" d="M74,111C69.7,112,66,109.42,62,109.05V109c0-.65,0-1.29,0-1.94l4,0c2.07.07,4.31.14,3.93-2.88-.49-4-1.25-8-1.89-12L74,92l0,4v7C73.29,105.63,78.11,108.35,74,111Z"/><path class="cls-16" d="M74,111c4.15-2.63-.67-5.35.08-8L79,103h0c0,.65,0,1.3,0,2a1.79,1.79,0,0,0,2,2l3.9.1c-.34,2.62-2.42,1.7-3.94,1.94C78.74,110,76.7,111.72,74,111Z"/><path class="cls-6" d="M62,107c0,.65,0,1.29,0,1.94L47,109c-1.28-4.34-3.87-4.17-7-2V99c0-1.65.31-2.85,2.4-3A3.52,3.52,0,0,1,46,99.33c-.28,8.49,5.55,7.69,11,7.64Z"/><path class="cls-7" d="M40,107c3.16-2.13,5.75-2.3,7,2l-7,0-2,0H34l-2,0c0-.64,0-1.29,0-1.93Z"/><path class="cls-15" d="M34,109h2c-.08,1.15-.52,1.93-1.84,1.81C34.11,110.23,34.05,109.62,34,109Z"/><path class="cls-14" d="M38,109l2,0-.8,1.49Z"/><path class="cls-15" d="M34,73H32l-6.84-9C30.7,64.89,34,62.4,36,58c2-.55,3.53-2.71,6-2v0c1.14,1.33-3.94,2.64,0,4l-2,3c-1.26.43-3.44-2.18-3.81.78-.34,2.81,2.19,2,3.81,2.22-.6,4,4.21,4,5,7l-5,0h0C38,68.51,36,68.49,34,73Z"/><path class="cls-12" d="M51,47c-2,3-4,3.08-6,0l0,0c3-4.6,2.13-10.73,6-15H57c0,2.15-.1,4.29,3.07,3.94L66,35.91v5l-4,0a1.83,1.83,0,0,0-2-2C47.2,39,46.87,39.25,51,47Z"/><path class="cls-9" d="M36,58c-2,4.39-5.31,6.88-10.84,6L32,73c-4.57.9-8.69-1.06-13-2-1.17-.26-2-.77-1-1.92,2.59-2.77,4.46-6.84,8.81-6.92C30.7,62,31.87,56.82,36,58Z"/><path class="cls-9" d="M40,73l5,0H55l0,4H40C40,75.67,40,74.34,40,73Z"/><path class="cls-24" d="M51,47c-4.13-7.76-3.8-8,9-8,0,.67,0,1.34.05,2v0C58.55,41,57.16,41,57,43a5.6,5.6,0,0,0-4,4Z"/><path class="cls-14" d="M42,56c2.23-4.77,6.3-5.53,11-5H53c.94,3.57-4,2.26-4.11,4.94L47,56l-2,0-3,0Z"/><path class="cls-7" d="M53,47a5.6,5.6,0,0,1,4-4l3,0L60,43l-3,4-2,0Z"/><path class="cls-9" d="M34,73c2-4.5,4-4.48,6,0Z"/><path class="cls-9" d="M42,47c0-1.33,0-2.66,0-4l3,0c0,1.33,0,2.66.05,4l0,0Z"/><path class="cls-4" d="M53,51a1.91,1.91,0,0,1,2-2l0,0a1.86,1.86,0,0,1-2,2Z"/><path class="cls-13" d="M55,47l2,0c0,.67,0,1.34,0,2l0,0H55l0,0C55,48.33,55,47.67,55,47Z"/><path class="cls-25" d="M21,80.86V79L77,79h0c0,.66,0,1.32,0,2L60,81.08,47,81.06H23Z"/><path class="cls-6" d="M70,77l-2,0c-.18-1.59.62-3.68-2.05-4l-6,0H55a1.9,1.9,0,0,1,2-2c7.48,1.5,10.44-1.54,9-9h0l4,0,0,0c0,3.57-.82,7.53,4,9v2h0C70.92,72.6,69.56,73.89,70,77Z"/><path class="cls-26" d="M60,73l6,0c0,1.32,0,2.64,0,4l-9,0C56.64,74.66,60.17,75.23,60,73Z"/><path class="cls-16" d="M70,77c-.47-3.09.89-4.38,3.94-4,.16,2,1.54,2.06,3,2,0,.65,0,1.29,0,1.93v.14Z"/><path class="cls-20" d="M60,73c.18,2.23-3.35,1.66-3,4H55l0-4Z"/><path class="cls-27" d="M65.94,77c0-1.32,0-2.64,0-4,2.67.3,1.87,2.39,2.05,4Z"/><path class="cls-27" d="M23,106.8l-.06-1.7c1.29-.16,2.13-.74,2.07-2.17H24.9c2.43.35,3.18-.87,3.13-3.12C27.93,95.88,28,92,28,88c2.7.29,1.85,2.41,2.05,4l-.09,13c-1.84,1.09-4.1,1.65-5,4l-2,0C23,108.22,23,107.51,23,106.8Z"/><path class="cls-11" d="M21.25,103.25c-1.76,0-5,3.09-4.23-2.07,2.68.36,6-2,7.88,1.74H25Z"/><path class="cls-9" d="M38,81.07h9c0,4.14,3.26,3.17,5.27,2.81,2.66-.49,6.89,2.69,7.78-2.79L77,81l2,0,2,0C81,82,81,83,81,84l-2,0c-3.29-.34-6,.39-7,4l-2,0c-3.55-5.62-6.42-5.63-10,0-3.77-.39-4.82,5.22-8.94,4H40.65C49.48,93.8,52,101.9,57,107c-5.43,0-11.26.85-11-7.64A3.52,3.52,0,0,0,42.39,96c-2.09.17-2.42,1.37-2.4,3H38c0-1.45,0-2.87-2-3V94a1.86,1.86,0,0,0,2-2c.46-1.76,3-3.76-1.65-4.23C31.82,87.32,27.44,85.29,23,84c0-1,0-1.92,0-2.88h7c-.17,2.82,1.65,3,3.77,3S38.18,84.34,38,81.07Z"/><path class="cls-15" d="M36,94v2c-1,.16-2.1.54-1.71,1.75.6,1.89,2.39,1,3.71,1.24h2v8l-8,0a2,2,0,0,1-2.1-2.06L30,92h4A1.86,1.86,0,0,0,36,94Z"/><path class="cls-14" d="M36,94a1.86,1.86,0,0,1-2-2h4A1.86,1.86,0,0,1,36,94Z"/><path class="cls-6" d="M29.92,105A2,2,0,0,0,32,107c0,.65,0,1.3,0,1.94l-7,0C25.82,106.62,28.08,106.06,29.92,105Z"/><path class="cls-12" d="M23,106.8c0,.71,0,1.42,0,2.13L17,109c0-.67,0-1.33,0-2Z"/><path class="cls-8" d="M21.25,103.25l3.71-.32c.06,1.43-.78,2-2.07,2.17C21.85,104.92,21.12,104.47,21.25,103.25Z"/><path class="cls-4" d="M36,17l6,4c1,4-1.09,6.69-4,9h0c-3.5,1.07-1.4,4-2,6,.18,2.89.15,5.6-4,5l0,0c-.87-1.67,4.85-3.32,0-5,1.26-3.6-3.42-10,4.84-10.3-.35-2.48,0-5.29-2.84-6.7A1.87,1.87,0,0,1,36,17Z"/><path class="cls-16" d="M49,11l-.78,1.51L47,11Z"/><path class="cls-18" d="M32,36c4.84,1.67-.88,3.32,0,5-4.2.65-4.16-2.12-4-5Z"/><path class="cls-6" d="M45,43l-3,0c-.49-2.57-5.46-2.13-4-6,0-2.34,0-4.67,0-7h0c4.07-1.69,3.45,4.81,7,4C40.3,37,45.52,40,45,43Z"/><path class="cls-14" d="M38,30c0,2.33,0,4.66,0,7l-2-1C36.59,34,34.49,31.07,38,30Z"/><path class="cls-18" d="M38,47c-1.57-.16-3.6.6-4-2C35.57,45.18,37.68,44.28,38,47Z"/><path class="cls-21" d="M92,92c-4,2.84-2.93,7.06-3,11-4.33,1.18-5.65-5.19-10-4l0-3V92c3.83-.38.21-5.62,4-6.06,0,2.11,0,4.22.07,6.33.06,1.55-.38,3.66,2.11,3.54s1.7-2.26,1.88-3.75l4.93-.12Z"/><path class="cls-28" d="M79,99c4.33-1.21,5.65,5.16,10,4-1.13,3.33-3.66,2.33-5.49,1.27A8,8,0,0,0,79,103h0C79,101.68,79,100.35,79,99Z"/><path class="cls-19" d="M81,107a1.79,1.79,0,0,1-2-2A1.93,1.93,0,0,1,81,107Z"/><path class="cls-16" d="M74,73c0-.65,0-1.31,0-2,2.46-.86,2.69-1.3,1.63-1.88C73.19,67.81,74.31,65.75,74,64c2.61.33,4.22-2.88,7-2h0c-.9,2.42-2.33,4.19-1.13,7.59S76.76,73,74,73Z"/><path class="cls-3" d="M77,76.93c0-.64,0-1.28,0-1.93a1.87,1.87,0,0,1,2,2Z"/><path class="cls-22" d="M83.06,61.91C85,60.32,78.72,53.29,87,56,86.68,58.63,88.43,62.65,83.06,61.91Z"/><path class="cls-4" d="M81,84,81.06,81l9,0c.16,2.28-1.09,3.08-3.16,3l-3.8,0Z"/><path class="cls-7" d="M79,81l-2,0c0-.65,0-1.31,0-2A1.85,1.85,0,0,1,79,81Z"/><path class="cls-28" d="M83.09,84l3.8,0c.29,3.27,4.9.68,5.26,3.87l-.29.11c-3-.29-5.56-.16-4.86,4-.18,1.49.58,3.64-1.88,3.75s-2.05-2-2.11-3.54c-.07-2.11-.05-4.22-.07-6.33Z"/><path class="cls-29" d="M87,92.05c-.7-4.15,1.91-4.28,4.86-4,0,1.29,0,2.58.07,3.87Z"/><path class="cls-29" d="M92.06,30,92,32c-2.86-.15-5.55-.08-5,4-3.28.54-4.29-1.2-4.13-4.11l.26-3.71L87,28C88.8,28.39,91.34,26.93,92.06,30Z"/><path class="cls-22" d="M92.06,30c-.72-3.1-3.26-1.64-5.06-2,0-2.34,0-4.67,0-7h0c4.72-1.21,6.19,2.92,8.06,5.54C96.13,28.05,93.8,29.43,92.06,30Z"/><path class="cls-22" d="M87,36c-.56-4.1,2.13-4.17,5-4,0,1.34,0,2.68,0,4l-3,0Z"/><path class="cls-22" d="M87,17l0,4H83c0-1.32,0-2.64,0-4L83,17Z"/><path class="cls-29" d="M87,17H83c.29-2.71,2.36-1.8,3.91-1.93L87,15C87,15.65,87,16.31,87,17Z"/><path class="cls-22" d="M86.94,15c-1.55.13-3.62-.78-3.91,1.93L83,17,74,17l0-2c.15-2,1.56-2,3-2a1.83,1.83,0,0,0,2-2h0C82.37,10.93,85.85,10.64,86.94,15Z"/><path class="cls-17" d="M77,13c-1.45,0-2.86.06-3,2L70,15c0-6.81-5.23-2.92-8-4h0c3.64-3.93,7.81-1.94,11.87-1.06A29.55,29.55,0,0,1,77,11Z"/><path class="cls-23" d="M77,13V11h2A1.83,1.83,0,0,1,77,13Z"/><path class="cls-28" d="M87,36l2,0c2,5.74-4.18,8.81-4.6,14-.15,1.9-3.48.74-5.35,1,0-5,.1-10-.1-14.91-.11-2.94.83-4.43,3.89-4.17C82.69,34.79,83.7,36.53,87,36Z"/><path class="cls-5" d="M82.85,31.88c-3.06-.26-4,1.23-3.89,4.17.2,5,.08,9.94.1,14.91L79,58c-1.87.13-2.81,2.58-5,2a4.66,4.66,0,0,1,0-6c4.19,0,3.35-3.34,2.83-5.26C76,45.5,80.12,40.67,74,39l-.08-3,0,0c3.18.32,3.11-1.82,3-4,1.48-2.45,2.55-5,2-8l0-3h4l.09,7.19Z"/><path class="cls-18" d="M74,60c2.16.6,3.1-1.85,5-2l2,4c-2.78-.88-4.39,2.33-7,2,0-.66,0-1.32,0-2Z"/><path class="cls-23" d="M92,45c-.23,1.33.66,3.13-1.36,3.66-.37.1-1.4-.84-1.47-1.39C88.87,45.15,90.44,45,92,45Z"/><path class="cls-9" d="M45,34c-3.57.8-3-5.7-7-4,2.94-2.27,5-4.94,4-9l0-.11h9L53,21c-.23,3.08-.17,5.78,4,3v2c-.82,3.19-3.44,1.53-5.29,2-2.36.58-4.59-4.41-6.72-.55C42.63,31.7,49.8,28.56,49,32,48.65,34.62,46.6,33.85,45,34Z"/><path class="cls-23" d="M47,20.94H42c1.46-1.71-4.71-6.92,2.66-5.87C48.64,15.63,46.41,18.89,47,20.94Z"/><path class="cls-3" d="M53,21l-2-.08c-1.72-2.78-1.71-5,2-5.93a1.89,1.89,0,0,0,2,2c0,1.32,0,2.65,0,4Z"/><path class="cls-19" d="M62,11c2.81,1.06,8.07-2.83,8,4l0,0c-3-.55-5.52.52-8,2l0,0Z"/><path class="cls-18" d="M55,21c0-1.32,0-2.65,0-4l7,0,0,0c-.81,2.43-2.3,4-5,4Z"/><path class="cls-1" d="M57,107C52,101.9,49.48,93.8,40.65,92H51c1.13,3.07,6.54,2.47,6,7-3.94,1.87.14,2.65.68,3.49,1.88,2.94,6.5,1.14,8.33,4.48l-4,0Z"/><path class="cls-16" d="M66,107c-1.83-3.34-6.45-1.54-8.33-4.48-.54-.84-4.62-1.62-.68-3.49,2.41-.36,3.5,1.59,4.91,2.89,1,.89,2,1.32,3.12.67.45-.26,1-1.42.79-1.59-2.81-3.08.51-6,.19-9L68,92l.08.12c.64,4,1.4,8,1.89,12C70.32,107.11,68.08,107,66,107Z"/><path class="cls-3" d="M83.09,84l-.15,1.89c-3.75.44-.13,5.68-4,6.06H74l-6,.07L68,92c0-1.31,0-2.63,0-4l2,0,2,0c2.74-.63,7.37,2.08,7-4l2,0Z"/><path class="cls-23" d="M79,99c0,1.33,0,2.66,0,4L74,103V96L79,96Z"/><path class="cls-18" d="M79,96,74,96l0-4h5C79,93.32,79,94.66,79,96Z"/><path class="cls-4" d="M74,60l0,2H70l0,0c-.19-1.46.67-3.64-1.72-3.82C65.39,58,66.2,60.39,66,62h0c-2.72,3.27-5.06,6.93-9,9a1.9,1.9,0,0,0-2,2H45c-.8-2.95-5.61-3-5-7,3.66-1,.22-2,0-3l2-3h3l4,2,4,0c-.11,2.42-2.67,1.56-3.66,2.73s-3,1.82-1.73,3.56a3.11,3.11,0,0,0,4.14.36c2.52-2.32,6.36-3.77,5.39-8.7-.7-3.52-.14-7.29-.14-11l0,0c2.37-.16,3.08,1.09,3,3.27C60,53.8,59.61,55.66,62,56c4.22.64,4.21-2.1,4-5,.32-3.4,8.74-5.22,2-10,1.41-2.38,2.15-5.56,6-5,0,1,0,2,.08,3q0,7.51,0,15A4.66,4.66,0,0,0,74,60Z"/><path class="cls-13" d="M40,63c.22,1,3.66,2,0,3-1.62-.19-4.15.59-3.81-2.22S38.74,63.43,40,63Z"/><path class="cls-13" d="M45,60H42c-3.92-1.34,1.16-2.65,0-4l3,0Z"/><path class="cls-6" d="M49,32c.77-3.47-6.4-.33-4-4.58,2.13-3.86,4.36,1.13,6.72.55,1.85-.46,4.47,1.2,5.29-2,3.19.23,6.28,0,9-2,1.27,5-5.91,3.86-5.89,8L60,32H49Z"/><path class="cls-27" d="M73.94,36c-3.85-.54-4.59,2.64-6,5L66,41l0-.06v-5c0-.66,0-1.33,0-2,1.77,0,3.32.29,4.23-2.17,1-2.65,2.75-2.56,3.87.26L74,36Z"/><path class="cls-27" d="M49,32h2c-3.87,4.24-3,10.37-6,15,0-1.34,0-2.67-.05-4,.55-3-4.67-6,.05-9C46.6,33.85,48.65,34.62,49,32Z"/><path class="cls-26" d="M66,33.92c0,.66,0,1.33,0,2L60,36c0-1.31,0-2.63,0-3.94l.08,0C62.06,32.6,64.9,30.5,66,33.92Z"/><path class="cls-6" d="M62,41l4,0,0,0c-.17,1.72.16,4.64-.59,4.94C63,46.93,62.47,43,60,43L60,43c0-.65,0-1.3.07-2v0Z"/><path class="cls-27" d="M60,32c0,1.31,0,2.63,0,3.94-3.17.35-3.12-1.79-3.07-3.94Z"/><path class="cls-25" d="M62,41l-2,0c0-.67,0-1.34-.05-2A1.83,1.83,0,0,1,62,41Z"/><path class="cls-12" d="M60,41c0,.65,0,1.3-.07,2l-3,0C57.16,41,58.55,41,60,41Z"/><path class="cls-3" d="M57,49c0,3.66-.56,7.43.14,11,1,4.93-2.87,6.38-5.39,8.7a3.11,3.11,0,0,1-4.14-.36c-1.29-1.74.86-2.53,1.73-3.56S52.89,64.43,53,62c2.71-4.75.13-5.95-4.07-6.07.12-2.68,5-1.37,4.11-4.94a1.86,1.86,0,0,0,2-2Z"/><path class="cls-19" d="M48.93,55.94c4.2.12,6.78,1.32,4.07,6.07l-4,0c.69-2.46-1.5-3.95-2-6Z"/><path class="cls-3" d="M47,56c.53,2.05,2.72,3.54,2,6l-4-2V56Z"/><path class="cls-9" d="M60,43c2.44,0,3,3.92,5.38,2.93.75-.3.42-3.22.59-4.94l1.94,0c6.78,4.79-1.64,6.61-2,10-7.71-3.42-2.32,3.61-4,5-2.38-.33-2-2.19-2-3.74.08-2.18-.63-3.43-3-3.27,0-.67,0-1.34,0-2Z"/><path class="cls-6" d="M60,81.08c-.89,5.48-5.12,2.3-7.78,2.79-2,.36-5.26,1.33-5.27-2.81Z"/><path class="cls-6" d="M38,81.07c.16,3.27-2.16,2.89-4.27,3s-3.94-.14-3.77-3Z"/><path class="cls-15" d="M57,71c3.94-2,6.28-5.71,9-9C67.44,69.44,64.48,72.48,57,71Z"/><path class="cls-13" d="M70,62h4c0,.67,0,1.33,0,2,.3,1.76-.82,3.82,1.58,5.14,1.06.58.83,1-1.63,1.88C69.17,69.53,70,65.57,70,62Z"/><path class="cls-14" d="M66,62c.2-1.61-.61-4,2.25-3.8,2.39.18,1.53,2.36,1.72,3.82Z"/><path class="cls-18" d="M66,92c.32,3-3,5.87-.19,9,.16.17-.34,1.33-.79,1.59-1.14.65-2.16.22-3.12-.67-1.41-1.3-2.5-3.25-4.91-2.89.57-4.51-4.84-3.91-6-7,4.13,1.17,5.18-4.44,8.95-4L62,88c.16,1.63-3,2.56-.78,4.74S64.36,91.69,66,92Z"/><path class="cls-13" d="M62,88,60,88c3.61-5.62,6.48-5.61,10,0l-2,0Z"/><path class="cls-1" d="M79,84c.35,6.07-4.28,3.36-7,4C73.06,84.41,75.74,83.68,79,84Z"/><path class="cls-14" d="M38,99c-1.32-.21-3.11.65-3.71-1.24C33.9,96.54,35,96.16,36,96,38,96.12,38,97.54,38,99Z"/><path class="cls-21" d="M83.11,28.17,83,21h4c0,2.34,0,4.67,0,7Z"/><path class="cls-21" d="M83,21H79l-5,.05L70,21l0-1.95c1.59-.17,3.62.48,4-2.07L83,17C83,18.35,83,19.67,83,21Z"/><path class="cls-5" d="M74,17c-.35,2.55-2.38,1.9-4,2.07,0-1.34,0-2.69-.08-4l0,0,4,0C74,15.66,74,16.32,74,17Z"/><path class="cls-13" d="M66,33.92C64.9,30.5,62.06,32.6,60.08,32c0-4.13,7.16-2.94,5.89-8,0-1,0-2,0-3h2c0,4-1.27,9.61,6,5,2.17.61,3.1-1.89,5-2,.55,3-.52,5.51-2,8l-2.91,0c-1.12-2.82-2.9-2.91-3.87-.26C69.29,34.21,67.74,33.93,66,33.92Z"/><path class="cls-18" d="M74,54q0-7.51,0-15c6.1,1.68,1.93,6.51,2.82,9.76C77.36,50.67,78.2,54,74,54Z"/><path class="cls-18" d="M79,24c-1.88.09-2.81,2.59-5,2,0-1.66,0-3.31,0-5L79,21C79,22,79,23,79,24Z"/><path class="cls-3" d="M74.07,32,77,32c.1,2.16.17,4.3-3,4C74,34.65,74,33.33,74.07,32Z"/><path class="cls-14" d="M66,21c0,1,0,2,0,3-2.69,2-5.78,2.21-9,2,0-.66,0-1.32,0-2v0c2.53.31,4.61-.08,5.93-2.73C63.26,20.59,64.71,17.55,66,21Z"/><path class="cls-15" d="M55,21l2,0c0,1,0,2,0,3v0c-4.17,2.77-4.23.07-4-3Z"/><path class="cls-16" d="M57,24c0-1,0-2,0-3,2.73,0,4.22-1.58,5-4,2.45-1.48,5-2.55,8-2,0,1.34,0,2.69.08,4,0,.65,0,1.3,0,1.95l-2,0H66c-1.3-3.45-2.75-.41-3.08.27C61.61,23.92,59.53,24.31,57,24Z"/><path class="cls-23" d="M62,88l6,0c0,1.32,0,2.64,0,4L66,92c-1.65-.33-2.58,2.93-4.76.76S62.19,89.67,62,88Z"/><path class="cls-15" d="M62,56c1.67-1.4-3.72-8.43,4-5C66.2,53.89,66.21,56.63,62,56Z"/><path class="cls-19" d="M68,21l2,0,4,.06c0,1.65,0,3.3,0,5C66.76,30.62,68,25.05,68,21Z"/></g></g></svg>