<svg xmlns="http://www.w3.org/2000/svg" viewBox="0 0 261 180.37"><defs><style>.cls-1{fill:#383838;}.cls-2{fill:#181818;}.cls-3{fill:#242624;}.cls-4{fill:#3c4043;}.cls-5{fill:#212321;}.cls-6{fill:#404042;}.cls-7{fill:#404245;}.cls-8{fill:#363839;}.cls-9{fill:#3a3c3e;}.cls-10{fill:#434447;}.cls-11{fill:#3a3c3f;}.cls-12{fill:#484748;}.cls-13{fill:#383938;}.cls-14{fill:#262726;}.cls-15{fill:#272727;}.cls-16{fill:#201e1d;}.cls-17{fill:#181918;}.cls-18{fill:#1c1f1c;}.cls-19{fill:#282828;}.cls-20{fill:#282928;}.cls-21{fill:#2e2e2e;}.cls-22{fill:#202220;}.cls-23{fill:#303030;}.cls-24{fill:#302f30;}.cls-25{fill:#2c2a2c;}.cls-26{fill:#101810;}.cls-27{fill:#303130;}.cls-28{fill:#404046;}</style></defs><title>Asset 94</title><g id="Layer_2" data-name="Layer 2"><g id="Layer_1-2" data-name="Layer 1"><path class="cls-1" d="M147.89,75c1.4-7,6.2-12.53,8.85-19,4.42-10.74,12.43-19.5,16.36-30.49.57-1.58,1.6-3.35,3.78-3.56,2.31.27,3.34-.76,3.07-3.07,3.43-4,8.64-5.85,13.05-7.41,5.95-2.11,10.93-5.39,15.88-8.78C210.56,1.54,214.13,4.05,214,0h8c.32.64.58,1.8,1,1.85a139.36,139.36,0,0,1,20,4.57C248.73,8.12,255,9.34,261,11v6l-3,0c-1.86-3.91-5.37-1.15-8-2-3.22-3.14-7.11-2.63-11-2h-2c-2.55-2.88-6.34-3.62-9.59-3.65-1.79,0-3.62-4.14-5.42-.33l-2,0c-6.14-5.42-7.59,2-11,4h0c-5.42-.85-8.52,3-12,6-4.21-.5-6.55,2.35-9,5-2.84-.31-5,.9-5.77,3.54-1.66,5.61-6.14,9.81-7.77,15.27C173.07,47.44,169.33,51,169,56c0,.66,0,1.32,0,2-5.77,2.14-3.31,9.78-8.31,12.43L162,71c0,.66,0,1.33,0,2-6.08,1.55-5.22,7.69-7.62,11.65-3.33,5.52-5.82,11.63-9.72,16.68-2.6,3.36-2.64,7.76-5.66,10.68-3.41-2-2.64-4.91-.77-6.94A9.45,9.45,0,0,0,141,97c2.88-1.45,4.05-3.87,4-7,6.63-5.45,10.08-12.56,11-21a1.87,1.87,0,0,0,2-2c4.69-2.35,3.47-8.28,6.87-11.49.38-.36-.17-2.62-.83-3-1.79-.95-3.29,1.17-3.32,2-.13,4-3.13,6.34-4.72,9.46v3l-6,8Z"/><path class="cls-2" d="M250,21.83c-2.1-.72-6,2.67-6-2.71-1.47-3.4-3.14-3.13-5-.28-1.49-.25-3.84,1.54-4-1.72,0-.7,0-1.41.05-2.12h4l7,0c.4,2.59,2.44,1.82,4,2l6,0c.7,3.1,3.23,1.61,5,2v3c-1.37,0-2.8-.07-3,1.83-1.49-.24-3.84,1.56-4-1.71,0-1.48.09-3.05-2.06-3C250.05,19.13,250.05,20.53,250,21.83Z"/><path class="cls-3" d="M261,19c-1.78-.38-4.31,1.11-5-2l2,0,3,0Z"/><path class="cls-4" d="M5.05,178,5,180c-1.45-1.21-4.93,2.66-5-2Z"/><path class="cls-5" d="M258,23.83c.21-1.9,1.64-1.83,3-1.83v2Z"/><path class="cls-6" d="M141,97a9.45,9.45,0,0,1-2.78,8.06c-1.87,2-2.64,5,.77,6.94-2.22,3.54-4.54,7-9,8-4.91.08-7.57,3.38-10,7h0c-6.1,2.59-12.87,4.05-17,10-2.07-.87-4-3.1-6.2.12-2.9,4.21-9.2,3.94-11.9,8.61-.16.27-.94.26-1.43.25-4.69-.09-7.28,3.46-10.45,6-3.69.22-5.21-4.45-9-4,.15-1.74,1.4-1.82,2.78-2.06,5.54-1,10-3.55,12.17-9l0,0c3.63,0,7.71,1,9.06-4.05,1.3-3.85,5.15-4.11,8-5.73l.91,1.4L98,126.89c1.54-4.25,5.47-4.16,8.93-4.93,4.94,2.91,6.58-1.53,9.07-4.07.86-2.86,4.13-2.36,5.87-4.26,2.36-2.57,5.38-4.52,8.13-6.74,1.2,3.85,2.86,1.47,3.91.08,1.89-2.52,3.44-5.3,5.13-8V97Z"/><path class="cls-7" d="M79,136.91c-2.22,5.48-6.63,8.06-12.17,9-1.38.24-2.63.32-2.78,2.06-3.59,4.15-9.28,4.91-13.43,8.56a25.53,25.53,0,0,1-10.78,5.36c-6.59,1.2-9.4,5-11.75,10.19-1.8,4.24-6.29,1.83-9.39,3.27-3.75,1.75-8.75,4-13.7,2.67,3.14-2.31,5.39-6.07,9.93-6.09,2.19-.21,5.33,1.14,5.08-3.08,1.7-3.64,5.87-3.55,8.73-5.45A161.6,161.6,0,0,1,47.16,153c7.44-3.65,14.12-8.74,22.25-11.26C72.56,140.73,75,137,79,136.91Z"/><path class="cls-8" d="M139,97v2l-3.83-2c1.31-3.42,1.78-7.66,4.13-10.06,3.29-3.38,4.28-7.4,6-11.31.22-.51,1.7-.46,2.6-.67L150,75c.59,5.53-6.45,7.53-6,13-1.61.87-.26,4-3,4C137.86,92.68,139.39,95.23,139,97Z"/><path class="cls-9" d="M135.17,97,139,99c-1.69,2.67-3.24,5.45-5.13,8-1.05,1.39-2.71,3.77-3.91-.08C129.79,102.59,134.52,100.87,135.17,97Z"/><path class="cls-10" d="M116,117.89c-2.49,2.54-4.13,7-9.07,4.07C109,118.62,112.41,118.07,116,117.89Z"/><path class="cls-10" d="M88,132.89c-1.35,5.08-5.43,4.06-9.06,4.05C81.28,134.17,84.49,133.23,88,132.89Z"/><path class="cls-11" d="M20,168.88c.25,4.22-2.89,2.87-5.08,3.08C14.48,167.49,18,169.51,20,168.88Z"/><path class="cls-6" d="M180,18.88c.27,2.31-.76,3.34-3.07,3.07C176.63,19.65,177.65,18.62,180,18.88Z"/><path class="cls-12" d="M98,126.89l-1.06,1.67-.91-1.4Z"/><path class="cls-12" d="M28,172.11c2.35-5.18,5.16-9,11.75-10.19a25.53,25.53,0,0,0,10.78-5.36c4.15-3.65,9.84-4.41,13.43-8.56,3.8-.46,5.32,4.21,9,4l6,0h1.79c1.34,4.21,5,.89,7.19,2.19v2.68c-9.42,3.52-19.6,3.84-29.09,7.72-5.73,2.35-12.94,1.9-18.74,4.67A25,25,0,0,1,28,172.11Z"/><path class="cls-13" d="M79,152l-6,0c3.17-2.56,5.76-6.11,10.45-6,.49,0,1.27,0,1.43-.25,2.7-4.67,9-4.4,11.9-8.61,2.22-3.22,4.13-1,6.2-.12l0,0,0,2.1,0-.05c-2.18.19-5.32-1.19-5,3.05l0-.06c-1.23,0-2,.48-2.08,1.79l-1.9.2c-1.63.15-3.79-.73-4.06,2.07l0-.06c-1.23,0-2,.48-2.08,1.79l-1.91.2a1.79,1.79,0,0,0-2.1,1.8l-2.9.2A1.81,1.81,0,0,0,79,152Z"/><path class="cls-14" d="M154,97.11A22,22,0,0,1,148.12,109c-2.87-1-2.87,2.9-5.11,3,1.64-7.24,7.46-11.93,11-18Z"/><path class="cls-13" d="M103,137c4.14-5.94,10.91-7.4,17-10,0,1.37,0,2.74.07,4.12l0-.06c-1.64.12-3.79-.76-4,2.06l0-.06c-1.39,0-2.9-.25-3.09,1.79l-1.89.19c-1.64.14-3.78-.72-4.07,2.07l0-.05L103,137Z"/><path class="cls-15" d="M182,43.12l-.2,1.9c-1.32.07-1.82.85-1.78,2.09l.06,0c-1.53-.08-3-.1-3.07,2l.06,0L175,49c2.31-5.41,4.95-10.63,9-15,0,1,0,2,0,3l.05,2.09.06,0C181.31,39.33,182.18,41.49,182,43.12Z"/><path class="cls-5" d="M143,112c2.24-.07,2.24-4,5.11-3-.4,4.92-3.12,8.37-7.05,11l-.12-.14C140.52,117,141.53,114.44,143,112Z"/><path class="cls-16" d="M222,14.83h-6A1.86,1.86,0,0,0,214,13a1.94,1.94,0,0,1,2-2l2,0c.15.72.15,1.69,1.2,1.46.35-.07.53-.94.78-1.45l2,0c2.32.71,5.52-1.66,7,2h-5A1.82,1.82,0,0,0,222,14.83Z"/><path class="cls-2" d="M214,13a1.86,1.86,0,0,1,2,1.88l-12.92,4.23L203,19c.39-3.63,5-3,6.05-5.94h0Z"/><path class="cls-17" d="M203.07,19.07c-1.55,5.66-6.1,6.61-11,7l-.12-.14c0-.65,0-1.29.05-1.94,1.88-.13,2.81-2.61,5-2,2-.1,2-1.52,2-3l4-.05Z"/><path class="cls-2" d="M224,13h11v2h-2c-1.53.18-3.53-.65-4,1.83-1.73-.43-4.38,1.86-5-1.71Z"/><path class="cls-3" d="M160.07,84.08a9.59,9.59,0,0,1-3.95,8L154,92c1.78-2.83,2-6.81,5.94-8.06Z"/><path class="cls-18" d="M173.07,58.07c-.66,3.3-1.34,6.59-4,9l-.13-.13L169,62c0-.66,0-1.32,0-2L172.94,58Z"/><path class="cls-19" d="M162,73c0-.66,0-1.33,0-2,2.18.61,3.11-1.87,5-2l0,2.12-.21,1.9a1.77,1.77,0,0,0-1.78,2.09l.06,0L162,75C162,74.33,162,73.66,162,73Z"/><path class="cls-3" d="M141.07,120.08a10.37,10.37,0,0,1-8,4L133,124c1.29-4.1,4.62-4.1,8-4Z"/><path class="cls-18" d="M184,37c0-1,0-2,0-3,0-.66,0-1.32,0-2Q186,31,188,29.94l.09.14c1.22,2.94-2.65,4.24-2.23,6.93Z"/><path class="cls-20" d="M162,79.11c-.07,1-.14,1.93-.2,2.9H160c-2.47-2.06-2.25-2.62,2-5Z"/><path class="cls-21" d="M98.07,142.11c-.28-4.24,2.86-2.86,5-3.05C103.55,143.59,100,141.46,98.07,142.11Z"/><path class="cls-3" d="M133.08,124.08c.47,4.58-3.11,2.38-5,3l-.13-.13c0-1,0-2,.07-2.93h0L133,124Z"/><path class="cls-19" d="M250,21.83c.06-1.3.06-2.7,1.9-2.73,2.15,0,2.07,1.54,2.06,3Z"/><path class="cls-22" d="M162,79.11c0-.7,0-1.41,0-2.12s0-1.32,0-2l3.1.06C165,77.12,165.52,79.63,162,79.11Z"/><path class="cls-3" d="M239,18.84c1.82-2.85,3.49-3.12,5,.28Z"/><path class="cls-22" d="M154,92l2.1,0c-1,1.58,1.67,4.63-2.08,5.07,0-1,0-2.08,0-3.12Z"/><path class="cls-18" d="M175,49l2.09.05c-1,1.55,1.7,4.59-2,5L175,54C175,52.31,175,50.66,175,49Z"/><path class="cls-22" d="M229,16.83c.48-2.48,2.48-1.65,4-1.83,0,.61,0,1.22,0,1.83Z"/><path class="cls-16" d="M167,71.11c0-.71,0-1.41,0-2.12s0-1.32,0-2l1.93-.07.13.13C168.51,68.48,170.25,71,167,71.11Z"/><path class="cls-18" d="M175.07,54.07c-.63,1.35,1.29,4-2,4l-.13-.12c0-1.32,0-2.63.07-4L175,54Z"/><path class="cls-23" d="M90.06,146.11c.27-2.8,2.43-1.92,4.06-2.07C94.05,147.25,91.45,145.49,90.06,146.11Z"/><path class="cls-17" d="M182,43.12c.14-1.63-.73-3.79,2.08-4.06C183.48,40.45,185.24,43.06,182,43.12Z"/><path class="cls-18" d="M192.07,26.08c.12,1.42-.44,2.17-2,2L188,28c0-.67,0-1.34,0-2h0l3.95-.06Z"/><path class="cls-24" d="M120.07,131.12c0-1.38,0-2.75-.07-4.12h0a1.86,1.86,0,0,1,2,2v1.84Z"/><path class="cls-3" d="M128.07,127.07c0,3.29-2.64,1.39-4,2L124,129a1.93,1.93,0,0,1,2-2l2,0Z"/><path class="cls-19" d="M116.07,133.12c.25-2.82,2.4-1.94,4-2.06C120.05,134.27,117.43,132.47,116.07,133.12Z"/><path class="cls-25" d="M107.06,137.11c.29-2.79,2.43-1.93,4.07-2.07C111.06,138.27,108.44,136.48,107.06,137.11Z"/><path class="cls-25" d="M103,137l4.1.05c0,3.25-2.69,1.39-4,2.05Z"/><path class="cls-17" d="M177.05,49.1c.06-2.13,1.54-2.11,3.07-2C180.28,49.53,178.37,48.87,177.05,49.1Z"/><path class="cls-6" d="M88,156.84v-2.68c1.37-.37,2.1,0,2,1.58S89,157,88,156.84Z"/><path class="cls-5" d="M113,134.85c.19-2,1.7-1.82,3.09-1.79C116.15,135.5,114.53,135.07,113,134.85Z"/><path class="cls-26" d="M184,37h1.82c.58,1.69-.37,2.09-1.77,2.09C184,38.41,184,37.71,184,37Z"/><path class="cls-18" d="M160,82h1.85c.55,1.67-.32,2.11-1.77,2.07L160,84Z"/><path class="cls-22" d="M122,130.84V129l2,0,.1.09C124.12,130.5,123.68,131.38,122,130.84Z"/><path class="cls-17" d="M165.05,75.1A1.77,1.77,0,0,1,166.83,73C167.4,74.7,166.46,75.1,165.05,75.1Z"/><path class="cls-25" d="M233,16.83c0-.61,0-1.22,0-1.83h2c0,.71,0,1.42-.05,2.12Z"/><path class="cls-19" d="M224,13l0,2.12-2-.29A1.82,1.82,0,0,1,224,13Z"/><path class="cls-26" d="M188,28l2.09,0c.07,1.43-.54,2.19-2.05,2l-.09-.14Z"/><path class="cls-19" d="M96,143.84c.09-1.31.85-1.82,2.08-1.79C98.09,143.45,97.69,144.39,96,143.84Z"/><path class="cls-19" d="M88,147.84c.08-1.31.85-1.81,2.08-1.79C90.09,147.45,89.7,148.39,88,147.84Z"/><path class="cls-21" d="M84,149.84a1.79,1.79,0,0,1,2.1-1.8C86.08,149.42,85.7,150.39,84,149.84Z"/><path class="cls-21" d="M79,152A1.81,1.81,0,0,1,81.11,150L80.82,152Z"/><path class="cls-26" d="M180.06,47.11c0-1.24.46-2,1.78-2.09C182.4,46.7,181.46,47.1,180.06,47.11Z"/><path class="cls-27" d="M160,82l0,2C156.05,85.2,155.8,89.18,154,92l0,2c-3.52,6.09-9.34,10.78-11,18-1.48,2.43-2.49,5-2.06,7.93-3.38-.09-6.71-.09-8,4L128,124c.67-1.34,1.33-2.68,2-4,4.45-1,6.77-4.46,9-8,3-2.92,3.06-7.32,5.66-10.68,3.9-5,6.39-11.16,9.72-16.68,2.4-4,1.54-10.1,7.62-11.65,0,.67,0,1.34,0,2s0,1.32,0,2C157.74,79.38,157.52,79.94,160,82Z"/><path class="cls-23" d="M175,54,173,54l-4,2c.32-5,4.06-8.57,5.44-13.21,1.63-5.46,6.11-9.66,7.77-15.27.78-2.64,2.93-3.85,5.77-3.54h0v2h0a5.17,5.17,0,0,0-4,6c0,.66,0,1.32,0,2-4,4.38-6.67,9.6-9,15C175,50.66,175,52.31,175,54Z"/><path class="cls-4" d="M144,88c-.44-5.47,6.6-7.47,6-13l6-8v2c-.92,8.44-4.37,15.55-11,21Z"/><path class="cls-11" d="M156,64c1.59-3.12,4.59-5.48,4.72-9.46,0-.84,1.53-3,3.32-2,.66.35,1.21,2.61.83,3-3.4,3.21-2.18,9.14-6.87,11.49C158,65.56,158,64.13,156,64Z"/><path class="cls-24" d="M167,67c0,.66,0,1.32,0,2-1.88.14-2.81,2.62-5,2l-1.32-.58c5-2.65,2.54-10.29,8.31-12.43l0,2c0,.66,0,1.32,0,2C165.86,62.69,167.39,65.23,167,67Z"/><path class="cls-24" d="M235,13h-6c-1.48-3.66-4.68-1.29-7-2,0-.66,0-1.32,0-2,1.8-3.81,3.63.31,5.42.33,3.25,0,7,.77,9.59,3.65Z"/><path class="cls-21" d="M203,19,199,19h-2l0,0c3.51-3,6.61-6.82,12-6C208,16,203.36,15.33,203,19Z"/><path class="cls-23" d="M214,13,209,13c3.4-2,4.85-9.45,11-4-1.58.18-3.63-.6-4,2A1.94,1.94,0,0,0,214,13Z"/><path class="cls-23" d="M197,22c-2.17-.6-3.1,1.88-5,2h-4c2.45-2.65,4.79-5.5,9-5l0,0Z"/><path class="cls-24" d="M246,15l-7,0c0-.66,0-1.33,0-2,3.9-.64,7.79-1.15,11,2l0,0Z"/><path class="cls-28" d="M144,88l1,2c.05,3.13-1.12,5.55-4,7h0V92C143.73,92,142.38,88.87,144,88Z"/><path class="cls-24" d="M258,17l-2,0-6,0,0-2,0,0C252.64,15.83,256.15,13.07,258,17Z"/><path class="cls-20" d="M169,60l0-2c0-.66,0-1.32,0-2l4-2c0,1.32,0,2.63-.07,4Z"/><path class="cls-15" d="M216,11c.4-2.58,2.45-1.8,4-2l2,0c0,.66,0,1.32,0,2l-2,0h-2Z"/><path class="cls-28" d="M156,64c2,.12,2,1.55,2,3a1.87,1.87,0,0,1-2,2V64Z"/><path class="cls-3" d="M239,13c0,.66,0,1.33,0,2h-4V13h4Z"/><path class="cls-22" d="M250,15l0,2c-1.59-.15-3.63.62-4-2Z"/><path class="cls-13" d="M130,120c-.67,1.33-1.33,2.67-2,4h0c-2,.1-2,1.53-2,3a1.93,1.93,0,0,0-2,2l-2,0a1.86,1.86,0,0,0-2-2C122.43,123.38,125.09,120.08,130,120Z"/><path class="cls-11" d="M141,92v5h-2C139.39,95.23,137.86,92.68,141,92Z"/><path class="cls-26" d="M218,11h2c-.25.51-.43,1.38-.78,1.45C218.15,12.69,218.15,11.72,218,11Z"/><path class="cls-19" d="M188,24h4c0,.65,0,1.29-.05,1.94L188,26Z"/><path class="cls-5" d="M197,22l0-3h2C199,20.47,199,21.89,197,22Z"/><path class="cls-20" d="M167,67c.38-1.78-1.15-4.32,2-5l-.06,4.94Z"/><path class="cls-19" d="M184,32a5.17,5.17,0,0,1,4-6c0,.68,0,1.35,0,2s0,1.28-.05,1.92Q186,31,184,32Z"/><path class="cls-23" d="M126,127c0-1.44,0-2.87,2-3,0,1,0,1.95-.07,2.93Z"/></g></g></svg>