<?xml version="1.0" encoding="utf-8"?>
<!-- Generator: Adobe Illustrator 24.3.0, SVG Export Plug-In . SVG Version: 6.00 Build 0)  -->
<svg version="1.1" id="Layer_1" xmlns="http://www.w3.org/2000/svg" xmlns:xlink="http://www.w3.org/1999/xlink" x="0px" y="0px"
	 viewBox="0 0 222.3 212.7" enable-background="new 0 0 222.3 212.7" xml:space="preserve">
<g>
	<g>
		<path fill="#4A4542" d="M222.2,121.2l-0.3-25.9c-0.6-6.8-1-13.6-1.8-20.4c-1.5-13.9-4.4-27.5-9.1-40.6c-2.1-5.7-6.6-9-12.6-10.1
			c-12.4-2.4-24.8-4.3-37.4-5.6c-2.9-0.3-5.2-1.5-7.5-3.4c-10.2-8.8-22.1-13.8-35.5-15.2c-1,0-2,0-2.9,0c-3.4,0-6.7,0.1-10.1,0.1
			c-1-0.1-2-0.1-3-0.2C85.3,3.1,78.6,6.4,64.4,18c-13.4,1.9-27.1,3.4-40.6,6.1c-7,1.4-11.4,5.3-13.8,12C3.8,54,1.2,72.4,0,91.2
			c0,2,0,4,0,6c0,6,0,12.1,0,18.1c0,2,0,4,0,6c1.4,22.4,4.5,44.5,12.1,65.8c1.8,5.1,4.1,10.1,6.4,15.1c2.4,5.3,5.9,9.1,11.9,9.9
			c5.8-0.8,9.2-4.6,12-9.4c4.6-7.9,9.6-15.5,14.4-23.3c1.1-1.7,2.2-3.3,4.2-3.9c13.9-4.6,28-8.1,42.6-9.1c16.8-1.2,33,1.9,49,6.6
			c3.8,1.1,7.7,2,11.2,4.2c0.2,3.9,2.6,6.7,4.4,9.7c3.8,6.2,7.8,12.4,11.5,18.6c2,3.3,4.4,6.1,8.4,6.9c-0.1-0.3,5.1,0.5,5.1,0.5
			c6.9-1.4,9.7-7,12.3-12.6c4.3-9.5,7.6-19.3,10.1-29.4c1.5-6,2.5-12.1,3.6-18.2c1.1-6.6,1.5-13.3,2.7-19.9
			C222.6,128.9,222.1,125,222.2,121.2z M80.4,13.4c14.3-10.5,41-12.4,60.5-0.9c0.6,2.8,0.3,5.8,0.2,8.7c0,13,0.3,26,0,38.9
			c-0.1,7.4-3.8,13.4-9.5,18c-13.4,10.8-34.2,8.9-44.7-3.4c-1.3-1.5-2.7-3-3.2-5.5c4.1-6.9,2.6-13.4-3.2-19.3
			c0.1-9.5-0.5-19.2,0.3-28.8C80,18.5,80.6,15.8,80.4,13.4z M80.4,59.3c1.5,4.2-0.1,7.4-3.5,9.8c-3.4,2.4-7.2,2.3-10.7,0.1
			c-3.5-2.3-4.8-5.7-3.6-9.8c1.5-5.3,4.1-7.3,9.1-7.2C76.6,52.1,79,54.2,80.4,59.3z M75,16c0.8,3.1,0.6,5.7,0.3,8.3
			c0.2,0.3,0.3,0.5,0.3,0.8c1.3,2.3,0.5,4.8,0.6,7.2c0.1,3.9,0.1,7.9,0,11.8c0,1.1,0.4,2.4-1,3c-7.8-0.1-7.8-0.1-15.1,5
			c-1.7-3.6-4-6.7-6.8-9.3c0.4-1.8,1.1-3.3,2.1-4.6c0-0.6,0.3-0.9,0.8-1.1l-0.1,0C60.3,28.4,66.7,21.6,75,16z M51.5,90.5
			c2.3-0.5,4.7-0.4,7.5,0c0,2.8,0,5.4,0,7.7c2.9,3.3,6.5,1,9.6,2.6c0.8,2,0.3,4.4,0.2,6.8c-3,1.3-6.2-0.3-9,1.2
			c-1.6,2.6-0.1,5.6-1.2,8.4c-2.2,1.6-4.7,0.6-6.9,0.9c-1.9-3.1,0.7-6.8-2-9.5c-2.5-0.9-5.4-0.1-8.3-0.7c-0.6-2.6-0.2-5-0.2-7.3
			c2-0.8,3.6-0.4,5.3-0.5c3.7-0.2,4.3-0.8,4.5-4.4C51.2,94,50.8,92.4,51.5,90.5z M42.2,72.1c-8.6,0.2-14.1-5.7-14-14.9
			c0.5-7.7,5.5-12.8,12.9-13c8.5-0.3,13.6,4.3,14.5,12.9C56.1,65.5,50.4,71.9,42.2,72.1z M34.3,205.9c-7.7,0.7-7.9,0.6-11-5.3
			c-7.8-14.9-12.1-30.9-14.9-47.3c-2.8-16.3-4.3-32.7-3.9-49.2C4.9,83.2,7,62.5,13.3,42.5c0.2-0.8,0.7-1.5,1-2.3
			c0.8-6.5,4.2-10.3,11-11.4c9.1-1.5,18.2-3,27.4-4.4c1.8-0.3,3.6-0.2,6-0.4c-2.8,4.1-5.2,7.6-7.6,11.2c-0.6,1.7-1.2,3.4-2.5,4.8
			c-13.3-2.1-23.3,3.8-25.3,14.8c-2,11.2,5.6,20,19.7,22.7c2.3,5.5,3.3,12,2.7,17.1c-2.8,1.2-6.7-0.2-8.7,3.5
			c-1.5,2.9-0.9,5.9-0.8,8.8c0.1,4.5,2.3,5.9,9.6,6.8c0.3,4,0,8.8,5.7,9.3c4.8,0.4,10.3,1.9,12.9-5c3,2.3,5.6,4.5,8.4,6.4
			c2.7,1.9,5.6,3.5,9,5.5C65.8,155.4,50.1,181,34.3,205.9z M147.1,166c-6-1.1-12-2.4-18-3.4c-6-1-12.2-2.6-18.2-2.1
			c-11.3,0.9-22.7,2.1-33.8,5.2c-1,0.3-1.9,0.4-2.9,0.3c-3.3,1.5-6.8,2.2-11.3,3.4c8.1-13,15.7-25.2,23.4-37.5
			c4.4,1.2,8.4,2.3,12.4,3.5c0.5,2.7,1.9,4.7,3.3,6.8c7.1,5,10.5,5,17.9-0.1c1.2-2.2,2.4-4.4,3.7-6.9c3.6-1,7.5-2.1,11.7-3.3
			c7.7,12.3,15.2,24.4,23,37C154.1,168.5,150.7,167.2,147.1,166z M103.5,133.8c-0.2-4.2,3.1-7.5,7.5-7.5c4.3,0,7.1,2.8,7.2,7.1
			c0.1,4.5-3,7.6-7.3,7.6C106.7,141,103.6,138,103.5,133.8z M217,118.1c-1,22.9-4.2,45.4-11.9,67.1c-2,5.7-4.4,11.1-7.3,16.4
			c-0.9,1.6-1.6,3.3-3.3,4.2c-4.8,1.4-7.6-0.6-10.2-4.7c-13.9-22.7-28.1-45.3-42.1-67.9c-0.7-1.1-1.3-2.3-2.2-3.8
			c12.1-6,21.9-14.6,29-25.8c1.4-0.3,1.9,0.8,2.7,1.3c3.3,2,6.6,2.1,9.9-0.1c3.1-2.1,4.7-5.8,3.9-9c-0.9-4-3.6-6.3-7.4-7.3
			c-3.8-1-8,1.6-10.2,6.3c-2.2,4.7-4.9,9.1-8.1,13.1c-8.9,11-20.4,17.9-34.1,21.2c-0.8,0.2-1.6,0.2-2.7,0.3
			c-2.9-4.3-6.3-8.3-12.2-8.2c-5.6,0.1-9,3.6-11.9,8.3c-12-2.1-22.3-7.3-31.5-15.8c2.6-0.9,5-1.7,6-4.1c1.3-3,0.9-6.3,0.5-9.4
			c-0.5-3.9-3.4-5.3-9.1-5.5c-0.8-0.8-0.5-1.9-0.6-2.9c-0.4-5-2.2-6.6-7.3-6.7c-2.1-0.1-4.3,0.3-6.5-0.3c-1.4-2.7-1.4-5.7-1.9-8.7
			c3.9-2.2,7.4-4.7,9.9-8.9c2.6,3.9,5.4,6.8,9.6,7.9c4.1,1.1,7.9,0.4,11.3-1.9c1.6,0.9,2.2,2.3,3.1,3.5c15,18.3,44.2,17.7,58.2-1.4
			c3.7-5.1,5.8-10.8,5.8-17.2c0-11.3,0.1-22.6,0.2-34c0-2.6,0-5.3,0-8.2c1.6,0.1,2.6,1.3,3.6,2.1c5.5,4.5,10.5,9.6,14.3,15.8
			c0.6,1,1.3,1.9,1.1,3.2c0.7,0,0.8,0.6,1,1.1c3,4.5,4.3,9.6,5.9,14.9c-2.4,2.2-4.6,4.5-4.8,7.9c-0.1,1.7,0.5,3.3,1.4,4.7
			c2.1,3.6,6,5.4,9.7,4.5c3.6-0.9,7.1-4.6,7.1-8.2c0.1-5.5-3.2-8.5-8.4-10c-1.5-5.8-4-11.2-6.4-16.7c-2.4-3.5-4.9-7-7.5-10.9
			c4.7-1,8.9,0.5,13.2,1c6.4,0.7,12.7,2.2,19.1,3.1c7,1,11.1,4.7,12.1,11.7c4.8,14.5,7.1,29.4,8.5,44.5
			C217.3,95.8,217.5,107,217,118.1z M172.4,97.5c0-2.2,1.8-4.1,4-4.2c2.5-0.1,4.5,1.7,4.5,4.2c0,2.1-1.9,3.9-4.3,3.9
			C174.2,101.4,172.4,99.7,172.4,97.5z M172.3,61.2c0-2,1.3-3.4,3.2-3.8c2.5-0.6,3.6,0.2,5.4,4c-1.8,3.6-3.1,4.5-5.6,3.8
			C173.4,64.6,172.3,63.2,172.3,61.2z"/>
		<path fill="#4A4542" d="M165.4,37.1C165.4,37.1,165.4,37.1,165.4,37.1c-0.1,0-0.1,0-0.2,0L165.4,37.1z"/>
	</g>
	<path fill="#F0F0F0" d="M207.7,40.2c4.8,14.5,7.1,29.4,8.5,44.5c1,11.1,1.2,22.3,0.8,33.4c-1,22.9-4.2,45.4-11.9,67.1
		c-2,5.7-4.4,11.1-7.3,16.4c-0.9,1.6-1.6,3.3-3.3,4.2c-4.8,1.4-7.6-0.6-10.2-4.7c-13.9-22.7-28.1-45.3-42.1-67.9
		c-0.7-1.1-1.3-2.3-2.2-3.8c12.1-6,21.9-14.6,29-25.8c1.4-0.3,1.9,0.8,2.7,1.3c3.3,2,6.6,2.1,9.9-0.1c3.1-2.1,4.7-5.8,3.9-9
		c-0.9-4-3.6-6.3-7.4-7.3c-3.8-1-8,1.6-10.2,6.3c-2.2,4.7-4.9,9.1-8.1,13.1c-8.9,11-20.4,17.9-34.1,21.2c-0.8,0.2-1.6,0.2-2.7,0.3
		c-2.9-4.3-6.3-8.3-12.2-8.2c-5.6,0.1-9,3.6-11.9,8.3c-12-2.1-22.3-7.3-31.5-15.8c2.6-0.9,5-1.7,6-4.1c1.3-3,0.9-6.3,0.5-9.4
		c-0.5-3.9-3.4-5.3-9.1-5.5c-0.8-0.8-0.5-1.9-0.6-2.9c-0.4-5-2.2-6.6-7.3-6.7c-2.1-0.1-4.3,0.3-6.5-0.3c-1.4-2.7-1.4-5.7-1.9-8.7
		c3.9-2.2,7.4-4.7,9.9-8.9c2.6,3.9,5.4,6.8,9.6,7.9c4.1,1.1,7.9,0.4,11.3-1.9c1.6,0.9,2.2,2.3,3.1,3.5c15,18.3,44.2,17.7,58.2-1.4
		c3.7-5.1,5.8-10.8,5.8-17.2c0-11.3,0.1-22.6,0.2-34c4.2,2.1,8.3,4.5,12,7.6c2.2,1.9,4.3,4.1,7,5.3l-0.2,0c0.2,0.6,0.6,1,1.2,1.1
		c3,4.5,4.3,9.6,5.9,14.9c-2.4,2.2-4.6,4.5-4.8,7.9c-0.1,1.7,0.5,3.3,1.4,4.7c2.1,3.6,6,5.4,9.7,4.5c3.6-0.9,7.1-4.6,7.1-8.2
		c0.1-5.5-3.2-8.5-8.4-10c-1.5-5.8-4-11.2-6.4-16.7c6.9-0.2,13.6,1.8,20.4,2.4C196.8,38.3,202.1,40.4,207.7,40.2z M194.7,70.2
		c-4.4,0-9.1,4.5-9.2,8.9c-0.1,4.7,4.4,9.3,9.2,9.2c4.9,0,9.3-4.5,9.2-9.3C203.7,74.7,199.1,70.2,194.7,70.2z M158.6,88.4
		c4.9,0,9.3-4.5,9.1-9.3c-0.2-4.4-4.7-8.8-9.2-8.8c-4.4,0-9,4.5-9.1,9C149.3,84,153.7,88.4,158.6,88.4z"/>
	<path fill="#F0F0F0" d="M51,35.2c-0.6,1.7-1.2,3.4-2.5,4.8c-13.3-2.1-23.3,3.8-25.3,14.8c-2,11.2,5.6,20,19.7,22.7
		c2.3,5.5,3.3,12,2.7,17.1c-2.8,1.2-6.7-0.2-8.7,3.5c-1.5,2.9-0.9,5.9-0.8,8.8c0.1,4.5,2.3,5.9,9.6,6.8c0.3,4,0,8.8,5.7,9.3
		c4.8,0.4,10.3,1.9,12.9-5c3,2.3,5.6,4.5,8.4,6.4c2.7,1.9,5.6,3.5,9,5.5c-16,25.6-31.6,51.2-47.5,76.1c-7.7,0.7-7.9,0.6-11-5.3
		c-7.8-14.9-12.1-30.9-14.9-47.3c-2.8-16.3-4.3-32.7-3.9-49.2C4.9,83.2,7,62.5,13.3,42.5c0.2-0.8,0.7-1.5,1-2.3
		c5.8-0.3,11.4-1.9,17.1-2.5C37.9,36.9,44.3,35.2,51,35.2z"/>
	<path fill="#BDBEC0" d="M141,21.2c0,13,0.3,26,0,38.9c-0.1,7.4-3.8,13.4-9.5,18c-13.4,10.8-34.2,8.9-44.7-3.4
		c-1.3-1.5-2.7-3-3.2-5.5c4.1-6.9,2.6-13.4-3.2-19.3c0.1-9.5-0.5-19.2,0.3-28.8c1,0.1,1.9-0.2,2.8-0.6c6.9-2.5,13.9-4.7,21.4-4.4
		c0,1,0,2,0.1,3c0.4,3.6,2.3,5.3,5.9,5.4c4.4,0,6.3-2.5,6.2-8.2c4-0.5,7.9,0.2,11.7,1.2C132.8,18.7,136.9,20,141,21.2z M110.7,67.2
		c4.3,0,8.7,0.1,13,0c6-0.1,9.3-3.3,9.4-9.2c0.1-5.5,0.1-11,0-16.5c-0.1-5.4-3.1-8.9-8.6-9c-9.2-0.2-18.3-0.2-27.5,0
		c-5.5,0.1-8.1,3.1-8.1,8.6c-0.1,5.7-0.1,11.3,0,17c0.1,6.2,2.9,9,9.2,9.1C102.4,67.3,106.5,67.2,110.7,67.2z"/>
	<path fill="#F0F0F0" d="M147.1,166c-6-1.1-12-2.4-18-3.4c-6-1-12.2-2.6-18.2-2.1c-11.3,0.9-22.7,2.1-33.8,5.2
		c-1,0.3-1.9,0.4-2.9,0.3c2.5-4.1,5-8.2,7.6-12.2c4.7-7.4,11.6-11,20.2-11.6c7.1,5,10.5,5,17.9-0.1c4.1,0.4,7.9,1.6,11.6,3.7
		C139.6,150.4,143.2,158.3,147.1,166z"/>
	<path fill="#DBDBDB" d="M104.9,16.2c-7.5-0.3-14.5,1.9-21.4,4.4c-0.9,0.3-1.8,0.7-2.8,0.6c-0.7-2.6-0.2-5.3-0.4-7.7
		c14.3-10.5,41-12.4,60.5-0.9c0.6,2.8,0.3,5.8,0.2,8.7c-4.1-1.2-8.2-2.5-12.3-3.6c-3.8-1.1-7.7-1.7-11.7-1.2
		C113.8,11.6,108.5,10.8,104.9,16.2z"/>
	<path fill="#DBDBDB" d="M55.6,57.1c0.5,8.3-5.2,14.8-13.4,14.9c-8.6,0.2-14.1-5.7-14-14.9c1.5,0.1,2.3-1.1,3.4-1.9
		c5.2-4.1,13.2-5.4,19.7-0.7C52.6,55.6,53.8,56.9,55.6,57.1z"/>
	<path fill="#BDBEC0" d="M102.1,142.2c-8.6,0.6-15.5,4.3-20.2,11.6c-2.6,4-5.1,8.1-7.6,12.2c-3.3,1.5-6.8,2.2-11.3,3.4
		c8.1-13,15.7-25.2,23.4-37.5c4.4,1.2,8.4,2.3,12.4,3.5C99.2,138.1,100.7,140.1,102.1,142.2z"/>
	<path fill="#BDBEC0" d="M147.1,166c-4-7.7-7.6-15.6-15.6-20.2c-3.6-2.1-7.4-3.4-11.6-3.7c1.2-2.2,2.4-4.4,3.7-6.9
		c3.6-1,7.5-2.1,11.7-3.3c7.7,12.3,15.2,24.4,23,37C154.1,168.5,150.7,167.2,147.1,166z"/>
	<path fill="#E0E0E0" d="M51,35.2c-6.6,0-13.1,1.7-19.6,2.5C25.6,38.3,20,40,14.3,40.2c0.8-6.5,4.2-10.3,11-11.4
		c9.1-1.5,18.2-3,27.4-4.4c1.8-0.3,3.6-0.2,6-0.4C55.8,28.2,53.4,31.7,51,35.2z"/>
	<path fill="#E0E0E0" d="M207.7,40.2c-5.6,0.2-10.9-1.9-16.4-2.5c-6.8-0.6-13.5-2.6-20.4-2.4c-2.4-3.5-4.9-7-7.5-10.9
		c4.7-1,8.9,0.5,13.2,1c6.4,0.7,12.7,2.2,19.1,3.1C202.6,29.5,206.7,33.2,207.7,40.2z"/>
	<path fill="#DBDBDB" d="M41.5,107.9c-0.6-2.6-0.2-5-0.2-7.3c2-0.8,3.6-0.4,5.3-0.5c3.7-0.2,4.3-0.8,4.5-4.4
		c0.1-1.6-0.3-3.3,0.4-5.2c2.3-0.5,4.7-0.4,7.5,0c0,2.8,0,5.4,0,7.7c2.9,3.3,6.5,1,9.6,2.6c0.8,2,0.3,4.4,0.2,6.8
		c-3,1.3-6.2-0.3-9,1.2c-1.6,2.6-0.1,5.6-1.2,8.4c-2.2,1.6-4.7,0.6-6.9,0.9c-1.9-3.1,0.7-6.8-2-9.5
		C47.3,107.6,44.4,108.5,41.5,107.9z"/>
	<path fill="#F0F0F0" d="M75.2,24.2c0.2,0.3,0.3,0.5,0.3,0.8c-0.7,7.3-0.1,14.7-0.4,22.1c-7.8-0.1-7.8-0.1-15.1,5
		c-1.7-3.6-4-6.7-6.8-9.3c0.4-1.8,1.1-3.3,2.1-4.6c0.3-0.4,0.6-0.7,0.8-1.1l-0.1,0c2,0.2,2.9-1.3,4-2.4
		C64.6,30.5,69.5,26.8,75.2,24.2z"/>
	<path fill="#DBDBDB" d="M80.4,59.3c1.5,4.2-0.1,7.4-3.5,9.8c-3.4,2.4-7.2,2.3-10.7,0.1c-3.5-2.3-4.8-5.7-3.6-9.8
		c2.8,0,5-2.1,7.9-2.2C74.2,56.9,77.2,58.5,80.4,59.3z"/>
	<path fill="#EAEAEA" d="M55.6,57.1c-1.8-0.2-3-1.5-4.3-2.5c-6.5-4.7-14.5-3.4-19.7,0.7c-1,0.8-1.8,2-3.4,1.9
		c0.5-7.7,5.5-12.8,12.9-13C49.6,44,54.7,48.5,55.6,57.1z"/>
	<path fill="#DBDBDB" d="M118.2,133.4c0.1,4.5-3,7.6-7.3,7.6c-4.1,0-7.2-3.1-7.4-7.2c-0.2-4.2,3.1-7.5,7.5-7.5
		C115.3,126.3,118.1,129.1,118.2,133.4z"/>
	<path fill="#E0E0E0" d="M165.4,37.1c-2.7-1.2-4.8-3.4-7-5.3c-3.7-3.1-7.7-5.5-12-7.6c0-2.6,0-5.3,0-8.2c1.6,0.1,2.6,1.3,3.6,2.1
		c5.5,4.5,10.5,9.6,14.3,15.8C164.9,34.9,165.6,35.8,165.4,37.1z"/>
	<path fill="#E0E0E0" d="M75.2,24.2c-5.7,2.5-10.6,6.3-15.2,10.5c-1.2,1.1-2.1,2.6-4,2.4C60.3,28.4,66.7,21.6,75,16
		C75.8,19,75.6,21.6,75.2,24.2z"/>
	<path fill="#EAEAEA" d="M80.4,59.3c-3.3-0.7-6.2-2.4-9.9-2.2c-2.9,0.2-5.1,2.2-7.9,2.2c1.5-5.3,4.1-7.3,9.1-7.2
		C76.6,52.1,79,54.2,80.4,59.3z"/>
	<path fill="#6DC92F" d="M181,61.3c-1.8,3.6-3.1,4.5-5.6,3.8c-2-0.5-3.1-1.9-3.1-4c0-2,1.3-3.4,3.2-3.8
		C178.1,56.7,179.2,57.5,181,61.3z"/>
	<path fill="#EE6448" d="M180.9,97.5c0,2.1-1.9,3.9-4.3,3.9c-2.4,0-4.3-1.7-4.3-3.9c0-2.2,1.8-4.1,4-4.2
		C178.9,93.2,180.9,95,180.9,97.5z"/>
	<path fill="#858789" d="M75.1,47.1c0.3-7.4-0.4-14.7,0.4-22.1c1.3,2.3,0.5,4.8,0.6,7.2c0.1,3.9,0.1,7.9,0,11.8
		C76.1,45.2,76.5,46.5,75.1,47.1z"/>
	<path fill="#D4BBEE" d="M56.2,37.1c-0.3,0.4-0.6,0.7-0.8,1.1C55.3,37.6,55.6,37.3,56.2,37.1z"/>
	<path fill="#D4BBEE" d="M166.4,38.2c-0.6-0.1-1.1-0.5-1.2-1.1C166.1,37,166.2,37.6,166.4,38.2z"/>
	<path fill="#4A4542" d="M194.7,70.2c4.4,0,9.1,4.5,9.2,8.9c0.1,4.8-4.3,9.2-9.2,9.3c-4.8,0-9.4-4.5-9.2-9.2
		C185.6,74.7,190.3,70.2,194.7,70.2z M198.8,79.3c-0.1-2.4-1.9-4-4.3-4c-2.3,0-4.1,1.8-4.1,4.2c0,2.3,1.8,3.9,4.3,3.9
		C197.2,83.3,198.9,81.6,198.8,79.3z"/>
	<path fill="#4A4542" d="M158.6,88.4c-4.9,0-9.3-4.4-9.2-9.2c0.1-4.4,4.7-8.9,9.1-9c4.5,0,9.1,4.4,9.2,8.8
		C167.9,83.9,163.5,88.3,158.6,88.4z M158.7,75.3c-2.4-0.1-4.3,1.6-4.3,3.9c-0.1,2.3,1.6,4.1,4,4.2c2.5,0.1,4.2-1.4,4.3-3.8
		C162.8,77.2,161.1,75.3,158.7,75.3z"/>
	<path fill="#4A4542" d="M110.7,67.2c-4.2,0-8.3,0-12.5,0c-6.4-0.1-9.2-2.9-9.2-9.1c-0.1-5.7-0.1-11.3,0-17c0.1-5.5,2.7-8.5,8.1-8.6
		c9.2-0.2,18.3-0.2,27.5,0c5.5,0.1,8.5,3.6,8.6,9c0.1,5.5,0.1,11,0,16.5c-0.1,5.9-3.4,9.1-9.4,9.2C119.4,67.3,115,67.2,110.7,67.2z
		 M124.3,38.2c-1.3-0.3-2.6-0.8-3.9-0.8c-7.3-0.1-14.7-0.1-22,0c-1.9,0-3.6,0.5-5.1,2.7c0.5,7-1.2,14.6,1.1,21.9c3,0,5.3,0,7.7,0
		c10.4,0.8,22.3,0.5,25.8-0.9c0-7.2,0-14.6,0-21.5C126.6,38.1,125.4,38.2,124.3,38.2z"/>
	<path fill="#4A4542" d="M104.9,16.2c3.6-5.4,8.9-4.5,12.1,0.1c0.1,5.7-1.8,8.2-6.2,8.2c-3.6,0-5.5-1.7-5.9-5.4
		C104.9,18.2,105,17.2,104.9,16.2z"/>
	<path fill="#09AFE1" d="M198.8,79.3c0.1,2.3-1.6,4-4.1,4.1c-2.5,0-4.3-1.6-4.3-3.9c0-2.3,1.7-4.1,4.1-4.2
		C196.9,75.2,198.7,76.9,198.8,79.3z"/>
	<path fill="#F0D90A" d="M158.7,75.3c2.4,0.1,4,1.9,3.9,4.2c-0.1,2.4-1.8,3.9-4.3,3.8c-2.4-0.1-4.1-1.8-4-4.2
		C154.5,76.9,156.4,75.2,158.7,75.3z"/>
	<path fill="#858789" d="M102,61.9c-2.3,0-4.6,0-7.7,0C92,54.6,93.8,47,93.3,40c1.5-2.1,3.2-2.7,5.1-2.7c7.3,0,14.7,0,22,0
		c1.3,0,2.6,0.5,3.9,0.8c-5.9,6.9-12.8,12.9-19.1,19.5C104,59,102.3,60,102,61.9z"/>
	<path fill="#656668" d="M102,61.9c0.3-2,2-3,3.2-4.3c6.3-6.6,13.1-12.6,19.1-19.5c1.2,0,2.3-0.1,3.5,1.4c0,6.9,0,14.2,0,21.5
		C124.2,62.4,112.3,62.8,102,61.9z"/>
</g>
</svg>
