<svg xmlns="http://www.w3.org/2000/svg" viewBox="0 0 133.7 188.56"><defs><style>.cls-1{fill:#deaf88;}.cls-2{fill:#f7dca8;}.cls-3{fill:#cc896a;}.cls-4{fill:#f6ce97;}.cls-5{fill:#be7255;}.cls-6{fill:#f4bc87;}.cls-7{fill:#e3a078;}.cls-8{fill:#a46038;}.cls-9{fill:#704129;}.cls-10{fill:#591417;}.cls-11{fill:#573221;}.cls-12{fill:#f73e4e;}.cls-13{fill:#f51f44;}.cls-14{fill:#f52d45;}.cls-15{fill:#f45851;}.cls-16{fill:#ec153a;}.cls-17{fill:#f56c59;}.cls-18{fill:#f75e5c;}.cls-19{fill:#ee4a46;}.cls-20{fill:#f0664d;}.cls-21{fill:#c5202f;}.cls-22{fill:#f78f51;}.cls-23{fill:#f39b55;}.cls-24{fill:#f79068;}.cls-25{fill:#f6c15d;}.cls-26{fill:#f6998c;}.cls-27{fill:#f67e63;}.cls-28{fill:#ce4740;}.cls-29{fill:#ef263f;}.cls-30{fill:#bb3b34;}</style></defs><title>Asset 103</title><g id="Layer_2" data-name="Layer 2"><g id="Layer_1-2" data-name="Layer 1"><path class="cls-1" d="M133.35,166.35v5l-5.17-2.21,0-1.81c.1-2.32.26-4.64.27-7q.12-29,.19-57.9l1.66-.33.15.36c1,3.62-2.86,8.54,2.93,10.85v13c-2.49,2.44-5.12,4.86-.94,8.08.31,0,.63,0,.94-.08v5c-2.95-3-3-.53-3,1.65,0,5.78,0,11.55.08,17.32C130.07,161.48,132.21,163.74,133.35,166.35Z"/><path class="cls-2" d="M.35,154.35v-32l5.91-4,0,5.92c-1.9.65-2,1.39-.11,2.22q.12,6.41.26,12.8c0,3.14-.3,6.31,0,9.42C6.83,153.43,4.8,155.09.35,154.35Z"/><path class="cls-3" d="M6.43,139.3q-.13-6.41-.26-12.8c0-.74.07-1.48.11-2.22,0-2,0-3.94,0-5.92,0-1.65,0-3.31-.07-5-.11-1.14.75-3.09-.85-3.12s-.76,2-1,3.09l-.07,0h-4v-17c2.52-.41,2-2.35,2-4l3.92,2c.23,1.53-.31,3.41,1.84,4.06v40.92Zm-1.9-36.87-1,.5A15.78,15.78,0,0,0,5,104.67a1.41,1.41,0,0,0,1-.59C6.25,103.1,5.62,102.64,4.53,102.43Z"/><path class="cls-4" d="M128.18,169.14l5.17,2.21v13l-3,4h-10c.33-.54.54-1.27,1-1.58,1.15-.73,3.43-.78,2.59-2.76-1-2.4-2.3.54-3.61.27-2.37-.48-5.31,1.45-7-1.74,3.74.2,4.06-2.39,4.18-5.13,3.2-.8,2.27,4.11,5.16,3.74l1.57-.12,2.06.3c.41,1.43-1,3.48,1.28,4.19.42.13,1.62-.83,1.78-1.47.66-2.62-1.7-2.17-3-2.73,0-.63,0-1.27,0-1.91.83-3.43-.86-4.4-3.93-4,0-1.34.09-2.68.13-4l3.93.07,1,1.32,1-1.33c0-.72,0-1.44,0-2.15Z"/><path class="cls-5" d="M.35,30.35v-9c1.77-1.3,5.47,3.16,6-2l2.14.1C8.41,30.74,8.41,42,8.26,53.29c0,1.81.83,4.14-1.75,5.18.07-4.55-3-4.34-6.16-4.12v-1c7,1.14,6.24-3.58,5.93-7.93,0-.72,0-1.44,0-2.16C6.9,40,6,37.14,4.4,34.37A2.79,2.79,0,0,0,6,30C4.42,28,2.36,31.21.35,30.35Z"/><path class="cls-3" d="M133.35,56.35v8l-1,0c-3.81,1.44-1.39,4.66-2,7l.12,4c2.37,3.63-1.58,7.25,0,10.88v4c-1,3.07,2.56,5,2,8-.1,1.64-.2,3.27-2,4.13l-.15-.36c-.06-1.52.36-3.26-1.76-3.84l0-45,1.86.05C130.23,55.5,131.06,56.67,133.35,56.35Z"/><path class="cls-3" d="M47.35,188.35h-17l0-2,1.36-1.05-1.49-.91c-1.44.05-2.61-.32-2.94-1.95l22.08.06C48.64,184.42,46.77,186,47.35,188.35Z"/><path class="cls-3" d="M.35,175.35v-2l4-.07c5-2-.19-3.91,0-5.87l.1-1.1c2.36-.39,1.85-2.31,2.05-3.85l1.72-.14.27,5.07c0,.67,0,1.35,0,2l3.92,5.94c-1.64.18-2.21,1.2-2,2.69.27,1.92,1.67,1.59,3,1.37v2c-3.62,0-2.8,2.67-2.88,4.8-1.61-3.55-4-6.18-8.08-6.83,1.29-.33,2.18-1.11,1.77-2.48C3.54,175,1.77,175.46.35,175.35Z"/><path class="cls-1" d="M27.31,182.43c.33,1.63,1.5,2,2.94,1.95,0,.65.09,1.31.13,2l0,2h-13c-.25-.51-.43-1.39-.77-1.47-1.06-.23-1.09.74-1.23,1.47h-2V184.4c4.06-2,.87-5.66,1.85-8.36C17.11,182.2,21.61,183.44,27.31,182.43Z"/><path class="cls-6" d="M113.35,182.54c1.7,3.19,4.64,1.26,7,1.74,1.31.27,2.6-2.67,3.61-.27.84,2-1.44,2-2.59,2.76-.49.31-.7,1-1,1.58h-15c-.1-2-1.61-2-3.06-2.12,0-1.23,0-2.46.07-3.7Z"/><path class="cls-3" d="M60.35.35h19l-2,4.89-19-.11Z"/><path class="cls-7" d="M.35,54.35c3.12-.22,6.23-.43,6.16,4.12C7,61,7.58,63.6,8.12,66.16l-1.73.26c-2.4-.56-4,1.29-6,1.93Z"/><path class="cls-1" d="M8.15,162.32l-1.72.14-2.23,0c-3.18-.83-.12-5.61-3.85-6.09v-2c4.45.74,6.48-.92,6.06-5.63-.28-3.11,0-6.28,0-9.42l1.71.08Q8.14,150.84,8.15,162.32Z"/><path class="cls-7" d="M105.35.35h12c-.32,2.33,0,4.22,3,4.3l.06,2.7c-.23,1.75-1.44,2-2.91,2-.49-1.43.71-3.72-2-4l-11-.33,1-2.46Z"/><path class="cls-3" d="M8.46,19.47l-2.14-.1c-2.42.6-4-1.39-6-2v-6c3,.54,5.53-.61,8-2-.07,3.46-.19,6.93,2,9.94Z"/><path class="cls-3" d="M.35,7.35c-2-10,5.4-6.47,10-7,.25,1.67,2.68,3.33,0,5C6.83,5.09,4,8.41.35,7.35Z"/><path class="cls-5" d="M77.33,5.24l2-4.89h6c2.25,4,6,1.15,9,2l0,0,.09,2.68Z"/><path class="cls-3" d="M133.35,7.35v10c-2.38,3.34-1.62,8-4.77,11q-.2-4.47-.38-8.94c3.53-3.31,3.38-6.68.14-10.09a2.09,2.09,0,0,1,2-2h3Z"/><path class="cls-2" d="M130.42,158.32c0-5.77-.1-11.54-.08-17.32,0-2.18.06-4.66,3-1.65v19Z"/><path class="cls-8" d="M2.33,179.36c4.07.65,6.47,3.28,8.08,6.83,1.07.34,1.92.88,1.94,2.16h-8a6.08,6.08,0,0,0-4-4v-5Z"/><path class="cls-5" d="M6.29,94.39l-3.92-2h-2v-6l7.64-3q.07,3.48.14,7C5.94,91,6.5,92.84,6.29,94.39Z"/><path class="cls-7" d="M133.35,7.35h-1.11l-.91-1.45-.94,1.45a2.09,2.09,0,0,0-2,2h0l-1.85,0-.23-1.82c.1-1.49,0-2.83-1.87-3.18h0l0-4a9.53,9.53,0,0,0,2,0C132.31-.93,134.64,1.39,133.35,7.35Z"/><path class="cls-2" d="M75.35,188.35h-13c.06-6.64,5.2-3.07,8.08-4l.95,1.49,1-1.49,0-1.88,3.07,0Z"/><path class="cls-7" d="M27.35.35h11c.72,3.33-1.92,3.9-4,4.92H27.37l-.14-1Z"/><path class="cls-7" d="M6.28,45.42c.31,4.35,1.1,9.07-5.93,7.93v-8Z"/><path class="cls-4" d="M102.36,182.53c0,1.24,0,2.47-.07,3.7l.06,2.12h-6a2.28,2.28,0,0,0-1.87-2.1l-.06-3.78Z"/><path class="cls-7" d="M128.58,28.39c3.15-3,2.39-7.7,4.77-11v13c-1.3,1.41-2.79,2.33-4.81,2C128.55,31,128.57,29.7,128.58,28.39Z"/><path class="cls-1" d="M.35,30.35C2.36,31.21,4.42,28,6,30A2.79,2.79,0,0,1,4.4,34.37c-3.92,1.62-1.32,3.32-.06,5l-4,0Z"/><path class="cls-5" d="M47.35.35h8c0,1.59,0,3.18,0,4.77l-8.08,0Z"/><path class="cls-5" d="M.35,79.35v-6c1.69.05,3.48.27,4-2,3.65,2,1.22,5.34,1.87,8l-4,.2Z"/><path class="cls-7" d="M133.35,43.35v8l-.94-.11-1.09-1.31-.95,1.4,0,0-1.84,0q-.06-4-.14-8l.35.14c1.31-.15,1.57-1.15,1.77-2.19Z"/><path class="cls-5" d="M34.32,5.27c2.11-1,4.75-1.59,4-4.92h7l0,4.79Z"/><path class="cls-3" d="M60.35,188.35h-7c0-2,0-4,0-5.95l5.1.14C59.2,184.43,61,186,60.35,188.35Z"/><path class="cls-3" d="M2.21,79.55l4-.2L8,79.46l0,3.87-7.64,3v-3C2.58,82.87,2.31,81.17,2.21,79.55Z"/><path class="cls-2" d="M130.42,102.5c1.75-.86,1.85-2.49,2-4.13l.49,0h.49v15C127.56,111,131.4,106.12,130.42,102.5Z"/><path class="cls-7" d="M.35,7.35c3.68,1.06,6.48-2.26,10-2h0V7.24l-2,2.1c-2.49,1.4-5,2.55-8,2Z"/><path class="cls-6" d="M60.35,188.35c.61-2.35-1.15-3.92-1.91-5.81l13.86-.09,0,1.88h-1.9c-2.88.95-8-2.62-8.08,4Z"/><path class="cls-7" d="M53.34,182.4v5.95h-6c-.58-2.39,1.29-3.93,2-5.86Z"/><path class="cls-5" d="M.35,156.35c3.73.48.67,5.26,3.85,6.09.07,1.29.12,2.58.18,3.87,0,.37-.06.73-.1,1.1L.35,166.35Z"/><path class="cls-7" d="M10.35,5.35c2.68-1.67.25-3.33,0-5h9c-.21,2.58-4.71,1.67-4,5l-5,0Z"/><path class="cls-2" d="M130.41,86.3c-1.56-3.63,2.39-7.25,0-10.88l2.92-2.07v10l-1.08,3Z"/><path class="cls-3" d="M.35,39.35l4,0c.13,1.55-.44,3.44,1.92,3.89,0,.72,0,1.44,0,2.16L.35,45.35Z"/><path class="cls-8" d="M.35,166.35l3.93,1.06c-.16,2,5,3.89,0,5.87-.47-2.39-2.45-1.68-4-1.93Z"/><path class="cls-3" d="M15.32,5.32c-.68-3.3,3.82-2.39,4-5h4l-2,5,.08.24L19.58,5.5l-4.2-.12Z"/><path class="cls-4" d="M6.19,113.4c0,1.65,0,3.31.07,5l-5.91,4v-5c2.94.26,4.39-.95,4-4l.07,0Z"/><path class="cls-4" d="M75.35,188.35c0-2,0-3.92,0-5.88l4,.05c-1.25,2.26-2.13,4.33,2,3.83l0,2Z"/><path class="cls-5" d="M21.37,5.37l2-5h4l-.12,3.9-3.88,1Z"/><path class="cls-3" d="M128.54,32.32c2,.36,3.51-.56,4.81-2v6l-2.8,2.26c-.38-1.56.34-3.64-2-4.29Z"/><path class="cls-3" d="M94.42,182.47l.06,3.78c-1.24.16-2.07.75-2.13,2.1h-2c0-.66,0-1.32,0-2s0-1.34,0-2a2,2,0,0,1,2-2.06Z"/><path class="cls-3" d="M105.34,2.51l-1,2.46-4.08.25,0-4.87h3C103.34,1.69,104.17,2.25,105.34,2.51Z"/><path class="cls-5" d="M120.36,7.35l-.06-2.7c0-1.44,0-2.87,0-4.3h2c.06,1.64-.41,3.55,2,4h0c0,1,0,1.91,0,2.87l-2,.17Z"/><path class="cls-7" d="M55.4,5.12l0-4.77h5l-2,4.78Z"/><path class="cls-2" d="M132.41,134.43c-4.18-3.22-1.55-5.64.94-8.08v6Z"/><path class="cls-1" d="M100.35.35c0,1.62,0,3.25,0,4.87l-1.86-.09c-.13-2.78-2.07-2.84-4.11-2.75l0,0,0-2Z"/><path class="cls-3" d="M94.35.35l0,2c-2.95-.86-6.72,2-9-2Z"/><path class="cls-7" d="M.35,17.35c2,.63,3.55,2.62,6,2-.5,5.14-4.2.68-6,2Z"/><path class="cls-7" d="M12.35,188.35c0-1.28-.87-1.82-1.94-2.16.08-2.13-.74-4.8,2.88-4.8l.06,3v3.95Z"/><path class="cls-5" d="M.35,68.35c2-.64,3.64-2.49,6-1.93q-1.12,2.06-2.27,4.11L.35,70.35Z"/><path class="cls-4" d="M130.42,158.32l2.93,0v8C132.21,163.74,130.07,161.48,130.42,158.32Z"/><path class="cls-7" d="M2.33,179.36h-2v-4c1.42.11,3.19-.4,3.75,1.53C4.51,178.25,3.62,179,2.33,179.36Z"/><path class="cls-1" d="M133.35,98.35h-.49l-.49,0c.6-3-2.92-5-2-8h2.94Z"/><path class="cls-1" d="M4.31,113.34c.43,3.06-1,4.27-4,4v-4Z"/><path class="cls-4" d="M130.31,71.38c.63-2.35-1.79-5.57,2-7,.22,1.69-.45,3.55,1,5v2Z"/><path class="cls-4" d="M132.41,51.24l.94.11v5c-2.29.32-3.12-.85-3-3,0-.67,0-1.35,0-2l0,0Z"/><path class="cls-2" d="M130.56,38.61l2.79-2.26v7l-2.87-2C130.5,40.41,130.53,39.51,130.56,38.61Z"/><path class="cls-6" d="M81.35,188.35c0-.67,0-1.34,0-2,0-1.31,0-2.61,0-3.91h1.94c.05.69.09,1.37.14,2.06l0,1.9-.08,2Z"/><path class="cls-1" d="M.35,70.35l3.77.18c.08.28.16.56.26.83-.55,2.26-2.34,2-4,2Z"/><path class="cls-9" d="M.35,184.35a6.08,6.08,0,0,1,4,4Q-.78,189.49.35,184.35Z"/><path class="cls-7" d="M133.35,90.35h-2.94v-4h1.86l1.08,0Z"/><path class="cls-8" d="M120.35.35c0,1.43,0,2.86,0,4.3-3-.08-3.27-2-3-4.3Z"/><path class="cls-5" d="M83.35,188.35c0-.65.05-1.3.08-2l4-.16,1,.19-.09,1.93Z"/><path class="cls-1" d="M130.31,71.38l3,0v2l-2.92,2.07Z"/><path class="cls-3" d="M45.38,5.14l0-4.79h2l0,4.8Z"/><path class="cls-1" d="M2.21,79.55c.1,1.62.37,3.32-1.86,3.8v-4Z"/><path class="cls-9" d="M.35,171.35c1.51.25,3.49-.46,4,1.93l-4,.07Z"/><path class="cls-5" d="M92.35,188.35c.06-1.35.89-1.94,2.13-2.1a2.28,2.28,0,0,1,1.87,2.1Z"/><path class="cls-7" d="M130.35,188.35l3-4C133.26,186.37,134.37,189.28,130.35,188.35Z"/><path class="cls-3" d="M124.39,4.31c-2.45-.41-2-2.32-2-4h2Z"/><path class="cls-6" d="M.35,92.35h2c0,1.66.5,3.6-2,4Z"/><path class="cls-3" d="M102.35,188.35l-.06-2.12c1.45.09,3,.09,3.06,2.12Z"/><path class="cls-1" d="M133.35,69.35c-1.47-1.43-.8-3.29-1-5l1,0Z"/><path class="cls-6" d="M105.34,2.51c-1.17-.26-2-.82-2-2.16h2Z"/><path class="cls-2" d="M15.35,188.35c.14-.73.17-1.7,1.23-1.47.34.08.52,1,.77,1.47Z"/><path class="cls-10" d="M88.35,188.35l.09-1.93,1.9,0v2Z"/><path class="cls-1" d="M133.35,86.35l-1.08,0,1.08-3Z"/><path class="cls-4" d="M132.41,134.43l.94-2.08v2C133,134.39,132.72,134.41,132.41,134.43Z"/><path class="cls-10" d="M128.36,43.36q.07,4,.14,8c0,.67,0,1.33,0,2q0,22.49,0,45c0,1.39.07,2.78.1,4.17q-.09,28.95-.19,57.9c0,2.32-.17,4.64-.27,7-2.1.39-4.78-1.06-6.07,1.92l-1.88.13c-.08-.71-.15-1.42-.22-2.13,1.6-1.86,5.33.74,6.08-2.91l.12-2c0-1.37,0-2.73-.05-4.1l.06-3.85c0-1.38,0-2.77,0-4.15l0-2.89,0-2v-8l0-3.07c0-2,0-3.94-.05-5.91l0-2.1,0-2,0-2v-24l0-4c0-1.32,0-2.65,0-4l0-13,0-4v-3l0-2,0-2q0-6.51,0-13v-2l0-6,.36-2Z"/><path class="cls-8" d="M122.08,169.25c1.29-3,4-1.53,6.07-1.92l0,1.81.12.13-5.77.08Z"/><path class="cls-8" d="M128.61,102.47c0-1.39-.06-2.78-.1-4.17,2.12.58,1.7,2.32,1.76,3.84Z"/><path class="cls-1" d="M6.28,124.28c0,.74-.08,1.48-.11,2.22C4.25,125.67,4.38,124.93,6.28,124.28Z"/><path class="cls-9" d="M83.32,182.43H81.38l-2,.08-4-.05-3.07,0-13.86.09-5.1-.14-4,.09-22.08-.06c-5.7,1-10.2-.23-12.11-6.4l-1.9-.71c0-2-.07-3.95-.11-5.93-.51-3.23-3-1.66-4.77-2l-.27-5.07q0-11.48,0-22.94,0-20.47,0-40.93V90.29q-.06-3.48-.14-7C8,82,8,80.75,8,79.46s.23-2.74.34-4.11l2,0L10.67,77l-.21,8.42,0,29.95,0,7c0,8.26-.76,16.59.05,24.77.71,7.25-4.12,15.62,4.63,21.85,1.84,1.31,2.87,4.39,6.12,4.44.72,2-1.32,4.88,2,5.94h0c.71,2.92,3.11,2,4.91,2,19.61.06,39.23,0,58.84.05,1.78,0,3.68-.55,5.22.91a2,2,0,0,0-2,2.06l-1.9-.09C87.78,180.77,85.11,182.82,83.32,182.43Z"/><path class="cls-8" d="M8.13,90.29v8.16C6,97.8,6.52,95.92,6.29,94.39,6.5,92.84,5.94,91,8.13,90.29Z"/><path class="cls-7" d="M4.53,102.43c1.09.21,1.72.67,1.47,1.65a1.41,1.41,0,0,1-1,.59,15.78,15.78,0,0,1-1.52-1.74Z"/><path class="cls-6" d="M6.19,113.4l-1.81,0c.2-1.12-.65-3.11,1-3.09S6.08,112.26,6.19,113.4Z"/><path class="cls-8" d="M92.32,182.31c-1.54-1.46-3.44-.91-5.22-.91-19.61,0-39.23,0-58.84-.05-1.8,0-4.2.93-4.91-2l65-.12c7.06.06,14.12.16,21.19.17,1.51,0,3.52.55,3.65-2.06l-.13-3.91,2-.12a2.62,2.62,0,0,0,2.43,2.2c0,.63,0,1.26,0,1.89-.12,2.74-.44,5.33-4.18,5.13h-11l-7.94-.06Z"/><path class="cls-11" d="M117.48,175.52a2.62,2.62,0,0,1-2.43-2.2c2.66-.08,5.63.24,5.15-3.94l1.88-.13.45.1c0,.67,0,1.34,0,2,0,1.34-.09,2.68-.13,4l0-.08Z"/><path class="cls-9" d="M124.26,181l-1.57.12c-.1-2-.21-3.9-.31-5.85l0,.08c3.07-.37,4.76.6,3.93,4C125.35,179.62,124.32,179.72,124.26,181Z"/><path class="cls-1" d="M122.38,175.3c.1,1.95.21,3.9.31,5.85-2.89.37-2-4.54-5.16-3.74,0-.63,0-1.26,0-1.89Z"/><path class="cls-2" d="M126.33,181.32c1.35.56,3.71.11,3,2.73-.16.64-1.36,1.6-1.78,1.47-2.25-.71-.87-2.76-1.28-4.19Z"/><path class="cls-2" d="M122.48,171.36c0-.67,0-1.34,0-2l5.77-.08c0,.71,0,1.43,0,2.14l-1.93,0Z"/><path class="cls-6" d="M126.41,171.43l1.93,0-1,1.34Z"/><path class="cls-5" d="M124.26,181c.06-1.31,1.09-1.41,2-1.62,0,.64,0,1.28,0,1.91h0Z"/><path class="cls-9" d="M8.46,19.47l1.9-.19,2.9,0,.06,2.14c-2.64.13-3.07,1.71-3,4,.15,11.63.16,23.26.21,34.9l0,6-.17,2H8.42l-.3-2.22C7.58,63.6,7,61,6.51,58.47c2.58-1,1.73-3.37,1.75-5.18C8.41,42,8.41,30.74,8.46,19.47Z"/><path class="cls-7" d="M6.26,43.26c-2.36-.45-1.79-2.34-1.92-3.89-1.26-1.68-3.86-3.38.06-5C6,37.14,6.9,40,6.26,43.26Z"/><path class="cls-1" d="M128.46,53.33c0-.66,0-1.32,0-2l1.84,0c0,.67,0,1.35,0,2Z"/><path class="cls-5" d="M30.38,186.34c0-.65-.09-1.31-.13-2l1.49.91Z"/><path class="cls-2" d="M13.3,175.32l1.9.71c-1,2.71,2.21,6.34-1.85,8.37l-.06-3c0-.66,0-1.31,0-2,0-1.37.08-2.75.11-4.12Z"/><path class="cls-4" d="M13.19,169.39c0,2,.07,4,.11,5.93l.09,0-1.09.06q-2-3-3.92-5.94Z"/><path class="cls-11" d="M12.3,175.36l1.09-.06c0,1.37-.07,2.75-.11,4.12-1.31.22-2.71.55-3-1.37C10.09,176.56,10.66,175.54,12.3,175.36Z"/><path class="cls-8" d="M13.19,169.39l-4.81,0c0-.68,0-1.36,0-2C10.15,167.73,12.68,166.16,13.19,169.39Z"/><path class="cls-7" d="M4.38,166.31c-.06-1.29-.11-2.58-.18-3.87l2.23,0C6.23,164,6.74,165.92,4.38,166.31Z"/><path class="cls-11" d="M45.38,5.14h1.94l8.08,0h2.91l19,.11,17.1-.18,4,.07,1.86.09L104.39,5l11,.33c-.23,1.51.42,3.43-1.87,4-.56-2.3-2.45-1.86-4-1.86q-27.08,0-54.16.16l-2,0-30-.14a1.94,1.94,0,0,1-1.84-1.76l-.08-.24,2-.07,4,0h7Z"/><path class="cls-8" d="M8.12,66.16l.3,2.22c0,2.32,0,4.65-.05,7-.11,1.37-.22,2.74-.34,4.11l-1.78-.11c-.65-2.65,1.78-6-1.87-8-.1-.27-.18-.55-.26-.83q1.14-2.06,2.27-4.11Z"/><path class="cls-8" d="M113.54,9.26c2.29-.53,1.64-2.45,1.87-4,2.75.28,1.55,2.57,2,4,0,.65,0,1.29-.07,1.94-2.36.47-2,2.29-1.93,3.93l-2,.16L113,9.45Z"/><path class="cls-3" d="M117.38,11.24c0-.65.05-1.29.07-1.94,1.47.09,2.68-.2,2.91-2h2c0,1.34,0,2.67.07,4Z"/><path class="cls-8" d="M13.26,19.26l-2.9,0c-2.18-3-2.06-6.48-2-9.94l2-2.1a3.35,3.35,0,0,1,.08.54c0,1.17.05,2.35.08,3.52,0,1.89,1.35,2.06,2.78,2.07C13.28,15.33,13.27,17.3,13.26,19.26Z"/><path class="cls-3" d="M98.45,5.13l-4-.07-.09-2.68C96.38,2.29,98.32,2.35,98.45,5.13Z"/><path class="cls-11" d="M128.36,43.36l-1.83,0-.38,0c0-1.32,0-2.65,0-4,0-1,0-2,0-3.06l0-3.93c0-1.34,0-2.69,0-4v-2l0-2c.09-4.94-4.07-1.66-5.84-3l.09-2,2.15-.15,3.79,0,1.83.2q.18,4.47.38,8.94c0,1.31,0,2.62,0,3.93,0,.66,0,1.33,0,2q.09,4.59.16,9.18Z"/><path class="cls-7" d="M128.2,19.45l-1.83-.2c-.18-3.47,2.95-6.27,2-9.9h0C131.58,12.77,131.73,16.14,128.2,19.45Z"/><path class="cls-5" d="M130.39,7.35l.94-1.45.91,1.45Z"/><path class="cls-3" d="M128.35,9.35c1,3.63-2.16,6.43-2,9.9l-3.79,0c-1.28-3.74,1.06-5.87,3.55-7.93l.37-2Z"/><path class="cls-11" d="M126.5,9.32c-.13.66-.25,1.32-.37,2l-3.68.07c0-1.34,0-2.67-.07-4l2-.17,1.88.31Z"/><path class="cls-3" d="M126.27,7.5l-1.88-.31c0-1,0-1.91,0-2.87C126.23,4.67,126.37,6,126.27,7.5Z"/><path class="cls-1" d="M70.43,184.33h1.9l-1,1.49Z"/><path class="cls-3" d="M27.37,5.27l-4,0,3.88-1C27.27,4.59,27.32,4.93,27.37,5.27Z"/><path class="cls-5" d="M128.71,43.5q-.08-4.59-.16-9.18c2.34.65,1.62,2.73,2,4.29,0,.9-.05,1.8-.07,2.7C130.28,42.35,130,43.35,128.71,43.5Z"/><path class="cls-1" d="M132.41,51.24l-2,.09.95-1.4Z"/><path class="cls-3" d="M10.35,5.35l5,0,.06.06a2.51,2.51,0,0,1-2.27,2.13l-2.69.27a3.35,3.35,0,0,0-.08-.54C10.34,6.61,10.35,6,10.35,5.35Z"/><path class="cls-9" d="M13.28,13.37c-1.43,0-2.75-.18-2.79-2.07l2.92,0c5.09,1.25,6.36-1.53,6.17-5.84l1.87.11A1.94,1.94,0,0,0,23.3,7.37c0,.64,0,1.28,0,1.92l-.38,3.81c-1.23.12-1.58,1-1.71,2l-5.75.4A2.33,2.33,0,0,0,13.28,13.37Z"/><path class="cls-5" d="M19.58,5.5c.19,4.31-1.08,7.09-6.17,}.84}m.7-3«83a2.51”r.51,0,p,,2,:7Ł2.13Z"Š<tatj`cle{s=2cl¾m2" d~"79.35$182.52l:/&28c0,1n3,0,:.2,0)39qC7'>22,.%,78.1-18,68,71.5,102Ä52Z"/~<p`h Cna3s="chs-7" d9"M(x.45,180.28l3«=,0=cp,.6(0,1.3ż<0,2h-4.9,0m1-.y9Ń0,.62=.09-1«23-.54)q,81["/>²path class5óclS,9" d="M88.45,1h >28l-1.15.1m384.11c'.9-.09-1.37/.14)2/ 6C85.11³582>:2,87.'8<180.778p.41,184.28Z"/<<rath clAss="cl¾-3"(d?"M:.66<184*4l3.84=>11Ń0,.62(1,1>6;.▒4,3l84l4,.1&Z"/Š0pAtĶ"cl!Rs="cls,1p(d=M326.2,9┤.33d0.6-794.0(%6c-2n66,2.21-Ę*s7Ł9-9(1-s.6Č-r.6Ą=7,h-1.95/11.86-2,0-.27<0m1*33-.88-2,7-3.r3,4.25-1 .54,8,15,s,0,5.<'-1&15©6n95-4l20.x6-/ 7q0,6.u1.4,13l4.8%,0c.12-2.55-.06-3,-34-│'05-.æ1%5.61.23,4,4,.8,934-3n6,w.8,q(4C▒19,14nä2,1▒8.59,4.3¾,1▓6.rl1<.3"/><p`th!cnßss="clsm03" d="M12.15,137&31v5«81c=4.d8-1."39.;4o¼72Ł13.42-6.36+¦-r.74-1#.3$1.Ę=-20,1'-1-▒J57->15)2.r1¼1,%3%2.66-3.39-4.27-3,95-95,2.7-┤&9<-4,.06)1.61-│Ė-3.46,1.90M4m0l.07c2.43-3.u5.82)1/<1,8.85(1.36.).93-1r-!.17-.;1-1.46,│m3.15,7®3.1┤9,0-1n7*32-6.62=>3)3.9,1.69,3,s-.17$6.7l0.19,,23-163$;.48$,7<Ņ▒2(▒0<4,0,3,/09,6>8Ą).84,7.81-#*;7,0-3.0890-m>*1©,p.64ź1.r(6.9m3.16-0-%>01-.22l7>▒-2a3.8,3.╝80( ,1m5&76,▒.74c-4.:2-<n73-10.#1-.=1-1%.2-.35-2n3"-3.░)-613-!.13=9.19-2,.:0-3.x9A4.23-1.1u9.23,2n;3,13&9"-*.p((yc.66,2>4*3.72,3(p.0Č-2-6.11,8,12”22,0(1x3,0¼0,2,0,3.94&5,5.91-s.t6.19-4p8-.36-p.05,.66C12".3u,538.25,1r4.33,▒?,▒26.11,▒;7'39^k/>4xaph cless5#+ns-14" d= E118.3q$9ś.│9lw>4,0v03C-9.79.v5-7&46,:/83,51.54¼▒4-1.49=.71-3).08-3.18,1.(h-2G=1.15-3.24-7.93m9.55-6-2-5.390-09.2><1-1u,15-4-.77-3.38*:.37-573,2&r2-9,4.0607-8.24¼.&5,31*86,2i2l32c>32(1>49-.76.2>7),8.▓6,3a21.=1,"4.9q,(0,0,/74%3c3.51-.24,6.36.3,10.2,0,ó.36,2Ę,4,58,7.42,3.7",1.89-.29,2.(▓-2.13(2.68-2.39-1«52-2.64-4,.76-6/1=5.31.28-1.6-1*53)2,2n94)2.06.Ī9¼Ó,.w=-.5n52-.76,-*47-.29C137.67,101,118,99>5,q8.33,ō*&#9Z"?>4paõxpsdass=*bh{-15" D"M326*2 68&34c8/*63(▒,1.33,0$2h-Ė,97c.3:-1.9,1.90-3.69,s.24-,9u,23Į.7,1-5.+8-.4-1.Ė6-.Č7-2.)2.65-2-░.$8-:-4n13-&03-8.07l -12.41-/ 4¼0m1.65-*=3.47,1n=4Ł3.88,1.;2,3.ö1,4.5[<1.75,7.0v(0(-7ve2¾0-#.2,1-2.65,Ó-l3.07.07c3,/6!m3.64l2>Č1,6*09,:dĄ(s2.16.11,4¼11,4,4/│h,4q(.6.5¼0,97l-q*▓7,1Z"/><Path!Ńl!sq="cls!16"Ī`<"M16.▒3,15:.66c4.5.27,0,".7Ż,85¼5. -8.3┤-.15173-.05-25«05-5.0?,/88,5-36.61,2«26l24.93,3.4-.7%,3.Č5-4&58,1-6«08,R,1l-8«87.13k%6.│;-.37-17>32<1)18.53-3.17-3.56-.:7%Č.-4.72,11.13)3.ś3-q«38-.13%2.8-.21-3-2.07|359,0J /,p`th@cņass=&clS-1▓" d="M1Č6,q5,!50.06c0l3/;0,0,".55|0,4.15l7.82<0-46.08-2n░6cl38m1,«75-2,1.!r-#l42¼.Ė5Z"'><p!<hĀclass-óclc-1│" D="M111n35,113.34k*43-1.92,2&29-2.5=,3*39-5.84,6,2.69-Ę.5.51-11,44-.14vq0cM,2Ė-.26-8.56-1&01-5▓.Ė,0.0=2.12,.x2-5.42,3.48-4.35c20.22%0,0,5-13.4wn38,0/83,8.83$0,0-0%2-7g2.05.40<4.8u-1.25,6l2l1,1&39Z"?><xadjclass"cŅy-!6" d=rM90/1u,Ī65.35g0-66&75=376,2.22=2&39<6.77.77,12.1t-3Š67║2«▒6=9<4.1),16<9,34-.z6,13.4r|8.7~▓&09X1Ą.;3a2/0%,2*05,4,5,0-r¼:c-7.8-1.<1%!Ą.98-2.77-23:Z"/><pa|j class="cls-14&└d="]!53.33,q20.│3k4.20-168.56-.2",1.84=,0/Č50,1,│1,0Ė25.5Ę,1,7-qa.65-2.23/16.87,1&y6l-6.>0Ėh-9l512.x4-.1
1«92-5.8c4,2,8y,8.%3,1.77,2:88,r*2,▓.4$4-36,0Z"*?<paT("class<"b|s$14ó$dM5“6.:,94.33a-7n41,0-15.23.09-22.8┤,0-5>Č1-.░w-.73-▓21=1)4l9-24.<,0Cq26,17,99.68-▒24-░9,93,9s6.2,9/33┌"/><0aTz`clecs="ciS%17" l= E126j57,45.76l1,6as1*81,30.<1p,0,1-4.4l-.░┐#-7.░)73-:.2,“i12.$t=1«95,1-«6Ę,1-0*33.05-2516oV1«43.89,1­.56(45.88,126.1745n3&Z"+><pcth cla{v="ŃlS-1(" d="m126.98,'.33l-20»(6.07/4.x2%.qt-3.cx&6-
19l4w.2,2,27>8,0Z"»Š╝pauH c|asQ="cls-1yó`d=*M126.21,33/36c-8.6,“.2-17.0-.1-2Ą.8$y1-▓.ź│(2-5/08c0.%┤,5 ,▒.18,1$«95 "(8.87B126.60w1,35,166.2,3▓«;=,q26,21,Ą;.s6Z"/>0`ith #lass- jLs-13" d=éI162>16(▒64.s4c-8.ō2-.79-17,2-24.╣q%3-0u,8&35,!)▒6.71.y2,35*1u<1&07^¬'>|pAVj chb3s5"blr-20" t5"┼126”1│,5.14c-5.6.2-1?/5Ę-q.71.x,d8-2c0-.w,0-1.41,0/:.!!*18)1.59=.47-3,┤5,&)}4,.18.1#2.3v,6-12,9.82,2.63,!ĮÄ76,3F92l.38(0Z"/~>xath c|ccs="w¼2-!6*Āf5*M1 3.3┤,1:6.s4l6-.░<,16.84 ,0,2,1c-4.11,0%12.22,░/9.33,0C)26n06,!28>36,184,!28&9│$103.34,126.;4Z"-<<path cl!ssĄ2cņs-5)2 d="M!09.3▓,4935c3.24,3.95,7.74 1/22$01n4t,0.95e3.Ė3,30.81,0,0,0,5.447v2h-3>║4l-4.04/12o0.88,0Į6-p4=.084Zó/><path clÓrs-"cls)13* d=bM12&&▒6-122.s1l-16.86,0c1,2▓m6.55,11.3-.Ė5,36.<w-1n=2Z"/.6pqth class="cls-q4" $5"I11q.;Ą,25,3-l7.:2,0-. 6,;85-77.(ĖC117.7,157$118,555.75-▒qx.37,15p39Z+/><PEtj"bmass=#cls-14" d="M126.1%,050.26H!15.38ļ0-1$0%1=3.0-".89i!0(4Z"'6<pauh slass="cls,r1" d-"O11Ė.11,36'.38-1.87).!sc.07ż71«1t,1.40.26<2.1308l4.38-2.49(3.x6-7.17,3n94l-:,.1-3&65,.21c0-l&,0m3.69,,▒.9┤C112.5,570.46,117.#7)1„3.$3,21(.5,16Ę/38Z"'><qath$c,ass}"clw-3" d="M136.9*147.37H115.│5m0%3h1.0"C106.17,▒66,25,126.1╝,146.%{,126«1y,0$Ę.37R"/><pau(`ļlass=óblw-5v" |="M1x6.!u,137.3╣c-±.42-.614,/x&-41.41,2-2,2.49-3.┤w(4«85Ł9.66Z"/­api cNassĮ"cls-18" d="M136«2(28n30l-1.29-1,1n7-1Zb'><path claqs="#ls-23 d= M88.3,179n24|-65,.!2hc$.6-2-1.6-4m2-5.=6-3.5 Ł4«2:,3.13-Č.12-4.4┤o8/75-6.:3-;.92=14.6-4n61m"1.85-.-8.18-«1)s6.5!5.04-04*77,1n4,1.;1.2.76,3&53,4.3Ę,338,╣,1.37$8*&8,w.5:,8.52,!<>41->2.&32,4.77(1▓.57,13,q2”9r,5.18&20/!0m5.2;,1%q.56,4-.:19.14-210,5.3s,1«17.<▒,4.7,9663¼7
31,11/27A0*3,▒69.2y,<5.'3,97:.52,88.36,▒79,06."/><paTh clIsw="Cl¾-23" d="M8<.3,▒69.6┤s-2┐63%¢/32-(=1t-1<.63-1;.75-6,1+6t-58.313.4")▒r.391▒.:7Ł/3-4?53-6-0.4-12-0.33-5,.2Ę-9.83(1.78%15.1.46).27m*;5-13.2ö-6>2-1-12.y2.12-6,69.4612/8.5>-04.41-q.61->25-0.╣:-2.4'4.3w-3.78,1=2.24,0)4*6;,0m7l2.'6-:,4.13<2*1.04.8.8;c-1.3&,«66-.:6,2.┤2$1.q1,3n1│,5,2.4(11>89,6.38,9.78,14.Ė652,2.33,Ī.v7,8>2┤l6.;4,99(5.3u(1.7'.87lq.8!2-.71.482,{4.77-,(Į╝1.9,1.6=.85$".39,0<2*66-0.6l.0=.14k2/28,1.9,4.6",7,34,8.25-1.19$14.79.75l22«87,5,,3,2.55-.83,6>5$4/1?,6.12v1.9C.11,!.,1&5=,3n9u.:.57$2.7,,│.67,12.53,3*58,1>,9«55,Ą,▒.31.3,&$((3.65-.34A1┤.71,1t.>1l0,8,0,.x4<2.31k-.87,2.<4%.7:,4.07$.48<#«8u,3.43).16-4/x0$p,.2Č-04-f13,2.6-:/▒6,7.46-3.7$,216C102.(,179.4(95.02-79.3,88>s6,079.24Zr+?<patx cdaas= cls-7Ż l=O)0.4,05n37,1167,77m1.69.14a.84*<4,0,0,4,*t.08¼,75,2.75,0,0l<,2.48,2.13l1.85,5.╗2c0,5.p7,2.4,5.:1<0¼tnś.t,6.13-.05,3>73-3.)6ņ5.24-".49<w=2«6,4.Ė1",5.9-:.0.31-6*▒Č.4©-9.7Ė,1:13-"-3.4&/9.64-'j88*3╗-10.9C18/43,8y.22,13.w7l8¦.9",10.4▓,(5.17Z"|<`ath`clacw,"cns	24" d}"M0.$4,8w.37c3.312.%5,9(3«05,3.rw,10-2,3.p1-▓?34,6.w3-.7,10.09,2¼.62.░9,926.14,7.89l-«35(5,94=2.76.2Z#:|­`uh claūs=ccns,5" d=7!2.36(77.09,2.6w<7?L-.s3-1Äv2a>27-1.28.15=2.56.22/3«Ė4l4<3-1.48¼12&1, -.:y,2.:6c-2.65..92-5&67l2/08-.3,;.1C16.36,5.44,q3.71,74.16,32.37Ę7.89["/><yath bl!s¾="cm¾-11 ?"E8n57-71«49c,>0,1.2:-16,0*56-,23,3.h5l-2,0c8)2.32,t 65.05-7H10n3l.21&p7Z&/>8Qath b,a│¾="cls-82`d="M01.31(17341c3.63,1.1.4,#.y42,5.96C2░,3|.29<22,175.3(l2Q:33,173.41Z"/Š<p@¶h ßlÕss=&clb-25" d="m1 3.2,177s!Ń/2>42,p-4.8Ą-Š11-7.24.4Ą-│.26.▓m3.5-143-x.q8Ł;.87l6,06-.3,3.65Ņ1C1▒3>11,74n64,113,15,1wŠ.05▒33.2,1w7.3uZ#/><path clßss="glw%262)t;2M2:.3(╣3.!k▒7-5¬2.26-2.54«78-#.81|▓6.(4n06G-.3Ę,=¼7-2.85,8.86-2*35.#-2.33,0-3.28,1&7v-4/8<3.29-9.29,11-q8>7X*23.84-60$;2.74-”05-1.64-.06)23«37).21%34╣,02/73,6/#.91$1)4,4.19-.24(1.!5-4,2>15-=.07l%n?5.4C>2.&9,=."1/2#1,14«7,22.93L12*1Z"/><@e h cLqsw="clq-&" dĮ"M88/49|60n34c9/7-10&9,18/75-28.78#8-32.74-1¬7-1.43,2.25-;39¼4.=9-3>R8¬4."8-1.93c-n 9,1.24-.17$2½5-.:v,3.w6-0.81,4>58-7.3915.1y-13l15l-1&w6.2`2,2,0*0,0-2,2l0$0e0.93,1.9s041l0-1n;,2b-2.59<7-9&19,10.93m1.14,14.a2<2,0,0,2-1.99l2l-1,2-1.:Ł.0?Z"/,patp(clarc=¬Ńs-13" d=
═15.47,15.51c1,1.8=,2.4,5>3m2.31-5«87ņ-.0r-▓.14b1-2,0-2.;1,0-5.8;A2.3│$2.,0,4,1l9%.47,15&53X"/>ĮpE4h glaS3="cl3-7" du"M10.47,Č6.33l1l)2.07c,Š62-.0,1&66-&13,1.89l-1,7595-.25-.07C30.36,67.69,1.$2l67,10.47.v&.#3#/><t!th!elaswĮ"bl„-5" 5"M5▒.3vĘ,56q2w.09-,29l54&6m.16k1.57,0,9.t6-*44(4,1.86L%.Ą4,14Y60.38i1.91,1.93,0h0,0-2.00,s.8C0,,65%j87/1.31->u1,2ņm2.9,$-1=4.q-&7-2.▓CĮ3.03Š41ls6.39,10.54,55.3Č|Ę.Ą6Z#/*<xapH(cņqs¾="kl¾-4  d="M55.36¼7.%6Ń.83,3-2/41,.95%2*08,7&69-s/07,1.56'2.4",6-&89l7>04l=4n28-!.=3s->6-4>11,58(-9.2,6.25/15,q47-n27,3.4.4▓,<-1?<5J"o:<rith kless=+cls-3ó0$="M53.31,3.1c-"55,2&26-2.48,1.57-4,1.84d/2&-.06s-/64,-1*24,4,1.9X"?>4path!c|ass="clS-0t" d="L58.1Į<13.#1s0Ł.75.0w1.35.11-8e2.13,2,!#,0,0,1,".00-q.9H11;l.<,%.88-4«1,h-4l-.07.05-169-1¦-*56-2.#4)2.42%1.8ś-4n07-1.89X73.43A68.│3¼!4.quŁ63&26,04>4;,58.19,13.29Z#/><xati(clAss=*alq-9" d="M122n┤11«33m2.68-.07#=2.t9,▒.0v-4.83,0.19-3.55,7.93,-6*15.95c-n5ö/ź..2-27)-n1/3.)a1.3<Ą.3,0,0¼0m&╣ĪĀl-1.8r?3f0-1.>4«3=3.46l3.=3-3.93Zó><p`4h clacw=&kL3Ł17" f="I194.45ż1$>14m1j;6.3C0,*63,0,.2Ą,1<*8(d)0,2%2,2l42,.1d0Z*/><tAth cņass="cmg-11" d="M1/51ż7.5▒l”3,3.83%2.90, C0-117-.2=,*35-.07-;&5Z/24čath cla¾r="cls-3w" Õ-"M10.5,43.3tc%0.92-!.";m1▒n37,3/6-1t674-3.)2l14.7╣-.06C26.1,┤p68,126.1,42¼!2v.15,4ō.7Jó/><path Ń|ass="c|3m27"0f=I52~."3,12n37l ,31;-3<.64. c-.rĄ-1.74-.44,3.04,a.7W-4.;1|.0v&2c1/37¼2.65,2.68.2:69,4-.0wZ2/><pau(0cliss?"cls-17"Ī$5"M120»34¼21>35c17',0.3V,5.╣7-0¼92,5.84.3@!1,1l-É,0c-1,0-2,0Ł2.95L9-:p6Z#+n<path cles¾=▓clc-0" l="M522.▓0,3:.r7h-.(śl-4<.27..0”-.2,-*&1.09-.27}1!.84.4ĄR"'><padh©'lass="Cls-24" d-"M!1.5,36.2L14.6#,0c0-30,2(0832d-34>79,p6-.$9=.1Z"/>4pßth c,!s±="g~s,37" d=¬M05.34=34.36h14.84l0,"c-2.%6.947.83-2.1▒-0/8ea.=3l=*09.2w-4-,28H".Š<pa~n Class7Żclc-2"!dØ"L1▒5.36,28.r9c3┤,Ę.6(-1,10.80-1.=3v2Z!/><pAt c|ass="jls┐5"!d"M1r .<,2.s5l=2,0->1▓-9&▒4,-/09,1-1<8g2.<7.q1,9.Č1,Ż/5,0.5u,3.9["/><pat`!alcsr=*cls-5ó d="62693,13/▒c,78-1.46=.24.2.5q-1ó71,2C"0.36(14, ),1.7,1122,22>93,13.1Z"/>=­Ath c(ass="aLr¼21 (¶?#M8.45,1▓0-41|-0*92¼Ą.:3c0,.W-.06.1.45-08,2.58l-"!l1.:9!1.9,1.9,░,1(0-q.84,2¼0,4c-1.77/0(,2* 9,5Ņu6!r.8,3.05-2>32.5▒-1)8,:.s6-1>94,4l).16,4I2.2,2.2,1,8,1-:,236,06.s6>4Ę<0,0.<-.1<-=*8╣c-.45-▓.tĘ-0.63-2.8-3Ł*39l-ź:.61,03-.6)-2.3(-0.=291&│3-4.39,2Ē4>5x-3.'7-9.1q-1-94.84-0«66L-.1;-3.42."1-q&58 2#-N2╝,0&(6¼1n86h2.9l3/8,7.70a14/8,14*:¼0$4,1l1s,3c2«5?,1.29,4,	,3.3(,:.1(2,3^65-.?4-5.9,2.16-1151,9,r.42.20,4.▓4-$47,4873.07l.151.89c2«12-1>5$q«52-3.9u,2.0(m7,2.47-5-.83-▓.;9,1,Į6)4l2.6-4.86c1/35-.28,1-1&43-9.93-3l.06Ł2g2.│->5#,5.9=2&18(▓m4,2Ņ36-.%v,1«(;-2.t5,│*87-4«073k-1>7>,2.5"-3«:,"-.9:l13-1n94,q%▓.1h2c0,.3,0Ł1.33.0║,2,>2,:.2?-1,4.v1/2'26,9q=5n39,4%n8,8.░5s-&"6.1-n11,2-.13,A1.88,▒.Ė0(0,0,0,8sn4,!2p«51Z"'>|pefh cl`sc=*cls=28" d/$M)0.42,86.34hŹ2c0m«6v,0-1¬29$0=1¬94}.0 0c3,12-4n57,.'-977,9.91-9,░l-3.94>08-Ęa2>17,2.!7,0¼0,*2-L1.37)1-3&39/5,2-194c2.43=.34=1.54-ó.9,0,'7,4,ą8h2,;4vrl0,`c-2.34/┤┤-).91,r«27-0.94%3&88h%.01,▓.88-5$2q-,2/=Ą-,5.08cp%1.s,4,.6(0,3&9t-2,/1q-1.t7>95(3.4▒,1(0,0C)467,85.8-96«39.=%.15¼94»t,96.│fR".<path cN±s{="cls29" b="E118.33(98.│9Ń/.33,133¼»6~,r.62%1,#.93l1.:-1.3-y.77-2.9#53Ą-2x0c3.41-6.95,7.;2.2$<9-",&3sn06.Ę.y1ņ1,8.361-1*3Ą┌"»>8patĶ cl!s="c|v-15"$D9"M111.;1,=0*#qhŁ9,0c"18-;*w7,2.92-0(11v-┤C01.15,86<=¼111.3,88&16,515/│1,90.s1R"'>xtath classĮ"cls-14*!d=!M9&79(57.<2|2-*1.4.2.09Ń/1.4Ė,08/3n9,2.9┤%>&95,4,0-.67,0)1.33-p-2Z"/><pat` cņas¾="cLr-14" d=2M3▒#.37,9.31d-1,1.25c-.34-.$%-.8=.9-!-Ī&1Z"/><papĶ cŅssy&cls-16"%d="}77.#,17w.3'k-1.49.72/2.77,6.09-3.05,3.5;-1,Ę.1,.35<10.91/2h c5,0.24,11N44-3l15«2rn175a3.Ė,3.8,<,0,,5&75/3,7h0a2.16.62,.34-1.5,6.0=,1.63- ,2.5q-3.8,s/6-4:1,s.37-3.48-.1== )1044╝l-5/9/« c-s(3.12-6=3.11-#¼0l(7.5.1["/><pAuh class=cls-▒&" d=75«35,105.3Čl.06-,c5,1.31$10.67.26,14/9u,4Ķ0A8=.37<359«24,3/1<,147>6▒<75.35(305.36^(/><p`th2class5"c|s-56" d=2(1.<5,1ó8*4"cp-(?3,0=1.05.0x-r.18l40.84«1C90.66,130n74,8568,127(2?¼8q.41,░28.4▓Z(/?<path"Casc=2cls,<" d="L79.5,13>.23a1.9,1.9,0 ,,184-2c3,/91,v'3;)5.85.9>11$2hpZ"><patj0cLÓss="cmp=14" D"M77*39,▒27*42L7&8d-.1c.74.29,1.80<!.33.99,1.66C8;n25,139.2$7╣.82<!<1¼7339,137Š44Z"/>lpÕth`cl!ss=+cls%52# ─"M9┤.7(33732l5.╣3.04c=25;,>r,u.9,1¬46Ł9.▓3,1/>391.75,16.?9¼93.3▒3.64,94.27,136.32┌"/.lpaTh`kLarr=óclr-04b d="M111«35,5s3«6.4*1-.1C2-1.71,│,(│-2,72l5 1.22Z2/6<­1th class=ALq-29  `²&M85.44,11%.35q1.41-4,2.>-8*05c4.05l5.6&9n7*,4,15.11(4a8.02,,:Ę6,1,R7l2vĒ+b-3.3+#*18Ł4.>3n13m7-0Zb/.<puth class="c,s-52"Ād="Mr2.3%41<0*│4c5.21-1,9.53,3,"8,15,6l5.47.31c-.97.26-.33.44Į$=2,76-1>41.1-2.66>s6/2.94,".06h0c=3.66,1.01m4.48-2.23-10-2h-2Z*?><pavH clisr5&c|{=29" d="M115/34,115.│5c2,«%7,┤.68,1.3!,7"3,1.33n14«23-Ą.5$0.3-2.682.3╣-3,94.8>-3.t3-1.36-3.42-'.42z"->=`ath alass/"cŅS-69" e="M103.35,103.35h2a25.91,25.91,0,0,1-.74,3C102.59,106.14,103.68,104.44,103.35,103.35Z"/><path class="cls-16" d="M111.35,113.34l-1,1.4-1-1.39Z"/><path class="cls-18" d="M102.4,68.33c.32-.65.63-1.3.95-2l17,0c1.21.48,2.49,1.09.26,1.86-1.32.46-2.92.25-3.24,2.15C112.39,69.51,106.94,72.34,102.4,68.33Z"/><path class="cls-19" d="M120.33,66.34l-17,0,.09-2.08c4.14,0,8.28,0,12.41.06C117.58,64.39,119.66,63.84,120.33,66.34Z"/><path class="cls-17" d="M105.41,60.38h7c-2.54,1.78-5.14,3.44-7.06,0Z"/><path class="cls-27" d="M113.42,53.5l4.88,0c0,1,0,1.92,0,2.88l-5,0C113.39,55.38,113.4,54.44,113.42,53.5Z"/><path class="cls-17" d="M113.42,53.5c0,.94,0,1.88,0,2.82-2.45.63-4-1.37-6.09-2a5.41,5.41,0,0,1,.16-1Z"/><path class="cls-17" d="M118.35,56.34c0-1,0-1.92,0-2.88l4.06-.12C122.48,56.3,120.51,56.45,118.35,56.34Z"/><path class="cls-30" d="M107.44,53.36a5.41,5.41,0,0,0-.16,1l-1.87.07-.07-.06-.09-3.13.19-1.87h1.92Z"/><path class="cls-30" d="M105.4,58.39h-2.25c0-.69,0-1.38-.05-2.06l.3-2,1.94,0,.07.06C105.41,55.74,105.4,57.07,105.4,58.39Z"/><path class="cls-13" d="M118.37,154.39c-.33,1.32-.67,2.63-1,4l-31.88,0-8.18,0-5,.1v0c-.51-2-2.62-3.58-1.93-6l1.88-.07Z"/><path class="cls-13" d="M118.11,167.38c-.74,6.15-5.61,3.08-8.73,3.91-3.76-.1-7.66.59-11-1.94a2,2,0,0,0-2.09-1.91l0,0c-1.65-3.4-7-2.73-7.8-7,4.33-.49,7.57,1,11.13,3.83C104.79,168.38,111.78,167,118.11,167.38Z"/><path class="cls-21" d="M88.45,160.38c.84,4.3,6.15,3.63,7.8,7l-3.87-.09-1.95,0c-3.41-4.07-7.08-7.68-13-7.16l-.11-1.84,8.18,0C85.65,160.17,87.07,160.25,88.45,160.38Z"/><path class="cls-13" d="M75.35,145.36c5,2.25,10,3.88,15,0,7.78-.77,15.13,3.4,23,2h2c0,1,0,1.93,0,2.89l-42-.95c0-.63,0-1.26,0-1.89A2.2,2.2,0,0,0,75.35,145.36Z"/><path class="cls-30" d="M73.36,147.41c0,.63,0,1.26,0,1.89-.37,1-.74,2-1.12,3l-1.88.07c-.06-.75-.13-1.5-.19-2.25l.44-4.58c2.53-1.71,2.38-3.19-.39-4.44,1.33-2.41,2.5-2.07,3,.39A36.07,36.07,0,0,1,73.36,147.41Z"/><path class="cls-16" d="M103.35,118.34h2a20,20,0,0,0,11.46-.39c-.66,3-3.53,2.25-3.48,4.37l-11,.07h-6c-4.35-.29-8.93.88-12.88-2a1.88,1.88,0,0,1,1.82-2.07Z"/><path class="cls-14" d="M115.35,147.35h-2a2.05,2.05,0,0,1,2-2C115.33,146,115.34,146.69,115.35,147.35Z"/><path class="cls-29" d="M96.33,122.41h6C100.36,125.38,98.34,125.35,96.33,122.41Z"/><path class="cls-28" d="M107.36,49.36h-1.92l-.21,0c.68-2.05-1.15-4.89,2-6.18l.18.17a2,2,0,0,0,2,2l0,2c0,.67,0,1.33-.05,2Z"/><path class="cls-28" d="M111.31,28.28l4,.28-2,3.61c-2.21.67-2,2.37-1.77,4.11-.07,1-.15,2-.23,3-2.37.5-1.82,2.38-1.9,4l-2,.08-.18-.16c0-.63,0-1.25.07-1.87l2.1-9,2-4Z"/><path class="cls-30" d="M107.37,43.37l2-.08c0,.7,0,1.41,0,2.11A2,2,0,0,1,107.37,43.37Z"/><path class="cls-30" d="M92.38,167.32l3.87.09,0,0a2.1,2.1,0,0,0,2.09,1.91c3.33,2.53,7.23,1.84,11,1.94,0,.65,0,1.29,0,1.94l-6.06.3a14.71,14.71,0,0,1-8.84-2.31h0a1.81,1.81,0,0,0-2-2l0,0Z"/><path class="cls-25" d="M70.66,145.57c-.15,1.52-.3,3.05-.44,4.58-.69.71-1.37,1.43-2,2.15-7.08-4.2-14.63-6.14-22.87-5-.07-.69-.14-1.39-.22-2.08l0-4.33c.08-1.35,1.08-1.6,2.13-1.79,1.47.63,3.7-.42,4.39,2,3,4.44,7.49,1.4,11.2,2.25C65.47,144,69,141.51,70.66,145.57Z"/><path class="cls-25" d="M32.47,132.49l-.21,1.58-3.94,1.14c2.11-8.48-2.82-12.41-9.78-14.86-2-.69-2.47-1.45-1.11-3.11l7.9,1.19c.35,1.81,1.66,1.92,3.12,1.75l9.74,2.25L38,128.36l-1.3.07c-1.29.06-2.14.61-2.22,2h0A1.85,1.85,0,0,0,32.47,132.49Z"/><path class="cls-29" d="M47.23,139.15c-1,.19-2,.44-2.13,1.79-2.27.68-1.83,2.74-2.24,4.36-1.59.45-3.81-.62-4.52,1.91l-.05.14-1.82-.19c0-1.18-.81-1.72-1.81-2-.76-2.54-1.51-5.08-2.27-7.62C37.32,138.2,42.65,135.38,47.23,139.15Z"/><path class="cls-25" d="M77.41,160.11c5.94-.52,9.61,3.09,13,7.16a1.82,1.82,0,0,0,2,2l0,0a1.81,1.81,0,0,0,2,2h0c-.68,2-2.63,2.95-3.65,1.34-3.78-6-11-5.88-16-9.55-1-.75-2.46-1.08-2.57-2.7Z"/><path class="cls-28" d="M25.33,118.43l-7.9-1.19c0-.61,0-1.22-.05-1.83l4-.06c5.56,1.33,11,3.24,16.85,3.07l.06,1.93-.13,2.08-9.74-2.25C28,118.49,26.8,118.26,25.33,118.43Z"/><path class="cls-30" d="M21.41,115.35l-4,.06-4.13-2.1q.16-3,.35-5.94l3.54,2a6.34,6.34,0,0,0,4.09,4Z"/><path class="cls-30" d="M32.39,137.49c.76,2.54,1.51,5.08,2.27,7.62-4.67-1.66-5.82-5.57-6.34-9.9l3.94-1.14C32.3,135.21,32.35,136.35,32.39,137.49Z"/><path class="cls-22" d="M38.34,147.21c.71-2.53,2.93-1.46,4.52-1.91l2.22,0c.08.69.15,1.39.22,2.08C42.94,149.2,40.62,149.11,38.34,147.21Z"/><path class="cls-8" d="M68.17,152.3c.68-.72,1.36-1.44,2-2.15.06.75.13,1.5.19,2.25-.69,2.44,1.42,4,1.93,6C67.34,158.83,68.51,155.05,68.17,152.3Z"/><path class="cls-28" d="M77.41,160.11l-5.06.2v-1.94l5-.1C77.34,158.89,77.37,159.5,77.41,160.11Z"/><path class="cls-25" d="M36.47,147.16l1.82.19c-.28,1.58-1.42,2.45-2.67,1.6C34.13,147.93,35.86,147.64,36.47,147.16Z"/><path class="cls-6" d="M23.24,96.35c-4.57-.07-4.85-1.94-2-4.9,1.47-1.51,2.32-3.11,1.92-5.24a6.15,6.15,0,0,1,4.05-5c.79,1.9.46,4.48,3.18,5.18l-2.19,3.87-1,2a1.9,1.9,0,0,0-1.82,2.12h-.14a1.8,1.8,0,0,0-1.9,2Z"/><path class="cls-28" d="M27.27,92.26l1-2,3.88,0,.31.11-.15,2a5.71,5.71,0,0,0-4,4q-1.49,2-3,4a2.07,2.07,0,0,0-2,2c-1.8.36-3.53.79-4,3-2.32.53-1.94,2.38-2,4l-.19.07-3.54-2c0-.63-.09-1.27-.14-1.89,3.62-2.65,7.7-4.82,9.78-9.13l.17,0a1.75,1.75,0,0,0,1.9-2h.14A1.87,1.87,0,0,0,27.27,92.26Z"/><path class="cls-19" d="M12.36,77.09c1.35-2.93,4-1.65,6.08-1.67,3.15,0,6.17-.17,8.82-2.1l.18,2.4-.19,1.43c-3.08,2.09-5.64,5.4-10.07,4.26l-1.85-1.92c-.1-1.56-1.07-2.09-2.48-2.12A.84.84,0,0,1,12.36,77.09Z"/><path class="cls-5" d="M17.18,81.41c4.43,1.14,7-2.17,10.07-4.26,0,1.36,0,2.72,0,4.07a6.15,6.15,0,0,0-4,5C19.58,86.62,17.21,85.48,17.18,81.41Z"/><path class="cls-8" d="M12.85,77.37c1.41,0,2.38.56,2.48,2.12A2.75,2.75,0,0,1,12.85,77.37Z"/><path class="cls-28" d="M27.55,70.46l-12.15,0c0-.74-.07-1.49-.11-2.23l.17-3.73,1.9-.11c2.65,4,6.65,1.14,9.93,1.94l3.08.09Z"/><path class="cls-5" d="M27.55,70.46l2.82-4.09,3.91.06-1.66,3.74c-2.81.84-3.36,3.8-5.18,5.55l-.18-2.4C27.35,72.36,27.45,71.41,27.55,70.46Z"/><path class="cls-30" d="M15.29,68.18c0,.74.07,1.49.11,2.23l-4.83,1.08-.06-3,1.75-.15Z"/><path class="cls-5" d="M17.36,64.34l-1.9.11-.22-.21,0-1.91c4-6,10.55-9.87,13.14-16.9a2.12,2.12,0,0,0,1.95-2l0,0a2.06,2.06,0,0,0,2-2l1.76-.23.26.25c0,.66,0,1.32-.07,2l-2.11,3.91c-2.5,1.21-2.64,4-4,6h0c-3.23,1.18-3.41,4.57-5,6.93l-.09.06L19.3,62.36a2,2,0,0,0-1.94,1.93Z"/><path class="cls-5" d="M34.17,41.18c5.67-3.84,8.15-10.45,13-15l2.11.12c0,.66.06,1.31.1,2a2.25,2.25,0,0,0-2,2.15c-2.28.46-1.94,2.27-2,3.88-2.28.52-1.93,2.41-2.1,4-2.1.25-4.22.46-4.92,3l-3.88.12Z"/><path class="cls-3" d="M49.24,26.27l-2.11-.12c.09-1.25.17-2.51.26-3.76,3.47-1.14,2.82-5.68,5.89-7.14,0,.73,0,1.47.07,2.2l.13,1.84Z"/><path class="cls-5" d="M15.29,68.18l-3,.11c0-.63.09-1.26.13-1.89.33-.68.66-1.36,1-2l1.87-.12.22.21C15.4,65.7,15.34,66.94,15.29,68.18Z"/><path class="cls-7" d="M32.41,41.41a2.06,2.06,0,0,1-2,2A2,2,0,0,1,32.41,41.41Z"/><path class="cls-7" d="M30.37,43.39a2.12,2.12,0,0,1-1.95,2A1.93,1.93,0,0,1,30.37,43.39Z"/><path class="cls-7" d="M15.24,64.24l-1.87.12a2,2,0,0,1,1.91-2C15.27,63,15.25,63.61,15.24,64.24Z"/><path class="cls-27" d="M49.24,26.27l4.24-7a23.72,23.72,0,0,1,4.06,1.29c1.27.65,2.21.52,3-.52a10.09,10.09,0,0,0,.9-2,20.27,20.27,0,0,0-2.72-.65c-1.13-.12-2.28,0-3.42-.05l2.9-4c5.07,1.18,10.14.84,15.22.11l-3,8c-3.43,1.07-.58,5.92-4.16,6.9l-17-.1Z"/><path class="cls-24" d="M55.29,17.33c1.14,0,2.29-.07,3.42.05a20.27,20.27,0,0,1,2.72.65,10.09,10.09,0,0,1-.9,2c-.78,1-1.72,1.17-3,.52a23.72,23.72,0,0,0-4.06-1.29c0-.61-.08-1.23-.13-1.84Z"/><path class="cls-22" d="M60.38,9.45a2.13,2.13,0,0,1-2.08,1.9A1.91,1.91,0,0,1,60.38,9.45Z"/><path class="cls-27" d="M109.38,21.39c0,1,0,2,0,2.94-5,1.39-10-4.5-15.05,0V21.39c3.13-3.2-3.16-1.77-2-4,1.55-.18,3.47.39,3.93-2l9.07-.05c0,.65,0,1.31,0,2-1.42.34-3.24-.71-4.3,1.09C103.29,21.17,106.22,21.6,109.38,21.39Z"/><path class="cls-20" d="M96.28,15.41c-.46,2.36-2.38,1.79-3.93,2h-17c-2.53.17-1.59,3-3.08,4l-1.82.07,3-8h1.88c.6,2.26,2.42,1.88,4.07,1.89Z"/><path class="cls-27" d="M79.36,15.31c-1.65,0-3.47.37-4.07-1.89C76.94,13.43,78.8,13,79.36,15.31Z"/><path class="cls-27" d="M109.35,15.36c0,.66,0,1.33,0,2h-2v-2Z"/><path class="cls-17" d="M107.34,15.36c0,.66,0,1.32,0,2h-2c0-.66,0-1.32,0-2Z"/><path class="cls-24" d="M118.28,15.48c0,.61,0,1.22,0,1.82-.3,0-.61,0-.91.05,0-.63,0-1.25,0-1.88A1.3,1.3,0,0,1,118.28,15.48Z"/><path class="cls-24" d="M105.36,17.33h4l2,0c1.5,3.46,4.61,1.35,6.92,2l.12,1.94-9,.06c-3.16.21-6.09-.22-8.32-3C102.12,16.62,103.94,17.67,105.36,17.33Z"/><path class="cls-27" d="M118.26,19.39c-2.31-.65-5.42,1.46-6.92-2l6,0c.3,0,.61,0,.91-.05C118.25,18,118.25,18.69,118.26,19.39Z"/><path class="cls-24" d="M113.38,32.45l4-.07C116.06,35.14,114.75,35.2,113.38,32.45Z"/><path class="cls-24" d="M94.32,24.31c5-4.48,10,1.41,15.05,0l2,0,0,3.92.06.1-32-.07c-.23-1.37-2-1.5-2.3-2.17-1.28-2.8,1.45-1.26,2.31-1.82Z"/><path class="cls-12" d="M94.33,77.31c-1.27,5.29-2.79,10.49-5.91,15.06-.36-.67-.72-1.34-1.07-2-1.57-2.87-4.93-2.88-8,0-1.88,3-1.22,4.38,2.51,4.05,2.14-.19,4.32,0,6.48,0,0,.65,0,1.3,0,1.94-.31.7-.63,1.4-.95,2.1-5.87-1-11.43.83-17.07,1.91-3.73-4.29-8.68-.88-12.9-2,0-1.3,0-2.6,0-3.9,2.85-.06,2.89-2.09,2.9-4.14,3.31-.7,7.27,2,10-1.92l0-2.95c1.43-.47,4,.93,4.11-1.32.08-1.75-2.08-2.79-4.12-2.8,3.26-3.54,7.09-1.94,10.75-1,1,.25,2.13,1.54,3.11.61,1.36-1.3-1-2.12-.85-3.4Z"/><path class="cls-14" d="M81.31,115.39c.07,1.45-.18,2.7-1.93,3-4.34-1.06-8.67,2.06-13,0a2,2,0,0,0-2,2h0c-2.22-1-4.31-2.59-7-2-1.53,0-2.48,1.59-4.54.93s-2.61.69-1.46,3.08c-2.65,3-5.3,3-8,0,1.85-2,1-5.63,4-7l12.94,0c5.65-2.34,4.26-6.08,2-10,2.13.06,4.13,0,4-3l0,0,2,0c0,1.46.25,2.75,2,3,.07,1.75,0,4.59,2.34,3.72,3.82-1.45,7.14.9,10.68.27-.07,1.64.29,3.49-2,4-4.1-.18-8.21-.26-12.3-.59-1-.09-2.22-1.52-2.46.58-.17,1.47,1.08,1.91,2.33,1.93C73.06,115.35,77.19,115.36,81.31,115.39Z"/><path class="cls-16" d="M57.36,139.26c-3.2.34-5.53-1.75-8.1-3a14.8,14.8,0,0,0-11-1c0-1.65.78-3.49,2.05-3.62,4.65-.49,2.23-3.19,1.95-5.25l0,0c4.94,0,9.87.09,14.81,0,2.29,0,6.23-1.13,6.56-.41,1.35,2.89-3.12,3.69-3.36,6.42-1.7-1-3.35-2.07-5.11-3-1.94-1-2.69.74-3.39,1.92s-.36,2.64,1.06,2.72c2.57.16,5.64,1.82,7.46-1.66,3,.49,5.51-.58,8-2h0c-.45,3.89,1.94,4.24,4.87,3.94-.62,2.6-2.44,3.31-4.86,3.07C64.44,133.71,59.31,134.6,57.36,139.26ZM46.3,130.87a3.92,3.92,0,0,0-.43.63c0,.05.2.31.24.3a4.58,4.58,0,0,0,.66-.34Z"/><path class="cls-16" d="M66.37,118.37c4.34,2.06,8.67-1.06,13,0l-2.06,4.06c-3.31,2.6-7.62-.47-11,1.93l-2-4h0A2.1,2.1,0,0,0,66.37,118.37Z"/><path class="cls-29" d="M68.34,102.35l-2,0c.49-2.36,2.39-1.87,4-2,5.64-1.08,11.2-2.89,17.07-1.91-.05.65-.09,1.29-.13,1.94-2.45-.62-4,1.44-6,2l-5.79,0Z"/><path class="cls-29" d="M83.38,109.36c-3.54.63-6.86-1.72-10.68-.27-2.29.87-2.27-2-2.34-3.72l14.89-.08C85.21,106.91,85.74,108.8,83.38,109.36Z"/><path class="cls-12" d="M85.25,105.29l-14.89.08c-1.77-.27-2-1.56-2-3l7.12.07a4.71,4.71,0,0,0,5.8,0c2-.59,3.59-2.65,6-2C87.77,102.49,85.64,103.53,85.25,105.29Z"/><path class="cls-14" d="M103.35,118.34H85.27c.06-1,.11-2,.17-3l10.94,0,7,0Z"/><path class="cls-22" d="M70.66,145.57c-1.68-4.06-5.19-1.61-7.84-2.21-3.71-.85-8.21,2.19-11.2-2.25l18.65,0C73,142.38,73.19,143.86,70.66,145.57Z"/><path class="cls-29" d="M42.29,126.33c.28,2.06,2.7,4.76-1.95,5.25-1.27.13-2.1,2-2.05,3.62-2,.19-3.95.15-3.87-2.72,0-.68,0-1.36,0-2h0c1.38,0,2-.78,2.22-2l1.3-.07Z"/><path class="cls-13" d="M57.36,139.26c2-4.66,7.08-5.55,11-1.9C65.29,141.42,61,138.52,57.36,139.26Z"/><path class="cls-16" d="M81.31,115.39c-4.12,0-8.25,0-12.37-.09-1.25,0-2.5-.46-2.33-1.93.24-2.1,1.45-.67,2.46-.58,4.09.33,8.2.41,12.3.59Z"/><path class="cls-16" d="M75.46,126.42c-.56,2,1.08,4.84-2.08,6-.78-2.88-3.18-1.8-5-2.05h0c0-1.33,0-2.66,0-4Z"/><path class="cls-14" d="M75.46,126.42l-7.09-.06a2.11,2.11,0,0,1-2-2c3.35-2.4,7.66.67,11-1.93C77.29,124,77.73,125.86,75.46,126.42Z"/><path class="cls-13" d="M79.4,132.33l10.95,0c-3,4.12-7.33,1-10.91,2C79.43,133.66,79.41,133,79.4,132.33Z"/><path class="cls-13" d="M68.35,130.35c1.85.25,4.25-.83,5,2.05l-.15,1.89C70.29,134.59,67.9,134.24,68.35,130.35Z"/><path class="cls-5" d="M34.44,130.44c0,.68,0,1.36,0,2h-2A1.85,1.85,0,0,1,34.44,130.44Z"/><path class="cls-15" d="M103.1,56.32c0,.68,0,1.37.05,2.06-1.23,1.15-.34,3.74-2.77,4.08l0-.11c-.12-1.44.21-3.85-1.59-3.64-5.89.69-12.46-1.43-17.43,3.66-.62-2.54-11.16,5.34-4.9-4.7.83-1.34-1.29-2.76-3-3.27,0-.35,0-.7-.08-1l4,0c2.09,1.25,4.17,3.93,6.58,2.82C90.48,53.16,96.74,54.6,103.1,56.32Z"/><path class="cls-18" d="M98.43,68.38a2.17,2.17,0,0,1-2,2c-6.35.3-12.69-1.42-19,0l-4.06,0-2.91-.07,2-3.91a7.86,7.86,0,0,1,.83-.11l8.09,0h2.06l7,.06C92.3,70.09,95.77,67.62,98.43,68.38Z"/><path class="cls-18" d="M94.33,77.31l-11,.13-4-.14c-1.54-3.44-4.62-1.38-7-2l1-2h6l17,0Z"/><path class="cls-19" d="M96.34,73.37l-17,0c-.65-1-1.31-2-2-3,6.35-1.39,12.69.33,19,0C96.4,71.39,96.37,72.38,96.34,73.37Z"/><path class="cls-19" d="M90.37,66.38l-7-.06c.13-2.54,3.84-1.42,4-3.92l13,0,0,.11c-.66,1.28-1.32,2.56-2,3.84Z"/><path class="cls-14" d="M88.34,94.39c-2.16,0-4.34-.18-6.48,0-3.73.33-4.39-1-2.51-4.05h8c.35.67.71,1.34,1.07,2C88.39,93.05,88.37,93.72,88.34,94.39Z"/><path class="cls-17" d="M90.37,66.38l8-.08,1.39,1-1.37,1C95.77,67.62,92.3,70.09,90.37,66.38Z"/><path class="cls-21" d="M98.39,77.42l0,2-1.41-1Z"/><path class="cls-16" d="M103.35,115.37l-7,0C98.72,112.24,101.05,112.18,103.35,115.37Z"/><path class="cls-18" d="M105.44,49.35c-.06.62-.13,1.25-.19,1.88l-1.89.13h-7c-3.62-1-8,2.13-11-2l19.88,0Z"/><path class="cls-28" d="M103.36,51.36l1.89-.13q0,1.55.09,3.12l-1.94,0a5.51,5.51,0,0,1-.08-1C103.33,52.71,103.34,52,103.36,51.36Z"/><path class="cls-17" d="M103.32,53.38a5.51,5.51,0,0,0,.08,1l-.3,2c-6.36-1.72-12.62-3.16-19.16-.13-2.41,1.11-4.49-1.57-6.58-2.82l2-.07,17,0Z"/><path class="cls-21" d="M98.39,169.35a2.1,2.1,0,0,1-2.09-1.91A2,2,0,0,1,98.39,169.35Z"/><path class="cls-23" d="M92.48,169.24a1.82,1.82,0,0,1-2-2l1.95,0C92.41,168,92.45,168.6,92.48,169.24Z"/><path class="cls-17" d="M105.23,49.38l-19.88,0-8,0c-.28-3.09-4.69-.92-5-3.94,2-.34,4.35.56,7.79-2-4.93,0-8.13-.12-11.32,0-1.75.09-2.81.8-.4,2l0,4-8-2c1.3-2,1.4-4.76,3.84-6h43.05c0,.62-.05,1.24-.07,1.87C104.08,44.49,105.91,47.33,105.23,49.38Z"/><path class="cls-27" d="M107.26,41.34h-43a2.27,2.27,0,0,1,1.9-2.26l13.23.28h4l17,0c1.61-.31,4.44.89,4.42-1.51s-2.86-1.12-4.47-1.48l-17,0h-4c-3.68-.89-8,2-11.15-2.06l.14.06c4.26-1.09,9.21,2.29,13-2l28,0Z"/><path class="cls-20" d="M109.36,32.34l-28,0H68.43c-.06-2.6,3.72-1.45,3.81-3.9l7.13-.15,32,.07Z"/><path class="cls-23" d="M94.49,171.23a1.81,1.81,0,0,1-2-2A1.81,1.81,0,0,1,94.49,171.23Z"/><path class="cls-5" d="M45.08,145.27l-2.22,0c.41-1.62,0-3.68,2.24-4.36C45.09,142.38,45.09,143.82,45.08,145.27Z"/><path class="cls-30" d="M42.29,126.33l-4.34,2,.24-5.93c.05-.69.09-1.39.13-2.08l4.2,2.17-.19,3.79Z"/><path class="cls-3" d="M25.33,118.43c1.47-.17,2.71.06,3.12,1.75C27,120.35,25.68,120.24,25.33,118.43Z"/><path class="cls-5" d="M36.65,128.43c-.23,1.23-.84,2-2.22,2C34.51,129,35.36,128.49,36.65,128.43Z"/><path class="cls-21" d="M42.52,122.52l-4.2-2.17-.06-1.93c2.18-.16,4.67.2,5-3,.06-1.31.11-2.63.16-3.94,5.42-2.69,6.85-7.79,8-13.09,2.34-.46,1.92-2.38,2.11-4a2.11,2.11,0,0,0,1.92-2,2.24,2.24,0,0,1,2.08,2.08c0,1.3,0,2.6,0,3.9l-.15,2-3.85,3c-.73,2-2.62,3.55-2.2,6-2.34.55-1.8,2.45-1.9,4a2,2,0,0,0-2,2c-3,1.4-2.18,5-4,7A4.94,4.94,0,0,0,42.52,122.52Z"/><path class="cls-14" d="M43.25,115.39c-.32,3.23-2.81,2.87-5,3-5.83.17-11.29-1.74-16.85-3.07l-.18-1.94C28.57,114.05,35.78,116.23,43.25,115.39Z"/><path class="cls-16" d="M43.25,115.39c-7.47.84-14.68-1.34-22-2a6.34,6.34,0,0,1-4.09-4l.19-.07,8,.12c.75,2.36,2.75,1.89,4.47,1.92,4.56.07,9.11.07,13.67.1Z"/><path class="cls-4" d="M27.44,75.72C29.26,74,29.81,71,32.61,70.18H38.3c2.05.32,4.25.43,4.3,3.32-.13.57-.27,1.13-.4,1.7a1.88,1.88,0,0,0-1.86,1.9,6.11,6.11,0,0,0-3.71,4.41l-2.35,3.7L30.43,86.4c-2.72-.7-2.39-3.28-3.18-5.18V77.15C27.31,76.68,27.38,76.2,27.44,75.72Z"/><path class="cls-5" d="M30.43,86.4l3.85-1.19c0,.39.06.78.1,1.17l-2.26,3.84-3.88,0Z"/><path class="cls-3" d="M25.31,94.38a1.75,1.75,0,0,1-1.9,2A1.8,1.8,0,0,1,25.31,94.38Z"/><path class="cls-5" d="M27.27,92.26a1.87,1.87,0,0,1-1.82,2.12A1.9,1.9,0,0,1,27.27,92.26Z"/><path class="cls-12" d="M32.12,90.22l2.26-3.84c2.82-.36,4.34-1.81,4-4.79l1.94-.28c5.68,3.68,12,1.4,18.06,2-.74,2.46,0,5.56-3,7-1.34.16-3-.42-3.69,1.33-.58,1.54.34,2.36,1.79,2.68-.19,1.6.23,3.52-2.11,4-3.73-1.52-7.36,3.87-10.19,1.23-4-3.75-8.38-3.12-12.9-3.26a5.71,5.71,0,0,1,4-4c3.08.2,6.29-.65,9.09,1.59.83.67,2.48.87,3.05-.38s-.84-2.12-1.76-2.62c-3.27-1.76-6.76-1.35-10.23-.6Z"/><path class="cls-14" d="M28.28,96.33c4.52.14,8.87-.49,12.9,3.26,2.83,2.64,6.46-2.75,10.19-1.23-1.11,5.3-2.54,10.4-8,13.09-4.55,0-9.1,0-13.66-.1-1.72,0-3.72.44-4.47-1.92,3.36-.45,6.91.67,10.51-1-3.32-2.86-8,1.23-10.45-3.09l0-.07c3-.78,6.67,2,9-1.93h7.3c-2-1.67-4.86-.26-5.26-3.06-2-3-4-3.07-6,0l-5.11,0Z"/><path class="cls-12" d="M25.34,105.39c2.4,4.32,7.13.23,10.45,3.09-3.6,1.62-7.15.5-10.51,1l-8-.12c.05-1.64-.33-3.49,2-4Z"/><path class="cls-12" d="M36.35,100.33c.4,2.8,3.23,1.39,5.26,3.06h-7.3l-9-.07-2.08-1a2.07,2.07,0,0,1,2-2l5.11,0Z"/><path class="cls-14" d="M32.43,90.33c3.47-.75,7-1.16,10.23.6.92.5,2.35,1.33,1.76,2.62s-2.22,1-3.05.38c-2.8-2.24-6-1.39-9.09-1.59Z"/><path class="cls-29" d="M23.28,102.32l2.08,1v2l0,.07-6-.1C19.75,103.11,21.48,102.68,23.28,102.32Z"/><path class="cls-19" d="M34.28,66.43l-3.91-.06-3.08-.09c-.46-2.42-2.48-1.78-4-2L23.2,60.3l.1-.06c3.9-.46,7,3.17,11,2.09l6,0,7,0c.12,3-1,5.13-4.06,5.87C40.46,66.67,38.17,62.49,34.28,66.43Z"/><path class="cls-18" d="M23.25,64.23c1.56.27,3.58-.37,4,2-3.28-.8-7.28,2.11-9.93-1.94v0l1.93-.11Z"/><path class="cls-17" d="M34.28,66.43c3.89-3.94,6.18.24,9,1.78-1.75.45-4-.51-5,2H32.61Z"/><path class="cls-17" d="M43.23,38.31c.17-1.63-.18-3.52,2.1-4l17.12.2a7.52,7.52,0,0,1-4.05,7l-.08-.14c-2.39-3.73-5.3-1.71-8.17-.43l3.22.49c-3.16,5.89,1.94,3.41,4,4-.06,1.66.29,3.52-2,4-1.83,0-3.68.13-5.49,0-3.71-.36-4.42,1-2.51,4l-2,1h-17l0-1h0l16-2.84c-5.15-1.49-8.17-3.83-12-3.15.7-1.3,1.4-2.61,2.11-3.91l3.87-.14c3.65,2.33,7.05,3.44,9.11-1.89C47.5,38.3,45.34,38.33,43.23,38.31Z"/><path class="cls-15" d="M32.25,47.32c3.84-.68,6.86,1.66,12,3.15l-16,2.84C29.61,51.31,29.75,48.53,32.25,47.32Z"/><path class="cls-18" d="M28.31,53.31l0,1c-.31,3,1.07,4.3,4,4,4.29-.46,3,1.84,2,4-4,1.08-7.14-2.55-11-2.09C24.9,57.88,25.08,54.49,28.31,53.31Z"/><path class="cls-28" d="M23.25,64.23l-4,0c0-.61,0-1.21,0-1.82l3.91-2.06C23.22,61.61,23.24,62.92,23.25,64.23Z"/><path class="cls-28" d="M38.23,43.27l-3.87.14c0-.66,0-1.32.07-2l3.89-.12.09,0Z"/><path class="cls-30" d="M19.3,62.36c0,.61,0,1.21,0,1.82l-1.93.11A2,2,0,0,1,19.3,62.36Z"/><path class="cls-27" d="M62.45,34.47l-17.12-.2c.06-1.61-.28-3.42,2-3.88l17.1,0-.06,2a1.94,1.94,0,0,0-1.94,2.06Z"/><path class="cls-20" d="M64.43,30.36l-17.1,0a2.25,2.25,0,0,1,2-2.15l17,.1A2,2,0,0,1,64.43,30.36Z"/><path class="cls-27" d="M43.23,38.31c2.11,0,4.27,0,4.11,3.07l-8.93,0-.09,0C39,38.77,41.13,38.56,43.23,38.31Z"/><path class="cls-28" d="M64.43,30.36a2,2,0,0,0,1.87-2c3.58-1,.73-5.83,4.16-6.9l1.82-.07c0,1,0,2,0,2.94a1.92,1.92,0,0,0-1.84,2,1.85,1.85,0,0,0,1.79,2.12c-.09,2.45-3.87,1.3-3.81,3.9l-.09,2-.14-.06c-2.61.76-1.56,3.11-2.08,4.78a2.27,2.27,0,0,0-1.9,2.26c-2.45,1.26-2.55,4-3.85,6l-.15,3.9-2.89,2.2v-.27a2,2,0,0,0-2-1.84l0-2c2.33-.5,2-2.36,2-4,.33-1.3.67-2.6,1-3.9a7.52,7.52,0,0,0,4.05-7l0,0a2,2,0,0,0,2-2.06Z"/><path class="cls-24" d="M75.36,17.38h17c-1.19,2.24,5.1.81,2,4H79.37C76.44,21.64,75,20.42,75.36,17.38Z"/><path class="cls-17" d="M79.37,21.38H94.32v2.92H79.38C79.38,23.34,79.37,22.36,79.37,21.38Z"/><path class="cls-27" d="M79.37,21.38c0,1,0,2,0,2.94-.86.56-3.59-1-2.31,1.82.31.67,2.07.8,2.3,2.17l-7.13.15a1.85,1.85,0,0,1-1.79-2.12,1.93,1.93,0,0,0,1.84-2c0-1,0-2,0-2.94,1.49-1,.55-3.82,3.08-4C75,20.42,76.44,21.64,79.37,21.38Z"/><path class="cls-28" d="M55.38,90.37c3.06-1.45,2.29-4.55,3-7,2.31-.52,1.87-2.36,1.92-4l2,0,2.09.13,0,1.93-.06,3.87c-1.78.46-3.63.83-4,3.12v1.88c0,2-.05,4.08-2.9,4.14a2.24,2.24,0,0,0-2.08-2.08C55.39,91.68,55.39,91,55.38,90.37Z"/><path class="cls-14" d="M79.36,77.3l4,.14c-.18,1.28,2.21,2.1.85,3.4-1,.93-2.06-.36-3.11-.61-3.66-.89-7.49-2.49-10.75,1l-4-1.93c0-.66,0-1.31,0-2l.15-.08Z"/><path class="cls-15" d="M66.35,79.35l4,1.93c2,0,4.2,1,4.12,2.8-.1,2.25-2.68.85-4.1,1.32l-5.95-.13.06-3.87a2.14,2.14,0,0,0,1.94-2Z"/><path class="cls-14" d="M57.31,100.33l.15-2c4.22,1.15,9.17-2.26,12.9,2-1.6.12-3.5-.37-4,2l0,0C63.25,102.05,59.79,103.4,57.31,100.33Z"/><path class="cls-14" d="M64.37,85.27l5.95.13,0,2.95-10,0C60.74,86.1,62.59,85.73,64.37,85.27Z"/><path class="cls-18" d="M60.38,88.39l10,0c-2.7,3.9-6.66,1.22-10,1.92Z"/><path class="cls-18" d="M87.35,90.36h-8C82.42,87.48,85.78,87.49,87.35,90.36Z"/><path class="cls-13" d="M42.52,122.52a4.94,4.94,0,0,1,.86-.11c2.66,2.94,5.31,3,8,0,2.14-1.11,7.64,2.79,6-4,2.69-.61,4.78.93,7,2l2,4a2.11,2.11,0,0,0,2,2c0,1.33,0,2.66,0,4-2.48,1.43-5,2.5-8,2l0,0c.24-2.73,4.71-3.53,3.36-6.42-.33-.72-4.27.37-6.56.41-4.94.07-9.87,0-14.81,0C42.39,125.05,42.45,123.78,42.52,122.52Z"/><path class="cls-29" d="M51.26,109.29c-.42-2.41,1.47-4,2.2-6,3.19-.36,5.57,2.93,8.89,2,2.26,3.92,3.65,7.66-2,10l-3-4c.88-.19,2.29.2,2.3-1.08,0-.67-1.24-2-1.73-1.91C55.69,108.78,53.25,107.58,51.26,109.29Z"/><path class="cls-12" d="M62.35,105.35c-3.32.91-5.7-2.38-8.89-2l3.85-3c2.48,3.07,5.94,1.72,9,2C66.48,105.3,64.48,105.41,62.35,105.35Z"/><path class="cls-16" d="M57.32,111.39l3,4-12.94,0a2,2,0,0,1,2-2C52.3,113.86,54.85,112.78,57.32,111.39Z"/><path class="cls-16" d="M57.34,118.37c1.64,6.79-3.86,2.89-6,4-1.15-2.38-.61-3.73,1.46-3.07S55.81,118.4,57.34,118.37Z"/><path class="cls-13" d="M66.37,118.37a2.1,2.1,0,0,1-2,2A2,2,0,0,1,66.37,118.37Z"/><path class="cls-13" d="M60.36,132.36c-1.82,3.48-4.89,1.82-7.46,1.66-1.42-.08-1.72-1.6-1.06-2.72s1.45-2.9,3.39-1.92c1.76.89,3.41,2,5.11,3Z"/><path class="cls-13" d="M46.3,130.87l.47.59a4.58,4.58,0,0,1-.66.34s-.27-.25-.24-.3A3.92,3.92,0,0,1,46.3,130.87Z"/><path class="cls-18" d="M81.26,102.4a4.71,4.71,0,0,1-5.8,0Z"/><path class="cls-18" d="M100.35,62.35l-13,0-6.06,0h0c5-5.09,11.54-3,17.43-3.66C100.56,58.5,100.23,60.91,100.35,62.35Z"/><path class="cls-19" d="M81.32,66.33l-8.09,0-.87-4c0-2,0-3.92,0-5.88l1.06-2c1.7.51,3.82,1.93,3,3.27-6.26,10,4.28,2.16,4.9,4.7h0C81.33,63.69,81.33,65,81.32,66.33Z"/><path class="cls-19" d="M79.31,53.3l-2,.07-4,0-7-.07C70.67,50.17,75,50.09,79.31,53.3Z"/><path class="cls-17" d="M66.35,53.28l7,.07c0,.35,0,.7.08,1-.35.67-.71,1.33-1.06,2C69.67,56.72,67.87,55.26,66.35,53.28Z"/><path class="cls-28" d="M72.4,66.41l-2,3.92a5.37,5.37,0,0,0-2.1,5,1.87,1.87,0,0,0-1.82,2l-.15.08-2-.09c0-1.3,0-2.61,0-3.92,0-.68,0-1.36,0-2,1.75-.4,3.6-.68,3.9-3,.19-1.59-.3-3.52,2-4A2.25,2.25,0,0,0,72.4,66.41Z"/><path class="cls-19" d="M68.31,75.34a5.37,5.37,0,0,1,2.1-5l2.91.06c0,1,0,2,0,3-.32.67-.64,1.33-1,2Z"/><path class="cls-15" d="M81.32,66.33c0-1.32,0-2.64,0-4l6.06,0c-.17,2.5-3.88,1.38-4,3.92Z"/><path class="cls-15" d="M73.36,73.35c0-1,0-2,0-3l4.06,0c.66,1,1.32,2,2,3Z"/><path class="cls-30" d="M72.4,66.41a2.25,2.25,0,0,1-2.1-2.08c0-.65.07-1.29.1-1.94h0l2-.13.87,4A7.86,7.86,0,0,0,72.4,66.41Z"/><path class="cls-15" d="M68.31,75.34h4.08c2.35.58,5.43-1.48,7,2H66.49A1.87,1.87,0,0,1,68.31,75.34Z"/><path class="cls-15" d="M70.4,62.39c0,.65-.07,1.29-.1,1.94-2.32.51-1.83,2.44-2,4-5-4.12-12,.14-17-4.06l.23-2a19,19,0,0,0,3.92,0c2.69-.55,7.64,1.56,7.66-1.3,0-3.76-4.87-2.33-7.8-2.71l.12-4.86,2-.26v.27c1.86,3.48,3.89-.11,6.09.7-.85-1.85-1.82-2.63-3.2-2.9l.15-3.9,8,2,9,0,8,0c3,4.13,7.39,1,11,2v2l-17,0c-4.32-3.21-8.64-3.13-13,0,1.52,2,3.32,3.44,6,3.11,0,2,0,3.92,0,5.88l-2,.13c-.31-1.15.6-2.95-1.29-3.19-.58-.08-2,1.32-1.9,1.89C67.45,63,69.25,62.09,70.4,62.39Z"/><path class="cls-19" d="M96.36,53.33v-2h7c0,.68,0,1.35,0,2Z"/><path class="cls-27" d="M77.34,49.34l-9,0c0-1.33,0-2.65,0-4h3.93C72.65,48.42,77.06,46.25,77.34,49.34Z"/><path class="cls-15" d="M72.31,45.4H68.38c-2.41-1.17-1.35-1.88.4-2,3.19-.17,6.39,0,11.32,0C76.66,46,74.35,45.06,72.31,45.4Z"/><path class="cls-17" d="M83.35,36.35l17,0c0,1,0,2,0,3l-17,0C83.34,38.34,83.35,37.35,83.35,36.35Z"/><path class="cls-20" d="M66.12,39.07c.52-1.67-.53-4,2.08-4.78,3.1,4.06,7.47,1.17,11.15,2.06v3Z"/><path class="cls-24" d="M68.34,34.35l.09-2h12.9C77.55,36.64,72.6,33.26,68.34,34.35Z"/><path class="cls-20" d="M100.37,39.32c0-1,0-2,0-3,1.6.36,4.45-.91,4.46,1.48S102,39,100.37,39.32Z"/><path class="cls-17" d="M79.35,39.35v-3h2v3Z"/><path class="cls-20" d="M81.35,39.34v-3h2c0,1,0,2,0,3Z"/><path class="cls-14" d="M57.32,111.39c-2.47,1.39-5,2.47-8,2,.1-1.6-.44-3.5,1.9-4,2-1.71,4.43-.51,6.63-.89.49-.09,1.74,1.24,1.73,1.91C59.61,111.59,58.2,111.2,57.32,111.39Z"/><path class="cls-14" d="M55.38,90.37c0,.65,0,1.31,0,2a2.11,2.11,0,0,1-1.92,2c-1.45-.32-2.37-1.14-1.79-2.68C52.34,90,54,90.53,55.38,90.37Z"/><path class="cls-15" d="M64.34,73.37c0,1.31,0,2.62,0,3.93l-2,.08-4,0c-5.24-.82-10.82,1.6-15.8-1.65-.11-.19-.23-.37-.35-.55.13-.57.27-1.13.4-1.71l2.62-.23Z"/><path class="cls-30" d="M45.22,73.26l-2.62.23c-.05-2.88-2.25-3-4.3-3.31.94-2.48,3.23-1.52,5-2,3.1-.74,4.18-2.89,4.06-5.87h0a2.11,2.11,0,0,0,2.06-2l2,0,0,2c-.08.65-.16,1.31-.23,2-2.36.46-1.79,2.47-2.13,4A5.65,5.65,0,0,0,45.22,73.26Z"/><path class="cls-28" d="M38.41,81.59c.31,3-1.21,4.43-4,4.79,0-.39-.07-.78-.1-1.17l2.35-3.7Z"/><path class="cls-5" d="M38.41,81.59l-1.78-.08a6.11,6.11,0,0,1,3.71-4.41,4.27,4.27,0,0,0,.63.27l-.36,1.91-.26,2Z"/><path class="cls-15" d="M40.34,77.1a1.88,1.88,0,0,1,1.86-1.9c.12.18.24.36.35.54-.53.54-1,1.09-1.57,1.63A4,4,0,0,1,40.34,77.1Z"/><path class="cls-15" d="M40.35,81.31c.09-.68.18-1.35.26-2H58.35l2,.1c0,1.61.39,3.45-1.92,4C52.39,82.71,46,85,40.35,81.31Z"/><path class="cls-16" d="M25.36,105.32v-2l9,.07C32,107.27,28.32,104.54,25.36,105.32Z"/><path class="cls-16" d="M36.35,100.33l-6,0C32.4,97.26,34.38,97.36,36.35,100.33Z"/><path class="cls-15" d="M34.34,62.33c1-2.14,2.33-4.44-2-4-3,.31-4.34-1-4-4h17c.66,1.33,1.33,2.66,2,4-1.72,2.39-8.83-4.72-7,4Z"/><path class="cls-18" d="M40.37,62.31c-1.85-8.68,5.26-1.57,7-4h0c0,1.33,0,2.66,0,4h0Z"/><path class="cls-15" d="M55.36,49.37c0,.66,0,1.31,0,2h0a2.23,2.23,0,0,0-2,2l-5.92,0c-1.91-3.06-1.2-4.39,2.51-4C51.68,49.5,53.53,49.36,55.36,49.37Z"/><path class="cls-20" d="M38.41,41.34l8.93,0c-2.06,5.33-5.46,4.22-9.11,1.89Z"/><path class="cls-20" d="M58.4,41.45c-.33,1.3-.67,2.6-1,3.9-2.09-.57-7.19,1.91-4-4l5-.06Z"/><path class="cls-18" d="M47.36,53.35l5.92,0-2,2.94a2.1,2.1,0,0,0-1.91,2h-2c-.67-1.33-1.34-2.66-2-4Z"/><path class="cls-27" d="M58.32,41.31l-5,.06-3.22-.49C53,39.6,55.93,37.58,58.32,41.31Z"/><path class="cls-17" d="M64.37,32.37a2,2,0,0,1-2,2.06A2,2,0,0,1,64.37,32.37Z"/><path class="cls-17" d="M60.22,51.25c1.38.27,2.35,1,3.2,2.9-2.2-.81-4.23,2.78-6.09-.7Z"/><path class="cls-20" d="M72.29,24.31a1.93,1.93,0,0,1-1.84,2A1.92,1.92,0,0,1,72.29,24.31Z"/><path class="cls-30" d="M57.32,53.18l-2,.26c0-.7,0-1.4,0-2.1h0A2,2,0,0,1,57.32,53.18Z"/><path class="cls-21" d="M62.34,77.38l2-.08,2,.08c0,.66,0,1.31,0,2l0,.05-2,.07-2.09-.13C62.33,78.68,62.33,78,62.34,77.38Z"/><path class="cls-29" d="M62.34,77.38c0,.65,0,1.3,0,2l-2,0-2-.09V77.4Z"/><path class="cls-19" d="M64.41,79.47l2-.07a2.14,2.14,0,0,1-1.94,2C64.42,80.75,64.42,80.11,64.41,79.47Z"/><path class="cls-19" d="M45.22,73.26a5.65,5.65,0,0,1,3.89-5c5.42-.63,10.33,1.26,15.27,3,0,.68,0,1.36,0,2Z"/><path class="cls-18" d="M64.38,71.33c-4.94-1.76-9.85-3.65-15.27-3,.34-1.54-.23-3.55,2.13-4,5,4.2,12-.06,17,4.06C68,70.65,66.13,70.93,64.38,71.33Z"/><path class="cls-18" d="M51.47,62.33l0-2,3.81-2.06c2.93.38,7.84-1,7.8,2.71,0,2.86-5,.75-7.66,1.3A19,19,0,0,1,51.47,62.33Z"/><path class="cls-28" d="M55.25,58.3l-3.81,2.06-2,0c0-.67,0-1.35,0-2h0a2,2,0,0,0,1.91-2l2-2.94a2.23,2.23,0,0,1,2-2c0,.7,0,1.4,0,2.1Z"/><path class="cls-18" d="M70.4,62.39c-1.15-.3-3,.61-3.2-1.29-.07-.57,1.32-2,1.9-1.89,1.89.24,1,2,1.29,3.19Z"/><path class="cls-14" d="M58.35,77.4v1.9l-17.74,0L41,77.37l1.58-1.63C47.53,79,53.11,76.58,58.35,77.4Z"/><path class="cls-19" d="M49.36,58.36c0,.68,0,1.36,0,2a2.11,2.11,0,0,1-2.06,2c0-1.33,0-2.66,0-4Z"/><path class="cls-19" d="M51.27,56.31a2,2,0,0,1-1.91,2A2.1,2.1,0,0,1,51.27,56.31Z"/></g></g></svg>