<svg xmlns="http://www.w3.org/2000/svg" viewBox="0 0 133.55 188.47"><defs><style>.cls-1{fill:#e1bb8e;}.cls-2{fill:#f7deaa;}.cls-3{fill:#dd9d76;}.cls-4{fill:#9e6850;}.cls-5{fill:#c67f61;}.cls-6{fill:#ebc49d;}.cls-7{fill:#ba8d71;}.cls-8{fill:#7b6f47;}.cls-9{fill:#181918;}.cls-10{fill:#5c5371;}.cls-11{fill:#262625;}.cls-12{fill:#373439;}.cls-13{fill:#28282e;}.cls-14{fill:#534e45;}.cls-15{fill:#2d2b32;}.cls-16{fill:#0f0f0f;}.cls-17{fill:#4a3227;}.cls-18{fill:#7e7275;}.cls-19{fill:#443f5b;}.cls-20{fill:#1b1b1a;}.cls-21{fill:#685d6a;}.cls-22{fill:#b7ae77;}.cls-23{fill:#ddd97f;}.cls-24{fill:#e9e97d;}.cls-25{fill:#d3d170;}.cls-26{fill:#988774;}.cls-27{fill:#49446c;}.cls-28{fill:#4e4950;}.cls-29{fill:#eeed83;}.cls-30{fill:#383751;}</style></defs><title>Asset 108</title><g id="Layer_2" data-name="Layer 2"><g id="Layer_1-2" data-name="Layer 1"><path class="cls-1" d="M130.19,188.3h-6c-.41-2,1.24-4.94-2-5.82-2.8-.77-4.75.9-6.47,3,1.49,1.32,4.1.28,4.42,2.84h-15c-.2-1.86-1.6-2-3-2.05-.6-2.2-2.33-2.07-4-1.85-2.46.33-1.73,2.39-2,3.9h-2l-.14-1.9c.06-1.33.11-2.66.16-4l10.94-.28,6.08,0,3.9-.12c3.17-.57,1.15-3.3,2-4.83l5,0c-.68,3.28.82,4.37,3.89,3.91.36,1.5-.82,3.51,1.18,4.37.41.18,2-1,2.08-1.69.43-2.51-1.92-2.06-3.28-2.66l-.06-3.89.1-1.81c-.56-2.51,1.65-4.12,2.06-6.31,0-1,0-1.91,0-2.87,0-2,0-4-.08-6l0-17,.3-40,1.65-.12.38,10q0,8.64,0,17.28c0,1.28-.09,2.56-.13,3.84,0,1.7,0,3.4,0,5.1q0,7.47,0,14.93c0,2.1,0,4.14,3,4v26Z"/><path class="cls-2" d="M.19,154.3v-32l5.85-4,0,5.93c-2.62,1.31-2.56,2.67-.09,4.08l.21,24C4.18,152.92,2.62,154.9.19,154.3Z"/><path class="cls-3" d="M132.19.3c2.41,1.45.88,3.72.91,5.5.19,10.16.09,20.33.09,30.5a1.76,1.76,0,0,1-.79,0c-4.23-2.26-1.38-6.18-2.2-9.24C129.52,24.52,132,21,128,19.41l-1.8-.21a6.28,6.28,0,0,0-3.93-3.94l0-2-.07.08c3,.23,4.93-.52,3.9-4.11L126,7.51c-.3-2.91-5.18-3.42-3.79-7.21h2C126.86,3.26,129.53,3.32,132.19.3ZM131,4.16l-2,4.49c.6.14,1.35.58,1.77.36C132.61,8.08,132.43,6.63,131,4.16Z"/><path class="cls-3" d="M8.19.3h15C22.51,1.86,21.82,3.42,21.14,5c-4.56,1.64-10.86-.37-13.07,6.22C4.4,10.57,3.12,14.52.19,15.3V2.3C3.34,1.77.85,7.39,4.1,6.11,6.38,5.22,8.91,3.69,8.19.3Z"/><path class="cls-3" d="M40.19,188.3h-13c-2-3.14-4-3.08-6,0h-4c-.25-.54-.42-1.48-.76-1.55-1.13-.23-1.15.75-1.24,1.55h-2c-1.35-2.22-4-3.89-3-7.12l2.81,0c.34.87.65,2.47,1,2.49,1.44.06,1.06-1.27,1.09-2.19,0-1.32,0-2.65,0-4,2.2,6,7.25,5.24,12.05,5,1.58,2.08,2.93,3.71,6.21,2.2C36.5,183.3,39.05,185,40.19,188.3Z"/><path class="cls-4" d="M.19,70.3v-2c2.66,0,6.64.92,5.85-3.44-.66-3.62,3.66-9.39-3.71-10.74,0-.2,0-.4,0-.6,1.56-.28,3.66.35,3.86-2.25l0-1.93-.12-2v-2l.06-2.07L6,38.42c0-1.4,0-2.8.07-4.2l0-5.87L6,22.16l.38-2.85,2.08.21-.09,1.87L7.93,70.22c-1.77.36-1.57,1.83-1.76,3.09L4,73.29C3.91,70.79,1.88,70.76.19,70.3Z"/><path class="cls-5" d="M10.22,181.18c-1.07,3.23,1.62,4.9,3,7.12h-5c.65-4.66-.11-8.11-6.08-7.13,1.07-2.51,4.82-5.91-1.92-5.87v-9c2.59-.06,1.36-3.91,4-4h0c0,1.32,0,2.64.08,4l-.05,1.07c-2.6.36-1.78,2.41-2,4,0,1.35.68,2,2,2a2.08,2.08,0,0,0,2.09-2.07l1.78,0,2.34,3.88L10.24,177Z"/><path class="cls-4" d="M122.19.3c-1.39,3.79,3.49,4.3,3.79,7.21-1.46.11-3.42-.79-3.65,1.8,0,1.35-.1,2.7-.14,4.06l.07-.08-2.08.13-2.83-.27-.07-1.91c1.28-.14,2.76,0,2.85-1.89s-.92-2.6-2.87-3.1V11.2l-1.85-.12-.24-3.77c-.22-2.94-2.7-1.58-4.16-2.19,2.15-1,5.43-.93,4.18-4.82Z"/><path class="cls-3" d="M60.19,188.3h-13c.41-2,2.58-3.43,2.05-5.79l5.94-.27,13,.29,0,1.77C65.23,185,60.34,181.91,60.19,188.3Z"/><path class="cls-5" d="M49.24,182.51c.53,2.36-1.64,3.76-2.05,5.79h-7c-1.14-3.34-3.69-5-6.77-3.58-3.28,1.51-4.63-.12-6.21-2.2l0-.37,5.06-.06Z"/><path class="cls-6" d="M68.21,184.3c0-.59,0-1.18,0-1.77l11-.36,3.93.31.09,3.83v2h-13C70.13,186.67,70.54,184.8,68.21,184.3Z"/><path class="cls-3" d="M2.33,54.12C9.7,55.47,5.38,61.24,6,64.86c.79,4.36-3.19,3.39-5.85,3.44v-4l1.39-1-1.39-1v-4C4.85,58.92,2.88,56.15,2.33,54.12Z"/><path class="cls-5" d="M60.19.3h12c0,1.62,0,3.24,0,4.86l-14.08,0Z"/><path class="cls-3" d="M133.19,64.3v11c-1.13,3.62-3.28,7-3,11l-.12.12-1.71-.16q0-7.94,0-15.87l1.62-.08c4.43-.66,1.41-4,2.11-6Z"/><path class="cls-2" d="M133.19,158.3c-3,.13-3-1.91-3-4q0-7.47,0-14.93l2.93,1.94Z"/><path class="cls-5" d="M8.44,19.52l-2.08-.21c-2.48.61-4.11-1.36-6.17-2v-2c2.93-.78,4.21-4.73,7.88-4.09a13.83,13.83,0,0,0,2.11,8.06Z"/><path class="cls-5" d="M38.19.3h9c-.09,1.89.22,3.63,1.93,4.8l-11,0Z"/><path class="cls-4" d="M2.11,181.17c6-1,6.73,2.47,6.08,7.13h-4l-1-1.38-1,1.38c-4,.31-1.17-2.75-2-4,2-.2,1.93-1.64,1.89-3.08Z"/><path class="cls-3" d="M6,38.42l.15,4.87c-1.32.29-2-2-3.46-.9a1.58,1.58,0,0,0-.26,1.36c.52,2,2.31,1.35,3.66,1.61v2a1.94,1.94,0,0,0-1.93,2l-4,0v-10L4,38.41l.25-.16Z"/><path class="cls-3" d="M.19,115.3v-15h2c1,3-1.95,6.84,2.09,9.11l-.1,5.87C2.87,118.77,1.52,114.49.19,115.3Z"/><path class="cls-7" d="M133.19,64.3l-1.07,0c-3.38,1-1.45,4-2.11,6l-1.62.07V53.25c2.84.51.7,5.75,4.8,5v2c-.84.17-2.25-.29-2.25,1s1.41.82,2.25,1Z"/><path class="cls-3" d="M6.13,28.35c0,2,0,3.92,0,5.87-2.17.63-1.85,2.4-1.84,4L4,38.41C2.73,37.7,1.46,37,.19,36.3v-8A4.71,4.71,0,0,0,6.13,28.35Z"/><path class="cls-6" d="M130.38,130.42q0-8.64,0-17.28l2.8.16v13C131.78,127.35,132.6,129.92,130.38,130.42Z"/><path class="cls-1" d="M115.19.3c1.25,3.89-2,3.86-4.18,4.82l-5.7-.1-.12-2.84V.3h2L108,1.79,109.19.3Z"/><path class="cls-5" d="M6.13,28.35A4.71,4.71,0,0,1,.19,28.3v-6L6,22.16Z"/><path class="cls-7" d="M.19,92.3v-9c2.5-.45,1.81-2.41,1.91-4l4,2c1.78,4.74-6.26,6-3.87,11Z"/><path class="cls-2" d="M68.21,184.3c2.33.5,1.92,2.37,2,4h-10C60.34,181.91,65.23,185,68.21,184.3Z"/><path class="cls-4" d="M49.12,5.1c-1.71-1.17-2-2.91-1.93-4.8h8l.09,4.87Z"/><path class="cls-6" d="M120.19,188.3c-.32-2.56-2.93-1.52-4.42-2.84,1.72-2.08,3.67-3.75,6.47-3,3.19.88,1.54,3.78,2,5.82Z"/><path class="cls-5" d="M8.19.3C8.91,3.69,6.38,5.22,4.1,6.11.85,7.39,3.34,1.77.19,2.3,1.92-2.14,5.64,1.43,8.19.3Z"/><path class="cls-1" d="M133.19,92.3v8l-2.8,2c-1.89-1.64,4.28-6-2-6.14l0-3.84c1.26,0,1.69-.92,1.92-2Z"/><path class="cls-2" d="M130.39,102.34l2.8-2v13l-2.8-.16c-.12-3.33-.25-6.67-.37-10A2.59,2.59,0,0,1,130.39,102.34Z"/><path class="cls-3" d="M72.24,5.16l0-4.86h7c0,1.59-.09,3.18-.13,4.78Z"/><path class="cls-1" d="M133.19,58.3c-4.1.7-2-4.54-4.8-5l0-2c2.31-.52,1.57-2.48,1.85-4l2.93,0v6c-1.06,1-1.2,2,0,3Z"/><path class="cls-3" d="M85.19.3h11a1.91,1.91,0,0,0,2,2c0,.92.07,1.84.1,2.77l-4-.1c-1.67-5.29-6.1-1.57-9-2.78Z"/><path class="cls-4" d="M85.19.3l.09,1.9c0,.93,0,1.86,0,2.79l-6.23.09L79.19.3Z"/><path class="cls-1" d="M2.1,79.3c-.1,1.59.59,3.55-1.91,4v-13c1.69.46,3.72.49,3.81,3C.72,74.45,2.39,77.19,2.1,79.3Z"/><path class="cls-6" d="M.19,154.3c2.43.6,4-1.38,6-2v10.1l-2-.05h0c0-1.37,0-2.73,0-4.1a1.94,1.94,0,0,0-2-1.9l-2,0Z"/><path class="cls-3" d="M4.18,158.24c0,1.37,0,2.73,0,4.1-2.59,0-1.36,3.9-3.95,4v-10l2,0A2.09,2.09,0,0,0,4.18,158.24Z"/><path class="cls-6" d="M.19,115.3c1.33-.81,2.68,3.47,4,0l1.93,0-.07,3-5.85,4Z"/><path class="cls-3" d="M38.19.3c0,1.59,0,3.18-.07,4.77l-4,0L32.19.3Z"/><path class="cls-5" d="M94.21,182.41c0,1.33-.1,2.66-.16,4a1.87,1.87,0,0,0-1.86,1.9h-2c0-1.26-.6-2-1.93-1.93l-.2-.21.24-2c1.39.26,2-.41,2-1.72Z"/><path class="cls-5" d="M21.14,5,23.19.3h4c.87,3.41-1.82,3.91-4,4.87l-2,.24Z"/><path class="cls-3" d="M.19,175.3c6.74,0,3,3.36,1.92,5.87l0,.05-1.89.08Z"/><path class="cls-3" d="M6,22.16.19,22.3v-5c2.06.65,3.69,2.62,6.17,2C6.23,20.26,6.11,21.21,6,22.16Z"/><path class="cls-2" d="M96.19,188.3c.27-1.51-.46-3.57,2-3.9,1.66-.22,3.39-.35,4,1.85l0,0a1.94,1.94,0,0,0-2,2Z"/><path class="cls-1" d="M.19,92.3l2-.09.06,0a1.84,1.84,0,0,0,2,2l-.11.13c-.67,2-2.54,3.53-1.93,5.91h-2Z"/><path class="cls-3" d="M105.19,2.18c0,.95.08,1.9.11,2.84l-3.18.09C100.3,4,100,2.24,100.19.3h3A1.78,1.78,0,0,0,105.19,2.18Z"/><path class="cls-3" d="M55.28,5.17,55.19.3h5l-2,4.89Z"/><path class="cls-6" d="M132.4,36.33a1.76,1.76,0,0,0,.79,0v9l-2.76-2.13C129.53,40.44,131.21,38.45,132.4,36.33Z"/><path class="cls-1" d="M32.19.3l1.92,4.82H32.26C30.75,3.64,28.71,2.61,28.19.3Z"/><path class="cls-2" d="M130.21,86.27c-.3-4,1.85-7.35,3-11v8C132.11,84.2,132.46,86.54,130.21,86.27Z"/><path class="cls-1" d="M2.33,54.12c.55,2,2.52,4.8-2.14,4.18v-7h2l.15,2.22C2.34,53.72,2.33,53.92,2.33,54.12Z"/><path class="cls-3" d="M28.19.3c.52,2.31,2.56,3.34,4.07,4.81l-9,.06c2.15-1,4.84-1.46,4-4.87Z"/><path class="cls-2" d="M130.38,130.42c2.22-.5,1.4-3.07,2.81-4.12v9l-2.94-1C130.29,133,130.34,131.7,130.38,130.42Z"/><path class="cls-3" d="M130.21,86.27c2.25.27,1.9-2.07,3-3v9l-2.86-1.92-.24-4Z"/><path class="cls-1" d="M132.19.3c-2.66,3-5.33,3-8,0Z"/><path class="cls-6" d="M130.25,134.26l2.94,1v6l-2.93-1.94C130.26,137.66,130.25,136,130.25,134.26Z"/><path class="cls-5" d="M2.19,51.3h-2v-2l4,0,2.05,0c0,.64,0,1.28,0,1.93Z"/><path class="cls-1" d="M100.19.3c-.21,1.94.11,3.68,1.93,4.81l-3.83,0c0-.93-.07-1.85-.1-2.77V.3Z"/><path class="cls-6" d="M21.19,188.3c2-3.08,4-3.14,6,0Z"/><path class="cls-3" d="M130.43,43.17l2.76,2.13v2l-2.93,0C130.32,45.94,130.37,44.55,130.43,43.17Z"/><path class="cls-5" d="M83.19,188.3c0-.67,0-1.33,0-2l4.86-.15.2.21c0,.64-.05,1.28-.07,1.93Z"/><path class="cls-6" d="M.19,36.3c1.27.7,2.54,1.4,3.8,2.11l-3.8.89Z"/><path class="cls-3" d="M130.19,188.3l3-4C133.1,186.31,134.21,189.23,130.19,188.3Z"/><path class="cls-3" d="M133.19,62.3c-.84-.18-2.25.31-2.25-1s1.41-.83,2.25-1Z"/><path class="cls-5" d="M102.18,186.25c1.41.09,2.81.19,3,2.05h-3l0-2Z"/><path class="cls-5" d="M.19,181.3l1.89-.08c0,1.44.09,2.88-1.89,3.08Z"/><path class="cls-5" d="M.19,62.3l1.39,1-1.39,1Z"/><path class="cls-5" d="M109.19.3,108,1.79,107.19.3Z"/><path class="cls-6" d="M105.19,2.18a1.78,1.78,0,0,1-2-1.88h2Z"/><path class="cls-6" d="M98.19.3v2a1.91,1.91,0,0,1-2-2Z"/><path class="cls-8" d="M2.19,188.3l1-1.38,1,1.38Z"/><path class="cls-2" d="M15.19,188.3c.09-.8.11-1.78,1.24-1.55.34.07.51,1,.76,1.55Z"/><path class="cls-8" d="M88.19,188.3c0-.65,0-1.29.07-1.93,1.33,0,1.91.67,1.93,1.93Z"/><path class="cls-4" d="M92.19,188.3a1.87,1.87,0,0,1,1.86-1.9c0,.63.1,1.26.14,1.9Z"/><path class="cls-1" d="M102.15,186.29l0,2h-2A1.94,1.94,0,0,1,102.15,186.29Z"/><path class="cls-2" d="M133.19,56.3c-1.2-1-1.06-2,0-3Z"/><path class="cls-9" d="M128.41,51.28l0,2v17.1q0,8,0,15.88l0,6.13,0,3.84v7l-.3,40h-1.75c-.1-.63-.2-1.25-.29-1.88q0-12.1-.08-24.22l.15-7.78,0-4.15q-.11-3.51-.23-7c0-3.26,0-6.53.07-9.79l0-3c0-2.67.05-5.34.08-8-2.89-4.45-7.33-1-10.87-2.14l2-4,5,0c1.4,2.72,2.72,2.79,4-.13-.23-1.43,0-3.3-.76-4.23-7.23-8.24-24.56-8.52-33.23-.71-8.21-.18-16.76,1.46-24.4-2.31-6.67-3.3-13-6.54-20.57-3.58-3.83-5.31,3.24-5.79,4-9.06,8.32-3.58,16.45-8.36,26-4.05,2.57,1,5.78,1.26,7.59,3,5.8,5.62,11.87,3.15,17.27.48,4.55-2.26,5.47-7.44,5.13-12.46,4.42-3.67,10-3.88,15.23-5.15,1.29-.31,3.84,1.85,3.76-1.8-.07-2.92-1.85-3.1-4-3.07l-.84-3.18c-1.91,1.34-5.06.28-6.17,3.18a53.64,53.64,0,0,0-6.13.82c-3.28.67-6.9,0-5.88,5.21-.5,4.16-4.13,5.19-7,7-3.61-1-8,2.18-11-2,1.83-1,3.64-2.12,5.49-3.13,1.62-.89,3.34-1.88,3.22-3.93-.14-2.41-2.33-1.83-3.83-2-3.41-.34-6-2.48-8.86-3.95l0-2c-.06-2.42,1.54-2.55,3.46-3.15,9.2-2.85,18.18.74,27.28.68,5.24,0,7-1.64,6.25-6.5l2-.06c.13,1.6-.36,3.53,2,4h.18c.91,3.43,3.82,1.36,5.72,2.07Z"/><path class="cls-10" d="M117.14,177.21c-.86,1.53,1.16,4.26-2,4.83l-2.07-1-.06-1.84.18-1.95c.23-1.78-.06-3.29-2.08-3.85-2.08-2.4-.35-4.82-.06-7.23l.32-1.74,2.18-2.07,6.54,0,0,0a1.87,1.87,0,0,0,2.23,1.78c1.29.05,2,.63,2,2l-2.18,1c-1.4,0-2.11.72-2,2.14,0,2.1-.4,3.51-3,4-2.76.58-3.17,2.15-.26,3.57Z"/><path class="cls-11" d="M126.31,143.27h1.75l0,17h-1.86l-.13.09c0-.65,0-1.29-.07-1.94l0-8.37.08-2.75v-1.88Z"/><path class="cls-2" d="M128.16,169.17c-.41,2.19-2.62,3.8-2.06,6.31l-4-.14.12-6Z"/><path class="cls-4" d="M128.36,103.25v-7c6.31.18.14,4.5,2,6.14a2.59,2.59,0,0,0-.37.79Z"/><path class="cls-10" d="M122.14,175.34l4,.14c0,.6-.07,1.2-.1,1.81l-3.81,0-5,0-.22-.26C118.08,174.53,120.26,175.45,122.14,175.34Z"/><path class="cls-12" d="M128.16,169.17l-5.9.2-.29-.3.21-1.87,2.18-1-.16,0c.73.94,1.35.93,1.86-.2h0l2.16.27C128.17,167.26,128.17,168.21,128.16,169.17Z"/><path class="cls-13" d="M122.19,177.25l3.81,0,.06,3.89,0,0C123,181.62,121.51,180.53,122.19,177.25Z"/><path class="cls-13" d="M94.21,182.41H90.26c0-.31,0-.63,0-.94l15.06-.33,0,.07a3.76,3.76,0,0,0-.15.93Z"/><path class="cls-2" d="M126.06,181.18c1.36.6,3.71.15,3.28,2.66-.12.7-1.67,1.87-2.08,1.69-2-.86-.82-2.87-1.18-4.37Z"/><path class="cls-14" d="M128.17,166.3,126,166c.07-1.92.15-3.84.22-5.76h1.86C128.12,162.28,128.14,164.29,128.17,166.3Z"/><path class="cls-14" d="M105.15,182.13a3.76,3.76,0,0,1,.15-.93l2-.26,4,.47c0,.25,0,.5,0,.75Z"/><path class="cls-15" d="M111.23,182.16c0-.25,0-.5,0-.75l1.84-.34,2.07,1Z"/><path class="cls-7" d="M6,118.34c0-1,0-2,.08-3,.09-.71.19-1.43.28-2.15l1.67.18.22-.1.11,25.81q-.08,7.65-.16,15.3c0,.65,0,1.3.07,1.95l-.09,12.91-.15,2.07-1.78,0q-1.07-2-2.11-3.9c0-.36,0-.71.05-1.07,2.36-.43,1.89-2.3,2-3.9V152.3l-.21-24,.09-4.08Z"/><path class="cls-6" d="M6.07,124.27,6,128.35C3.51,126.94,3.45,125.58,6.07,124.27Z"/><path class="cls-5" d="M128.41,51.28l-.3-30c0-.64,0-1.28-.07-1.91,4,1.63,1.48,5.11,2.16,7.68.82,3.06-2,7,2.2,9.24-1.19,2.12-2.87,4.11-2,6.84-.06,1.38-.11,2.77-.17,4.16C130,48.8,130.72,50.76,128.41,51.28Z"/><path class="cls-11" d="M122.19,13.37c0-1.36.09-2.71.14-4.06l3.76-.05C127.12,12.85,125.18,13.6,122.19,13.37Z"/><path class="cls-5" d="M131,4.16c1.46,2.47,1.64,3.92-.23,4.85-.42.22-1.17-.22-1.77-.36Z"/><path class="cls-11" d="M122.21,19.25c-2.4-.43-1.91-2.36-2-4,0-.63,0-1.25,0-1.87l2.08-.13,0,2C122.28,16.59,122.25,17.92,122.21,19.25Z"/><path class="cls-5" d="M122.21,19.25c0-1.33.07-2.66.1-4a6.28,6.28,0,0,1,3.93,3.94l-3.85.05Z"/><path class="cls-14" d="M122.39,19.25l3.85-.05,1.8.21c0,.63.05,1.27.07,1.91C126.21,20.61,123.3,22.68,122.39,19.25Z"/><path class="cls-14" d="M126.09,9.26l-3.76.05c.23-2.59,2.19-1.69,3.65-1.8C126,8.09,126.05,8.68,126.09,9.26Z"/><path class="cls-4" d="M10.18,19.27a13.83,13.83,0,0,1-2.11-8.06C10.28,4.62,16.58,6.63,21.14,5l.08.42-.13,1.78h0c-3.35,1.06-1.22,4-2.06,6l-5.87.18c-.23-1.43,1-3.4-1.34-4.05-.91-.26-1.46.42-1.56,1.37-.25,2.29,1.09,2.76,3,2.61l-.15,5.91Z"/><path class="cls-14" d="M27.21,182.52c-4.8.2-9.85,1-12-5l0-.23c0-.63,0-1.26-.07-1.89a2.32,2.32,0,0,0,2.22-2.14l5.69.43c.79,2.91-1.61,7.54,4.19,7.72q0,.39-.06.78Z"/><path class="cls-2" d="M15.16,177.48c0,1.32,0,2.65,0,4,0,.92.35,2.25-1.09,2.19-.37,0-.68-1.62-1-2.49.07-1.27.14-2.54.2-3.81l2-.09Z"/><path class="cls-11" d="M13.23,177.34c-.06,1.27-.13,2.54-.2,3.81l-2.81,0c0-1.38,0-2.76,0-4.14Z"/><path class="cls-16" d="M13.08,19.17l.15-5.91-.08.07L19,13.15c3.68-1,1.62-3.89,2.06-5.95h0l94.08.12.24,3.77c-.2,1.48.5,2.13,1.94,2.07l2.83.27c0,.62,0,1.24,0,1.87l-2,.05-5,0c.8-4.89-1.38-6.22-6.12-6.1-12.29.3-24.6.11-36.9.12l-17,0h-15a83.08,83.08,0,0,1-8.93-.06c-4.76-.53-6.85,1.23-6.07,6.06l-5.94,0c-2.9,1.26-2.78,2.58-.08,4v2c-2.18,1.32-5.65-.31-7,3v4l0,8.1,0,6.88.07,25.17,0,4.81q0,7.55,0,15.09c0,1.31,0,2.63,0,4l0,2.07c0,1.29,0,2.57,0,3.85s0,2.74-.07,4.1l0,3c-.73,2.63,1.74,6-1.93,8l-.22.1q0-20-.11-40l0-3.14.42-48.83C10.05,20.93,12.65,22.36,13.08,19.17Z"/><path class="cls-5" d="M2.1,79.3c.29-2.11-1.38-4.85,1.9-6l2.17,0h0c0,2.64-.07,5.28-.1,7.93Z"/><path class="cls-5" d="M6.1,45.36c-1.35-.26-3.14.43-3.66-1.61a1.58,1.58,0,0,1,.26-1.36c1.45-1.06,2.14,1.19,3.46.9Z"/><path class="cls-17" d="M13.08,19.17c-.43,3.19-3,1.76-4.73,2.22l.09-1.87,1.74-.25Z"/><path class="cls-3" d="M2.19,51.3l4,0c-.2,2.6-2.3,2-3.86,2.25Z"/><path class="cls-5" d="M4.24,38.25c0-1.63-.33-3.4,1.84-4,0,1.4,0,2.8-.07,4.2Z"/><path class="cls-14" d="M7.93,70.22l0,3.14-1.78,0h0C6.36,72.05,6.16,70.58,7.93,70.22Z"/><path class="cls-1" d="M6.22,49.34l-2,0a1.94,1.94,0,0,1,1.93-2Z"/><path class="cls-6" d="M8.07,171.29l.15-2.07,4.91.15.12,5.92-2.84-.12Z"/><path class="cls-4" d="M4.18,167.37q1.05,1.95,2.11,3.9a2.08,2.08,0,0,1-2.09,2.07,2,2,0,0,0-2-2C2.4,169.78,1.58,167.73,4.18,167.37Z"/><path class="cls-18" d="M10.41,175.17l2.84.12,1.88.07c0,.63,0,1.26.07,1.89l-2,.09-3-.3C10.3,176.42,10.35,175.79,10.41,175.17Z"/><path class="cls-3" d="M6.2,162.4c-.08,1.6.39,3.47-2,3.9,0-1.31-.05-2.63-.08-4Z"/><path class="cls-8" d="M2.22,171.34a2,2,0,0,1,2,2C2.9,173.3,2.19,172.69,2.22,171.34Z"/><path class="cls-17" d="M115.17,7.31,21.09,7.19c0-.59.09-1.19.13-1.78l2-.24,9-.06h1.85l4,0,11,0,6.16.07,2.88,0,14.08,0,6.82-.08L85.29,5h9l4,.1,3.83,0L105.3,5l5.71.1C112.47,5.73,115,4.37,115.17,7.31Z"/><path class="cls-3" d="M117.26,11.2V6.25c1.95.5,3,1.37,2.87,3.1s-1.57,1.75-2.85,1.89Z"/><path class="cls-17" d="M117.35,13.15c-1.44.06-2.14-.59-1.94-2.07l1.85.12,0,0C117.3,11.88,117.33,12.51,117.35,13.15Z"/><path class="cls-17" d="M79.18,182.17l-11,.36-13-.29c0-.3,0-.6,0-.9l2.87-.11,21.12.23C79.17,181.7,79.18,181.93,79.18,182.17Z"/><path class="cls-11" d="M55.18,181.34c0,.3,0,.6,0,.9l-5.94.27-17-.42v-.47l3.77-.57,19.22.13Z"/><path class="cls-17" d="M32.23,181.62v.47l-5.06.06q0-.39.06-.78a2.06,2.06,0,0,0,.91-.21l4.09,0A.48.48,0,0,0,32.23,181.62Z"/><path class="cls-3" d="M88.06,186.16l-4.86.15-.09-3.83,5-.12.17,1.76Z"/><path class="cls-14" d="M88.13,182.36l-5,.12-3.93-.31c0-.24,0-.47,0-.71l7.92-.37,1.13.08.06.27Z"/><path class="cls-6" d="M130,70.28c.66-2-1.27-4.92,2.11-6C131.42,66.32,134.44,69.62,130,70.28Z"/><path class="cls-7" d="M128.41,92.36l0-6.13,1.71.16.24,4C130.1,91.44,129.67,92.31,128.41,92.36Z"/><path class="cls-5" d="M4.28,109.4c-4-2.27-1.12-6.13-2.09-9.11h0c3.21.22.74,4.94,4,5.09l-.11,4Z"/><path class="cls-1" d="M4.28,109.4H6.12c.09,1.26.19,2.52.28,3.78-.09.72-.19,1.44-.28,2.15l-1.94,0C4.21,113.32,4.24,111.36,4.28,109.4Z"/><path class="cls-4" d="M6.4,113.17c-.09-1.26-.19-2.52-.28-3.78s.07-2.68.11-4c-.89-3.63,1.88-8-2.11-11l.11-.13a1.93,1.93,0,0,0-2-2l-.06,0c-2.39-4.95,5.65-6.22,3.87-11,0-2.65.07-5.29.1-7.93l1.78,0q.06,20,.11,40Z"/><path class="cls-5" d="M94.3,5h-9c0-.93,0-1.86,0-2.79C88.2,3.41,92.63-.31,94.3,5Z"/><path class="cls-1" d="M4.18,158.24a2.09,2.09,0,0,1-2-1.9A1.94,1.94,0,0,1,4.18,158.24Z"/><path class="cls-17" d="M88.13,182.36l.15-.92,2,0c0,.31,0,.63,0,.94,0,1.31-.57,2-2,1.72C88.24,183.53,88.19,183,88.13,182.36Z"/><path class="cls-3" d="M4.12,94.38c4,3,1.22,7.37,2.11,11-3.3-.15-.83-4.87-4-5.09C1.58,97.91,3.45,96.34,4.12,94.38Z"/><path class="cls-5" d="M2.27,92.24a1.93,1.93,0,0,1,2,2A1.84,1.84,0,0,1,2.27,92.24Z"/><path class="cls-13" d="M107.19,38.29c.34,5-.58,10.2-5.13,12.46-5.4,2.67-11.47,5.14-17.27-.48-1.81-1.75-5-2.05-7.59-3-1.52-4.68-5.43-3.95-9-4,.47-2.86,5.52-1.17,5-5,1.68,2.29,4.87-4.49,6,1-1.16.28-1.73.76-.94,2,2.74,4.48,15,4.5,17.92,0,2.86-1.82,6.49-2.85,7-7C109,31.18,106.74,36.07,107.19,38.29Z"/><path class="cls-12" d="M47.18,60.37c7.6-3,13.9.28,20.57,3.58,7.64,3.77,16.19,2.13,24.4,2.31,1.15.33,3.2-.6,3.18,1.28,0,1.37-1.52,2.47-3.16,2.75-2.3-3.84-6.11-2-9-1.79-5,.4-10.48-2.45-15,1.81-3.25,2.38-6.54-3.14-9.79,0l-16.16-6,0-2C44,62,46.37,63.16,47.18,60.37Z"/><path class="cls-15" d="M92.17,70.29c1.64-.28,3.15-1.38,3.16-2.75,0-1.88-2-1-3.18-1.28,8.67-7.81,26-7.53,33.23.71.81.93.53,2.8.76,4.23l-4,.13-5,0c-2,.07-4-.09-5.55-1.62-4.39-4.5-9-1.22-13.39-.24-4.92,1.11-1.85,5.08-2.08,7.86-3-1-4.14-3.09-4.07-6.07C92.12,70.92,92.14,70.6,92.17,70.29Z"/><path class="cls-12" d="M126.07,77.4c0,2.68,0,5.35-.08,8-2,.06-4-.67-5.82.81l-5,.12c0-.35,0-.7,0-1-4.35-4.06-10.45-3.76-13.66.71l5.66.29,2.09,4.07h0l-4.08-.1c-3-4.15-7.43-1-11-2,1-3,2.94-5.95,0-8.93l2.1-.06a63.89,63.89,0,0,0,16.92-3.93C116.89,79.62,121.86,76.14,126.07,77.4Z"/><path class="cls-11" d="M113.19,15.3l5,0c.7,4.87-1,6.48-6.25,6.51-9.1.06-18.08-3.53-27.28-.68-1.92.6-3.52.73-3.46,3.15-4.51-1.33-3.74-6.16-6-9,8.16,0,16.35-.42,24.46.15C104.21,15.79,108.68,19,113.19,15.3Z"/><path class="cls-19" d="M125.94,117.17q0,12.1.08,24.22c-1.84.75-4.09,2.52-3.92-1.64a1.48,1.48,0,0,0-1.28-1.69c-6.34-1.73-7.14-3.66-3.83-8.76,1-1.58,1.71-3.22.33-5l.76-2.08a2.12,2.12,0,0,0,2.18-1.88Z"/><path class="cls-20" d="M113.18,75.32a63.89,63.89,0,0,1-16.92,3.93l-.09-2c.23-2.78-2.84-6.75,2.08-7.86,4.37-1,9-4.26,13.39.24,1.5,1.53,3.52,1.69,5.55,1.62l-2,4Z"/><path class="cls-10" d="M117.32,124.32c1.38,1.76.7,3.4-.33,5-3.31,5.1-2.51,7,3.83,8.76a1.48,1.48,0,0,1,1.28,1.69c-.17,4.16,2.08,2.39,3.92,1.64.09.63.19,1.25.29,1.88-.07.72-.14,1.43-.22,2.15l-3.89-.06-3.65-.37c-.41-.61-.82-1.21-1.22-1.82-2.85-2.78-6.16-4.33-10.24-3.75l.07-.08c0-1.64.07-3.28.1-4.92l0-.09a1.94,1.94,0,0,0,1.94-2h0a1.8,1.8,0,0,0,2-1.94l0,0a1.8,1.8,0,0,0,2-2l-.07-.12a1.75,1.75,0,0,0,1.86-2l.43-1.76Z"/><path class="cls-11" d="M107.19,38.29c-.45-2.22,1.76-7.11-4-4-1-5.22,2.6-4.54,5.88-5.21a53.64,53.64,0,0,1,6.13-.82c2.34,1.34,4.67-.63,7,0,2.13,0,3.91.15,4,3.07.08,3.65-2.47,1.49-3.76,1.8C117.18,34.41,111.61,34.62,107.19,38.29Z"/><path class="cls-8" d="M115.2,86.35l5-.12c1.91.78,3.43,2.61,5.79,2.21l-.06,9.79-5.74,4.12a2.19,2.19,0,0,1-2-1.92,2.61,2.61,0,0,1,2-2.35c2.58-.25,2.06-2.14,2-3.79l0-2c-.45-2.41-2-4.25-4.29-3.22-3.74,1.71-5.38,5-4.46,9.3-.1.6-.19,1.21-.29,1.82l0,0c-1.2.06-2,.54-2,1.9l-2,.85-1.64-.3q.78-2.22,1.58-4.42l0-2,.07-5.89h0A5.4,5.4,0,0,0,115.2,86.35Z"/><path class="cls-15" d="M75.17,15.33c2.24,2.83,1.47,7.66,6,9,0,.66,0,1.31,0,2q0,6.5,0,13h-2c-1.16-5.49-4.35,1.29-6-1,.95-1.3,1.89-2.6,2.85-3.89,2-2.66,1.4-5.69.81-8.48-.48-2.35-2.93-1.38-4.6-1.6l-.15-1.95c2.86-1.06,3.12-2.52.68-4.4s-5.28-3.15-8.56-2.71c1.44-5.68,5.32-1.3,8-2Z"/><path class="cls-13" d="M81.18,39.28q0-6.49,0-13c2.88,1.47,5.45,3.61,8.86,3.95,1.5.16,3.69-.42,3.83,2,.12,2.05-1.6,3-3.22,3.93-1.85,1-3.66,2.08-5.49,3.13Z"/><path class="cls-14" d="M120.16,102.35l5.74-4.12c.07,2.33.15,4.67.22,7-2,.65-7-1.72-3.9,4l-9,.24-2-.24c0-1.24.06-2.48.1-3.72l0-.09,1.84-.23A6.86,6.86,0,0,0,120.16,102.35Z"/><path class="cls-11" d="M81.18,39.28h4c3,4.2,7.4,1,11,2-2.9,4.49-15.18,4.47-17.92,0-.79-1.27-.22-1.75.94-2Z"/><path class="cls-11" d="M68.19,43.29c3.58,0,7.49-.71,9,4-9.55-4.31-17.68.47-26,4.05,0-.7,0-1.39-.05-2.08a2.09,2.09,0,0,1,2-2C58.48,47.14,62.6,42.43,68.19,43.29Z"/><path class="cls-15" d="M51.15,49.23c0,.69,0,1.38.05,2.08-.78,3.27-7.85,3.75-4,9.06-.81,2.79-3.16,1.66-5,1.93H40.58a.87.87,0,0,0-.57-.1c.08-.64.15-1.29.23-1.93a1.8,1.8,0,0,0,1.78-2l.52-1.85L45.3,53.3c1.47.16,1.79-.93,2.16-2l1.92-1.85Z"/><path class="cls-21" d="M125.94,117.17l-5.68,3.19-.36-.35.07-1.79c.91-.84,2.43-1.21,2.24-2.91l.08.07c1.36-.07,1.9-.84,1.81-2.13l0-1.89.07-1.89,1.94-.08Z"/><path class="cls-11" d="M113.18,75.32l2-.06c3.54,1.16,8-2.31,10.87,2.14C121.86,76.14,116.89,79.62,113.18,75.32Z"/><path class="cls-20" d="M122.2,28.27c-2.34-.63-4.67,1.34-7,0,1.11-2.9,4.26-1.84,6.17-3.18Z"/><path class="cls-12" d="M126.09,109.39l-1.94.08-1.93-.27c-3.12-5.68,1.93-3.31,3.9-4Z"/><path class="cls-14" d="M126,88.44c-2.36.4-3.88-1.43-5.79-2.21,1.77-1.48,3.85-.75,5.82-.81Z"/><path class="cls-20" d="M122.19,71.33l4-.13C124.91,74.12,123.59,74.05,122.19,71.33Z"/><path class="cls-22" d="M107.27,180.94l-2,.26,0-.07c0-4.86-3.53-5.35-7.08-5.88l-.12-1.86,4.52-.14,8.45.18c2,.56,2.31,2.07,2.08,3.85-2.22-.36-5.93-5.25-5.69,1.88Z"/><path class="cls-18" d="M111.1,173.43l-8.44-.18c.2-1.28.4-2.55.59-3.83l5.79-3.24,2,0C110.75,168.61,109,171,111.1,173.43Z"/><path class="cls-23" d="M126.23,160.27c-.07,1.92-.15,3.84-.22,5.76h0l-1.86.2.16,0c0-1.38-.71-2-2-2-.11-1.38-.94-1.88-2.23-1.78l0,0c0-.61,0-1.22,0-1.83l0-2.09,2-.13h0c.46,2.31,2.37,1.81,3.92,2Z"/><path class="cls-12" d="M122.14,175.34c-1.88.11-4.06-.81-5.22,1.61-2.91-1.42-2.5-3,.26-3.57,2.57-.53,3-1.94,3-4l1.82-.27.29.3Z"/><path class="cls-24" d="M107.49,179.16c-.24-7.13,3.47-2.24,5.69-1.88l-.18,1.95Z"/><path class="cls-18" d="M120.13,160.54c0,.61,0,1.22,0,1.83l-6.54,0-.51-.17c.14-.59.27-1.19.41-1.78l4.77-.22Z"/><path class="cls-25" d="M107.49,179.16l5.51.07.06,1.84-1.84.34-4-.47C107.34,180.35,107.42,179.75,107.49,179.16Z"/><path class="cls-11" d="M122,169.07l-1.82.27c-.08-1.42.63-2.1,2-2.14Z"/><path class="cls-26" d="M113.54,162.39l-2.18,2.07-.36-.36c.08-.59.16-1.17.23-1.76l1.8-.12Z"/><path class="cls-18" d="M120.13,162.41c1.29-.1,2.12.4,2.23,1.78A1.87,1.87,0,0,1,120.13,162.41Z"/><path class="cls-26" d="M111,166.2l-2,0c.07-.61.13-1.22.2-1.84l1.76-.24.36.36C111.26,165,111.15,165.62,111,166.2Z"/><path class="cls-23" d="M118.21,160.22l-4.77.22-2.23-.13-.16-.16c0-.65,0-1.31,0-2h0a1.8,1.8,0,0,0,2-2h0a2.08,2.08,0,0,0,2.23-1.79,2.12,2.12,0,0,0,1.85-2.15l.14-1.88h0a1.42,1.42,0,0,0,.78-.17c1-.17,2-.43,1.6-1.65-.15-.48-1.16-.67-1.77-1l-2.78-.14-1.83-.23c-.69-2.35-2.56-1.72-4.2-1.64-2.18-.51-4.47-.12-6.54-1.67-2.77-2.08-4.83.95-7,1.86s.87,2.26.5,3.58l-8-2.16c.19-2.65,4.26-1,4.27-3.82h0a1.84,1.84,0,0,0,2.12-2l8-6.84,1.14,1.09c-.47,2.86.74,4.08,3.61,3.69l-.07.08c2,2.66,5,3.42,8.07,3.91.53,1.77,1.83,2,3.39,1.66l3.65.37c.49,2.27,2.33,1.82,3.89,1.94,0,.92,0,1.83-.08,2.75l-1.75.3a1.85,1.85,0,0,0-2,2h0a1.94,1.94,0,0,0-2.07,1.92h0c-1.21.22-1.89.84-1.69,2.16l-.26,1.53Z"/><path class="cls-21" d="M124.26,150.35l1.75-.3c0,2.79,0,5.58,0,8.37l-3.85-.09h0c0-1.37,0-2.74-.08-4.1l.21-1.83h0A1.94,1.94,0,0,0,124.26,150.35Z"/><path class="cls-25" d="M126.09,147.3c-1.56-.12-3.4.33-3.89-1.94l3.89.06Z"/><path class="cls-26" d="M122.18,158.33l3.85.09c0,.65,0,1.29.07,1.94C124.55,160.14,122.64,160.64,122.18,158.33Z"/><path class="cls-19" d="M124.2,166.24l1.86-.2C125.55,167.17,124.93,167.18,124.2,166.24Z"/><path class="cls-10" d="M98.25,175.25c3.55.53,7.13,1,7.08,5.88l-15.06.33-2,0-.06-.27c1-2.85,4.46-4.34,4.18-7.85l1.75,0,2.08,0h0A1.81,1.81,0,0,0,98.25,175.25Z"/><path class="cls-11" d="M8.29,113.25c3.67-1.92,1.2-5.33,1.93-8,2.74-.67,4.81,1.27,7.22,1.88.64.72,1.28,1.44,1.93,2.15a12.42,12.42,0,0,1-4.32,6c-7.67-.18-4.35,5.32-4.63,9l-.2,13L10,139.2l-1.61-.14Z"/><path class="cls-8" d="M8.4,139.06l1.61.14c1.33,4.35-2.13,9.44,2,13.36,0,1.32-1,1.65-2,1.9l-1.82-.1Z"/><path class="cls-13" d="M13.13,169.37l-4.91-.15.09-12.91,1.69,0,.33,3.89c.51,2.55-2.12,6.37,2.88,7.1L13.4,169Z"/><path class="cls-12" d="M10,156.35l-1.68,0c0-.65-.05-1.3-.07-1.95l1.82.1C10,155.09,10,155.72,10,156.35Z"/><path class="cls-17" d="M21.08,7.2c-.44,2.06,1.62,5-2.06,6C19.86,11.21,17.73,8.26,21.08,7.2Z"/><path class="cls-16" d="M13.23,13.26c-1.89.15-3.23-.32-3-2.61.1-1,.65-1.63,1.56-1.37,2.32.65,1.11,2.62,1.34,4.05Z"/><path class="cls-18" d="M28.14,181.16a2.06,2.06,0,0,1-.91.21c-5.8-.18-3.4-4.81-4.19-7.72a5.46,5.46,0,0,0,.27-.6C29.92,172.77,27.85,177.67,28.14,181.16Z"/><path class="cls-26" d="M23,173.65l-5.69-.43,0-.09c.37-2-1.66-4.82,1.88-5.81-1.46,3.93,3.06,3.59,4.1,5.73A5.46,5.46,0,0,1,23,173.65Z"/><path class="cls-15" d="M15.13,175.36l-1.88-.07-.12-5.92.27-.35,1.7.24c.4,1.49-.47,3.71,2.23,3.87l0,.09A2.32,2.32,0,0,1,15.13,175.36Z"/><path class="cls-20" d="M10.29,68.43q0-12.59-.07-25.17c6.11,5.31,10.45,13.05,19.72,14,.86.09,1.53,2,2.28,3l-.06,2h0a1.68,1.68,0,0,0-1.89,2.07l0,0c-2.24.47-2.28,2.35-2.59,4.06a3,3,0,0,0-.49-.13C21.56,72.14,15.94,71.45,10.29,68.43Z"/><path class="cls-11" d="M17.18,21.3c0-.67,0-1.33,0-2,0-1.32,0-2.64.08-4l5.94,0c4.94-1.1,10.5,2.37,15-2l7,.05c-3.49,4.49-3.18,9.73-3,15l1,2c-.19,3.4-.17,6.7,4,7.94l.07,3.09-2.13,3.82a1.77,1.77,0,0,0-1.83,2.16v.28a2.1,2.1,0,0,1-.61,0l-2.49-.28c.28-2.3,4-3.55,2.14-6.44-1.54-2.41-2.67.79-4.1.48-1-3.5-3.42-6.87-.32-10.64.78-1-.43-2.11-1.75-2.42,3.61-5.15,2.25-6.57-3.93-6.71C27.21,21.43,22.12,23.52,17.18,21.3Z"/><path class="cls-9" d="M75.17,15.33l-3-2q-1-2-2-4c12.3,0,24.61.18,36.9-.12,4.74-.12,6.92,1.21,6.12,6.1-4.51,3.71-9,.49-13.56.18C91.52,14.91,83.33,15.32,75.17,15.33Z"/><path class="cls-12" d="M10.29,68.43c5.65,3,11.27,3.71,16.87-.11l.21,2.94.84,2c-.45,2.36-1.67,5,2,6,.51,2.34,2.38,1.93,4,2h2l6.21.18c-.83,4.67-5.31,6.07-8.06,9a2.39,2.39,0,0,0-2.13-2.2v-2c-2.13-1.15-3.89-3.49-5.64-4.23-5.77-2.42-9.61-8.33-16.31-8.82Z"/><path class="cls-15" d="M40.18,47.28l2.49.28c-.23,1.2-.45,2.41-.68,3.62-1.53-.16-2,.63-1.83,2a.68.68,0,0,0-.2.59l-1.75.66C36,55.74,34,57.18,34.09,60.11l0,.09-1.9.1c-.75-1-1.42-2.91-2.28-3-9.27-1-13.61-8.73-19.72-14,0-2.29,0-4.59,0-6.88a13.92,13.92,0,0,1,6.92,4.93q-.48,4.48,4,4h0c-.33,3,1,4.32,4,4,4.33,2.75,8.66,2.8,13,0a2,2,0,0,0,2-2Z"/><path class="cls-20" d="M10.24,73.24c6.7.49,10.54,6.4,16.31,8.82,1.75.74,3.51,3.08,5.64,4.23-7.32.77-14.5,2.93-22,2Z"/><path class="cls-9" d="M17.18,21.3c4.94,2.22,10,.13,15,.25,6.18.14,7.54,1.56,3.93,6.71l-2,0c-3.8-.94-7,1.3-10.49,2-6.06,1.28-9.17-3.62-13.48-6C11.53,21,15,22.62,17.18,21.3Z"/><path class="cls-11" d="M32.19,88.28a2.39,2.39,0,0,1,2.13,2.2c-.08,2.86-2,4.47-4.12,5.87a1.79,1.79,0,0,0-2,2l0,0-7,0-10.93-4,0-2.07a60.1,60.1,0,0,1,19.44-2A2.29,2.29,0,0,0,32.19,88.28Z"/><path class="cls-11" d="M10.22,24.33c4.31,2.38,7.42,7.28,13.48,6,3.48-.73,6.69-3,10.49-2-3.11,2.58-4.87,7.57-10.72,5a6.48,6.48,0,0,0-6.31,1c-3.54-.59-3.73-5-6.95-6Z"/><path class="cls-9" d="M38.19,13.28c-4.5,4.39-10.06.92-15,2-.78-4.83,1.31-6.59,6.07-6.06a83.08,83.08,0,0,0,8.93.06Z"/><path class="cls-11" d="M70.17,9.32q1,2,2,4c-2.67.65-6.55-3.73-8,2l0,0-2,0c-4.55-4.16-10.05-.92-15-1.94.51-3.55,5.46-.47,6-4Z"/><path class="cls-15" d="M32.19,88.28a2.29,2.29,0,0,1-2.49,2,60.1,60.1,0,0,0-19.44,2c0-1.32,0-2.64,0-4,7.47.89,14.65-1.27,22-2Z"/><path class="cls-20" d="M10.21,28.28c3.22,1,3.41,5.43,7,6l2,4v3h-2a13.92,13.92,0,0,0-6.92-4.93Q10.25,32.33,10.21,28.28Z"/><path class="cls-12" d="M10.29,94.35l10.93,4q1.05,2,2.09,4l-2.11,1c-1.59-1.87-3.31-3.49-6.07-3L10.27,98.2Z"/><path class="cls-20" d="M53.19,9.3c-.53,3.53-5.48.45-6,4l-2,0-7-.05v-4h5l1,1.38,1-1.38Z"/><path class="cls-15" d="M15.13,100.34c2.76-.49,4.48,1.13,6.07,3a5.42,5.42,0,0,0-3.76,3.83c-2.41-.61-4.48-2.55-7.22-1.88,0-1,0-2,0-3C12,102,14.39,103.25,15.13,100.34Z"/><path class="cls-20" d="M15.13,100.34c-.74,2.91-3.17,1.61-4.93,2,0-1.36.05-2.73.07-4.1Z"/><path class="cls-9" d="M17.25,15.35c0,1.32-.05,2.64-.08,4C14.47,17.93,14.35,16.61,17.25,15.35Z"/><path class="cls-9" d="M45.19,9.3l-1,1.38-1-1.38Z"/><path class="cls-10" d="M58.05,181.23l-2.87.11,0-.16c.54-2.05-6.19-1.87-1.64-5.07,3.46-2.44,7.15-4.56,10.74-6.83,1.68.49,3.36,1.47,3,3.28s-2.21,2.6-4.22,2.72c-1.82.1-4.2-.74-4.8,2.16v1.91Z"/><path class="cls-25" d="M58.05,181.23c.08-.63.17-1.26.26-1.88l2,0,12.89,0,13.61,0,.24,1.86-7.92.37Z"/><path class="cls-27" d="M64.32,169.28c-3.59,2.27-7.28,4.39-10.74,6.83-4.55,3.2,2.18,3,1.64,5.07L36,181.05c1.28-3,6.45-5.32,3.38-8.85-3.58-4.1-.61-6.92-.17-10.52.5-4.1,6.13-8,1-12.51-.57-3.93-3.88-7.87,0-11.81,3.08,1.71,5,4.23,4.9,7.85-.11,3,1,4.38,4,4.09l1.92.27c.68,2.55,1.28,4,5,3.51,9.88-1.21,13.76,3.5,10.15,11.25h0c-1.85.24-2,1.55-2,3Z"/><path class="cls-18" d="M40.25,149.17c5.09,4.52-.54,8.41-1,12.51-.44,3.6-3.41,6.42.17,10.52,3.07,3.53-2.1,5.88-3.38,8.85l-3.77.57a.48.48,0,0,1,0-.49c1.09-3.62,9.71-8-1.13-10.47-1.19-.27-.78-2-.2-3,1.41-2.53,3.24-4.89,4.25-7.57,1.31-3.45,5.09-6.08,3.73-10.47Z"/><path class="cls-24" d="M38.88,149.57c1.36,4.39-2.42,7-3.73,10.47-1,2.68-2.84,5-4.25,7.57-.58,1-1,2.78.2,3,10.84,2.47,2.22,6.85,1.13,10.47l-4.09,0c-.29-3.49,1.78-8.39-4.83-8.11-1-2.14-5.56-1.8-4.1-5.73l-.05-.08c6.09-2.21,9.26-7,11.26-12.8a1.89,1.89,0,0,0,1.47-2.84c-.67-1.72-2.31-1.25-3.66-1.35l-5.18-.67-1.85-.38c2.52-5.8,5.27-11.44,10.91-15,1.6-.05,3.48.58,4.11-1.75l4-.12c0,.92,0,1.84,0,2.76l-1.92.38c-4.18-.35-5.93,1.89-6.14,5.76h0c-2.26.64-3.67,2.26-3.42,4.47.2,1.87,2.16,1.42,3.57,1.4l1.79.26c.53,2.31,2.36,2,4,2A1.26,1.26,0,0,0,38.88,149.57Z"/><path class="cls-26" d="M87.09,181.09l-.24-1.86c-.75-3.5,5.16-6,1.41-10l3.88.07h0l.25,4c.28,3.51-3.22,5-4.18,7.85Z"/><path class="cls-12" d="M68.19,43.29c-5.59-.86-9.71,3.85-15,4l4-6h0c1.84-.23,4.23.92,5-2l4-1c2.65,1.25,1.65-1,2-2l0,0a1.93,1.93,0,0,0,2-2c2.46-3,2-6.54,2.06-10,1.67.22,4.12-.75,4.6,1.6.59,2.79,1.16,5.82-.81,8.48-1,1.29-1.9,2.59-2.85,3.89C73.71,42.12,68.66,40.43,68.19,43.29Z"/><path class="cls-14" d="M92.17,70.29c0,.31,0,.63-.07.94l-4,2.1c-5.86-4-10.88-1.14-15.87,2a5.79,5.79,0,0,0-3.91-4c0-.32-.07-.63-.11-1,4.51-4.26,10-1.41,15-1.81C86.06,68.27,89.87,66.45,92.17,70.29Z"/><path class="cls-14" d="M42.24,64.35l16.16,6c-.12,1-.23,2-.35,3l-1-.21c.25-2-.53-3-2.7-3-2.94.08-5.89,0-8.83,0-2.05-3.88-7.62.81-9.36-3.83l.2-1.65c1.46-.1,1.93-1,1.84-2.32h0l1.8-.1a.87.87,0,0,1,.57.1C40.25,63.72,41,64.22,42.24,64.35Z"/><path class="cls-11" d="M58.05,73.33c.12-1,.23-2,.35-3,3.25-3.17,6.54,2.35,9.79,0,0,.32.08.63.1,1,0,1.33-.06,2.66-.1,4h-2c-1.91-3.63-5.32-1.25-7.95-2Z"/><path class="cls-11" d="M42.24,64.35c-1.22-.13-2-.63-1.66-2h1.64C42.23,63,42.24,63.67,42.24,64.35Z"/><path class="cls-17" d="M88.08,73.33l4-2.1c-.07,3,1.12,5.12,4.07,6.07l.09,2-2.1.06-6-4Z"/><path class="cls-14" d="M88.2,75.31l6,4c2.93,3,1,6,0,8.93a2.11,2.11,0,0,0-2,2,7.8,7.8,0,0,0-5,5.91l-2,.11a18.69,18.69,0,0,0-16.93,6l3.89,3c-.48,4.78-6.21,2.45-7.77,5.75l-2.3.41-6.7-.43.07.09,0-1.67-.07.07c1.48,0,2.22-.63,2.15-2.13l.77-1.84c1.49,0,2.08-.83,2-2.23l1.91-.93c1.38.06,2.38-.37,2.46-2,1.37.25,1.9-.33,1.66-1.68,1.54-.05,2.14-.91,2-2.38l-.07.09c1.49,0,1.92-.89,1.88-2.2l.12.11c1.29,0,2.08-.59,2-2l.34,0c5.94-.17,12,0,14.92-6.85,2.33-.31,2.85-1.85,2.62-3.89C89.94,79.43,87.58,77.84,88.2,75.31Z"/><path class="cls-11" d="M107.19,86.3,101.53,86c3.21-4.47,9.31-4.77,13.66-.71Z"/><path class="cls-13" d="M92.14,90.28a2.11,2.11,0,0,1,2-2c3.6,1.06,8-2.11,11,2h0C100.83,89.93,96.48,94.54,92.14,90.28Z"/><path class="cls-14" d="M107.19,86.3l8-1v1a5.4,5.4,0,0,1-5.92,4Z"/><path class="cls-14" d="M109.26,90.38l-.07,5.89c-3-.86-4.21-3-4-6h0Z"/><path class="cls-25" d="M122.21,115.31c.19,1.7-1.33,2.07-2.24,2.91a1.9,1.9,0,0,0-1.77,2.08l-.12,1.94-.76,2.08-1.9.12-.45-.25c.1-1.24-.61-1.72-1.71-1.85.32-3,4.46-3.77,4.18-7.12l.62-1.77Z"/><path class="cls-21" d="M118.08,122.24l.12-1.94,1.7-.29.36.35A2.12,2.12,0,0,1,118.08,122.24Z"/><path class="cls-23" d="M115.42,124.44c-.14.59-.29,1.18-.43,1.76a1.82,1.82,0,0,0-1.86,2l.07.12a1.81,1.81,0,0,0-2,2l0,0a1.87,1.87,0,0,0-2,1.94h0c-1.36,0-1.91.76-1.94,2l0,.09-3.71,1.23-1.13-1.09c.23-.75.47-1.51.71-2.27a6.43,6.43,0,0,0,4.25-3.91c1.28-.07,1.77-.95,2.1-2a2.1,2.1,0,0,0,1.84-1.94l1.85-.14,1.8-.1Z"/><path class="cls-26" d="M115.16,143.33c-3.08-.49-6-1.25-8.07-3.91,4.08-.58,7.39,1,10.24,3.75Z"/><path class="cls-18" d="M103.55,135.65l3.71-1.23c0,1.64-.07,3.28-.1,4.92C104.29,139.73,103.08,138.51,103.55,135.65Z"/><path class="cls-22" d="M115.16,143.33l2.17-.16c.4.61.81,1.21,1.22,1.82C117,145.31,115.69,145.1,115.16,143.33Z"/><path class="cls-22" d="M113.13,128.2a1.82,1.82,0,0,1,1.86-2A1.75,1.75,0,0,1,113.13,128.2Z"/><path class="cls-26" d="M107.24,134.33c0-1.27.58-2,1.94-2A1.94,1.94,0,0,1,107.24,134.33Z"/><path class="cls-26" d="M109.19,132.29a1.87,1.87,0,0,1,2-1.94A1.8,1.8,0,0,1,109.19,132.29Z"/><path class="cls-26" d="M111.24,130.32a1.81,1.81,0,0,1,2-2A1.8,1.8,0,0,1,111.24,130.32Z"/><path class="cls-12" d="M105.17,90.28c-.19,3,1,5.13,4,6,0,.67,0,1.34,0,2h-3.93c-1.54-3.52-4.66-1.41-7-2l-11.05-.14a7.8,7.8,0,0,1,5-5.91C96.48,94.54,100.83,89.93,105.17,90.28Z"/><path class="cls-24" d="M122.21,115.31l-4.15-1.86h-7l-8.79-.2c-1.78-3.75,1.84-5.36,3.11-7.9,1.2-.08,1.91-.62,1.79-1.93a1.82,1.82,0,0,0,.38-.71l1.64.3c0,.86.09,1.72.13,2.58.24,1.41-.85,3.51,1.89,3.61l2,.24c3.12,3.57,7.31,1.07,10.9,1.92,0,.63,0,1.26,0,1.89a1.9,1.9,0,0,0-1.81,2.13Z"/><path class="cls-22" d="M113.44,98.4c-.92-4.26.72-7.59,4.46-9.3,2.24-1,3.84.81,4.29,3.22-5.88-2.13-4.21,4.51-7,6Z"/><path class="cls-24" d="M115.21,98.32c2.77-1.49,1.1-8.13,7-6,0,.66,0,1.31,0,2-2.19.46-1.94,2.2-2,3.79a2.61,2.61,0,0,0-2,2.35,7.13,7.13,0,0,1-4.75,2.54l-.25-2.71,0,0A2,2,0,0,0,115.21,98.32Z"/><path class="cls-28" d="M107.56,102.71a1.82,1.82,0,0,1-.38.71l-1.68.17-1.93-.11-.4-3.2a2.12,2.12,0,0,0,2-2h3.93Q108.35,100.5,107.56,102.71Z"/><path class="cls-18" d="M113.36,103a7.13,7.13,0,0,0,4.75-2.54,2.19,2.19,0,0,0,2,1.92,6.87,6.87,0,0,1-7,2.81C113.2,104.43,113.28,103.7,113.36,103Z"/><path class="cls-25" d="M113.36,103c-.08.73-.16,1.46-.25,2.19l-1.83.23c0-1.08-.09-2.16-.13-3.23-.05-1.36.76-1.84,2-1.9C113.2,101.16,113.28,102.06,113.36,103Z"/><path class="cls-25" d="M120.14,98.08c.06-1.59-.19-3.33,2-3.79C122.2,95.94,122.72,97.83,120.14,98.08Z"/><path class="cls-29" d="M111.15,102.16c0,1.07.08,2.15.13,3.23l0,.09-2,.11c0-.86-.09-1.72-.13-2.58Z"/><path class="cls-25" d="M115.21,98.32a2,2,0,0,1-2.06,1.9c.1-.61.19-1.22.29-1.82Z"/><path class="cls-8" d="M66.22,38.36l-4,1c-1.86.17-4.24-1-5,2h0l-3.54.06c.06-2.66,3.86-2.25,4-4.85a.68.68,0,0,0,.55-.25,5.67,5.67,0,0,0,6.21-3.74c3.24-1.34,1.77-4.06,1.87-6.32.17-3.05-.86-4.9-4.31-4.38l-3.69-.18c-7.24.45-9,4.93-5,12.68-.28,1.53,0,3.39-2.16,3.87-5.25-7.56-6-14.64,2.16-20.81l10.91-.05c3.11.92,4.29,4.88,7.9,5l.15,1.95c-.07,3.47.4,7-2.06,10a1.91,1.91,0,0,0-2,2l0,0A1.9,1.9,0,0,0,66.22,38.36Z"/><path class="cls-12" d="M72.09,22.35c-3.61-.15-4.79-4.11-7.9-5v-2l0,0c3.28-.44,6,.75,8.56,2.71S75,21.29,72.09,22.35Z"/><path class="cls-22" d="M124.08,111.36c-3.59-.85-7.78,1.65-10.9-1.92l9-.24,1.93.27C124.13,110.1,124.11,110.73,124.08,111.36Z"/><path class="cls-22" d="M109.33,105.59l2-.11c0,1.24-.07,2.48-.1,3.72C108.48,109.1,109.57,107,109.33,105.59Z"/><path class="cls-14" d="M53.64,41.35l3.54-.06-4,6a2.09,2.09,0,0,0-2,2l-1.77.25-.4-.39c-.6-2.49,2.27-3.51,2.43-5.69C52.88,43.51,53.15,42.31,53.64,41.35Z"/><path class="cls-24" d="M40,53.8a.71.71,0,0,1,.21-.59c1.41,0,2-.69,1.83-2,.23-1.21.45-2.42.68-3.62a2.1,2.1,0,0,0,.61,0l2,3.82,0,1.87-2.76,3.16-2.35-.17h0C40.12,55.47,40,54.63,40,53.8Z"/><path class="cls-25" d="M40,62.21l-1.8.1a2,2,0,0,1,1.51-2.16,1.06,1.06,0,0,0,.52.13Z"/><path class="cls-22" d="M42,58.31a1.8,1.8,0,0,1-1.78,2,1,1,0,0,1-.51-.13c.14-.62.29-1.24.43-1.86Z"/><path class="cls-25" d="M42,58.31l-1.86,0,0-2,2.35.17C42.37,57.08,42.19,57.7,42,58.31Z"/><path class="cls-26" d="M45.3,53.3l0-1.87L47,51.32h.48C47.09,52.37,46.77,53.46,45.3,53.3Z"/><path class="cls-14" d="M49.38,49.48l-1.92,1.85H47c.32-1,.5-2.23,2-2.23Z"/><path class="cls-22" d="M119.9,120l-1.7.29a1.9,1.9,0,0,1,1.77-2.08C119.94,118.81,119.92,119.41,119.9,120Z"/><path class="cls-22" d="M122.29,115.38a1.9,1.9,0,0,1,1.81-2.13C124.19,114.54,123.65,115.31,122.29,115.38Z"/><path class="cls-24" d="M103.25,169.42c-.19,1.28-.39,2.55-.59,3.83l-4.53.14-1.9-.13h0v-1.94l.07.06c1.36.06,1.88-.76,2-1.95l1.74-.2a2.14,2.14,0,0,0,2.19-1.86Z"/><path class="cls-18" d="M96.23,173.26l1.9.13.12,1.86A1.81,1.81,0,0,1,96.23,173.26Z"/><path class="cls-23" d="M103.25,169.42c-.32-.68-.65-1.36-1-2L102,167l3.07-4.79.16.07,1.87-.12.22.21a1.6,1.6,0,0,0,1.76,1.76l.19.19c-.07.62-.13,1.23-.2,1.84Z"/><path class="cls-26" d="M122.08,154.22c0,1.36,0,2.73.08,4.1l-2,.13-1.9-.44c.09-.51.17-1,.26-1.53a2.2,2.2,0,0,0,1.69-2.16h0Z"/><path class="cls-29" d="M118.26,158l1.9.44,0,2.09-1.92-.32Z"/><path class="cls-25" d="M111.21,160.31l2.23.13c-.14.59-.27,1.19-.41,1.78l-1.8.12C111.23,161.66,111.22,161,111.21,160.31Z"/><path class="cls-23" d="M111.21,160.31c0,.68,0,1.35,0,2s-.15,1.17-.23,1.76l-1.76.24-.19-.18a1.62,1.62,0,0,0-1.76-1.77l-.22-.21c.07-.6.13-1.2.19-1.8l-.05-.06,1.86-.16h2Z"/><path class="cls-29" d="M66.36,98.79c.24,1.35-.29,1.93-1.66,1.68a2,2,0,0,0-2.46,2l-1.91.93a2,2,0,0,0-2,2.23c-.26.61-.51,1.23-.77,1.84-1.41,0-2.19.66-2.15,2.13l.07-.07-1.56.81,1.52.86-.07-.09c1.41,4,4.72,1.62,7.17,2.12l3.67.11,2.19,4.37c0,.89-.05,1.78-.08,2.67l-.17,1.94c-2.38.41-1.71,2.42-2,3.9-2.22.64-2,2.41-1.9,4.11h0a1.76,1.76,0,0,0-1.71,2.09l-.19,1.95a1.05,1.05,0,0,0-.22.76c-2.93,3.56-4.09,6.81,1.6,8.81,7.89,2.76,16.47.41,24.34,3.29l8,2.16c1.9.1,3.61.49,4,2.74a2,2,0,0,0-1.88,2.22l0,0a1.74,1.74,0,0,0-2,1.93h0c-1.36,0-2.07.58-2,2h0c-1.34,0-2.19.44-2.09,1.94l0,0-1.92.14c-3.71.82-6.35,3.2-6.67,6.8-.25,2.8,2.78,2,4.63,2.26l.15-.07c3.75,3.91-2.16,6.46-1.41,10l-13.61,0c0-.64,0-1.28,0-1.92,1.77-.87,4.12-2.19,3.47-4-.91-2.54-3.84-3.37-6.49-3.94-5.12-1.61.3-3.43-.1-5.14l.1,0a1.75,1.75,0,0,0,2.09-1.9l1-1.93c2.48.61,3.88-1.54,5.84-2.25l3.94-2c1.39-.14,2.24-.89,1.87-2.29-.52-2-2.28-1.49-3.71-1.57l0,0c-.57-2.45-2.47-1.91-4.15-1.85l-6.85-.11-8.11-.48-6.87-.54c-1.32-2.85-3.92-1.56-6-1.86-4.52-2.09.76-4.09.05-6.14,2.23-.65,2-2.37,1.85-4.11l.13.08c1-.23,2-.59,1.58-1.79-.17-.51-1.16-.74-1.78-1.09l-1.69,0-1.23,0-7.87.65v-2.76l1.84-.23c3.76-.37,8,2,11.16-1.83h0c1.41.13,2.08-.53,2.06-1.92v0c2.4-.48,2-2.34,2-4l.59-3.76,1.69-1.46-2.11-1-4.17-.56c-2.88-4.66-7.45-1.23-11.08-2.33l.84-2a2,2,0,0,0,2.29-1.85,2.32,2.32,0,0,0,2-2,2.27,2.27,0,0,0,2-2,2.28,2.28,0,0,0,2-2,2.14,2.14,0,0,0,1.8-2.41l1.85-.76a2,2,0,0,0,2.19-2.11l0-1.82.41-.08h.42a1.93,1.93,0,0,0,2.18-2.06L60,96.2a2.13,2.13,0,0,0,2.28-1.78l2-2a6.45,6.45,0,0,0,3.94-4,2.28,2.28,0,0,0,1.9-2.24,3.55,3.55,0,0,0,.15-.72l1.87-.22,1.3,3.16-.17,2-.63,2-.34,0c-1.38,0-2,.66-2,2l-.12-.11a1.94,1.94,0,0,0-1.88,2.2l.07-.09C66.88,96.5,66.3,97.37,66.36,98.79Z"/><path class="cls-10" d="M100.1,152.08c-.44-2.25-2.15-2.64-4-2.74.37-1.32-2.76-2.64-.5-3.58s4.26-3.94,7-1.86c2.07,1.55,4.36,1.16,6.54,1.67.72,2.27,2.56,1.71,4.2,1.64l1.83.23c.72,1,1.44,2,2.17,2.95h0a1.86,1.86,0,0,0-2.1,1.92h0a1.93,1.93,0,0,0-2,2.05l-.15,1.85h0a1.86,1.86,0,0,0-2,2h0l-1.84.15a2,2,0,0,0-2,2l.05.06a1.81,1.81,0,0,0-2.06,1.92l-.16-.07a5.16,5.16,0,0,0-4.92,4.84l0,.22-2,.05a2,2,0,0,0-2,2l.07,2.06-.07-.06-2-.06a2,2,0,0,0-2-1.92h0c-1-2.28-2.48-4.42-2-7.11h0a1.82,1.82,0,0,0,1.94-2.08l0,0a1.83,1.83,0,0,0,2.09-1.94h0a1.89,1.89,0,0,0,2-2h0a1.93,1.93,0,0,0,2-1.93l0,0A1.92,1.92,0,0,0,100.1,152.08Z"/><path class="cls-10" d="M62.06,135.08a1.05,1.05,0,0,1,.22-.76,2,2,0,0,0,2-2l0-2.06h0c2.43-.54,2-2.39,1.9-4.11.33-1.48-.34-3.49,2-3.9l2.07,0,0,2-1.36,1,1.35,1c-.68,2.65-1.35,5.29-2,7.94a2.38,2.38,0,0,0-1.55,3.81c1.07,1.76,1.7-.49,2.6-.74,2.31,3.82,5.66,1,8.38,1,4.82,0,10.16,3.18,14.42-1.06a18.77,18.77,0,0,1,10.16-5h.5l.5,0c-.24.76-.48,1.52-.71,2.27l-8,6.84a1.86,1.86,0,0,0-2.12,2h0c-6.61,0-13.24.31-19.8-.18C67.55,142.81,62.49,141.66,62.06,135.08Z"/><path class="cls-18" d="M62.06,135.08c.43,6.58,5.49,7.73,10.41,8.1,6.56.49,13.19.16,19.8.18,0,2.86-4.08,1.17-4.27,3.82-7.87-2.88-16.45-.53-24.34-3.29C58,141.89,59.13,138.64,62.06,135.08Z"/><path class="cls-18" d="M113.32,147.21c-1.64.07-3.48.63-4.2-1.64C110.76,145.49,112.63,144.86,113.32,147.21Z"/><path class="cls-18" d="M117.32,150.39c-.73-1-1.45-2-2.17-2.95l2.78.14c0,.88.11,1.76.17,2.64A1.42,1.42,0,0,1,117.32,150.39Z"/><path class="cls-22" d="M118.1,150.22c-.06-.88-.12-1.76-.17-2.64.61.32,1.62.51,1.77,1C120.11,149.79,119.05,150.05,118.1,150.22Z"/><path class="cls-22" d="M124.26,150.35a1.94,1.94,0,0,1-2,2A1.85,1.85,0,0,1,124.26,150.35Z"/><path class="cls-22" d="M117.17,152.27a2.12,2.12,0,0,1-1.85,2.15l-.26-.25.15-1.86h0Z"/><path class="cls-22" d="M122.08,154.22l-1.86.09a1.94,1.94,0,0,1,2.07-1.92Z"/><path class="cls-22" d="M113.09,156.21l.15-1.85,1.82-.19.26.25A2.08,2.08,0,0,1,113.09,156.21Z"/><path class="cls-22" d="M120.21,154.32a2.2,2.2,0,0,1-1.69,2.16C118.32,155.16,119,154.54,120.21,154.32Z"/><path class="cls-22" d="M111.09,158.19a1.86,1.86,0,0,1,2-2A1.8,1.8,0,0,1,111.09,158.19Z"/><path class="cls-22" d="M109.25,158.34l1.84-.15c0,.65,0,1.31,0,2h-2Z"/><path class="cls-18" d="M92.25,143.37a1.86,1.86,0,0,1,2.12-2A1.84,1.84,0,0,1,92.25,143.37Z"/><path class="cls-18" d="M117.17,152.27l-2,0a1.86,1.86,0,0,1,2.1-1.92C117.26,151,117.22,151.64,117.17,152.27Z"/><path class="cls-21" d="M92.15,169.35a2,2,0,0,1,2,1.92c0,.68,0,1.36,0,2l-1.75,0C92.32,172,92.23,170.67,92.15,169.35Z"/><path class="cls-18" d="M94.15,173.3c0-.67,0-1.35,0-2l2,.06v1.94Z"/><path class="cls-24" d="M40.19,56.29l0,2c-.14.62-.29,1.24-.43,1.86a2,2,0,0,0-1.52,2.16h0a1.91,1.91,0,0,0-1.84,2.32l-.2,1.65c-2.93,1.75-2.43,3.39.57,3.86s5.85,0,8.79,0,5.89.13,8.83,0c2.17-.06,3,.92,2.7,3h0c-1.5,0-2,.75-1.91,2.16l-10,13c-2.12.34-2.17,2.1-2.49,3.66-2.15.7-2.77,2.29-2.54,4.38-1.37,1.95-2.73,3.91-4.1,5.87-2.89.31-4.08,2.09-4.15,4.83-1.51,0-1.91.94-1.77,2.26l-.08,0c-1.39,0-1.93.78-1.83,2.1-.1.61-.19,1.21-.28,1.82l-1,2.11c-2.42,1.59-5.75,3.36-2.53,6.46,1.76,1.7,5.08,1.79,7.7,2.61h0c.7,2.46-1.28,4-2.06,5.95l-6.94,7a2,2,0,0,0-1.91,2.07h0a1.9,1.9,0,0,0-1.94,2.17,1.84,1.84,0,0,1-1.85,1.85,2,2,0,0,0-2.17,2.33L13,150.16l-1,2.4c-4.17-3.92-.71-9-2-13.36l.21-1.91L13,135c3.89-.68,7.54-3.08,7.57-6.56,0-2.65-4.06-4.16-7.4-4.13l-.2.09c-2.64-3.78.06-6.34,2.06-9.06a12.42,12.42,0,0,0,4.32-6,27.1,27.1,0,0,0,8.35-9.08l.54-1.9,0,0c1.57.23,2.1-.56,2-2,2.17-1.4,4-3,4.12-5.87,2.75-3,7.23-4.35,8.06-9l.22.11c2.73-1.22,4.64-3.15,4.47-6.29-.12-2.38-2.4-1.7-3.84-2.15-4.91-3.8-10.6-1-15.86-1.87l-.21-2.94a3,3,0,0,1,.49.13c2.56-.27,2.72-2.07,2.59-4.06l0,0a1.82,1.82,0,0,0,1.89-2.07h0a1.87,1.87,0,0,0,2-2.08l0-.09c2.18-.35,3.3-1.92,4.25-3.69l1.86-.12Z"/><path class="cls-10" d="M13,135l-2.8,2.3q.09-6.49.2-13l2.57.1.2-.09C17.4,127.93,15.7,131.47,13,135Z"/><path class="cls-21" d="M27.72,100.24a27.1,27.1,0,0,1-8.35,9.08c-.65-.71-1.29-1.43-1.93-2.15a5.42,5.42,0,0,1,3.76-3.83l2.11-1Z"/><path class="cls-21" d="M13,124.39l-2.57-.1c.28-3.64-3-9.14,4.63-9C13.05,118.05,10.35,120.61,13,124.39Z"/><path class="cls-10" d="M12.05,152.56l1-2.4,6.26-1.08,1.9.12,1.85.38a2.59,2.59,0,0,0,.12.78l0,1.92,0,0c-6.17-.43-9.06,4.47-12.84,7.93L10,156.35l.06-1.89C11.08,154.21,12,153.88,12.05,152.56Z"/><path class="cls-27" d="M10.33,160.24c3.78-3.46,6.67-8.36,12.84-7.93.57,6.71-6.52,9.35-8,15l-2,.05C8.21,166.61,10.84,162.79,10.33,160.24Z"/><path class="cls-9" d="M13.21,167.34l2-.05c0,.66-.06,1.31-.1,2L13.4,169C13.33,168.46,13.27,167.9,13.21,167.34Z"/><path class="cls-10" d="M15.1,169.26c0-.66.07-1.31.1-2,1.45-5.63,8.54-8.27,8-15l0,0,2.14-.09,1.9.06c.51,3.62-.89,6.3-3.59,8.74-1.87,1.7-4.47,3.13-4.5,6.25l.05.08c-3.54,1-1.51,3.79-1.88,5.81C14.63,173,15.5,170.75,15.1,169.26Z"/><path class="cls-25" d="M30.24,64.39c.13,2,0,3.79-2.59,4.06C28,66.74,28,64.86,30.24,64.39Z"/><path class="cls-25" d="M32.17,62.27a1.82,1.82,0,0,1-1.89,2.07A1.68,1.68,0,0,1,32.17,62.27Z"/><path class="cls-25" d="M34.12,60.2a1.87,1.87,0,0,1-2,2.08l.06-2Z"/><path class="cls-13" d="M19.2,38.3l-2-4a6.48,6.48,0,0,1,6.31-1c5.85,2.56,7.61-2.43,10.72-5l2,0c1.32.31,2.53,1.46,1.75,2.42-3.1,3.77-.68,7.14.32,10.64a2.1,2.1,0,0,1-2,2h-9l-2,0a2,2,0,0,0-2-2h0C22.78,39.07,21,38.64,19.2,38.3Z"/><path class="cls-20" d="M25.19,43.28l2,0c3,3.19,6,3.17,9,0a2.1,2.1,0,0,0,2-2c1.43.31,2.56-2.89,4.1-.48,1.83,2.89-1.86,4.14-2.14,6.44h0a2.09,2.09,0,0,0-2,2c-4.33,2.8-8.66,2.75-13,0a5.53,5.53,0,0,0-4-4h0c-.67-1.33-1.33-2.66-2-4h4A2,2,0,0,0,25.19,43.28Z"/><path class="cls-12" d="M45.23,13.33l2,0c4.95,1,10.45-2.22,15,1.94C58,16.42,53,13,49.21,17.31c-4.66,2.17-3.2,8.23-7,11C42.05,23.06,41.74,17.82,45.23,13.33Z"/><path class="cls-14" d="M42.25,28.28c3.76-2.74,2.3-8.8,7-11l4.07.06c-8.12,6.17-7.41,13.25-2.16,20.81-.52,1.08-2.39,1.27-2,3l-1.9.19c0-1,0-2.06-.07-3.09-.21-3.2-1.13-6-4-7.94Z"/><path class="cls-25" d="M47.24,41.35l1.9-.19a2.4,2.4,0,0,0,2.27,2.24c-.16,2.18-3,3.2-2.43,5.69-1.5,0-1.68,1.18-2,2.23l-1.71.11c-.67-1.27-1.33-2.55-2-3.82v-.28c1.34-.1,1.86-.9,1.83-2.16Z"/><path class="cls-12" d="M43.21,30.32c2.83,1.89,3.75,4.74,4,7.94C43,37,43,33.72,43.21,30.32Z"/><path class="cls-22" d="M45.11,45.17c0,1.26-.49,2.06-1.83,2.16A1.77,1.77,0,0,1,45.11,45.17Z"/><path class="cls-20" d="M36.17,81.28h-2c-.52-2.33-2.38-1.92-4-2-3.64-1-2.42-3.65-2-6l2,0c1.17,3.18,3.95,1.49,6,2l2,4A2.09,2.09,0,0,0,36.17,81.28Z"/><path class="cls-25" d="M30.17,73.34l-2,0-.84-2c5.26.86,11-1.93,15.86,1.87l-1.13.31Z"/><path class="cls-13" d="M36.17,81.28a2.09,2.09,0,0,1,2-2h2l2.17.08.23,2.2-.22-.11Z"/><path class="cls-13" d="M30.18,79.31c1.64.06,3.5-.35,4,2C32.56,81.24,30.69,81.65,30.18,79.31Z"/><path class="cls-22" d="M38.34,56.42c-1,1.77-2.07,3.34-4.25,3.69C34,57.18,36,55.74,38.21,54.46,38.26,55.11,38.3,55.76,38.34,56.42Z"/><path class="cls-11" d="M21.19,45.31a5.53,5.53,0,0,1,4,4C22.2,49.63,20.86,48.31,21.19,45.31Z"/><path class="cls-11" d="M19.19,41.3c.66,1.34,1.32,2.67,2,4q-4.48.5-4-4Z"/><path class="cls-25" d="M38.34,56.42c0-.66-.08-1.31-.13-2L40,53.8l.24,2.5Z"/><path class="cls-26" d="M42,51.18c.13,1.34-.42,2.07-1.83,2C40,51.81,40.46,51,42,51.18Z"/><path class="cls-11" d="M38.18,49.29a2.09,2.09,0,0,1,2-2A2,2,0,0,1,38.18,49.29Z"/><path class="cls-28" d="M27.72,100.24l-4.41,2.14q-1-2-2.09-4l7,0Z"/><path class="cls-28" d="M30.2,96.35c.13,1.45-.4,2.24-2,2A1.79,1.79,0,0,1,30.2,96.35Z"/><path class="cls-17" d="M53.28,17.37l-4.07-.06C53,13,58,16.42,62.2,15.24l2,0v2Z"/><path class="cls-11" d="M23.18,41.3h-4v-3C21,38.64,22.78,39.07,23.18,41.3Z"/><path class="cls-18" d="M70.08,164.23c.4,1.71-5,3.53.1,5.14,3.84,3.76,1.31,5.84-2,7.7l-7.82.48-2-.11c.6-2.9,3-2.06,4.8-2.16,2-.12,3.87-.79,4.22-2.72s-1.34-2.79-3-3.28c0-.64,0-1.28-.08-1.93,1.72-.31,2-1.59,2-3h0Z"/><path class="cls-22" d="M58.32,177.44l2,.11c0,.59,0,1.17,0,1.75l-2,0C58.31,178.71,58.31,178.08,58.32,177.44Z"/><path class="cls-23" d="M60.35,179.3c0-.58,0-1.16,0-1.75l7.82-.48,5,.27c0,.64,0,1.28,0,1.92Z"/><path class="cls-10" d="M70.08,164.23l-3.86.1c3.61-7.75-.27-12.46-10.15-11.25-3.69.45-4.29-1-5-3.51,1.34-.41,2.81,1.12,4.09-.26l6.87.54c1.78,4.36,5.47,1.79,8.31,2.28l1.85.13,1,8.18-1,1.93a1.73,1.73,0,0,0-2.09,1.9Z"/><path class="cls-21" d="M49.3,134.44l1.69,0c.07,1,.13,1.92.2,2.88l-.13-.08c-2.28.62-1.93,2.42-1.85,4.11.71,2.05-4.57,4.05-.05,6.14l0,1.85c-3,.29-4.14-1.13-4-4.09.12-3.62-1.82-6.14-4.9-7.85l-2.15-.11.18-1.76,1.92-.38,7.87-.65Z"/><path class="cls-10" d="M38.1,137.25l2.15.11c-3.88,3.94-.57,7.88,0,11.81l-1.37.4a1.26,1.26,0,0,1-.76-.18c-.54-2.28-2.26-2.19-4-2l-1.79-.26-.15-5.87h0Z"/><path class="cls-18" d="M49.18,149.3l0-1.85c2.11.3,4.71-1,6,1.86-1.28,1.38-2.75-.15-4.09.26Z"/><path class="cls-10" d="M66.22,164.32c0,1.44-.26,2.72-2,3C64.18,165.87,64.37,164.56,66.22,164.32Z"/><path class="cls-21" d="M30.11,130.26c.78-1.95,2.76-3.49,2.06-5.95,1.18.82,2.41,1.59,3.54,2.49,4.08,3.26,12.74,1.88,15.5-2.52l0,0c3.93-2.66,1.11-3.31-1.23-3.94-1.73-.45-4.11.62-4.72-2.2l8-.58,4.17.56.42,2.43c-.2,1.25-.39,2.51-.59,3.76-2.32.52-2,2.33-2,4v0a1.91,1.91,0,0,0-2.06,1.92h0c-3.74.51-7.89-1.52-11.16,1.83l-1.84.23-4,.12-3.95,0A2.61,2.61,0,0,1,30.11,130.26Z"/><path class="cls-7" d="M30.11,130.26a2.61,2.61,0,0,0,2.16,2.23c-.05.58-.11,1.15-.16,1.73-5.64,3.54-8.39,9.18-10.91,15l-1.9-.12c-.13-1.56.21-3.38-2.06-3.78l.23-1.92a1.84,1.84,0,0,0,1.85-1.85,2.19,2.19,0,0,0,1.94-2.17h0a2,2,0,0,0,1.91-2.07Z"/><path class="cls-18" d="M19.16,167.24c0-3.12,2.63-4.55,4.5-6.25,2.7-2.44,4.1-5.12,3.59-8.74l1.12-.15a2.49,2.49,0,0,1,2.05,2.34C28.42,160.25,25.25,165,19.16,167.24Z"/><path class="cls-26" d="M32.15,141.25l.15,5.87c-1.41,0-3.37.47-3.57-1.4C28.48,143.51,29.89,141.89,32.15,141.25Z"/><path class="cls-26" d="M38.1,137.25l-6,4c.21-3.87,2-6.11,6.14-5.76Z"/><path class="cls-22" d="M30.42,154.44a2.49,2.49,0,0,0-2.05-2.34c-.05-.61-.09-1.23-.14-1.85,1.35.1,3-.37,3.66,1.35A1.89,1.89,0,0,1,30.42,154.44Z"/><path class="cls-26" d="M28.23,150.25c.05.62.09,1.24.14,1.85l-1.12.15-1.9-.06a2.07,2.07,0,0,0-2.18-1.83,2.59,2.59,0,0,1-.12-.78Z"/><path class="cls-26" d="M34.09,147.38c1.77-.18,3.49-.27,4,2C36.45,149.38,34.62,149.69,34.09,147.38Z"/><path class="cls-25" d="M32.11,134.22c0-.58.11-1.15.16-1.73l3.95,0C35.59,134.8,33.71,134.17,32.11,134.22Z"/><path class="cls-21" d="M90.09,162.23c-.43,2.69,1,4.83,2,7.11l-3.88-.07-.15.07C87.48,166.61,86,163.63,90.09,162.23Z"/><path class="cls-14" d="M57.18,41.29c.79-2.95,3.17-1.79,5-2C61.41,42.21,59,41.06,57.18,41.29Z"/><path class="cls-14" d="M66.22,38.36a1.9,1.9,0,0,1,2-2C67.87,37.33,68.87,39.61,66.22,38.36Z"/><path class="cls-14" d="M68.21,36.29a1.91,1.91,0,0,1,2-2A1.93,1.93,0,0,1,68.21,36.29Z"/><path class="cls-8" d="M72.15,85.25l-1.87.22c-.11-1.41-.22-2.82-.34-4.23l.19-4a2,2,0,0,0,2.05-2l0,0c5-3.1,10-6,15.87-2l.12,2c-.62,2.53,1.74,4.12,2,6.38.23,2-.29,3.58-2.62,3.89l-.36-.27c.89-4.6-1.24-8-5.2-9.48-3.37-1.29-6.55.35-8.69,3.45l-1.21,6Z"/><path class="cls-17" d="M68.19,75.26c0-1.34.07-2.67.1-4a5.78,5.78,0,0,1,3.92,4l0,0-4,.11Z"/><path class="cls-28" d="M70.13,77.28l-.18,4c-1.26.56-2.49-3.41-3.77,0a7.64,7.64,0,0,1-1.78-.82,4.47,4.47,0,0,0-5.11-.68c-1.44.69-1.23,2.23-1,3.55.3,2.26,2.35,2.06,3.85,2.47a24.12,24.12,0,0,0,3.92.43l.19.15,0,1.86L64,90.28l-2,.1c-5-5.16-10.75-4.63-16.74-2.13l10-13a2,2,0,0,0,1.91-2.16h0l1,.21.19,0c1.85,3.87,5.29,1.36,7.95,2h2v.16A2,2,0,0,0,70.13,77.28Z"/><path class="cls-25" d="M45.53,70.12c-2.94,0-5.94.48-8.79,0s-3.5-2.11-.57-3.86C37.91,70.93,43.48,66.24,45.53,70.12Z"/><path class="cls-25" d="M36.37,64.64a1.91,1.91,0,0,1,1.84-2.32C38.3,63.65,37.83,64.54,36.37,64.64Z"/><path class="cls-15" d="M66.19,75.27c-2.66-.62-6.1,1.89-7.95-2C60.87,74,64.28,71.64,66.19,75.27Z"/><path class="cls-30" d="M68.22,102.31a18.69,18.69,0,0,1,16.93-6,2,2,0,0,1-1.85,2c-3.23.12-1,4.75-4.11,5h-2Z"/><path class="cls-20" d="M83.31,98.35a2,2,0,0,0,1.84-2l2-.11,11.05.13c.65,1.3,1.31,2.59,2,3.89a29.9,29.9,0,0,1-5.43.05C90.92,99.59,86.54,102.31,83.31,98.35Z"/><path class="cls-15" d="M77.19,103.33h2c.67,1.33,1.34,2.66,2,4-2.12,2.41-6.31.69-8,4l-1.13.18-7.73-.41c1.56-3.3,7.29-1,7.77-5.75C73.94,105,76.36,106.17,77.19,103.33Z"/><path class="cls-8" d="M72.65,92.43l.63-2c1.19,0,2.06-.44,2.12-1.8l0-.13c4.41.68,8-1.55,11.84-3.18l.36.27C84.7,92.44,78.59,92.26,72.65,92.43Z"/><path class="cls-18" d="M64.34,111.08l7.73.41c0,1.93.06,3.85.08,5.77l-1.91.06c.27-3-.56-4.85-4.06-4l-3.67-.11c-.16-.56-.31-1.13-.47-1.69Z"/><path class="cls-12" d="M77.19,103.33c-.83,2.84-3.25,1.67-5.08,2l-3.89-3Z"/><path class="cls-24" d="M62,111.49c.16.56.31,1.13.47,1.69-2.45-.5-5.76,1.91-7.17-2.12Z"/><path class="cls-24" d="M66.36,98.79c-.06-1.42.52-2.29,2-2.38C68.5,97.88,67.9,98.74,66.36,98.79Z"/><path class="cls-24" d="M68.32,96.5a1.94,1.94,0,0,1,1.88-2.2C70.24,95.61,69.81,96.5,68.32,96.5Z"/><path class="cls-24" d="M62.24,102.42a2,2,0,0,1,2.46-2C64.62,102.05,63.62,102.48,62.24,102.42Z"/><path class="cls-24" d="M55.41,111.15l-1.52-.86,1.56-.81C55.44,110,55.43,110.59,55.41,111.15Z"/><path class="cls-24" d="M55.38,109.55c0-1.47.74-2.12,2.15-2.13C57.6,108.92,56.86,109.6,55.38,109.55Z"/><path class="cls-22" d="M70.32,94.41c0-1.35.61-2,2-2C72.4,93.82,71.61,94.37,70.32,94.41Z"/><path class="cls-24" d="M58.3,105.58a2,2,0,0,1,2-2.23C60.38,104.75,59.79,105.58,58.3,105.58Z"/><path class="cls-18" d="M102.28,113.25l8.79.2c1.53,2.74,4.2,1.36,6.37,1.77.28,3.35-3.86,4.12-4.18,7.12l-.08-.06-1.9.08c.06-3.15.13-5.75-4.53-5.93-2.07-.07-5.35-.33-6.83-3.06Z"/><path class="cls-22" d="M117.44,115.22c-2.17-.41-4.84,1-6.37-1.77h7C117.86,114,117.65,114.63,117.44,115.22Z"/><path class="cls-29" d="M115,124.19l-1.8.1c0-.67,0-1.34,0-2l.08.06C114.36,122.47,115.07,123,115,124.19Z"/><path class="cls-18" d="M103.13,132.29l-.5,0h-.5c.57-2.56,1.88-4.26,4.77-4.15a5.11,5.11,0,0,0,.48.22A6.43,6.43,0,0,1,103.13,132.29Z"/><path class="cls-26" d="M109.48,126.37c-.33,1.06-.82,1.94-2.1,2a5.11,5.11,0,0,1-.48-.22c.33-1,.81-1.9,2.07-1.94A2.15,2.15,0,0,1,109.48,126.37Z"/><path class="cls-22" d="M111.33,124.43a2.12,2.12,0,0,1-1.85,1.94,2.15,2.15,0,0,0-.51-.15l.3-1.81,1.8-.23Z"/><path class="cls-22" d="M113.18,122.28c0,.67,0,1.34,0,2l-1.85.14-.25-.25.09-1.89.12.07Z"/><path class="cls-11" d="M100.15,100.21c-.66-1.3-1.32-2.59-2-3.89,2.37.57,5.49-1.54,7,2a2.12,2.12,0,0,1-2,2Z"/><path class="cls-8" d="M102.28,113.25l-2.36.12a2,2,0,0,1-1.76-2.14q1.25-1.94,2.51-3.87c2.18-.39,2.26-2.34,2.9-3.88l1.93.11c0,.58-.07,1.17-.11,1.76C104.12,107.89,100.5,109.5,102.28,113.25Z"/><path class="cls-26" d="M105.39,105.35c0-.59.07-1.18.11-1.76l1.68-.17C107.3,104.73,106.59,105.27,105.39,105.35Z"/><path class="cls-12" d="M103.57,103.48c-.64,1.54-.72,3.49-2.91,3.88-3.66,0-7.34.1-11-.15s-4.34,1.09-2.48,4.09c-4.32,2.16-4.18-2.39-6-4-.66-1.33-1.33-2.66-2-4,3.11-.23.88-4.86,4.11-5,3.24,4,7.62,1.24,11.42,1.91a29.9,29.9,0,0,0,5.43-.05l3,.07C103.3,101.35,103.44,102.41,103.57,103.48Z"/><path class="cls-24" d="M58.18,36.25a.68.68,0,0,1-.55.25,2.79,2.79,0,0,1-2.54-2.33c-2.29-5-1-9.16,3.17-12.54l3.69.18.36,2.39-.06,2c-7-.17-5.52,4-4,8.07Z"/><path class="cls-22" d="M58.26,21.63C54.05,25,52.8,29.14,55.09,34.17l-1.81.14C49.26,26.56,51,22.08,58.26,21.63Z"/><path class="cls-23" d="M53.28,34.31l1.81-.14a2.79,2.79,0,0,0,2.54,2.33c-.13,2.6-3.93,2.19-4,4.85-.49,1-.76,2.16-2.23,2a2.4,2.4,0,0,1-2.27-2.24c-.41-1.71,1.46-1.9,2-3C53.29,37.7,53,35.84,53.28,34.31Z"/><path class="cls-25" d="M58.18,36.25c0-.65,0-1.29,0-1.94,1-3,3.82-1.54,5.77-2.24l.42.44A5.67,5.67,0,0,1,58.18,36.25Z"/><path class="cls-22" d="M62.31,24.19,62,21.81c3.45-.52,4.48,1.33,4.31,4.38l-2,.07-.1,0A2,2,0,0,0,62.31,24.19Z"/><path class="cls-25" d="M64.28,26.26l2-.07c-.1,2.26,1.37,5-1.87,6.32L64,32.07C64.07,30.14,64.18,28.2,64.28,26.26Z"/><path class="cls-26" d="M98.22,167.34l2-.05-.09,2-1.74.2-.33-.33Z"/><path class="cls-23" d="M100.08,169.24l.09-2,0-.22,1.85,0,.3.36A2.14,2.14,0,0,1,100.08,169.24Z"/><path class="cls-26" d="M96.3,171.39c0-.69,0-1.38-.07-2.06l1.78-.22.33.33C98.18,170.63,97.66,171.45,96.3,171.39Z"/><path class="cls-21" d="M102,167l-1.85,0a5.16,5.16,0,0,1,4.92-4.84Z"/><path class="cls-26" d="M105.2,162.3a1.81,1.81,0,0,1,2.06-1.92c-.06.6-.12,1.2-.19,1.8Z"/><path class="cls-29" d="M107.29,162.39a1.62,1.62,0,0,1,1.76,1.77A1.61,1.61,0,0,1,107.29,162.39Z"/><path class="cls-18" d="M109.25,158.34l-.18,1.82-1.86.16A2,2,0,0,1,109.25,158.34Z"/><path class="cls-11" d="M45.22,88.25c6-2.5,11.73-3,16.74,2.13.06.61.12,1.22.19,1.83l0,0c-1.39,0-2,.69-1.89,2L60,96.2l.06-.07c-1.52-.16-2.26.52-2.18,2.06h-.42l-.41.08c-5.17,1.07-9.86-1.39-14.8-2l.45-4.34C43.05,90.35,43.1,88.59,45.22,88.25Z"/><path class="cls-28" d="M42.28,96.25c4.94.62,9.63,3.08,14.8,2l0,1.82c-1.4,0-2.23.61-2.19,2.11l-1.85.76-1.93.27c-.13-.1-.26-.2-.4-.29-4.6-5.45-9.44-1.6-14.21-.39l-.44-.38c1.37-2,2.73-3.92,4.1-5.87Z"/><path class="cls-2" d="M73.45,88.41l-1.3-3.16,0,0c1.73-2,4.11-3.37,5-6,2.29-.19,4.82.27,5.22,2.58.47,2.71-2.17,3.64-4.4,4.28-1.3.38-2.62.59-2.54,2.38l0,.12Z"/><path class="cls-18" d="M73.27,160.44l-1-8.18,4.81.22c1,1.78,2.74,3.31,2.08,5.71C77.15,158.9,75.75,161.05,73.27,160.44Z"/><path class="cls-26" d="M73.2,177.34l-5-.27c3.34-1.86,5.87-3.94,2-7.7,2.65.57,5.58,1.4,6.49,3.94C77.32,175.15,75,176.47,73.2,177.34Z"/><path class="cls-22" d="M90.09,162.23c-4.14,1.4-2.61,4.38-2,7.11-1.85-.23-4.88.54-4.63-2.26.32-3.6,3-6,6.67-6.8,0,.65,0,1.29,0,1.94Z"/><path class="cls-24" d="M53.23,117.59l-8,.58-2.86-.39-.44-2.67.22.15C45.78,116.36,50.35,112.93,53.23,117.59Z"/><path class="cls-14" d="M66.18,81.22c1.28-3.39,2.51.58,3.77,0l.33,4.23a3.55,3.55,0,0,1-.15.72l-1.86.14H66.2L66,86.17C66.07,84.52,66.12,82.87,66.18,81.22Z"/><path class="cls-22" d="M42,132.12c3.27-3.35,7.42-1.32,11.16-1.83C50,134.13,45.79,131.75,42,132.12Z"/><path class="cls-22" d="M79.11,158.19c.66-2.4-1.06-3.93-2.08-5.71l.3-.33,3.84.14,0,0c.61,1.29,1.23,2.57,1.84,3.86Z"/><path class="cls-18" d="M70.37,152.13c-2.84-.49-6.53,2.08-8.31-2.28l8.11.48C70.23,150.93,70.3,151.53,70.37,152.13Z"/><path class="cls-21" d="M43,113.23l-.84,2-.22-.15c-2.08.21-1.89,1.61-1.62,3.07-1-.17-3,1-2.7-1.1S39,112.67,42,113.33l.47-.17Z"/><path class="cls-22" d="M70.37,152.13c-.07-.6-.14-1.2-.2-1.8l6.85.11c.1.57.21,1.14.31,1.71l-.3.33-4.81-.22Z"/><path class="cls-27" d="M70.24,117.32l1.91-.06c-.21,1.85.9,4.22-2,5l-2.07,0c.06-.64.11-1.29.17-1.94,1.75-.28,2-1.54,1.93-3Z"/><path class="cls-24" d="M66.18,113.29c3.5-.82,4.33,1,4.06,4l0,0-1.85.31Z"/><path class="cls-23" d="M83.05,156.18c-.61-1.29-1.23-2.57-1.84-3.86,1.43.08,3.19-.4,3.71,1.57C85.29,155.29,84.44,156,83.05,156.18Z"/><path class="cls-24" d="M64,90.28l2.18-2.1,1.88-.07.18.32a6.45,6.45,0,0,1-3.94,4l-.24-.23Z"/><path class="cls-22" d="M49.21,141.31c-.08-1.69-.43-3.49,1.85-4.11C51.26,138.94,51.44,140.66,49.21,141.31Z"/><path class="cls-23" d="M77.33,152.15c-.1-.57-.21-1.14-.31-1.71,1.68-.06,3.58-.6,4.15,1.85Z"/><path class="cls-26" d="M66.08,126.17c.12,1.72.53,3.57-1.9,4.11C64.09,128.58,63.86,126.81,66.08,126.17Z"/><path class="cls-22" d="M55.26,128.35c0-1.68-.35-3.49,2-4C57.26,126,57.66,127.87,55.26,128.35Z"/><path class="cls-24" d="M45.28,111.38A2,2,0,0,1,43,113.23l-.49-.07-.47.17c.18-.59.35-1.17.52-1.76a.7.7,0,0,0,.61-.4h1.9Z"/><path class="cls-18" d="M68.37,117.66l1.85-.31c0,1.44-.18,2.7-1.93,3C68.32,119.44,68.35,118.55,68.37,117.66Z"/><path class="cls-22" d="M57.82,120.58l-.42-2.43,2.11,1Z"/><path class="cls-23" d="M51.19,137.28c-.07-1-.13-1.92-.2-2.88.62.35,1.61.58,1.78,1.09C53.19,136.69,52.14,137.05,51.19,137.28Z"/><path class="cls-24" d="M64.29,92.39l-2,2-.17-.18,0-2,0,0,1.91,0Z"/><path class="cls-21" d="M100.1,152.08a1.92,1.92,0,0,1-1.88,2.22A2,2,0,0,1,100.1,152.08Z"/><path class="cls-21" d="M98.2,154.33a1.93,1.93,0,0,1-2,1.93A1.74,1.74,0,0,1,98.2,154.33Z"/><path class="cls-21" d="M96.16,156.26a1.89,1.89,0,0,1-2,2C94.09,156.84,94.8,156.22,96.16,156.26Z"/><path class="cls-21" d="M94.13,158.23A1.83,1.83,0,0,1,92,160.17C91.94,158.67,92.79,158.18,94.13,158.23Z"/><path class="cls-21" d="M90.13,162.22c0-.65,0-1.29,0-1.94l1.92-.14A1.82,1.82,0,0,1,90.13,162.22Z"/><path class="cls-26" d="M70.18,164.27a1.73,1.73,0,0,1,2.09-1.9A1.75,1.75,0,0,1,70.18,164.27Z"/><path class="cls-22" d="M53.19,130.29a1.91,1.91,0,0,1,2.06-1.92C55.27,129.76,54.6,130.42,53.19,130.29Z"/><path class="cls-18" d="M64.23,132.34a2,2,0,0,1-2,2c.06-.65.13-1.3.19-1.95Z"/><path class="cls-26" d="M64.23,132.34l-1.76,0a1.76,1.76,0,0,1,1.71-2.09C64.2,131,64.21,131.65,64.23,132.34Z"/><path class="cls-22" d="M73.45,88.41l2,.2c-.06,1.37-.93,1.78-2.12,1.81C73.34,89.75,73.4,89.08,73.45,88.41Z"/><path class="cls-24" d="M57.91,98.19c-.08-1.54.66-2.22,2.18-2.06A1.93,1.93,0,0,1,57.91,98.19Z"/><path class="cls-23" d="M68.27,86.33l1.86-.14a2.28,2.28,0,0,1-1.9,2.24l-.18-.32C68.13,87.52,68.2,86.93,68.27,86.33Z"/><path class="cls-24" d="M60,96.2l.18-1.92,1.93,0,.17.18A2.13,2.13,0,0,1,60,96.2Z"/><path class="cls-24" d="M54.92,102.19c0-1.5.79-2.11,2.19-2.11A2,2,0,0,1,54.92,102.19Z"/><path class="cls-24" d="M47.26,109.36a2.32,2.32,0,0,1-2,2l-.22-.22c0-1.3.38-2.2,1.91-2.08Z"/><path class="cls-24" d="M49.25,107.35a2.27,2.27,0,0,1-2,2l-.29-.28c-.09-1.4.49-2.15,2-2Z"/><path class="cls-24" d="M51.27,105.36a2.28,2.28,0,0,1-2,2l-.32-.31c-.1-1.47.63-2.07,2-2Z"/><path class="cls-24" d="M51.14,103.22l1.93-.27a2.14,2.14,0,0,1-1.8,2.41l-.3-.28Z"/><path class="cls-22" d="M49.3,134.44l-1.23,0Z"/><path class="cls-18" d="M115.06,154.17l-1.82.19a1.93,1.93,0,0,1,2-2.05Z"/><path class="cls-21" d="M98,169.11l-1.78.22a2,2,0,0,1,2-2Z"/><path class="cls-19" d="M70.19,122.29c2.86-.81,1.75-3.18,2-5,0-1.92-.05-3.84-.08-5.77l1.13-.18c4.94,4.88,4.67,9.9.82,15.36-1.82,2.57-.92,5.21,1.67,6.89,5.07,3.27,21-3.83,23-9.72,1.69-4.9-2.86-8.11-2.51-12.48l2-.13a2,2,0,0,0,1.76,2.14c1.48,2.73,4.76,3,6.83,3.06,4.66.18,4.59,2.78,4.53,5.93l-.12-.07a1.94,1.94,0,0,0-1.89,2.12l-.3,1.81c-1.26,0-1.74.91-2.07,1.94-2.89-.11-4.2,1.59-4.77,4.15a18.77,18.77,0,0,0-10.16,5c-4.26,4.24-9.6,1-14.42,1.06-2.72,0-6.07,2.79-8.38-1l-1-3.07c.67-2.65,1.34-5.29,2-7.94,0-.68,0-1.36,0-2Z"/><path class="cls-27" d="M68.12,134.27l1,3.07c-.9.25-1.53,2.5-2.6.74A2.38,2.38,0,0,1,68.12,134.27Z"/><path class="cls-27" d="M70.15,124.29c0,.68,0,1.36,0,2l-1.35-1Z"/><path class="cls-19" d="M42.55,111.57c-.17.59-.34,1.17-.52,1.76-3.08-.66-4.13,1.54-4.42,3.75s1.69.93,2.7,1.1l2.06-.4,2.86.39c.61,2.82,3,1.75,4.72,2.2,2.34.63,5.16,1.28,1.23,3.94-.35-.46-.69-.93-1-1.4l-.34.34,1.4,1c-2.76,4.4-11.42,5.78-15.5,2.52-1.13-.9-2.36-1.67-3.54-2.49h0c-1.6-2.35-3.21-4.69-4.81-7,1.65-.25,4.16.84,4.51-1.69.38-2.79-2.29-2.08-3.9-2.46.09-.61.18-1.21.28-1.82a1.7,1.7,0,0,0,1.83-2.1l.08,0,1.92-.16A2.33,2.33,0,0,0,34,111.3Z"/><path class="cls-14" d="M34,111.3a2.33,2.33,0,0,1-1.94-2.21l-.15-2.1c.07-2.74,1.26-4.52,4.15-4.83l.44.38c-.58,2.45,1,2.61,2.81,2.89,4.16.62,7.72-1.11,11.4-2.5.14.09.27.19.4.29,0,.62-.11,1.24-.17,1.86-1.41-.11-2.14.49-2,2-1.47-.11-2,.64-2,2-1.53-.12-1.94.78-1.91,2.08h-1.9Q38.53,106.52,34,111.3Z"/><path class="cls-26" d="M13,135c2.68-3.52,4.38-7.06.17-10.69,3.34,0,7.43,1.48,7.4,4.13C20.56,131.91,16.91,134.31,13,135Z"/><path class="cls-21" d="M27.37,117.29c1.6,2.34,3.21,4.68,4.81,7-2.62-.82-5.94-.91-7.7-2.61-3.22-3.1.11-4.87,2.53-6.46Z"/><path class="cls-8" d="M42.6,81.57l-.24-2.2.89-2.06,1.42-1-2.33-1.17-.24-1.75,1.13-.31c1.44.45,3.72-.23,3.84,2.15C47.24,78.42,45.33,80.35,42.6,81.57Z"/><path class="cls-26" d="M17.24,145.3c2.27.4,1.93,2.22,2.06,3.78L13,150.16l2.26-4.46Z"/><path class="cls-12" d="M27.37,117.29l-.36-2,1-2.11c1.61.38,4.28-.33,3.9,2.46C31.53,118.13,29,117,27.37,117.29Z"/><path class="cls-8" d="M42.28,96.25l-2.09,0c-.23-2.09.39-3.68,2.54-4.38Z"/><path class="cls-23" d="M23.17,137.29a2,2,0,0,1-1.91,2.07A2,2,0,0,1,23.17,137.29Z"/><path class="cls-23" d="M21.26,139.36a2.19,2.19,0,0,1-1.94,2.17A1.9,1.9,0,0,1,21.26,139.36Z"/><path class="cls-29" d="M17.24,145.3l-1.94.4a2,2,0,0,1,2.17-2.32C17.39,144,17.32,144.66,17.24,145.3Z"/><path class="cls-26" d="M30.09,109.22a1.7,1.7,0,0,1-1.83,2.1C28.16,110,28.7,109.23,30.09,109.22Z"/><path class="cls-18" d="M31.94,107l.15,2.1-1.92.16C30,107.93,30.43,107,31.94,107Z"/><path class="cls-14" d="M57.08,73.13a2,2,0,0,1-1.91,2.16C55,73.88,55.58,73.09,57.08,73.13Z"/><path class="cls-21" d="M23.17,150.36a2.07,2.07,0,0,1,2.18,1.83l-2.14.09C23.2,151.64,23.18,151,23.17,150.36Z"/><path class="cls-11" d="M36.21,43.31c-3,3.16-6,3.18-9,0Z"/><path class="cls-11" d="M25.19,43.28a2,2,0,0,1-2-2A2,2,0,0,1,25.19,43.28Z"/><path class="cls-12" d="M42.1,73.44l.24,1.75-6.16.13c-2.06-.49-4.84,1.2-6-2Z"/><path class="cls-11" d="M36.18,75.32l6.16-.13,2.33,1.17c-.48.31-1,.63-1.42,1-1.44,0-2.79.15-3,2h-2Z"/><path class="cls-20" d="M40.2,79.29c.26-1.83,1.61-2,3-2l-.89,2.06Z"/><path class="cls-25" d="M75.37,88.49c-.08-1.79,1.24-2,2.54-2.38,2.23-.64,4.87-1.57,4.4-4.28-.4-2.31-2.93-2.77-5.22-2.58l-3.77,0c2.14-3.1,5.32-4.74,8.69-3.45,4,1.52,6.09,4.88,5.2,9.48C83.41,86.94,79.78,89.17,75.37,88.49Z"/><path class="cls-23" d="M73.32,79.28l3.77,0c-.87,2.66-3.25,4.07-5,6C72.51,83.28,72.92,81.28,73.32,79.28Z"/><path class="cls-14" d="M70.13,77.28a2,2,0,0,1-1.93-1.86l4-.11A2,2,0,0,1,70.13,77.28Z"/><path class="cls-15" d="M66.18,81.22c-.06,1.65-.11,3.3-.17,5a24.12,24.12,0,0,1-3.92-.43c-1.5-.41-3.55-.21-3.85-2.47-.18-1.32-.39-2.86,1-3.55a4.47,4.47,0,0,1,5.11.68A7.64,7.64,0,0,0,66.18,81.22Z"/><path class="cls-14" d="M64.05,92.16l-1.91,0L62,90.38l2-.1Z"/><path class="cls-8" d="M68.27,86.33c-.07.6-.14,1.19-.22,1.78l-1.88.07,0-1.86Z"/><path class="cls-30" d="M96.21,111.36c-.35,4.37,4.2,7.58,2.51,12.48-2,5.89-18,13-23,9.72-2.59-1.68-3.49-4.32-1.67-6.89,3.85-5.46,4.12-10.48-.82-15.36,1.68-3.3,5.87-1.58,8-4,1.82,1.59,1.68,6.14,6,4Z"/><path class="cls-10" d="M109.27,124.41a1.94,1.94,0,0,1,1.89-2.12l-.09,1.89Z"/><path class="cls-11" d="M96.21,111.36l-9-.06c-1.86-3-1.3-4.34,2.48-4.09s7.33.12,11,.15l-2.5,3.87Z"/><path class="cls-29" d="M64.28,26.26c-.1,1.94-.21,3.88-.31,5.81-1.95.7-4.72-.75-5.77,2.24-1.47-4.1-3-8.24,4-8.07h1.93Z"/><path class="cls-23" d="M64.18,26.23H62.25l.06-2A2,2,0,0,1,64.18,26.23Z"/><path class="cls-14" d="M62.14,94.24l-1.93,0c-.07-1.34.5-2.07,1.89-2C62.12,92.92,62.13,93.58,62.14,94.24Z"/><path class="cls-13" d="M50.74,102.93c-3.68,1.39-7.24,3.12-11.4,2.5-1.83-.28-3.39-.44-2.81-2.89C41.3,101.33,46.14,97.48,50.74,102.93Z"/><path class="cls-22" d="M42.37,117.78l-2.06.4c-.27-1.46-.46-2.86,1.62-3.07C42.07,116,42.22,116.89,42.37,117.78Z"/><path class="cls-11" d="M34,111.3q4.5-4.77,9.13-.13a.7.7,0,0,1-.61.4Z"/><path class="cls-21" d="M51.21,124.28l-1.4-1,.34-.34c.34.47.68.94,1,1.4Z"/></g></g></svg>